<?xml version="1.0" encoding="UTF-8" standalone="no"?>
<svg
   xmlns:dc="http://purl.org/dc/elements/1.1/"
   xmlns:cc="http://creativecommons.org/ns#"
   xmlns:rdf="http://www.w3.org/1999/02/22-rdf-syntax-ns#"
   xmlns:svg="http://www.w3.org/2000/svg"
   xmlns="http://www.w3.org/2000/svg"
   xmlns:sodipodi="http://sodipodi.sourceforge.net/DTD/sodipodi-0.dtd"
   xmlns:inkscape="http://www.inkscape.org/namespaces/inkscape"
   version="1.1"
   id="svg5255"
   xml:space="preserve"
   width="1786.7733"
   height="1300.0001"
   viewBox="0 0 1786.7734 1300.0001"
   sodipodi:docname="bride-groom.svg"
   inkscape:version="1.0.1 (3bc2e813f5, 2020-09-07)"><metadata
     id="metadata5261"><rdf:RDF><cc:Work
         rdf:about=""><dc:format>image/svg+xml</dc:format><dc:type
           rdf:resource="http://purl.org/dc/dcmitype/StillImage" /><dc:title></dc:title></cc:Work></rdf:RDF></metadata><defs
     id="defs5259"><clipPath
       clipPathUnits="userSpaceOnUse"
       id="clipPath5271"><path
         d="M 0,1000 H 1000 V 0 H 0 Z"
         id="path5269" /></clipPath><clipPath
       clipPathUnits="userSpaceOnUse"
       id="clipPath6721"><path
         d="M 0,1000 H 1000 V 0 H 0 Z"
         id="path6719" /></clipPath></defs><sodipodi:namedview
     pagecolor="#ffffff"
     bordercolor="#666666"
     borderopacity="1"
     objecttolerance="10"
     gridtolerance="10"
     guidetolerance="10"
     inkscape:pageopacity="0"
     inkscape:pageshadow="2"
     inkscape:window-width="2400"
     inkscape:window-height="1271"
     id="namedview5257"
     showgrid="false"
     inkscape:zoom="0.62250004"
     inkscape:cx="666.66659"
     inkscape:cy="644.34015"
     inkscape:window-x="-9"
     inkscape:window-y="0"
     inkscape:window-maximized="1"
     inkscape:current-layer="g5263"
     fit-margin-top="0"
     fit-margin-left="0"
     fit-margin-right="0"
     fit-margin-bottom="0" /><g
     id="g5263"
     inkscape:groupmode="layer"
     inkscape:label="icons wedding all"
     transform="matrix(1.3333333,0,0,-1.3333333,-3.1167566e-5,1333.3334)"><g
       id="g5265"
       transform="matrix(1.4260364,0,0,1.4260364,-430.36049,-200.51776)"><g
         id="g5267"
         clip-path="url(#clipPath5271)"><g
           id="g5273"
           transform="translate(426.8906,839.0054)"><path
             d="m 0,0 c 7.9,-22.104 17.135,-46.181 12.327,-69.993 -0.511,-2.528 3.479,-2.85 3.985,-0.349 C 21.253,-45.869 11.758,-21.054 3.638,1.665 2.768,4.099 -0.86,2.407 0,0"
             style="fill:#000000;fill-opacity:1;fill-rule:nonzero;stroke:none"
             id="path5275" /></g><g
           id="g5277"
           transform="translate(569.3254,840.5117)"><path
             d="m 0,0 c -8.124,-22.73 -17.532,-47.526 -12.588,-72.011 0.51,-2.529 4.454,-1.855 3.943,0.674 -4.806,23.801 4.515,47.896 12.412,69.989 C 4.634,1.079 0.87,2.435 0,0"
             style="fill:#000000;fill-opacity:1;fill-rule:nonzero;stroke:none"
             id="path5279" /></g><g
           id="g5281"
           transform="translate(500.678,158.1641)"><path
             d="M 0,0 C 9.363,0.483 18.063,4.037 27.043,6.401 37.229,9.083 47.066,8.1 57.29,6.328 73.535,3.513 89.454,-0.019 106.045,0.336 c 16.797,0.36 32.242,5.512 48.631,8.191 14.162,2.314 26.716,-2.156 40.141,-5.625 1.287,-0.332 3.1,0.639 2.646,2.221 -7.33,25.561 -0.707,53.26 -1.933,79.388 -0.753,16.045 -2.766,32.224 -4.266,48.222 -1.479,15.775 -3.553,31.423 -6.59,46.975 -11.506,58.913 -34.287,113.881 -60.032,167.806 -10.67,22.35 -22.586,44.154 -36.518,64.65 -7.242,10.653 -15.159,20.853 -23.838,30.374 -3.807,4.176 -7.813,8.188 -11.996,11.988 -2.161,1.963 -4.36,3.875 -6.609,5.738 -1.108,0.918 -2.243,1.803 -3.378,2.689 -1.718,1.339 -0.238,5.658 0.151,7.34 3.423,14.796 7.995,29.106 14.271,42.952 6.407,14.135 13.074,28.131 19.178,42.408 4.101,9.593 9.163,19.63 11.459,29.848 1.845,8.211 -0.078,15.718 -8.107,19.411 -15.555,7.155 -34.487,9.107 -51.344,7.062 -10.835,-1.315 -24.543,-6.732 -30.027,-16.742 0.607,0.286 1.214,0.572 1.821,0.857 h -0.499 c 0.548,-0.386 1.097,-0.773 1.645,-1.16 -4.637,8.464 -14.145,12.819 -23.016,15.463 -11.374,3.391 -24.054,2.725 -35.646,0.976 -6.72,-1.014 -13.289,-2.886 -19.669,-5.195 -4.291,-1.553 -8.767,-3.575 -10.689,-8.04 -3.49,-8.107 0.412,-17.49 3.579,-25.063 5.091,-12.174 10.426,-24.235 15.577,-36.382 6.031,-14.223 13.325,-27.776 18.435,-42.396 2.557,-7.315 4.598,-14.798 6.296,-22.356 0.739,-3.29 2.44,-7.5 -0.74,-9.981 -2.673,-2.084 -5.24,-4.3 -7.768,-6.556 -9.153,-8.17 -17.333,-17.424 -24.932,-27.037 -15.91,-20.125 -28.937,-42.474 -40.626,-65.258 -12.17,-23.719 -23.516,-48.092 -33.733,-72.708 -11.954,-28.801 -21.82,-58.481 -29.204,-88.78 -7.416,-30.432 -10.858,-61.141 -13.458,-92.298 -0.777,-9.31 -2.039,-18.672 -2.37,-28.005 -0.294,-8.274 0.157,-16.575 0.554,-24.839 0.807,-16.814 2.453,-34.603 -2.253,-51.015 -0.379,-1.321 0.663,-3.047 2.22,-2.646 13.191,3.409 25.348,7.659 39.276,5.892 7.834,-0.994 15.46,-3.362 23.152,-5.075 8.664,-1.929 17.465,-2.987 26.333,-3.294 16.135,-0.557 31.856,2.875 47.633,5.724 10.993,1.984 21.464,2.973 32.437,0.239 9.04,-2.252 17.806,-6.279 27.25,-6.32 2.562,-0.011 2.931,3.974 0.348,3.985 -10.276,0.045 -20.072,4.756 -29.995,6.99 -9.103,2.05 -18.327,1.162 -27.422,-0.374 -17.216,-2.908 -34.015,-6.809 -51.601,-6.2 -16.909,0.585 -32.551,6.377 -49.16,8.484 -13.668,1.734 -25.972,-2.76 -38.925,-6.107 0.741,-0.882 1.481,-1.763 2.221,-2.645 7.252,25.29 1.054,52.552 1.971,78.379 0.564,15.885 2.7,31.958 4.155,47.794 1.453,15.811 3.433,31.515 6.42,47.113 11.424,59.654 34.567,115.349 60.718,169.853 11.037,23.002 23.423,45.433 38.072,66.347 7.541,10.767 15.806,21.048 24.944,30.503 4.102,4.245 8.443,8.252 12.952,12.06 1.767,1.491 4.687,2.987 5.992,4.877 1.323,1.918 0.733,5.231 0.423,7.319 -2.08,14.029 -7.313,28.299 -12.802,41.301 -6.041,14.312 -12.92,28.343 -19.277,42.525 -4.612,10.288 -9.848,21.184 -12.925,32.067 -1.272,4.5 -1.97,9.661 0.776,13.743 1.713,2.548 5.115,3.51 7.81,4.542 4.342,1.661 8.832,2.874 13.362,3.892 11.312,2.542 23.841,3.343 35.274,1.12 8.813,-1.713 19.866,-6.021 24.393,-14.283 0.325,-0.594 0.912,-1.16 1.644,-1.16 h 0.499 c 0.672,0 1.467,0.209 1.822,0.857 4.981,9.092 16.9,13.283 26.565,14.944 14.818,2.549 31.02,-0.013 45.092,-4.819 5.944,-2.029 10.992,-4.316 11.252,-11.273 0.194,-5.165 -1.877,-10.376 -3.75,-15.09 C 75.649,564.922 70.455,553.322 65.368,541.691 59.175,527.528 52.01,513.76 46.659,499.245 c -2.53,-6.862 -4.621,-13.877 -6.419,-20.962 -1.175,-4.633 -4.191,-12.221 -2.028,-16.942 0.795,-1.737 3.742,-3.188 5.198,-4.371 2.507,-2.037 4.923,-4.185 7.294,-6.377 4.777,-4.415 9.251,-9.15 13.564,-14.015 8.576,-9.673 16.247,-20.132 23.413,-30.879 13.926,-20.886 25.581,-43.26 36.216,-65.97 12.711,-27.137 25.146,-54.242 35.198,-82.508 10.499,-29.525 18.631,-59.899 23.951,-90.784 2.731,-15.852 4.117,-31.932 5.483,-47.947 1.322,-15.483 3.438,-31.087 3.191,-46.636 -0.353,-22.18 -4.427,-45.694 1.8,-67.405 0.881,0.739 1.763,1.48 2.645,2.22 C 183.9,9.838 172.457,13.918 159.524,13.11 152.078,12.645 144.792,10.612 137.578,8.849 128.257,6.57 118.894,5.025 109.309,4.442 91.795,3.376 74.758,7.28 57.638,10.313 48.327,11.963 39.278,12.909 29.914,11.157 19.554,9.218 9.969,4.493 -0.674,3.943 -3.252,3.81 -2.542,-0.131 0,0"
             style="fill:#000000;fill-opacity:1;fill-rule:nonzero;stroke:none"
             id="path5283" /></g><g
           id="g5285"
           transform="translate(468.0991,616.1528)"><path
             d="m 0,0 c -13.43,-25.605 -23.844,-52.569 -33.471,-79.793 -9.842,-27.829 -19.969,-55.652 -28.948,-83.771 -8.15,-25.522 -12.952,-51.418 -17.256,-77.797 -3.777,-23.156 -5.752,-46.338 -5.795,-69.81 -0.002,-1.29 1.998,-1.29 2,0 0.043,23.754 2.115,47.155 5.938,70.587 4.234,25.957 9.103,51.358 17.041,76.488 8.703,27.551 18.752,54.745 28.326,82.004 9.717,27.666 20.254,55.08 33.892,81.082 C 2.325,0.131 0.599,1.142 0,0"
             style="fill:#000000;fill-opacity:1;fill-rule:nonzero;stroke:none"
             id="path5287" /></g><g
           id="g5289"
           transform="translate(485.3318,612.5806)"><path
             d="m 0,0 c -12.633,-39.286 -21.772,-79.554 -29.155,-120.128 -3.546,-19.486 -6.582,-39.051 -9.617,-58.621 -2.115,-13.637 -5.107,-27.671 -5.264,-41.517 -0.014,-1.29 1.986,-1.289 2,0 0.161,14.173 3.256,28.499 5.422,42.465 3.057,19.714 6.162,39.413 9.733,59.042 7.267,39.933 16.378,79.568 28.81,118.228 C 2.325,0.7 0.393,1.223 0,0"
             style="fill:#000000;fill-opacity:1;fill-rule:nonzero;stroke:none"
             id="path5291" /></g><g
           id="g5293"
           transform="translate(530.0923,615.1431)"><path
             d="m 0,0 c 13.642,-26.008 24.145,-53.421 33.892,-81.083 9.604,-27.253 19.536,-54.476 28.326,-82.003 8.015,-25.102 12.778,-50.547 17.042,-76.488 3.849,-23.423 5.894,-46.842 5.937,-70.588 0.002,-1.289 2.002,-1.29 2,0 -0.042,23.48 -2.048,46.644 -5.795,69.811 -4.27,26.395 -9.185,52.248 -17.256,77.796 -8.89,28.143 -19.139,55.936 -28.948,83.772 C 25.603,-51.554 15.154,-24.589 1.727,1.01 1.128,2.152 -0.598,1.141 0,0"
             style="fill:#000000;fill-opacity:1;fill-rule:nonzero;stroke:none"
             id="path5295" /></g><g
           id="g5297"
           transform="translate(512.658,612.0493)"><path
             d="m 0,0 c 12.436,-38.672 21.487,-78.296 28.809,-118.228 3.51,-19.138 6.539,-38.355 9.508,-57.584 2.231,-14.445 5.482,-29.264 5.647,-43.922 0.015,-1.289 2.015,-1.29 2,0 -0.156,13.844 -3.147,27.88 -5.263,41.516 -3.037,19.571 -6.098,39.13 -9.617,58.621 C 23.757,-79.021 14.558,-38.743 1.929,0.531 1.535,1.754 -0.396,1.231 0,0"
             style="fill:#000000;fill-opacity:1;fill-rule:nonzero;stroke:none"
             id="path5299" /></g><g
           id="g5301"
           transform="translate(499.6292,610.9814)"><path
             d="m 0,0 c -0.068,-32.908 -3.369,-65.691 -4.262,-98.572 -0.895,-33.01 -2.337,-65.995 -3.832,-98.982 -1.499,-33.077 -3.395,-66.18 -4.094,-99.285 -0.684,-32.396 0.14,-64.801 0.187,-97.198 0,-0.654 10e-4,-1.309 10e-4,-1.963 0,-1.29 2,-1.29 2,0 -0.016,32.402 -0.795,64.804 -0.225,97.205 0.582,33.093 2.54,66.192 4.041,99.253 1.498,32.996 2.994,65.994 3.87,99.014 0.873,32.876 4.108,65.657 4.31,98.553 C 1.997,-1.317 1.999,-0.658 2,0 2.003,1.29 0.003,1.29 0,0"
             style="fill:#000000;fill-opacity:1;fill-rule:nonzero;stroke:none"
             id="path5303" /></g><g
           id="g5305"
           transform="translate(522.0842,634.9814)"><path
             d="m 0,0 c -0.129,17.042 -2.414,33.364 0.829,50.301 2.775,14.494 8.138,28.031 18.461,38.742 0.895,0.928 -0.518,2.344 -1.414,1.414 C 7.65,79.847 2.374,66.822 -0.75,52.541 -4.603,34.924 -2.135,17.789 -2,0 -1.99,-1.289 0.01,-1.29 0,0"
             style="fill:#000000;fill-opacity:1;fill-rule:nonzero;stroke:none"
             id="path5307" /></g><g
           id="g5309"
           transform="translate(541.6318,724.4658)"><path
             d="m 0,0 c 4.587,13.089 16.429,24.027 27.624,31.652 l -1.368,1.369 C 22.975,27.279 19.992,21.37 16.479,15.762 12.15,8.852 5.39,5.114 -1.469,1.129 -2.583,0.481 -1.577,-1.247 -0.46,-0.598 c 6.137,3.565 12.409,6.947 16.828,12.657 4.677,6.044 7.837,13.341 11.615,19.952 0.474,0.83 -0.51,1.953 -1.368,1.368 C 14.945,25.431 2.852,14.172 -1.929,0.531 -2.356,-0.689 -0.424,-1.209 0,0"
             style="fill:#000000;fill-opacity:1;fill-rule:nonzero;stroke:none"
             id="path5311" /></g><g
           id="g5313"
           transform="translate(525.781,696.3516)"><path
             d="m 0,0 c 1.739,3.379 3.341,6.814 5.405,10.012 2.269,3.515 6.483,5.711 9.934,7.915 5.485,3.503 10.262,7.257 14.161,12.531 -0.621,0.168 -1.242,0.336 -1.863,0.505 C 26.781,22.969 24.502,18.314 17.414,14.197 10.783,10.346 3.799,6.82 -1.571,1.212 -2.462,0.281 -1.05,-1.135 -0.156,-0.202 6.35,6.594 15.163,9.716 22.599,15.167 c 5.259,3.855 6.381,9.664 7.038,15.796 0.118,1.102 -1.346,1.205 -1.864,0.505 C 22.831,24.784 16.056,20.976 9.341,16.372 3.721,12.519 1.319,6.927 -1.727,1.01 -2.316,-0.135 -0.59,-1.147 0,0"
             style="fill:#000000;fill-opacity:1;fill-rule:nonzero;stroke:none"
             id="path5315" /></g><g
           id="g5317"
           transform="translate(522.5405,686.8447)"><path
             d="m 0,0 c -4.836,3.492 -5.019,12.452 -5.169,17.795 -0.223,7.916 1.088,15.843 2.046,23.675 -0.655,-0.089 -1.309,-0.178 -1.964,-0.266 2.416,-7.765 3.728,-15.495 3.507,-23.631 -0.169,-6.195 -0.669,-12.25 0.075,-18.436 0.152,-1.264 2.154,-1.279 2,0 C -0.293,5.685 0.272,12.134 0.45,18.694 0.665,26.586 -0.821,34.224 -3.158,41.735 -3.514,42.879 -4.99,42.55 -5.123,41.47 -6.261,32.165 -7.767,22.757 -6.968,13.359 -6.536,8.293 -5.427,1.463 -1.009,-1.727 0.039,-2.483 1.035,-0.747 0,0"
             style="fill:#000000;fill-opacity:1;fill-rule:nonzero;stroke:none"
             id="path5319" /></g><g
           id="g5321"
           transform="translate(521.6387,657.2354)"><path
             d="m 0,0 c -0.568,15.387 11.261,25.821 19.309,37.574 -0.621,0.169 -1.242,0.337 -1.863,0.505 C 17.13,30.634 14.686,24.197 10.388,18.15 6.233,12.304 2.167,6.442 -1.864,0.505 c -0.726,-1.07 1.008,-2.07 1.728,-1.01 8.157,12.016 18.938,23.406 19.582,38.584 0.044,1.061 -1.337,1.274 -1.864,0.505 C 9.294,26.48 -2.584,15.822 -2,0 -1.953,-1.286 0.048,-1.291 0,0"
             style="fill:#000000;fill-opacity:1;fill-rule:nonzero;stroke:none"
             id="path5323" /></g><g
           id="g5325"
           transform="translate(520.5889,646.5112)"><path
             d="m 0,0 c -12.681,7.295 -12.119,27.181 -14.874,39.736 -0.642,-0.177 -1.285,-0.354 -1.928,-0.531 2.696,-7.544 7.201,-14.228 10.099,-21.684 1.16,-2.985 1.309,-6.279 1.844,-9.413 0.526,-3.087 1.776,-5.902 3.201,-8.662 0.592,-1.147 2.317,-0.134 1.727,1.01 -3.206,6.207 -2.994,12.837 -5.472,19.214 -2.688,6.915 -6.966,13.059 -9.471,20.066 -0.431,1.208 -2.207,0.738 -1.928,-0.531 C -13.905,25.998 -14.4,5.977 -1.009,-1.727 0.111,-2.371 1.117,-0.643 0,0"
             style="fill:#000000;fill-opacity:1;fill-rule:nonzero;stroke:none"
             id="path5327" /></g><g
           id="g5329"
           transform="translate(542.771,726.3779)"><path
             d="m 0,0 c 4.526,4.217 7.855,9.578 12.289,13.948 4.5,4.436 8.639,9.283 11.789,14.778 0.321,0.561 -0.543,1.064 -0.863,0.505 C 19.865,23.388 15.381,18.399 10.605,13.692 6.498,9.644 3.486,4.613 -0.707,0.707 -1.18,0.267 -0.471,-0.439 0,0"
             style="fill:#000000;fill-opacity:1;fill-rule:nonzero;stroke:none"
             id="path5331" /></g><g
           id="g5333"
           transform="translate(527.771,699.8779)"><path
             d="m 0,0 c 3.765,4.859 8.96,7.519 13.703,11.231 4.801,3.756 9.422,8.237 12.375,13.62 0.31,0.566 -0.553,1.07 -0.863,0.505 C 22.275,19.999 17.69,15.755 12.996,11.938 8.256,8.083 3.118,5.644 -0.707,0.707 -1.097,0.204 -0.395,-0.509 0,0"
             style="fill:#000000;fill-opacity:1;fill-rule:nonzero;stroke:none"
             id="path5335" /></g><g
           id="g5337"
           transform="translate(520.8997,688.6143)"><path
             d="m 0,0 c -1.834,6.58 -1.179,13.442 -0.862,20.182 0.284,6.036 -0.665,11.304 -1.4,17.235 -0.078,0.632 -1.079,0.64 -1,0 0.804,-6.485 1.625,-12.452 1.316,-19.031 C -2.242,12.103 -2.67,5.855 -0.964,-0.266 -0.792,-0.886 0.173,-0.622 0,0"
             style="fill:#000000;fill-opacity:1;fill-rule:nonzero;stroke:none"
             id="path5339" /></g><g
           id="g5341"
           transform="translate(519.3606,648.335)"><path
             d="m 0,0 c -2.182,2.593 -4.074,5.25 -5.636,8.25 -1.813,3.484 -1.984,7.567 -2.908,11.326 -1.141,4.635 -3.572,9.014 -3.899,13.838 -0.043,0.64 -1.044,0.644 -1,0 0.366,-5.4 3.047,-10.499 4.33,-15.713 C -8.271,14.28 -7.93,10.999 -6.5,7.746 -5.128,4.626 -2.884,1.88 -0.707,-0.707 -0.291,-1.201 0.412,-0.49 0,0"
             style="fill:#000000;fill-opacity:1;fill-rule:nonzero;stroke:none"
             id="path5343" /></g><g
           id="g5345"
           transform="translate(521.8997,659.2236)"><path
             d="m 0,0 c 4.618,11.588 13.525,21.036 17.5,32.875 0.206,0.613 -0.76,0.874 -0.964,0.266 C 12.566,21.316 3.652,11.85 -0.964,0.266 -1.203,-0.334 -0.236,-0.592 0,0"
             style="fill:#000000;fill-opacity:1;fill-rule:nonzero;stroke:none"
             id="path5347" /></g><g
           id="g5349"
           transform="translate(479.8342,634.9814)"><path
             d="M 0,0 C 0.067,8.87 0.937,17.701 1.235,26.563 1.531,35.366 0.512,43.932 -1.25,52.541 -4.167,66.79 -9.729,79.93 -19.876,90.457 -20.772,91.387 -22.185,89.971 -21.29,89.043 -10.89,78.252 -5.802,64.825 -2.829,50.301 0.622,33.44 -1.871,16.983 -2,0 -2.01,-1.29 -0.01,-1.289 0,0"
             style="fill:#000000;fill-opacity:1;fill-rule:nonzero;stroke:none"
             id="path5351" /></g><g
           id="g5353"
           transform="translate(460.2153,724.9971)"><path
             d="m 0,0 c -4.781,13.641 -16.874,24.9 -28.543,32.848 -0.859,0.585 -1.843,-0.538 -1.368,-1.369 3.775,-6.606 7.11,-13.487 11.458,-19.75 4.099,-5.902 10.94,-9.347 16.984,-12.858 1.117,-0.649 2.124,1.079 1.009,1.727 -6.359,3.694 -12.817,7.173 -17.108,13.354 -4.054,5.839 -7.096,12.377 -10.616,18.537 l -1.368,-1.368 C -18.357,23.496 -6.516,12.558 -1.929,-0.531 -1.505,-1.74 0.428,-1.22 0,0"
             style="fill:#000000;fill-opacity:1;fill-rule:nonzero;stroke:none"
             id="path5355" /></g><g
           id="g5357"
           transform="translate(475.8645,697.3613)"><path
             d="m 0,0 c -3.087,5.997 -5.5,11.362 -11.068,15.362 -6.648,4.774 -13.445,8.351 -18.432,15.096 -0.518,0.701 -1.982,0.597 -1.864,-0.505 0.664,-6.202 1.802,-11.559 6.836,-15.64 7.244,-5.871 16.349,-8.623 22.957,-15.525 0.894,-0.933 2.306,0.483 1.415,1.414 -4.969,5.19 -11.447,8.874 -17.703,12.281 -3.179,1.731 -6.332,3.588 -8.515,6.551 -2.241,3.042 -2.603,7.307 -2.99,10.919 -0.621,-0.168 -1.242,-0.336 -1.863,-0.505 3.902,-5.278 8.678,-9.018 14.161,-12.531 3.576,-2.291 7.37,-4.445 9.934,-7.915 C -4.898,5.979 -3.439,2.317 -1.727,-1.01 -1.137,-2.157 0.589,-1.145 0,0"
             style="fill:#000000;fill-opacity:1;fill-rule:nonzero;stroke:none"
             id="path5359" /></g><g
           id="g5361"
           transform="translate(478.3872,685.1182)"><path
             d="M 0,0 C 4.493,3.244 5.383,9.979 5.958,15.085 7.005,24.385 5.24,33.989 4.114,43.196 3.981,44.277 2.505,44.605 2.149,43.462 -0.205,35.897 -1.571,28.351 -1.46,20.42 -1.367,13.849 -0.714,7.428 -1.505,0.863 c -0.153,-1.279 1.848,-1.263 2,0 C 1.239,7.036 0.804,13.115 0.571,19.3 0.265,27.41 1.673,35.203 4.078,42.931 3.423,43.019 2.768,43.108 2.114,43.196 3.077,35.321 4.201,27.473 4.16,19.521 4.133,14.229 3.747,5.161 -1.009,1.727 -2.044,0.979 -1.048,-0.757 0,0"
             style="fill:#000000;fill-opacity:1;fill-rule:nonzero;stroke:none"
             id="path5363" /></g><g
           id="g5365"
           transform="translate(480.2798,657.2354)"><path
             d="m 0,0 c 0.584,15.822 -11.294,26.48 -19.582,38.584 -0.527,0.769 -1.908,0.556 -1.864,-0.505 0.644,-15.178 11.425,-26.568 19.582,-38.584 0.72,-1.06 2.454,-0.06 1.728,1.01 -3.727,5.489 -7.242,11.099 -11.279,16.371 -4.846,6.328 -7.691,13.187 -8.031,21.203 -0.621,-0.168 -1.242,-0.336 -1.863,-0.505 C -13.261,25.821 -1.432,15.387 -2,0 -2.048,-1.291 -0.047,-1.286 0,0"
             style="fill:#000000;fill-opacity:1;fill-rule:nonzero;stroke:none"
             id="path5367" /></g><g
           id="g5369"
           transform="translate(480.3389,644.7847)"><path
             d="M 0,0 C 13.39,7.703 12.896,27.725 15.793,40.931 16.072,42.2 14.296,42.67 13.864,41.462 11.36,34.456 7.082,28.312 4.394,21.397 1.915,15.02 2.127,8.389 -1.078,2.182 -1.668,1.038 0.057,0.026 0.649,1.172 3.687,7.056 3.597,13.151 5.694,19.247 8.291,26.801 13.099,33.393 15.793,40.931 15.15,41.108 14.507,41.285 13.864,41.462 11.11,28.908 11.671,9.022 -1.009,1.727 -2.127,1.084 -1.12,-0.645 0,0"
             style="fill:#000000;fill-opacity:1;fill-rule:nonzero;stroke:none"
             id="path5371" /></g><g
           id="g5373"
           transform="translate(457.8545,727.085)"><path
             d="m 0,0 c -4.203,3.916 -7.153,8.968 -11.312,12.985 -4.81,4.646 -9.274,9.721 -12.61,15.539 -0.32,0.559 -1.184,0.056 -0.863,-0.505 3.165,-5.522 7.324,-10.274 11.789,-14.778 C -8.627,8.834 -5.223,3.5 -0.707,-0.707 -0.236,-1.146 0.473,-0.44 0,0"
             style="fill:#000000;fill-opacity:1;fill-rule:nonzero;stroke:none"
             id="path5375" /></g><g
           id="g5377"
           transform="translate(472.8545,700.585)"><path
             d="m 0,0 c -3.346,4.318 -7.486,6.667 -11.836,9.798 -5.445,3.92 -10.838,8.931 -14.086,14.851 -0.31,0.565 -1.174,0.061 -0.863,-0.505 2.77,-5.048 6.971,-9.086 11.331,-12.771 4.94,-4.176 10.703,-6.861 14.747,-12.08 C -0.313,-1.216 0.39,-0.503 0,0"
             style="fill:#000000;fill-opacity:1;fill-rule:nonzero;stroke:none"
             id="path5379" /></g><g
           id="g5381"
           transform="translate(479.9832,688.3486)"><path
             d="m 0,0 c 1.724,6.186 1.111,12.314 0.982,18.651 -0.086,4.228 -0.397,8.186 0.19,12.412 0.307,2.219 0.85,4.395 1.126,6.62 0.079,0.639 -0.922,0.631 -1,0 C 0.563,31.757 -0.43,26.482 -0.103,20.448 0.263,13.73 0.862,6.818 -0.964,0.266 -1.138,-0.356 -0.173,-0.621 0,0"
             style="fill:#000000;fill-opacity:1;fill-rule:nonzero;stroke:none"
             id="path5383" /></g><g
           id="g5385"
           transform="translate(481.2649,647.6279)"><path
             d="m 0,0 c 4.907,5.831 6.832,11.074 8.406,18.408 1.136,5.296 3.961,10.26 4.33,15.713 0.044,0.644 -0.957,0.64 -1,0 C 11.412,29.342 9.09,24.851 7.837,20.283 7.08,17.523 6.812,14.675 6.096,11.913 5.009,7.724 2.009,3.935 -0.707,0.707 -1.119,0.217 -0.416,-0.494 0,0"
             style="fill:#000000;fill-opacity:1;fill-rule:nonzero;stroke:none"
             id="path5387" /></g><g
           id="g5389"
           transform="translate(478.9832,659.4893)"><path
             d="m 0,0 c -4.617,11.584 -13.53,21.05 -17.5,32.875 -0.204,0.608 -1.17,0.347 -0.964,-0.266 C -14.49,20.771 -5.583,11.322 -0.964,-0.266 -0.729,-0.857 0.239,-0.6 0,0"
             style="fill:#000000;fill-opacity:1;fill-rule:nonzero;stroke:none"
             id="path5391" /></g><g
           id="g5393"
           transform="translate(455.6997,627.9937)"><path
             d="m 0,0 c 4.952,-3.232 10.273,-4.721 16.079,-5.563 7.227,-1.048 14.57,-1.879 21.854,-2.389 15.528,-1.085 31.12,0.544 46.163,4.468 2.482,0.648 1.822,4.594 -0.673,3.943 C 69.767,-3.103 55.882,-4.65 41.775,-4.151 35.444,-3.927 29.198,-3.061 22.916,-2.324 15.611,-1.468 8.594,-0.833 2.271,3.294 0.117,4.7 -2.166,1.414 0,0"
             style="fill:#000000;fill-opacity:1;fill-rule:nonzero;stroke:none"
             id="path5395" /></g><g
           id="g5397"
           transform="translate(456.7852,619.0981)"><path
             d="m 0,0 c 13.428,-5.97 27.309,-7.29 41.846,-7.727 13.975,-0.419 28.647,0.482 41.16,7.291 2.257,1.228 0.601,4.871 -1.664,3.639 C 69.365,-3.315 55.555,-4.045 42.195,-3.742 28.035,-3.42 14.418,-2.044 1.348,3.767 -1.009,4.814 -2.347,1.043 0,0"
             style="fill:#000000;fill-opacity:1;fill-rule:nonzero;stroke:none"
             id="path5399" /></g><g
           id="g5401"
           transform="translate(541.8425,624.8076)"><path
             d="m 0,0 c 2.924,10.793 11.956,22.952 24.396,21.947 3.627,-0.293 3.352,-3.904 1.75,-6.262 C 24.352,13.042 20.914,11.314 18.198,9.849 11.671,6.326 4.418,4.531 -2.216,1.243 c -2.31,-1.145 -0.645,-4.784 1.665,-3.639 9.03,4.477 19.001,6.594 27.104,12.871 4.39,3.4 7.424,10.917 1.494,14.455 -4.606,2.747 -11.97,0.427 -16.263,-1.937 C 4.092,18.757 -1.525,9.623 -3.767,1.348 -4.436,-1.123 -0.676,-2.497 0,0"
             style="fill:#000000;fill-opacity:1;fill-rule:nonzero;stroke:none"
             id="path5403" /></g><g
           id="g5405"
           transform="translate(540.7961,622.2598)"><path
             d="M 0,0 C 10.961,1.361 31.849,8.427 39.011,-3.859 41.007,-7.284 34.014,-7.59 32.35,-7.584 28.83,-7.572 25.308,-6.195 22.044,-5.008 15.372,-2.581 8.91,-0.354 2.087,1.605 -0.377,2.313 -1.748,-1.448 0.739,-2.162 c 5.064,-1.453 10.025,-2.689 14.943,-4.637 4.568,-1.81 9.057,-3.555 13.892,-4.502 5.019,-0.983 12.691,-0.01 13.778,5.917 C 44.638,1.633 33.589,5.557 28.754,6.484 19.088,8.339 8.877,5.129 -0.674,3.943 -3.242,3.625 -2.55,-0.316 0,0"
             style="fill:#000000;fill-opacity:1;fill-rule:nonzero;stroke:none"
             id="path5407" /></g><g
           id="g5409"
           transform="translate(544.7961,617.2598)"><path
             d="m 0,0 c 7.262,1.338 13.597,-3.664 18.783,-8.107 5.504,-4.716 10.817,-10.1 15.637,-15.508 5.333,-5.983 10.245,-11.519 18.067,-14.097 7.935,-2.615 16.432,-0.177 23.508,3.614 2.267,1.215 0.609,4.857 -1.664,3.639 -9.527,-5.104 -19.746,-6.063 -28.665,0.863 -5.8,4.504 -10.411,10.986 -15.623,16.18 C 22.129,-5.528 11.804,6.243 -0.674,3.943 -3.214,3.476 -2.536,-0.467 0,0"
             style="fill:#000000;fill-opacity:1;fill-rule:nonzero;stroke:none"
             id="path5411" /></g></g></g><g
       id="g6717"
       clip-path="url(#clipPath6721)"
       transform="matrix(1.5874691,0,0,1.5874691,185.68058,-281.23469)"><g
         id="g6723"
         transform="translate(406.2061,788.7061)"><path
           d="m 0,0 c -17.927,-6.633 -36.035,-12.803 -54.176,-18.821 -10.143,-3.365 -20.315,-6.651 -30.548,-9.728 -3.795,-1.141 -7.603,-2.239 -11.429,-3.27 -3.857,-1.039 -6.357,-1.082 -8.833,-4.382 -13.872,-18.487 -19.498,-42.563 -23.168,-64.945 -3.99,-24.333 -6.1,-49.723 -4.922,-74.362 1.385,-28.957 8.547,-57.181 15.356,-85.23 3.468,-14.287 6.782,-28.61 9.343,-43.092 2.728,-15.423 2.505,-31.194 1.364,-46.759 -1.122,-15.309 -3.37,-30.516 -5.345,-45.731 -1.946,-14.994 -2.905,-30.057 -4.624,-45.072 -1.728,-15.096 -3.803,-30.148 -3.854,-45.372 -0.024,-6.969 0.519,-13.93 1.536,-20.822 0.562,-3.817 1.406,-7.585 2.347,-11.324 0.473,-1.879 3.238,-2.501 4.761,-3.222 12.965,-6.139 28.087,-12.112 42.683,-11.301 2.578,0.143 1.869,4.085 -0.674,3.944 -15.029,-0.835 -30.936,6.277 -44.124,12.799 0.432,-0.516 0.865,-1.031 1.298,-1.546 -7.802,30.99 -0.797,61.899 1.65,93.059 2.38,30.321 8.551,60.308 9.112,90.773 0.541,29.332 -7.535,57.814 -14.384,86.089 -6.97,28.777 -12.997,57.774 -12.778,87.527 0.164,22.188 2.479,44.85 6.525,66.653 2.111,11.376 5.081,22.61 9.255,33.408 1.932,4.999 4.24,9.842 6.885,14.5 1.949,3.432 4.171,8.672 8.1,9.644 16.888,4.179 33.46,9.897 49.951,15.394 16.86,5.619 33.689,11.383 50.358,17.55 C 4.09,-2.741 2.401,0.888 0,0"
           style="fill:#000000;fill-opacity:1;fill-rule:nonzero;stroke:none"
           id="path6725" /></g><g
         id="g6727"
         transform="translate(331.1802,231.562)"><path
           d="m 0,0 c -11.04,4.438 -23.111,6.619 -34.898,7.86 l 1.818,-2.167 c 0,9.461 0.65,18.954 0.625,28.445 -0.007,2.56 -3.991,2.931 -3.984,0.348 0.024,-9.49 -0.625,-18.984 -0.625,-28.444 0,-1.104 0.662,-2.045 1.817,-2.167 C -23.764,2.667 -12.102,0.556 -1.349,-3.767 1.045,-4.729 2.392,-0.961 0,0"
           style="fill:#000000;fill-opacity:1;fill-rule:nonzero;stroke:none"
           id="path6729" /></g><g
         id="g6731"
         transform="translate(468.6265,757.9268)"><path
           d="m 0,0 c -2.271,-24.686 -4.374,-49.393 -5.499,-74.162 -1.058,-23.314 -1.265,-46.662 -1.638,-69.994 -0.041,-2.566 3.944,-2.932 3.986,-0.349 0.366,22.934 0.599,45.878 1.585,68.796 1.082,25.169 3.244,50.278 5.55,75.36 C 4.221,2.223 0.236,2.57 0,0"
           style="fill:#000000;fill-opacity:1;fill-rule:nonzero;stroke:none"
           id="path6733" /></g><g
         id="g6735"
         transform="translate(487.8125,769.2319)"><path
           d="m 0,0 c -2.308,-4.132 -4.707,-8.954 -8.946,-11.398 -5.975,-3.445 -10.702,7.593 -12.606,11.095 -1.227,2.257 -4.87,0.6 -3.638,-1.665 3.189,-5.863 6.621,-13.42 14.18,-13.952 6.955,-0.491 11.56,8.737 14.304,13.649 C 4.539,-0.042 1.26,2.256 0,0"
           style="fill:#000000;fill-opacity:1;fill-rule:nonzero;stroke:none"
           id="path6737" /></g><g
         id="g6739"
         transform="translate(481.3105,757.4155)"><path
           d="m 0,0 c 2.19,-23.792 4.336,-47.6 5.498,-71.468 1.082,-22.217 1.262,-44.473 1.618,-66.709 0.04,-2.555 4.026,-2.929 3.984,-0.349 -0.355,22.207 -0.582,44.424 -1.605,66.613 C 8.376,-47.67 6.167,-23.487 3.943,0.674 3.707,3.249 -0.235,2.549 0,0"
           style="fill:#000000;fill-opacity:1;fill-rule:nonzero;stroke:none"
           id="path6741" /></g><g
         id="g6743"
         transform="translate(420.0386,791.8472)"><path
           d="m 0,0 c 4.216,-7.445 6.555,-15.455 9.482,-23.434 2.871,-7.824 6.491,-15.338 8.949,-23.32 0.442,-1.434 1.958,-2.215 3.257,-1.196 6.903,5.415 13.621,11.989 19.558,18.451 5.591,6.088 11.324,12.532 15.291,19.831 1.217,2.239 -2.061,4.54 -3.294,2.271 -3.697,-6.803 -8.96,-12.777 -14.098,-18.517 -2.615,-2.92 -5.394,-5.396 -8.296,-8.011 -3.988,-3.593 -7.496,-7.638 -11.732,-10.96 1.086,-0.399 2.172,-0.798 3.258,-1.196 -2.435,7.906 -5.698,15.506 -8.806,23.163 C 10.213,-14.651 8.076,-6.17 3.639,1.665 2.375,3.896 -1.27,2.243 0,0"
           style="fill:#000000;fill-opacity:1;fill-rule:nonzero;stroke:none"
           id="path6745" /></g><g
         id="g6747"
         transform="translate(530.396,793.8154)"><path
           d="m 0,0 c -4.303,-7.598 -6.73,-15.75 -9.718,-23.896 -2.931,-7.99 -6.592,-15.665 -9.102,-23.816 1.007,0.325 2.013,0.649 3.019,0.973 -6.72,5.272 -13.374,11.79 -19.16,18.09 -5.342,5.815 -10.856,12.013 -14.643,18.982 -1.227,2.257 -4.87,0.601 -3.638,-1.665 3.98,-7.324 9.645,-13.744 15.216,-19.888 6.027,-6.646 12.895,-13.275 19.954,-18.813 0.994,-0.78 2.653,-0.215 3.019,0.973 2.382,7.736 5.612,15.175 8.653,22.667 3.29,8.105 5.343,16.438 9.694,24.122 C 4.553,-0.048 1.274,2.249 0,0"
           style="fill:#000000;fill-opacity:1;fill-rule:nonzero;stroke:none"
           id="path6749" /></g><g
         id="g6751"
         transform="translate(533.6118,794.2622)"><path
           d="M 0,0 C -1.754,4.346 -4.183,8.352 -6.953,12.12 -7.522,11.027 -8.091,9.934 -8.66,8.842 -8.641,8.84 -8.622,8.839 -8.604,8.838 c -0.49,1.043 -0.981,2.085 -1.472,3.128 -9.722,-13.458 -30.954,-19.774 -46.822,-19.774 -15.784,0 -36.83,6.587 -46.463,19.924 -0.399,-1.086 -0.797,-2.172 -1.196,-3.257 0.019,10e-4 0.037,10e-4 0.057,0.003 -0.662,1.036 -1.323,2.072 -1.984,3.108 -2.768,-3.764 -5.152,-7.79 -6.903,-12.129 -0.966,-2.392 2.802,-3.738 3.766,-1.347 1.627,4.03 3.861,7.711 6.431,11.204 1.12,1.525 -0.375,3.206 -1.984,3.108 -0.019,-10e-4 -0.038,-0.002 -0.056,-0.004 -1.644,-0.1 -1.987,-2.161 -1.196,-3.257 10.461,-14.481 32.903,-21.337 50.002,-21.337 17.018,0 39.268,7.125 49.642,21.487 0.869,1.204 0.017,3.037 -1.473,3.128 -0.018,10e-4 -0.037,0.002 -0.056,0.003 -1.809,0.111 -2.733,-1.881 -1.707,-3.278 C -7.45,6.057 -5.261,2.356 -3.638,-1.665 -2.67,-4.064 0.961,-2.381 0,0"
           style="fill:#000000;fill-opacity:1;fill-rule:nonzero;stroke:none"
           id="path6753" /></g><g
         id="g6755"
         transform="translate(420.9424,796.5825)"><path
           d="m 0,0 c -18.571,-9.55 -35.496,-20.686 -52.12,-33.287 -0.962,-0.729 -0.977,-2.572 0.15,-3.179 8.078,-4.353 16.402,-8.202 24.795,-11.904 -0.204,1.139 -0.408,2.277 -0.612,3.416 -11.777,-7.738 -22.005,-17.64 -33.333,-26 -0.956,-0.706 -0.809,-1.95 -0.247,-2.818 24.583,-37.954 41.011,-80.245 57.028,-122.316 8.151,-21.41 16.278,-42.829 25.403,-63.848 9.04,-20.824 18.733,-41.338 26.793,-62.576 0.918,-2.418 4.548,-0.731 3.639,1.665 -8.06,21.235 -17.716,41.771 -26.794,62.576 -9.163,20.999 -17.256,42.44 -25.403,63.847 -16.153,42.445 -32.806,84.94 -57.601,123.223 -0.082,-0.939 -0.165,-1.878 -0.247,-2.818 11.327,8.361 21.555,18.262 33.334,26 1.376,0.904 0.615,2.875 -0.612,3.416 -8.075,3.561 -16.099,7.242 -23.872,11.431 0.05,-1.06 0.1,-2.12 0.15,-3.18 16.335,12.382 32.965,23.33 51.214,32.713 C 3.956,-2.46 2.294,1.179 0,0"
           style="fill:#000000;fill-opacity:1;fill-rule:nonzero;stroke:none"
           id="path6757" /></g><g
         id="g6759"
         transform="translate(419.8916,795.437)"><path
           d="m 0,0 c -10.051,-23.904 -6.004,-49.897 -1.589,-74.597 5.068,-28.351 8.435,-56.981 13.724,-85.286 5.29,-28.313 13.817,-55.871 21.04,-83.717 3.021,-11.645 5.582,-23.354 9.023,-34.888 3.756,-12.585 7.614,-25.128 10.867,-37.856 0.636,-2.487 4.582,-1.825 3.943,0.674 -5.912,23.131 -13.133,45.857 -18.939,69.023 -7.002,27.932 -15.601,55.435 -21.267,83.698 -5.46,27.235 -8.424,54.929 -13.241,82.282 -4.612,26.19 -10.523,53.804 0.206,79.319 C 4.767,1.031 0.998,2.374 0,0"
           style="fill:#000000;fill-opacity:1;fill-rule:nonzero;stroke:none"
           id="path6761" /></g><g
         id="g6763"
         transform="translate(529.9165,793.9307)"><path
           d="m 0,0 c 11.372,-27.043 4.164,-57.031 -0.851,-84.691 -5.621,-31.001 -8.322,-62.492 -15.879,-93.136 -5.884,-23.858 -11.336,-47.631 -18.634,-71.126 -6.484,-20.872 -14.219,-41.322 -21.508,-61.92 -0.859,-2.429 2.905,-3.785 3.767,-1.348 7.497,21.186 15.39,42.224 22.058,63.692 7.668,24.689 13.537,49.749 19.416,74.905 7.106,30.403 9.758,61.618 15.443,92.282 5.056,27.275 11,56.435 -0.173,83.007 C 2.636,4.049 -0.996,2.37 0,0"
           style="fill:#000000;fill-opacity:1;fill-rule:nonzero;stroke:none"
           id="path6765" /></g><g
         id="g6767"
         transform="translate(303.6035,751.5928)"><path
           d="m 0,0 c 11.717,-61.93 32.681,-121.737 42.347,-184.1 5.112,-32.983 6.932,-65.879 4.485,-99.183 -1.194,-16.24 -3.067,-32.423 -4.729,-48.618 -1.676,-16.328 -2.673,-32.696 -4.087,-49.044 -2.51,-29.013 -5.186,-57.734 -5.557,-86.873 -0.308,-24.181 -3.471,-47.967 -7.947,-71.703 -0.126,-0.666 0.308,-1.467 0.857,-1.821 19.142,-12.363 43.649,-16.292 66.031,-17.06 18.406,-0.632 36.198,0.937 48.961,15.533 11.839,13.538 16.168,32.834 18.993,50.088 3.123,19.074 3.781,38.432 5.002,57.689 l 0.064,0.988 c 0.167,2.573 -3.817,2.927 -3.985,0.349 -1.141,-17.578 -1.831,-35.183 -4.173,-52.658 -2.319,-17.304 -6.102,-35.656 -16.167,-50.275 -4.426,-6.43 -10.399,-11.495 -17.618,-14.492 -8.944,-3.713 -19.799,-3.44 -29.294,-3.275 -22.055,0.384 -46.7,4.237 -65.543,16.407 0.285,-0.607 0.571,-1.215 0.857,-1.822 4.873,25.842 7.894,51.581 7.998,77.894 0.13,32.976 4.713,65.621 6.879,98.478 2.144,32.53 7.09,64.819 8.472,97.406 1.363,32.164 -2.2,64.366 -7.759,96.012 C 33.96,-112.425 14.822,-56.825 3.943,0.674 3.463,3.211 -0.479,2.534 0,0"
           style="fill:#000000;fill-opacity:1;fill-rule:nonzero;stroke:none"
           id="path6769" /></g><g
         id="g6771"
         transform="translate(608.0127,424.4258)"><path
           d="m 0,0 c -2.846,27.494 -6.303,54.952 -5.825,82.648 0.492,28.457 4.546,57.064 10.091,84.942 10.651,53.553 29.007,105.232 39.173,158.906 0.48,2.536 -3.509,2.86 -3.984,0.349 C 29.29,273.177 11.106,221.456 0.281,167.938 -5.361,140.045 -9.135,111.465 -9.81,82.997 -10.473,54.989 -6.821,27.123 -3.943,-0.674 -3.677,-3.248 0.264,-2.55 0,0"
           style="fill:#000000;fill-opacity:1;fill-rule:nonzero;stroke:none"
           id="path6773" /></g><g
         id="g6775"
         transform="translate(531.4517,792.8799)"><path
           d="m 0,0 c 18.203,-9.073 34.835,-19.722 51.206,-31.75 0.101,1.155 0.202,2.31 0.303,3.466 -7.934,-4.144 -16.106,-7.792 -24.334,-11.309 -1.374,-0.587 -1.579,-2.653 -0.303,-3.466 11.751,-7.483 22.015,-17.105 33.334,-25.202 -0.171,0.928 -0.341,1.855 -0.512,2.783 -32.501,-48.687 -48.594,-105.428 -72.577,-158.305 -13.139,-28.971 -27.68,-57.48 -43.037,-85.332 -3.22,-5.84 -7.105,-11.519 -9.287,-17.852 -2.118,-6.146 -2.314,-12.913 -2.392,-19.344 -0.159,-13.019 -0.033,-26.049 -0.083,-39.07 -0.098,-25.951 0.099,-51.9 0.03,-77.85 -0.06,-22.957 4.913,-44.791 9.441,-67.19 2.412,-11.935 5.355,-23.562 11.02,-34.417 5.713,-10.949 15.215,-18.18 25.45,-24.647 19.84,-12.537 46.109,-11.578 68.46,-8.567 16.261,2.191 33.004,6.558 46.908,15.537 0.563,0.364 0.804,1.246 0.686,1.869 -3.201,16.978 -5.897,34.031 -7.129,51.275 -1.197,16.729 -0.66,33.511 -1.643,50.252 -0.152,2.578 -4.093,1.87 -3.944,-0.673 1.516,-25.804 0.859,-51.344 4.585,-77.014 1.005,-6.923 2.209,-13.817 3.472,-20.697 0.64,-3.484 -1.844,-3.961 -4.591,-5.386 -2.751,-1.427 -5.62,-2.621 -8.505,-3.745 -11.612,-4.525 -24.094,-6.849 -36.441,-8.198 -11.738,-1.282 -23.692,-1.366 -35.409,0.163 -13.787,1.799 -26.158,8.638 -36.759,17.355 -10.484,8.621 -15.849,21.552 -19.258,34.357 -3.542,13.305 -6.017,27.085 -8.619,40.6 -3.996,20.751 -3.549,41.17 -3.719,62.181 -0.224,27.521 0.007,55.041 0.032,82.562 0.006,6.303 -0.133,12.614 0.305,18.906 0.593,8.5 3.776,14.988 7.882,22.289 7.588,13.493 14.782,27.204 21.796,41.002 13.764,27.077 26.873,54.414 38.246,82.588 17.24,42.707 32.634,86.52 58.374,125.079 0.613,0.918 0.386,2.142 -0.511,2.783 -11.319,8.097 -21.583,17.718 -33.333,25.202 -0.102,-1.155 -0.203,-2.311 -0.304,-3.466 8.228,3.517 16.399,7.164 24.334,11.308 1.361,0.712 1.57,2.535 0.303,3.466 C 36.822,-16.219 19.862,-5.461 1.349,3.767 -0.955,4.915 -2.284,1.139 0,0"
           style="fill:#000000;fill-opacity:1;fill-rule:nonzero;stroke:none"
           id="path6777" /></g><g
         id="g6779"
         transform="translate(608.0386,588.5972)"><path
           d="m 0,0 c 4.161,-9.551 7.879,-19.212 10.719,-29.242 3.012,-10.64 5.344,-21.397 8.811,-31.913 3.147,-9.546 6.168,-19.306 10.41,-28.428 2.634,-5.662 10.137,-17.168 5.705,-23.034 -15.189,-20.101 -29.976,-40.571 -46.709,-59.436 -13.095,-14.765 -25.596,-29.404 -36.18,-46.132 -1.374,-2.171 1.911,-4.458 3.294,-2.272 10.863,17.17 23.769,32.14 37.208,47.292 8.551,9.64 16.499,19.778 24.341,29.997 4.181,5.448 8.305,10.939 12.43,16.43 1.858,2.473 3.715,4.948 5.575,7.422 1.543,2.054 4.133,4.425 4.964,6.886 2.041,6.046 -2.105,13.703 -4.485,19.07 -4.19,9.45 -7.753,18.876 -11.146,28.661 -4.124,11.891 -6.925,24.024 -10.274,36.13 C 11.793,-18.197 7.933,-8.193 3.639,1.665 2.606,4.036 -1.027,2.359 0,0"
           style="fill:#000000;fill-opacity:1;fill-rule:nonzero;stroke:none"
           id="path6781" /></g><g
         id="g6783"
         transform="translate(546.188,785.0034)"><path
           d="m 0,0 c 17.928,-6.633 36.035,-12.802 54.177,-18.821 9.955,-3.302 19.94,-6.523 29.979,-9.561 3.868,-1.17 7.748,-2.297 11.647,-3.361 1.575,-0.43 3.157,-0.838 4.743,-1.23 2.909,-0.72 4.485,-4.054 6.122,-6.411 8.119,-11.691 12.798,-25.563 16.757,-39.104 4.138,-14.159 7.898,-28.448 11.723,-42.694 8.416,-31.34 16.793,-62.746 24.443,-94.283 7.445,-30.691 12.133,-62.711 15.239,-94.129 0.733,-7.409 1.012,-14.86 1.503,-22.288 0.238,-3.609 0.894,-7.295 0.481,-10.903 -0.417,-3.645 -2.55,-7.075 -4.518,-10.058 -3.483,-5.281 -8.049,-9.831 -12.395,-14.389 -4.514,-4.735 -8.769,-9.702 -13.101,-14.603 -12.523,-14.168 -25.981,-27.386 -38.738,-41.323 -13.832,-15.11 -26.974,-30.852 -40.259,-46.44 -2.99,-3.507 -5.974,-7.024 -9.03,-10.475 1.156,-0.101 2.311,-0.203 3.466,-0.303 -4.481,13.041 -13.385,24.769 -21.445,35.781 -7.463,10.198 -15.726,19.831 -23.008,30.154 -1.488,2.108 -4.54,-0.48 -3.065,-2.572 6.776,-9.604 14.427,-18.606 21.446,-28.035 8.451,-11.355 17.785,-23.463 22.435,-36.994 0.553,-1.61 2.575,-1.309 3.465,-0.303 12.232,13.819 23.943,28.1 36.057,42.023 12.376,14.225 25.704,27.45 38.512,41.267 7.815,8.431 15.217,17.231 22.97,25.715 7.593,8.307 16.892,16.237 20.526,27.244 1.761,5.331 0.379,11.333 0.02,16.773 -0.534,8.078 -0.899,16.157 -1.774,24.209 -1.709,15.727 -4.147,31.447 -6.555,47.08 -4.912,31.887 -13.256,62.88 -21.318,94.076 -7.706,29.82 -15.279,59.752 -24.061,89.278 -3.628,12.198 -8.043,24.382 -14.939,35.153 -2.477,3.87 -4.919,9.185 -9.611,10.32 -3.77,0.913 -7.503,1.98 -11.227,3.06 C 70.429,-20.276 50.448,-13.463 30.533,-6.594 20.774,-3.229 11.029,0.185 1.349,3.767 -1.07,4.661 -2.423,0.896 0,0"
           style="fill:#000000;fill-opacity:1;fill-rule:nonzero;stroke:none"
           id="path6785" /></g><g
         id="g6787"
         transform="translate(598.5093,319.3691)"><path
           d="m 0,0 c -5.172,-4.927 -10.537,-10.149 -16.749,-13.755 0.788,-0.179 1.576,-0.356 2.365,-0.534 -10.405,13.969 -23.147,26.756 -35.536,38.958 0.038,-0.807 0.076,-1.614 0.114,-2.421 5.986,6.832 12.522,13.228 18.513,20.1 1.691,1.94 -1.616,4.195 -3.294,2.271 -5.993,-6.873 -12.524,-13.265 -18.513,-20.1 -0.539,-0.615 -0.459,-1.856 0.115,-2.421 12.389,-12.202 25.132,-24.99 35.536,-38.958 0.49,-0.658 1.637,-0.956 2.365,-0.534 6.553,3.805 12.196,9.129 17.655,14.33 C 4.43,-1.294 1.87,1.781 0,0"
           style="fill:#000000;fill-opacity:1;fill-rule:nonzero;stroke:none"
           id="path6789" /></g><g
         id="g6791"
         transform="translate(648.7773,482.0962)"><path
           d="m 0,0 c 5.448,0.03 10.883,0.383 16.333,0.333 1.29,-0.011 1.289,1.989 0,2 C 10.883,2.383 5.448,2.03 0,2 -1.29,1.993 -1.29,-0.007 0,0"
           style="fill:#000000;fill-opacity:1;fill-rule:nonzero;stroke:none"
           id="path6793" /></g><g
         id="g6795"
         transform="translate(647.4438,476.0962)"><path
           d="m 0,0 c 3.521,-0.043 7.042,-0.563 10.4,-1.631 1.233,-0.391 1.757,1.54 0.533,1.928 C 7.416,1.415 3.686,1.955 0,2 -1.29,2.016 -1.289,0.016 0,0"
           style="fill:#000000;fill-opacity:1;fill-rule:nonzero;stroke:none"
           id="path6797" /></g><g
         id="g6799"
         transform="translate(644.0703,470.7227)"><path
           d="m 0,0 c 3.915,-3.548 7.892,-7.09 12.202,-10.156 1.054,-0.75 2.051,0.986 1.01,1.726 C 9.042,-5.463 5.201,-2.018 1.414,1.414 0.461,2.278 -0.958,0.868 0,0"
           style="fill:#000000;fill-opacity:1;fill-rule:nonzero;stroke:none"
           id="path6801" /></g><g
         id="g6803"
         transform="translate(482.4775,457.7266)"><path
           d="m 0,0 c -3.705,0 -6.797,-3.092 -6.797,-6.797 0,-3.705 3.092,-6.797 6.797,-6.797 3.705,0 6.797,3.092 6.797,6.797 C 6.797,-3.092 3.705,0 0,0"
           style="fill:#000000;fill-opacity:1;fill-rule:nonzero;stroke:none"
           id="path6805" /></g><g
         id="g6807"
         transform="translate(472.811,449.7632)"><path
           d="m 0,0 c 6.113,0.018 12.221,0.306 18.333,0.333 1.29,0.006 1.291,2.006 0,2 C 12.221,2.306 6.113,2.018 0,2 -1.29,1.996 -1.29,-0.004 0,0"
           style="fill:#000000;fill-opacity:1;fill-rule:nonzero;stroke:none"
           id="path6809" /></g><g
         id="g6811"
         transform="translate(482.4775,409.1431)"><path
           d="m 0,0 c -3.705,0 -6.797,-3.092 -6.797,-6.797 0,-3.705 3.092,-6.797 6.797,-6.797 3.705,0 6.797,3.092 6.797,6.797 C 6.797,-3.092 3.705,0 0,0"
           style="fill:#000000;fill-opacity:1;fill-rule:nonzero;stroke:none"
           id="path6813" /></g><g
         id="g6815"
         transform="translate(472.811,401.1797)"><path
           d="m 0,0 c 6.113,0.018 12.221,0.306 18.333,0.333 1.29,0.006 1.291,2.006 0,2 C 12.221,2.306 6.113,2.018 0,2 -1.29,1.996 -1.29,-0.004 0,0"
           style="fill:#000000;fill-opacity:1;fill-rule:nonzero;stroke:none"
           id="path6817" /></g><g
         id="g6819"
         transform="translate(418.4507,720.0146)"><path
           d="m 0,0 c 4.576,-22.783 14.604,-44.185 23.718,-65.417 5.343,-12.449 12.078,-24.256 17.355,-36.745 3.773,-8.931 6.923,-17.484 11.765,-25.936 1.274,-2.223 4.919,-0.571 3.639,1.665 -4.534,7.911 -7.714,15.818 -11.077,24.257 -5.007,12.571 -11.561,24.479 -17.269,36.733 C 18.35,-44.445 8.521,-22.112 3.943,0.674 3.436,3.204 -0.508,2.529 0,0"
           style="fill:#000000;fill-opacity:1;fill-rule:nonzero;stroke:none"
           id="path6821" /></g><g
         id="g6823"
         transform="translate(531.0962,720.5259)"><path
           d="m 0,0 c -3.576,-17.827 -10.569,-34.885 -17.587,-51.585 -7.653,-18.208 -16.455,-35.445 -26.622,-52.381 -4.987,-8.308 -10.046,-16.57 -14.852,-24.985 -1.2,-2.102 -2.368,-4.222 -3.528,-6.346 -0.588,-1.076 -2.086,-2.849 -2.058,-4.162 0.106,-5.056 0.144,-10.111 0.132,-15.167 -0.048,-20.514 -0.906,-41.009 -0.132,-61.52 0.096,-2.544 4.082,-2.924 3.985,-0.349 -0.751,19.887 -0.02,39.767 0.122,59.657 0.037,5.035 0.004,10.069 -0.082,15.104 -0.075,4.407 4.526,9.955 6.662,13.662 5.141,8.92 10.574,17.668 15.842,26.511 9.632,16.17 17.648,32.807 24.933,50.142 6.95,16.536 13.63,33.428 17.169,51.07 C 4.492,2.181 0.502,2.502 0,0"
           style="fill:#000000;fill-opacity:1;fill-rule:nonzero;stroke:none"
           id="path6825" /></g><g
         id="g6827"
         transform="translate(477.0337,578.4028)"><path
           d="m 0,0 c -2.706,0 -4.964,-2.258 -4.964,-4.964 0,-2.706 2.258,-4.964 4.964,-4.964 2.706,0 4.964,2.258 4.964,4.964 C 4.964,-2.258 2.706,0 0,0"
           style="fill:#000000;fill-opacity:1;fill-rule:nonzero;stroke:none"
           id="path6829" /></g><g
         id="g6831"
         transform="translate(477.0337,550.1528)"><path
           d="m 0,0 c -2.706,0 -4.964,-2.258 -4.964,-4.964 0,-2.706 2.258,-4.964 4.964,-4.964 2.706,0 4.964,2.258 4.964,4.964 C 4.964,-2.258 2.706,0 0,0"
           style="fill:#000000;fill-opacity:1;fill-rule:nonzero;stroke:none"
           id="path6833" /></g><g
         id="g6835"
         transform="translate(477.0337,521.9028)"><path
           d="m 0,0 c -2.706,0 -4.964,-2.258 -4.964,-4.964 0,-2.706 2.258,-4.964 4.964,-4.964 2.706,0 4.964,2.258 4.964,4.964 C 4.964,-2.258 2.706,0 0,0"
           style="fill:#000000;fill-opacity:1;fill-rule:nonzero;stroke:none"
           id="path6837" /></g><g
         id="g6839"
         transform="translate(343.4341,352.2837)"><path
           d="m 0,0 c 13.471,-4.438 27.333,-6.938 41.42,-8.428 5.23,-0.554 9.995,-0.76 12.307,4.788 2.394,5.744 0.635,14.253 0.606,20.278 -0.007,1.368 -0.967,2.251 -2.33,2.146 C 35.344,17.502 17.833,20.522 2.348,26.696 -0.049,27.651 -1.396,23.884 1,22.929 17.144,16.493 35.334,13.506 52.677,14.841 51.901,15.556 51.125,16.271 50.348,16.987 50.375,11.629 50.827,6.26 50.461,0.908 49.923,-6.965 42.393,-4.573 36.927,-3.874 24.799,-2.321 12.983,-0.066 1.348,3.767 -1.096,4.572 -2.458,0.81 0,0"
           style="fill:#000000;fill-opacity:1;fill-rule:nonzero;stroke:none"
           id="path6841" /></g><g
         id="g6843"
         transform="translate(535.4146,635.6138)"><path
           d="m 0,0 c 8.391,9.687 19.908,16.906 30.653,23.684 3.884,2.449 7.824,4.807 11.771,7.153 1.336,0.794 4.464,1.939 4.06,3.983 -0.5,2.532 -4.442,1.857 -3.943,-0.674 -0.337,1.708 1.386,2.223 -0.807,0.91 C 40.362,34.234 38.984,33.421 37.611,32.6 33.199,29.964 28.833,27.256 24.515,24.47 14.624,18.089 4.465,11.229 -3.294,2.271 -4.979,0.326 -1.673,-1.931 0,0"
           style="fill:#000000;fill-opacity:1;fill-rule:nonzero;stroke:none"
           id="path6845" /></g><g
         id="g6847"
         transform="translate(581.106,668.3218)"><path
           d="m 0,0 c 0.201,4.745 0.628,9.461 1.518,14.129 0.561,2.949 1.483,5.931 3.05,8.501 1.056,1.731 3.62,4.058 3.734,0.78 0.293,-8.364 -5.06,-16.865 -11.58,-21.703 -2.074,-1.54 0.509,-4.595 2.571,-3.065 4.693,3.482 9.124,9.054 11.089,14.59 1.469,4.138 3.466,10.847 0.526,14.753 C 7.479,32.542 1.371,25.609 0.051,22.691 -3.074,15.781 -3.667,7.834 -3.984,0.349 -4.093,-2.223 -0.109,-2.582 0,0"
           style="fill:#000000;fill-opacity:1;fill-rule:nonzero;stroke:none"
           id="path6849" /></g><g
         id="g6851"
         transform="translate(580.7021,666.6021)"><path
           d="M 0,0 C 5.487,5.065 12.403,16.899 21.383,13.865 24.817,12.705 18.372,7.555 17.319,7.012 11.877,4.208 4.899,3.667 -1.111,3.524 -0.542,2.636 0.028,1.747 0.598,0.858 0.544,0.8 0.491,0.742 0.437,0.685 L -2.496,3.352 C -2.631,3.266 -2.767,3.18 -2.903,3.094 -4.932,1.497 -2.355,-1.562 -0.332,0.03 0.064,0.341 0.531,0.634 0.798,1.081 1.896,2.917 -0.439,5.415 -2.134,3.749 -2.623,3.269 -2.898,2.833 -3.169,2.206 -3.645,1.104 -2.714,-0.49 -1.46,-0.46 5.7,-0.292 14.696,0.217 20.816,4.428 23.703,6.415 27.7,10.867 25.815,14.745 23.553,19.401 17.094,18.619 13.095,17.08 6.514,14.546 2.41,7.662 -2.571,3.064 -4.46,1.321 -1.898,-1.751 0,0"
           style="fill:#000000;fill-opacity:1;fill-rule:nonzero;stroke:none"
           id="path6853" /></g><g
         id="g6855"
         transform="translate(578.9395,666.5039)"><path
           d="m 0,0 c 3.595,-0.411 7.234,-0.129 10.844,-0.164 2.118,-0.021 4.242,-0.193 6.306,-0.687 0.721,-0.171 6.584,-2.979 5.126,-4.432 -1.587,-1.583 -6.592,-0.385 -8.475,0.076 C 8.938,-4.014 4.966,0.479 1.31,3.639 -0.638,5.323 -2.895,2.016 -0.961,0.345 c 4.884,-4.222 9.39,-8.674 15.93,-9.852 3.308,-0.596 8.802,-1.055 10.846,2.326 C 28.31,-3.056 22.71,1.304 19.508,2.6 13.537,5.018 6.576,3.273 0.349,3.984 -2.219,4.278 -2.561,0.292 0,0"
           style="fill:#000000;fill-opacity:1;fill-rule:nonzero;stroke:none"
           id="path6857" /></g><g
         id="g6859"
         transform="translate(557.1338,634.1592)"><path
           d="M 0,0 C 3.088,8.359 3.635,17.606 3.727,26.435 3.823,35.57 3.183,45.045 0.568,53.837 -0.159,56.283 -4.109,55.63 -3.375,53.163 -0.845,44.657 -0.26,35.613 -0.257,26.784 -0.255,18.329 -0.814,9.341 -3.767,1.348 -4.66,-1.071 -0.895,-2.424 0,0"
           style="fill:#000000;fill-opacity:1;fill-rule:nonzero;stroke:none"
           id="path6861" /></g><g
         id="g6863"
         transform="translate(556.9014,688.6426)"><path
           d="m 0,0 c -2.933,3.126 -5.077,6.938 -6.901,10.79 -1.064,2.246 -1.842,4.593 -2.264,7.042 -0.418,2.425 0.871,6.579 3.469,3.54 2.262,-2.645 3.523,-6.879 3.932,-10.276 0.317,-2.638 -0.025,-6.705 -0.996,-9.249 -0.562,-1.474 -1.328,-2.818 -0.757,-4.376 0.468,-1.277 2.143,-1.438 3.104,-0.7 0.166,0.127 0.332,0.254 0.498,0.381 2.049,1.573 -0.531,4.63 -2.571,3.065 -0.166,-0.128 -0.332,-0.255 -0.497,-0.382 1.034,-0.233 2.069,-0.466 3.104,-0.7 C 0.545,-2.02 1.057,0.63 1.313,1.301 2.003,3.11 2.005,5.676 2.239,7.603 2.576,10.38 2.076,13.261 1.246,15.905 0.145,19.413 -2.777,27.68 -7.901,26.711 -21.047,24.228 -7.506,2.165 -3.064,-2.571 -1.307,-4.445 1.767,-1.884 0,0"
           style="fill:#000000;fill-opacity:1;fill-rule:nonzero;stroke:none"
           id="path6865" /></g><g
         id="g6867"
         transform="translate(557.6138,686.9854)"><path
           d="m 0,0 c 2.701,5.892 2.594,17.269 8.866,20.699 5.161,2.822 1.886,-6.323 0.723,-8.046 C 6.421,7.961 2.115,3.092 -3.196,0.863 l 2.118,-3.352 c 0.482,0.404 0.965,0.806 1.447,1.209 1.979,1.655 -0.593,4.718 -2.572,3.065 -0.482,-0.403 -0.964,-0.806 -1.446,-1.209 -1.765,-1.476 0.056,-4.217 2.118,-3.352 6.187,2.598 12.28,8.813 15.385,14.73 1.556,2.964 3.747,9.893 0.02,12.284 C 9.316,27.161 4.427,23.064 2.262,19.169 -0.82,13.625 -1.146,7.063 -3.767,1.348 -4.841,-0.996 -1.069,-2.332 0,0"
           style="fill:#000000;fill-opacity:1;fill-rule:nonzero;stroke:none"
           id="path6869" /></g><g
         id="g6871"
         transform="translate(558.0508,686.5308)"><path
           d="m 0,0 c -2.985,3.712 -7.729,6.256 -11.926,8.313 -3.642,1.785 -9.145,3.527 -12.006,-0.64 -2.953,-4.301 1.006,-8.519 4.705,-10.625 5.192,-2.956 13.115,-2.039 18.527,-0.153 2.44,0.851 0.746,4.479 -1.665,3.639 -3.965,-1.383 -9.597,-1.94 -13.607,-0.608 -1.692,0.561 -3.189,1.738 -4.34,3.066 -1.463,1.688 0.019,3.41 1.977,3.286 2.93,-0.185 6.005,-2.135 8.453,-3.582 2.401,-1.419 5.05,-3.069 6.818,-5.267 C -1.446,-4.583 1.615,-2.008 0,0"
           style="fill:#000000;fill-opacity:1;fill-rule:nonzero;stroke:none"
           id="path6873" /></g></g></g></svg>
