<?xml version="1.0" encoding="UTF-8" standalone="no"?>
<svg
   xmlns:dc="http://purl.org/dc/elements/1.1/"
   xmlns:cc="http://creativecommons.org/ns#"
   xmlns:rdf="http://www.w3.org/1999/02/22-rdf-syntax-ns#"
   xmlns:svg="http://www.w3.org/2000/svg"
   xmlns="http://www.w3.org/2000/svg"
   xmlns:sodipodi="http://sodipodi.sourceforge.net/DTD/sodipodi-0.dtd"
   xmlns:inkscape="http://www.inkscape.org/namespaces/inkscape"
   version="1.1"
   id="svg1830"
   xml:space="preserve"
   width="1333.3333"
   height="1333.3333"
   viewBox="0 0 1333.3333 1333.3333"
   sodipodi:docname="cake.svg"
   inkscape:version="1.0.1 (3bc2e813f5, 2020-09-07)"><metadata
     id="metadata1836"><rdf:RDF><cc:Work
         rdf:about=""><dc:format>image/svg+xml</dc:format><dc:type
           rdf:resource="http://purl.org/dc/dcmitype/StillImage" /><dc:title></dc:title></cc:Work></rdf:RDF></metadata><defs
     id="defs1834"><clipPath
       clipPathUnits="userSpaceOnUse"
       id="clipPath1846"><path
         d="M 0,1000 H 1000 V 0 H 0 Z"
         id="path1844" /></clipPath></defs><sodipodi:namedview
     pagecolor="#ffffff"
     bordercolor="#666666"
     borderopacity="1"
     objecttolerance="10"
     gridtolerance="10"
     guidetolerance="10"
     inkscape:pageopacity="0"
     inkscape:pageshadow="2"
     inkscape:window-width="2400"
     inkscape:window-height="1271"
     id="namedview1832"
     showgrid="false"
     inkscape:zoom="0.62250004"
     inkscape:cx="666.66663"
     inkscape:cy="666.66663"
     inkscape:window-x="-9"
     inkscape:window-y="0"
     inkscape:window-maximized="1"
     inkscape:current-layer="g1838" /><g
     id="g1838"
     inkscape:groupmode="layer"
     inkscape:label="icons wedding all"
     transform="matrix(1.3333333,0,0,-1.3333333,0,1333.3333)"><g
       id="g1840"
       transform="matrix(1.4884136,0,0,1.4884136,-264.7685,-231.70687)"><g
         id="g1842"
         clip-path="url(#clipPath1846)"><g
           id="g1848"
           transform="translate(789.3076,277.1201)"><path
             d="m 0,0 c 11.413,-5.245 23.162,-11.563 27.96,-23.938 3.557,-9.174 -1.925,-17.904 -8.417,-24.028 -14.647,-13.819 -36.156,-20.672 -55.01,-26.261 -28.608,-8.48 -58.234,-13.187 -87.773,-17.022 -31.62,-4.105 -63.274,-7.305 -95.146,-8.514 -31.274,-1.185 -62.605,-1.078 -93.895,-0.91 -31.741,0.17 -63.486,1.028 -95.109,3.916 -30.203,2.757 -60.522,6.585 -90.367,11.994 -25.557,4.631 -51.544,10.695 -75.347,21.333 -12.244,5.472 -26.972,13.226 -32.839,26.011 -8.348,18.19 14.302,31.355 27.635,37.482 2.3,1.057 0.662,4.618 -1.631,3.563 -16.107,-7.401 -38.134,-21.837 -29.568,-42.676 6.415,-15.605 26.077,-24.468 40.623,-30.446 24.796,-10.191 51.543,-15.886 77.874,-20.423 30.053,-5.18 60.582,-8.875 90.968,-11.414 31.617,-2.642 63.366,-3.168 95.077,-3.277 30.809,-0.106 61.634,-0.089 92.421,1.19 31.301,1.301 62.413,4.689 93.462,8.765 29.569,3.882 59.086,8.946 87.676,17.583 20.346,6.147 44.074,14.179 58.146,31.068 5.936,7.123 7.755,16.035 4.389,24.716 C 26.172,-8.504 13.018,-1.686 1.32,3.689 -0.975,4.744 -2.283,1.049 0,0"
             style="fill:#000000;fill-opacity:1;fill-rule:nonzero;stroke:none"
             id="path1850" /></g><g
           id="g1852"
           transform="translate(525.7993,743.3994)"><path
             d="m 0,0 c 14.217,-0.793 28.442,-2.504 42.571,-4.237 6.752,-0.828 13.504,-1.857 20.127,-3.427 2.545,-0.604 10.609,-1.964 11.508,-5.098 1.34,-4.676 -20.205,-7.625 -22.55,-7.979 -10.517,-1.587 -21.157,-2.359 -31.761,-3.077 -22.65,-1.534 -45.366,-2.269 -68.066,-1.383 -21.001,0.82 -42.726,1.748 -63.36,5.922 -1.947,0.393 -15.107,3.052 -14.077,6.643 0.578,2.019 5.174,3.13 6.83,3.692 4.202,1.424 8.66,2.201 13.016,2.978 18.755,3.344 37.883,4.109 56.869,5.112 2.526,0.132 1.83,3.994 -0.659,3.862 -12.118,-0.639 -24.251,-1.211 -36.331,-2.383 -12.166,-1.181 -25.014,-2.461 -36.558,-6.725 -4.926,-1.819 -9.975,-6.271 -4.878,-11.04 5.336,-4.993 14.39,-5.969 21.253,-7.105 20.881,-3.455 42.708,-4.588 63.848,-5.052 22.141,-0.485 44.176,0.309 66.259,1.856 12.218,0.856 24.522,1.847 36.544,4.278 5.301,1.072 18.134,3.432 17.484,11.06 -0.278,3.267 -4.722,5.051 -7.23,6.066 -6.059,2.454 -12.852,3.455 -19.264,4.49 C 34.722,1.169 17.385,2.953 0.341,3.903 -2.178,4.044 -2.527,0.141 0,0"
             style="fill:#000000;fill-opacity:1;fill-rule:nonzero;stroke:none"
             id="path1854" /></g><g
           id="g1856"
           transform="translate(600.0249,730.6948)"><path
             d="m 0,0 c 0.015,-26.632 0.695,-53.258 0.875,-79.889 0.041,-6.185 0.047,-12.371 0.011,-18.556 -0.034,-6.143 1.209,-13.728 -2.663,-18.813 -4.532,-5.952 -11.571,-8.05 -18.528,-9.875 -30.502,-8.003 -63.35,-8.276 -94.701,-7.595 -14.533,0.316 -29.089,1.563 -43.483,3.575 -11.405,1.594 -26.245,2.919 -35.855,9.975 -3.681,2.704 -6.199,6.47 -6.295,10.985 -0.101,4.797 -0.139,9.595 -0.161,14.393 -0.047,10.624 0.057,21.248 0.183,31.87 0.253,21.196 0.706,42.39 0.72,63.588 0.001,2.509 -3.903,2.872 -3.904,0.342 -0.016,-26.632 -0.696,-53.258 -0.875,-79.889 -0.042,-6.185 -0.048,-12.371 -0.012,-18.556 0.017,-2.882 0.052,-5.763 0.096,-8.643 0.032,-2.131 -0.624,-5.829 0.314,-7.771 3.216,-6.664 8.573,-10.839 15.275,-13.441 16.335,-6.342 35.119,-7.77 52.418,-9.189 13.994,-1.147 27.886,-0.724 41.866,-1.156 15.188,-0.47 30.561,0.825 45.634,2.557 14.184,1.629 30.792,3.121 43.504,10.228 2.365,1.322 4.312,3.122 6.048,5.201 3.471,4.156 4.101,6.532 4.203,11.84 0.224,11.68 0.161,23.365 0.058,35.047 -0.216,24.477 -0.81,48.951 -0.825,73.43 C 3.901,2.167 -0.002,2.53 0,0"
             style="fill:#000000;fill-opacity:1;fill-rule:nonzero;stroke:none"
             id="path1858" /></g><g
           id="g1860"
           transform="translate(602.7686,629.9077)"><path
             d="m 0,0 c 13.881,-2.346 27.732,-5.162 41.105,-9.624 8.044,-2.683 19.248,-6.435 23.644,-14.384 3.974,-7.185 -4.257,-14.4 -9.76,-17.706 -7.951,-4.776 -17.27,-7.309 -26.204,-9.483 -19.954,-4.855 -40.53,-6.995 -60.92,-9.09 -11.375,-1.168 -22.744,-2.417 -34.163,-3.095 -11.789,-0.699 -23.57,-0.39 -35.369,-0.39 -11.247,0 -22.478,-0.266 -33.721,0.213 -11.738,0.5 -23.426,1.792 -35.108,2.994 -20.394,2.097 -40.873,4.209 -60.905,8.711 -9.232,2.075 -18.65,4.65 -27.068,9.069 -5.781,3.036 -14.296,9.377 -12.397,16.948 2.035,8.116 13.832,12.274 20.626,14.881 12.735,4.887 26.335,7.632 39.717,10.06 1.763,0.319 3.53,0.618 5.297,0.917 2.497,0.421 1.829,4.283 -0.66,3.862 -13.279,-2.244 -26.481,-4.961 -39.346,-8.983 -8.796,-2.749 -18.406,-6.262 -25.135,-12.824 -11.892,-11.595 1.875,-24.387 12.706,-29.618 17.878,-8.635 39.117,-11.219 58.578,-13.765 20.976,-2.745 42.223,-5.165 63.354,-6.155 43.734,-2.048 87.484,0.666 130.849,6.34 19.494,2.55 40.308,5.431 58.193,14.069 11.36,5.487 23.147,18.782 10.904,29.844 -6.791,6.137 -15.961,9.408 -24.526,12.172 C 26.898,-0.906 13.576,1.667 0.341,3.903 -2.154,4.325 -2.475,0.418 0,0"
             style="fill:#000000;fill-opacity:1;fill-rule:nonzero;stroke:none"
             id="path1862" /></g><g
           id="g1864"
           transform="translate(668.4585,601.0952)"><path
             d="m 0,0 c 1.544,-45.275 1.419,-90.671 0.639,-135.96 -0.084,-4.893 -0.189,-9.785 -0.313,-14.676 -0.11,-4.344 0.401,-9.133 -1.239,-13.209 -3.33,-8.279 -14.064,-12.419 -21.737,-15.178 -19.735,-7.098 -41.334,-9.483 -62.059,-11.818 -21.697,-2.445 -43.448,-4.88 -65.303,-4.996 -22.947,-0.123 -45.964,-0.471 -68.838,1.587 -20.787,1.87 -41.663,3.944 -62.26,7.349 -10.484,1.733 -20.931,3.919 -31.044,7.216 -8.142,2.655 -16.353,6.133 -21.882,12.91 -3.72,4.559 -2.912,10.297 -3.056,15.797 -0.173,6.635 -0.295,13.271 -0.398,19.907 -0.236,15.201 -0.328,30.404 -0.347,45.606 -0.035,28.371 0.105,56.766 1.071,85.123 0.087,2.518 -3.817,2.872 -3.902,0.342 -1.545,-45.275 -1.42,-90.671 -0.64,-135.96 0.084,-4.893 0.189,-9.785 0.313,-14.676 0.092,-3.627 -0.66,-8.703 0.611,-12.116 2.944,-7.905 8.81,-12.617 16.152,-16.312 17.619,-8.868 38.89,-11.456 58.196,-14.026 43.39,-5.777 87.09,-8.164 130.849,-6.3 21.129,0.901 42.38,3.457 63.354,6.155 19.637,2.526 40.448,5.397 58.573,13.808 4.666,2.165 9.367,5.036 12.655,9.067 4.757,5.83 4.61,11.052 4.805,18.237 0.454,16.82 0.628,33.648 0.723,50.474 0.191,33.761 0.132,67.562 -1.02,101.307 C 3.818,2.152 -0.086,2.523 0,0"
             style="fill:#000000;fill-opacity:1;fill-rule:nonzero;stroke:none"
             id="path1866" /></g><g
           id="g1868"
           transform="translate(671.1606,486.6069)"><path
             d="m 0,0 c 24.566,-3.717 49.232,-7.911 72.816,-15.934 10.557,-3.592 21.061,-8.094 29.951,-14.929 6.997,-5.378 15.145,-12.703 15.186,-22.295 0.069,-16.129 -22.323,-25.765 -34.536,-30.775 -18.456,-7.569 -37.765,-10.475 -57.31,-13.727 -46.22,-7.689 -92.411,-14.559 -139.249,-17.06 -55.462,-2.963 -111.427,-1.888 -166.658,4.098 -22.425,2.43 -44.732,5.79 -66.992,9.408 -20.679,3.361 -41.925,5.709 -62.092,11.521 -16.243,4.68 -35.347,11.434 -46.5,24.846 -13.751,16.535 6.664,32.889 20.331,40.365 14.002,7.657 29.806,12.026 45.241,15.706 15.766,3.759 31.785,6.373 47.802,8.797 2.505,0.378 1.833,4.24 -0.66,3.862 -23.96,-3.625 -47.939,-7.765 -71.037,-15.264 -17.794,-5.778 -40.253,-15.234 -48.569,-33.439 -6.4,-14.011 5.516,-26.152 16.361,-33.215 14.656,-9.544 32.194,-15.069 49.167,-18.73 21.564,-4.651 43.734,-7.495 65.53,-10.89 22.63,-3.525 45.338,-6.503 68.15,-8.57 55.146,-4.998 111.019,-5.197 166.247,-1.403 46.247,3.177 91.87,10.873 137.554,18.423 18.134,2.997 35.805,7.346 52.468,15.319 12.002,5.743 28.049,15.373 28.655,30.386 0.344,8.513 -5.5,16.055 -11.496,21.435 -9.021,8.094 -19.586,13.54 -30.833,17.871 C 54.267,-4.466 26.982,-0.128 0.342,3.904 -2.162,4.282 -2.488,0.376 0,0"
             style="fill:#000000;fill-opacity:1;fill-rule:nonzero;stroke:none"
             id="path1870" /></g><g
           id="g1872"
           transform="translate(789.1167,434.7441)"><path
             d="m 0,0 c -0.022,-48.415 -1.672,-96.825 -2.063,-145.238 -0.061,-7.494 -0.099,-14.988 -0.122,-22.482 -0.01,-3.537 0.944,-8.805 -0.297,-12.144 -1.226,-3.297 -4.288,-5.954 -6.878,-8.172 -4.843,-4.146 -10.502,-6.256 -16.386,-8.462 -7.867,-2.949 -15.874,-5.51 -23.971,-7.749 -29.737,-8.223 -61.09,-10.357 -91.654,-13.741 -61.983,-6.865 -124.553,-8.431 -186.875,-6.658 -31.897,0.907 -63.545,1.879 -95.302,5.235 -15.864,1.677 -31.712,3.499 -47.552,5.384 -15.619,1.859 -31.213,3.612 -46.574,7.089 -11.22,2.54 -22.227,5.942 -33.042,9.85 -9.467,3.421 -20.281,7.647 -24.947,17.38 -0.922,1.924 -0.221,5.709 -0.225,7.808 -0.005,3.183 -0.016,6.365 -0.029,9.547 -0.024,6.202 -0.066,12.402 -0.116,18.603 -0.095,11.716 -0.239,23.432 -0.409,35.147 -0.526,36.084 -1.623,72.172 -1.64,108.262 -10e-4,2.508 -3.904,2.871 -3.903,0.341 0.022,-48.415 1.672,-96.825 2.063,-145.238 0.061,-7.494 0.099,-14.988 0.122,-22.482 0.019,-6.31 -0.96,-11.816 2.663,-17.196 6.81,-10.111 19.546,-13.968 30.393,-17.738 28.773,-10 58.523,-13.339 88.61,-16.844 31.663,-3.687 63.29,-7.131 95.167,-8.198 30.021,-1.004 60.139,-2.012 90.177,-1.451 31.326,0.585 62.785,0.974 94.029,3.44 31.667,2.5 63.369,6.405 94.859,10.555 12.95,1.706 25.74,4.446 38.303,8.01 6.045,1.716 12.017,3.688 17.939,5.788 5.566,1.972 11.409,3.81 16.376,7.083 3.987,2.627 7.55,5.696 10.451,9.502 3.392,4.447 2.535,9.477 2.547,14.791 0.03,14.131 0.141,28.262 0.301,42.392 0.48,42.413 1.869,84.828 1.888,127.245 C 3.904,2.167 0.001,2.53 0,0"
             style="fill:#000000;fill-opacity:1;fill-rule:nonzero;stroke:none"
             id="path1874" /></g><g
           id="g1876"
           transform="translate(715.5649,285.9771)"><path
             d="m 0,0 c -0.551,-0.615 -0.407,-1.57 0.083,-2.475 0.255,-0.452 0.498,-0.901 0.736,-1.295 0.228,-0.397 0.514,-0.724 0.688,-0.958 1.157,-1.499 2.603,-2.658 4.181,-3.519 0.762,-0.417 1.536,-0.65 2.328,-0.977 0.299,-0.123 0.607,-0.314 0.896,-0.359 4.938,-3.102 10.675,-4.826 16.538,-5.291 l -0.622,-0.166 c -6.918,-1.817 -13.284,-5.316 -19.847,-8.582 -0.124,0.042 -0.248,0.075 -0.369,0.101 -0.133,0.024 -0.271,0.035 -0.388,0.037 -1.807,0.024 -3.723,-0.669 -5.38,-1.195 -1.534,-0.488 -5.284,-1.134 -5.003,-3.66 0.268,-2.404 4.404,-1.256 5.572,-0.885 2.114,0.679 4.132,1.889 5.925,3.529 0.038,0.013 0.075,0.023 0.115,0.043 3.909,1.928 7.684,3.844 11.545,5.532 -2.203,-2.607 -3.956,-5.758 -5.968,-8.763 -0.155,-0.095 -0.293,-0.222 -0.377,-0.408 -0.508,-0.485 -3.101,-2.991 -5.463,-5.501 -2.113,-2.467 -3.494,-4.993 -1.802,-5.795 0.461,-0.215 0.945,-0.208 1.428,-0.057 0.502,0.155 1.022,0.456 1.503,0.823 1.171,0.772 2.041,1.799 2.599,2.456 1.64,1.947 3.116,4.464 3.542,6.99 3.114,4.675 5.551,9.999 10.379,12.581 l 0.028,0.018 c 2.893,1.025 6.378,2.114 9.9,2.957 l 1.099,0.124 c -1.695,-1.844 -2.974,-4.13 -4.027,-6.579 l -0.044,-0.027 c -1.673,-1.136 -3.107,-2.987 -4.396,-4.574 -1.227,-1.528 -3.128,-3.924 -2.257,-6.08 0.878,-2.168 3.69,-1.539 4.863,-0.106 1.176,1.423 1.947,3.122 2.552,4.84 0.399,1.131 0.828,2.243 0.992,3.441 0.043,0.313 0.038,0.814 -0.045,1.301 1.486,3.62 3.449,6.877 6.793,8.703 1.567,0.208 3.089,0.326 4.52,0.288 1.271,-0.027 1.183,2.01 -0.07,2.037 -1.564,0.039 -3.148,-0.091 -4.737,-0.329 -0.161,0.02 -0.328,0.006 -0.501,-0.079 -1.339,-0.219 -2.682,-0.5 -4.017,-0.826 -8.301,-0.982 -17.029,0.571 -24.089,5.058 C 8.9,-6.708 7.988,-5.762 7.612,-5.28 6.49,-3.845 5.266,-2.508 3.941,-1.406 2.989,-0.597 0.863,1.096 0,0"
             style="fill:#000000;fill-opacity:1;fill-rule:nonzero;stroke:none"
             id="path1878" /></g><g
           id="g1880"
           transform="translate(788.7368,298.1636)"><path
             d="m 0,0 c -0.115,0.605 -0.21,1.21 -0.292,1.815 -0.918,-2.37 -2.315,-4.57 -4.023,-6.367 -2.77,-2.931 -6.322,-4.907 -10.293,-5.521 -0.039,0.019 -0.068,0.049 -0.109,0.062 -2.244,0.663 -4.608,0.844 -6.777,1.063 -1.287,0.106 -4.579,0.75 -5.09,-0.961 -0.683,-2.202 2.127,-3.517 3.746,-3.802 2.728,-0.516 5.962,0.05 8.404,1.332 0.167,0.084 0.271,0.207 0.346,0.34 4.262,0.661 8.135,2.796 11.222,6.044 -1.109,-3.289 -2.175,-6.648 -3.18,-10.233 -0.134,-0.136 -0.251,-0.282 -0.343,-0.443 -0.363,-0.629 -0.495,-1.414 -0.912,-2.013 l -2.363,-3.293 c -1.484,-2.127 -3.476,-4.524 -3.988,-7.089 -0.199,-0.992 -0.044,-1.92 1.006,-2.314 2.473,-0.936 4.901,2.639 5.833,4.398 1.539,2.793 2.551,6.223 2.629,9.33 l 0.054,0.175 c 0.033,0.145 0.044,0.291 0.036,0.438 1.456,5.394 3.126,10.269 4.826,15.415 C 0.376,-1.152 0.115,-0.609 0,0"
             style="fill:#000000;fill-opacity:1;fill-rule:nonzero;stroke:none"
             id="path1882" /></g><g
           id="g1884"
           transform="translate(618.8335,230.0044)"><path
             d="m 0,0 c -1.71,0.835 -0.222,3.877 0.267,4.986 0.79,1.787 1.942,3.347 3.277,4.686 0.645,0.647 1.352,1.128 2.038,1.71 0.26,0.219 0.5,0.506 0.774,0.648 3.85,4.638 8.545,8.407 13.629,11.344 L 19.354,23.258 C 12.317,21.963 5.037,22.863 -1.977,24.066 -2.078,23.99 -2.185,23.922 -2.29,23.863 -2.407,23.8 -2.525,23.751 -2.632,23.717 c -1.663,-0.525 -3.72,-0.38 -5.444,-0.325 -1.604,0.049 -5.378,-0.334 -5.779,2.178 -0.382,2.386 3.873,2.387 5.09,2.35 2.188,-0.075 4.511,-0.701 6.52,-1.767 0.038,-0.002 0.075,0 0.118,-0.008 4.111,-0.708 8.223,-1.234 12.357,-1.36 -2.972,1.596 -5.635,3.942 -8.347,6.138 -0.165,0.041 -0.326,0.118 -0.459,0.267 -1.191,0.576 -12.323,6.264 -9.491,8.743 1.509,1.329 4.332,-0.654 5.622,-1.588 1.902,-1.388 3.926,-3.305 5.104,-5.548 4.178,-3.388 8.346,-7.475 13.756,-7.865 l 0.033,-0.006 c 3.015,0.246 6.59,0.776 10.039,1.677 l 1.011,0.406 c -2.329,0.824 -4.459,2.288 -6.404,4.032 l -0.049,0.004 c -1.916,0.291 -3.907,1.372 -5.627,2.304 -1.654,0.894 -4.159,2.377 -4.216,4.701 -0.058,2.332 2.459,2.828 3.971,2.001 1.511,-0.826 2.821,-2.045 4.029,-3.342 0.794,-0.853 1.618,-1.668 2.266,-2.67 0.17,-0.262 0.38,-0.715 0.52,-1.187 2.801,-2.588 6.003,-4.577 9.732,-4.497 1.425,0.598 2.75,1.277 3.899,2.055 1.017,0.687 2.013,-1.081 0.997,-1.77 C 35.344,27.781 33.942,27.076 32.467,26.483 32.338,26.385 32.189,26.314 31.999,26.301 30.742,25.821 29.442,25.412 28.12,25.062 20.401,21.966 13.073,17.088 7.559,10.374 7.389,9.334 6.795,8.123 6.578,7.54 5.932,5.798 5.112,4.115 4.046,2.627 3.265,1.536 1.556,-0.755 0,0"
             style="fill:#000000;fill-opacity:1;fill-rule:nonzero;stroke:none"
             id="path1886" /></g><g
           id="g1888"
           transform="translate(676.1309,257.3608)"><path
             d="m 0,0 c -1.175,-2.049 -2.924,-3.794 -4.575,-5.378 -0.968,-0.93 -3.415,-3.529 -4.971,-2.475 -1.976,1.344 -0.36,4.089 0.754,5.309 1.908,2.083 4.728,3.704 7.351,4.449 0.178,0.052 0.337,0.034 0.481,-0.01 C 2.553,4.36 6.407,5.733 10.428,6.523 7.323,7.4 4.356,8.755 1.435,10.518 c -0.167,-0.001 -0.33,0.017 -0.488,0.063 -0.622,0.185 -1.2,0.647 -1.826,0.791 -1.172,0.267 -2.319,0.505 -3.482,0.831 -2.213,0.617 -4.916,1.258 -6.668,3.004 -0.679,0.673 -1.071,1.51 -0.598,2.448 1.1,2.197 4.503,0.887 6.066,0.18 2.498,-1.131 5.092,-2.913 7.122,-4.997 L 1.704,12.756 C 1.814,12.68 1.914,12.586 2.005,12.48 6.638,9.648 11.382,7.825 16.665,7.463 16.791,7.454 16.897,7.413 17,7.366 18.835,7.502 20.68,7.577 22.524,7.629 23.737,7.667 23.848,5.615 22.632,5.581 14.684,5.351 6.732,4.819 0.036,0.12 0.021,0.08 0.021,0.038 0,0"
             style="fill:#000000;fill-opacity:1;fill-rule:nonzero;stroke:none"
             id="path1890" /></g><g
           id="g1892"
           transform="translate(517.0728,264.1401)"><path
             d="M 0,0 C -1.526,-1.053 0.282,-3.873 0.901,-4.907 1.896,-6.572 3.218,-7.96 4.7,-9.098 c 0.714,-0.549 1.468,-0.923 2.217,-1.4 0.284,-0.179 0.56,-0.428 0.847,-0.528 4.413,-4.025 9.628,-7.003 15.151,-9.009 l -0.643,0.004 c -7.151,0.058 -14.188,-1.949 -21.03,-4.084 -0.114,0.062 -0.228,0.115 -0.341,0.159 -0.125,0.047 -0.249,0.08 -0.36,0.1 -1.729,0.297 -3.763,-0.108 -5.48,-0.375 -1.598,-0.25 -5.416,-0.306 -5.538,-2.842 -0.115,-2.419 4.186,-1.928 5.408,-1.737 2.198,0.343 4.456,1.264 6.324,2.591 0.038,0.007 0.076,0.011 0.117,0.024 4.024,1.257 8.042,2.376 12.128,3.151 -2.698,-2.044 -5.006,-4.762 -7.423,-7.325 -0.161,-0.064 -0.313,-0.163 -0.424,-0.33 -1.071,-0.771 -11.676,-7.857 -8.479,-9.943 1.735,-1.127 4.379,1.212 5.565,2.317 1.756,1.635 3.537,3.823 4.397,6.215 3.732,3.963 7.238,8.636 12.521,9.929 0.01,0.002 0.019,0.007 0.031,0.01 3.027,0.265 6.649,0.375 10.222,0.133 l 1.073,-0.209 c -2.142,-1.248 -3.983,-3.076 -5.61,-5.139 l -0.048,-0.012 c -1.858,-0.631 -3.66,-2.039 -5.23,-3.249 -1.509,-1.162 -3.794,-3.034 -3.469,-5.336 0.326,-2.311 2.984,-2.386 4.378,-1.309 1.393,1.071 2.506,2.502 3.491,3.991 0.648,0.981 1.329,1.93 1.796,3.033 0.122,0.289 0.25,0.771 0.304,1.262 2.331,3.051 5.122,5.599 8.814,6.25 1.523,-0.307 2.966,-0.706 4.26,-1.236 1.145,-0.465 1.764,1.47 0.622,1.935 -1.428,0.581 -2.948,0.992 -4.515,1.284 -0.145,0.07 -0.305,0.11 -0.496,0.085 -1.328,0.226 -2.685,0.377 -4.051,0.47 -8.179,1.579 -16.221,5.181 -22.54,11.008 -0.317,1.002 -1.065,2.112 -1.357,2.658 -0.874,1.63 -1.897,3.175 -3.12,4.5 C 3.312,-1.082 1.383,0.953 0,0"
             style="fill:#000000;fill-opacity:1;fill-rule:nonzero;stroke:none"
             id="path1894" /></g><g
           id="g1896"
           transform="translate(577.2852,247.875)"><path
             d="m 0,0 c -1.62,1.715 -3.711,3.012 -5.662,4.181 -1.147,0.684 -4.073,2.675 -5.342,1.309 -1.618,-1.74 0.536,-4.071 1.892,-5.012 2.311,-1.612 5.429,-2.553 8.157,-2.667 0.185,-0.009 0.334,0.045 0.465,0.122 C 3.504,-3.646 7.602,-4.044 11.709,-3.808 8.908,-5.432 6.344,-7.468 3.895,-9.88 3.731,-9.918 3.575,-9.975 3.431,-10.058 2.864,-10.386 2.404,-10.971 1.82,-11.26 c -1.09,-0.536 -2.165,-1.037 -3.241,-1.624 -2.044,-1.115 -4.578,-2.351 -5.935,-4.445 -0.525,-0.807 -0.73,-1.71 -0.045,-2.52 1.603,-1.896 4.718,0.156 6.107,1.207 2.229,1.681 4.376,4.028 5.873,6.54 l 0.12,0.114 c 0.092,0.1 0.167,0.215 0.231,0.34 3.878,3.865 8.043,6.804 13.075,8.51 0.12,0.04 0.213,0.108 0.3,0.18 1.815,0.339 3.622,0.748 5.42,1.181 1.183,0.284 0.747,2.293 -0.434,2.006 C 15.567,-1.637 7.669,-3.111 0.063,-0.108 0.039,-0.072 0.029,-0.031 0,0"
             style="fill:#000000;fill-opacity:1;fill-rule:nonzero;stroke:none"
             id="path1898" /></g><g
           id="g1900"
           transform="translate(412.0225,226.646)"><path
             d="m 0,0 c -1.513,1.158 0.554,3.844 1.253,4.833 1.131,1.595 2.571,2.895 4.148,3.942 0.76,0.506 1.55,0.837 2.338,1.271 0.299,0.163 0.592,0.397 0.888,0.482 4.697,3.784 10.046,6.55 15.607,8.437 l -0.642,0.01 C 16.438,19.081 9.478,21.406 2.846,23.978 2.732,23.924 2.615,23.878 2.5,23.842 2.372,23.803 2.247,23.779 2.135,23.766 c -1.733,-0.184 -3.72,0.369 -5.398,0.765 -1.562,0.368 -5.335,0.744 -5.229,3.286 0.102,2.414 4.27,1.567 5.456,1.288 2.128,-0.508 4.279,-1.584 6.035,-3.028 0.036,-0.009 0.073,-0.015 0.113,-0.031 3.888,-1.512 7.811,-2.841 11.837,-3.781 -2.597,2.151 -4.741,4.978 -6.961,7.668 -0.154,0.073 -0.297,0.18 -0.396,0.352 -1.053,0.799 -10.821,8.588 -7.554,10.454 1.741,1.002 4.109,-1.502 5.186,-2.674 1.586,-1.736 3.185,-4.018 3.894,-6.449 3.418,-4.149 6.695,-8.978 11.921,-10.424 L 21.07,21.18 c 3.004,-0.351 6.612,-0.529 10.168,-0.314 l 1.069,0.203 c -2.123,1.259 -3.927,3.109 -5.49,5.199 l -0.046,0.014 c -1.82,0.658 -3.557,2.108 -5.058,3.36 -1.443,1.199 -3.602,3.147 -3.2,5.437 0.402,2.296 2.958,2.291 4.273,1.182 1.314,-1.106 2.356,-2.557 3.284,-4.065 0.611,-0.992 1.258,-1.951 1.697,-3.061 0.115,-0.291 0.232,-0.775 0.277,-1.266 2.237,-3.083 4.991,-5.656 8.662,-6.295 1.511,0.314 2.94,0.726 4.214,1.271 1.127,0.48 1.768,-1.445 0.639,-1.927 -1.409,-0.602 -2.92,-1.025 -4.48,-1.325 C 36.934,19.522 36.773,19.481 36.584,19.505 35.259,19.276 33.905,19.125 32.54,19.038 24.372,17.494 16.223,14.156 9.48,8.667 9.107,7.682 8.284,6.611 7.956,6.083 6.975,4.504 5.836,3.017 4.494,1.771 3.51,0.856 1.376,-1.051 0,0"
             style="fill:#000000;fill-opacity:1;fill-rule:nonzero;stroke:none"
             id="path1902" /></g><g
           id="g1904"
           transform="translate(473.6567,242.4526)"><path
             d="m 0,0 c -1.528,-1.803 -3.57,-3.199 -5.491,-4.452 -1.125,-0.736 -4.024,-2.837 -5.362,-1.51 -1.696,1.688 0.412,4.084 1.735,5.074 2.264,1.692 5.333,2.766 8.047,3.023 0.183,0.018 0.337,-0.028 0.47,-0.098 3.901,1.788 7.927,2.451 12.015,2.53 -2.898,1.404 -5.57,3.262 -8.115,5.52 -0.162,0.029 -0.319,0.076 -0.465,0.15 -0.576,0.294 -1.06,0.851 -1.646,1.106 -1.097,0.475 -2.175,0.916 -3.252,1.45 -2.049,1.01 -4.572,2.136 -5.958,4.178 -0.54,0.787 -0.766,1.681 -0.133,2.517 1.476,1.952 4.546,0.04 5.942,-0.939 2.228,-1.569 4.437,-3.787 6.05,-6.201 L 3.961,12.241 C 4.056,12.146 4.137,12.037 4.208,11.917 8.231,8.302 12.572,5.674 17.705,4.421 17.827,4.391 17.925,4.333 18.019,4.269 19.846,4.092 21.673,3.857 23.497,3.605 24.697,3.441 24.47,1.399 23.265,1.566 15.387,2.653 7.497,3.52 0.058,0.111 0.035,0.075 0.028,0.033 0,0"
             style="fill:#000000;fill-opacity:1;fill-rule:nonzero;stroke:none"
             id="path1906" /></g><g
           id="g1908"
           transform="translate(318.5571,279.9116)"><path
             d="m 0,0 c -1.708,-0.762 -0.405,-3.862 0.025,-4.99 0.692,-1.817 1.757,-3.421 3.018,-4.807 0.608,-0.671 1.287,-1.177 1.941,-1.781 0.249,-0.228 0.476,-0.523 0.742,-0.673 3.63,-4.764 8.206,-8.657 13.25,-11.67 l -0.63,0.125 c -7.013,1.406 -14.304,0.731 -21.4,-0.156 -0.1,0.081 -0.203,0.153 -0.306,0.217 -0.116,0.068 -0.231,0.122 -0.336,0.162 -1.646,0.599 -3.715,0.554 -5.448,0.591 -1.612,0.03 -5.373,0.629 -5.924,-1.852 -0.522,-2.362 3.771,-2.611 5.002,-2.635 2.211,-0.043 4.584,0.469 6.651,1.444 0.039,0 0.076,-0.003 0.119,0.003 4.169,0.522 8.315,0.895 12.468,0.903 -3.026,-1.511 -5.784,-3.762 -8.609,-5.85 -0.17,-0.034 -0.336,-0.103 -0.475,-0.247 -1.201,-0.554 -12.786,-5.677 -10.029,-8.292 1.486,-1.41 4.468,0.432 5.819,1.307 2,1.3 4.131,3.132 5.404,5.329 4.361,3.225 8.663,7.176 14.092,7.456 0.011,0 0.02,0.003 0.032,0.004 3.019,-0.307 6.595,-0.886 10.052,-1.806 l 1.012,-0.411 c -2.34,-0.814 -4.493,-2.258 -6.476,-3.975 l -0.05,-0.004 c -1.939,-0.266 -3.968,-1.311 -5.73,-2.205 -1.693,-0.859 -4.271,-2.276 -4.382,-4.598 -0.11,-2.331 2.463,-2.896 4.024,-2.1 1.559,0.793 2.914,1.988 4.158,3.265 0.819,0.84 1.664,1.644 2.33,2.639 0.175,0.259 0.391,0.71 0.537,1.181 2.86,2.553 6.085,4.519 9.83,4.446 1.434,-0.596 2.77,-1.269 3.935,-2.039 1.031,-0.679 2.014,1.1 0.985,1.778 -1.285,0.849 -2.696,1.545 -4.177,2.135 -0.128,0.097 -0.278,0.168 -0.47,0.18 -1.258,0.478 -2.561,0.887 -3.883,1.241 -7.72,3.121 -14.94,8.164 -20.129,15.049 -0.131,1.044 -0.67,2.273 -0.861,2.863 -0.569,1.761 -1.305,3.47 -2.282,4.994 C 3.109,-1.662 1.55,0.69 0,0"
             style="fill:#000000;fill-opacity:1;fill-rule:nonzero;stroke:none"
             id="path1910" /></g><g
           id="g1912"
           transform="translate(374.8555,252.4316)"><path
             d="M 0,0 C -1.247,2.003 -3.041,3.687 -4.724,5.22 -5.715,6.118 -8.195,8.646 -9.709,7.556 -11.641,6.167 -9.984,3.46 -8.84,2.269 c 1.949,-2.035 4.82,-3.574 7.471,-4.226 0.18,-0.044 0.337,-0.021 0.48,0.029 3.603,-2.339 7.536,-3.546 11.608,-4.131 -3.068,-1.033 -5.986,-2.52 -8.862,-4.397 -0.168,-0.005 -0.332,-0.03 -0.489,-0.082 -0.621,-0.209 -1.187,-0.692 -1.815,-0.859 -1.175,-0.31 -2.326,-0.588 -3.496,-0.951 -2.22,-0.688 -4.945,-1.401 -6.684,-3.186 -0.672,-0.689 -1.05,-1.533 -0.54,-2.462 1.193,-2.174 4.643,-0.776 6.209,-0.02 2.513,1.206 5.08,3.082 7.044,5.246 l 0.141,0.088 c 0.109,0.081 0.206,0.179 0.293,0.288 4.564,3.018 9.231,5.069 14.502,5.737 0.125,0.016 0.23,0.063 0.33,0.116 1.845,-0.028 3.698,0.011 5.546,0.078 1.216,0.042 1.189,2.097 -0.026,2.051 C 14.931,-4.7 6.902,-4.568 0.041,-0.118 0.024,-0.079 0.023,-0.037 0,0"
             style="fill:#000000;fill-opacity:1;fill-rule:nonzero;stroke:none"
             id="path1914" /></g><g
           id="g1916"
           transform="translate(253.625,277.5186)"><path
             d="m 0,0 c -1.349,-0.167 -2.813,-0.152 -4.322,0.003 -3.246,1.711 -4.945,5.046 -5.82,8.662 0.134,0.474 0.204,0.965 0.207,1.273 0.01,1.179 -0.198,2.288 -0.351,3.407 -0.229,1.705 -0.543,3.385 -1.162,4.835 -0.628,1.447 -2.577,2.305 -3.877,0.378 -1.313,-1.922 -0.39,-4.467 0.37,-6.085 0.768,-1.68 1.736,-3.634 3.116,-4.865 l 0.037,-0.029 c 0.634,-2.476 1.648,-4.821 3.213,-6.693 L -9.65,1.041 c -3.382,0.956 -6.646,2.419 -9.22,3.903 l -0.023,0.023 c -4.166,3.365 -4.848,9.18 -5.181,14.131 0.735,2.376 0.874,4.932 0.981,6.917 0.023,0.672 0.101,1.716 0.041,2.529 -0.055,0.817 -0.257,1.399 -0.942,1.291 -1.28,-0.194 -2.443,-2.324 -2.631,-5.001 -0.23,-2.641 0.572,-5.653 0.737,-6.217 -0.019,-0.188 0.03,-0.341 0.105,-0.47 0.209,-3.248 0.623,-6.691 1.929,-9.731 -3.086,2.561 -5.721,5.592 -7.675,8.809 -0.02,0.034 -0.043,0.057 -0.064,0.084 -0.435,2.065 -1.154,3.983 -1.989,5.439 -0.247,0.407 -0.763,1.285 -1.374,1.875 -0.616,0.586 -1.379,0.934 -2.409,0.293 -1.07,-0.674 -1.229,-1.684 -0.94,-2.702 0.28,-1.014 0.984,-1.985 1.374,-2.588 0.806,-1.312 1.903,-2.908 3.324,-3.716 0.092,-0.05 0.199,-0.102 0.319,-0.139 0.11,-0.033 0.226,-0.059 0.345,-0.077 3.533,-5.668 8.966,-10.971 15.531,-13.745 l 0.59,-0.25 c -5.86,0.317 -11.913,0.092 -18.283,-0.578 -0.329,0.087 -0.726,0.056 -1.096,0.086 -0.979,0.076 -1.915,0.268 -2.922,0.315 -0.589,0.028 -1.182,0.035 -1.776,0.029 0.405,-1.807 -0.133,-3.945 -1.604,-5.28 1.618,0.237 3.142,0.725 4.559,1.356 0.593,0.265 1.933,0.727 2.768,1.384 9.235,1.08 17.926,1.074 26.143,-0.119 1.313,-0.361 2.642,-0.638 3.964,-0.822 0.172,-0.081 0.336,-0.089 0.495,-0.065 1.567,-0.184 3.122,-0.214 4.626,-0.031 C 1.256,-1.872 1.188,0.145 0,0"
             style="fill:#000000;fill-opacity:1;fill-rule:nonzero;stroke:none"
             id="path1918" /></g><g
           id="g1920"
           transform="translate(271.8682,265.7466)"><path
             d="m 0,0 c -1.859,-1.47 -4.187,-2.407 -6.386,-3.194 -1.279,-0.473 -4.692,-1.822 -5.72,-0.19 -1.283,2.066 1.406,3.851 2.93,4.504 2.625,1.099 5.845,1.473 8.545,1.186 0.183,-0.018 0.323,-0.094 0.44,-0.189 C 1.892,2.608 3.93,2.852 5.942,2.92 7.908,2.995 9.983,2.9 12.009,2.62 10.683,3.534 9.401,4.553 8.23,5.659 7.082,6.763 6.065,7.983 5.06,9.31 4.914,9.365 4.775,9.438 4.652,9.536 4.167,9.921 3.819,10.557 3.324,10.91 c -0.931,0.66 -1.845,1.298 -2.732,2.025 -1.688,1.383 -3.759,3.009 -4.535,5.293 -0.304,0.883 -0.29,1.8 0.474,2.475 1.775,1.578 4.062,-0.892 5.122,-2.109 1.672,-1.952 3.244,-4.513 4.308,-7.149 L 6.057,11.32 C 6.127,11.212 6.182,11.09 6.227,10.96 6.612,10.433 7.009,9.926 7.416,9.431 7.802,8.944 8.184,8.47 8.657,8.011 9.555,7.095 10.539,6.232 11.55,5.438 13.578,3.849 15.778,2.524 18.221,1.5 c 0.116,-0.049 0.204,-0.123 0.286,-0.2 1.781,-0.464 3.552,-0.989 5.314,-1.536 1.16,-0.357 0.601,-2.335 -0.56,-1.973 C 19.464,-1.033 15.638,0.071 11.78,0.589 9.852,0.854 7.909,0.948 5.98,0.873 4.043,0.806 2.083,0.572 0.079,0.098 0.049,0.066 0.034,0.027 0,0"
             style="fill:#000000;fill-opacity:1;fill-rule:nonzero;stroke:none"
             id="path1922" /></g><g
           id="g1924"
           transform="translate(597.3242,469.999)"><path
             d="m 0,0 c -1.143,-1.211 0.759,-3.807 1.424,-4.761 1.066,-1.54 2.375,-2.766 3.787,-3.725 0.682,-0.464 1.373,-0.749 2.075,-1.134 0.266,-0.145 0.534,-0.36 0.792,-0.426 4.309,-3.477 9.193,-5.805 14.23,-7.086 l -0.55,-0.076 c -6.119,-0.845 -11.848,-3.654 -17.442,-6.545 -0.105,0.048 -0.211,0.087 -0.314,0.118 -0.114,0.032 -0.225,0.051 -0.323,0.058 -1.525,0.1 -3.217,-0.531 -4.658,-0.986 -1.339,-0.426 -4.612,-0.899 -4.394,-3.428 0.209,-2.412 3.855,-1.452 4.882,-1.124 1.851,0.583 3.676,1.75 5.103,3.279 0.033,0.01 0.064,0.018 0.097,0.036 3.295,1.702 6.591,3.278 9.986,4.534 -2.018,-2.345 -3.621,-5.307 -5.354,-8.127 -0.132,-0.082 -0.249,-0.197 -0.321,-0.375 -0.805,-0.895 -9.054,-9.121 -6.01,-10.825 1.659,-0.922 3.65,1.702 4.529,2.933 1.306,1.823 2.55,4.198 2.96,6.666 2.681,4.365 5.022,9.401 9.351,11.333 0.009,0.003 0.016,0.009 0.025,0.015 2.557,0.637 5.643,1.208 8.747,1.452 l 0.956,-0.061 c -1.628,-1.522 -2.915,-3.567 -3.993,-5.817 l -0.04,-0.019 c -1.506,-0.864 -2.847,-2.487 -4.025,-3.88 -1.13,-1.34 -2.839,-3.474 -2.217,-5.71 0.626,-2.245 2.968,-1.985 4.025,-0.741 1.056,1.239 1.807,2.795 2.432,4.396 0.411,1.052 0.853,2.08 1.081,3.231 0.061,0.3 0.094,0.794 0.062,1.285 1.533,3.321 3.508,6.203 6.563,7.369 1.363,-0.086 2.677,-0.268 3.89,-0.593 1.077,-0.285 1.243,1.709 0.175,1.994 -1.333,0.356 -2.709,0.538 -4.101,0.602 -0.137,0.049 -0.281,0.066 -0.44,0.014 -1.176,0.034 -2.362,-0.005 -3.545,-0.099 -7.26,0.446 -14.67,3.042 -20.84,8.08 -0.411,0.957 -1.2,1.969 -1.523,2.476 C 6.115,-4.154 5.038,-2.738 3.826,-1.564 2.933,-0.705 1.035,1.097 0,0"
             style="fill:#000000;fill-opacity:1;fill-rule:nonzero;stroke:none"
             id="path1926" /></g><g
           id="g1928"
           transform="translate(650.4995,462.3452)"><path
             d="m 0,0 c -1.792,1.33 -3.829,2.188 -5.703,2.981 -1.11,0.458 -3.936,1.905 -4.682,0.372 -0.964,-1.96 1.308,-3.891 2.659,-4.576 2.288,-1.18 5.149,-1.525 7.483,-1.084 0.159,0.028 0.271,0.111 0.362,0.212 C 3.888,-2.81 7.531,-2.244 10.95,-0.852 9.109,-3.177 7.478,-5.769 5.958,-8.67 5.823,-8.746 5.7,-8.836 5.594,-8.95 5.179,-9.399 4.924,-10.069 4.478,-10.481 3.645,-11.247 2.81,-11.964 1.991,-12.762 c -1.556,-1.516 -3.538,-3.215 -4.304,-5.513 -0.297,-0.887 -0.292,-1.808 0.504,-2.468 1.869,-1.549 4.284,1.094 5.301,2.423 1.646,2.115 3.02,4.895 3.683,7.678 l 0.077,0.14 c 0.054,0.119 0.091,0.247 0.114,0.383 2.425,4.687 5.132,8.558 8.671,11.897 0.084,0.08 0.135,0.175 0.178,0.272 1.382,0.967 2.7,2.059 3.922,3.263 0.804,0.805 -0.63,2.274 -1.364,1.528 C 13.77,1.971 7.156,-1.431 0.081,-0.092 0.051,-0.062 0.033,-0.024 0,0"
             style="fill:#000000;fill-opacity:1;fill-rule:nonzero;stroke:none"
             id="path1930" /></g><g
           id="g1932"
           transform="translate(510.9395,422.2935)"><path
             d="m 0,0 c -1.378,1.039 0.229,3.875 0.769,4.915 0.871,1.676 2.032,3.081 3.328,4.245 0.624,0.562 1.286,0.952 1.94,1.444 0.248,0.186 0.485,0.441 0.737,0.548 3.818,4.131 8.255,7.302 12.874,9.665 L 19.095,20.771 C 12.928,20.26 6.779,22.066 0.908,24.125 0.813,24.063 0.715,24.009 0.618,23.963 0.511,23.915 0.404,23.881 0.309,23.859 c -1.481,-0.315 -3.229,0.082 -4.703,0.346 -1.37,0.246 -4.651,0.316 -4.732,2.856 -0.076,2.415 3.589,1.909 4.63,1.722 1.872,-0.34 3.795,-1.247 5.4,-2.554 0.032,-0.006 0.063,-0.009 0.099,-0.022 3.445,-1.211 6.9,-2.244 10.421,-2.865 -2.381,1.942 -4.404,4.596 -6.482,7.111 -0.137,0.061 -0.266,0.157 -0.363,0.321 -0.941,0.721 -9.869,7.736 -7.175,9.847 1.443,1.134 3.643,-1.182 4.641,-2.268 1.474,-1.613 2.989,-3.765 3.755,-6.137 3.192,-3.875 6.327,-8.445 10.925,-9.453 l 0.027,-0.009 c 2.602,-0.099 5.709,0.039 8.729,0.591 l 0.893,0.303 c -1.936,1.05 -3.641,2.727 -5.146,4.669 l -0.04,0.009 c -1.599,0.495 -3.188,1.792 -4.551,2.913 -1.314,1.075 -3.277,2.843 -3.105,5.158 0.173,2.321 2.305,2.52 3.487,1.527 1.181,-0.992 2.169,-2.348 3.074,-3.768 0.594,-0.935 1.22,-1.833 1.687,-2.9 0.122,-0.278 0.263,-0.75 0.346,-1.235 2.158,-2.868 4.752,-5.17 7.952,-5.437 1.257,0.463 2.432,1.02 3.458,1.694 0.906,0.595 1.667,-1.251 0.756,-1.848 C 33.154,23.685 31.908,23.107 30.603,22.652 30.486,22.567 30.354,22.51 30.189,22.515 29.079,22.153 27.933,21.87 26.771,21.651 19.93,19.321 13.132,15.348 7.639,9.361 7.382,8.35 6.739,7.222 6.488,6.669 5.743,5.021 4.851,3.451 3.77,2.107 2.976,1.121 1.252,-0.942 0,0"
             style="fill:#000000;fill-opacity:1;fill-rule:nonzero;stroke:none"
             id="path1934" /></g><g
           id="g1936"
           transform="translate(563.0186,443.8247)"><path
             d="m 0,0 c -1.093,-1.955 -2.676,-3.565 -4.174,-5.02 -0.876,-0.854 -3.119,-3.258 -4.429,-2.087 -1.658,1.491 -0.125,4.099 0.892,5.229 1.742,1.927 4.242,3.33 6.537,3.881 0.155,0.039 0.292,0.009 0.414,-0.045 3.129,2.2 6.505,3.288 9.997,3.799 -2.652,1.087 -5.161,2.648 -7.617,4.615 -0.143,0.011 -0.283,0.041 -0.417,0.098 -0.529,0.229 -1.011,0.731 -1.544,0.921 -0.998,0.351 -1.975,0.672 -2.962,1.084 -1.876,0.778 -4.165,1.622 -5.587,3.497 -0.551,0.723 -0.849,1.587 -0.41,2.485 1.022,2.099 3.867,0.535 5.179,-0.285 2.095,-1.313 4.258,-3.276 5.933,-5.498 l 0.12,-0.092 C 2.025,12.498 2.106,12.397 2.181,12.286 6.067,9.13 10.094,6.979 14.644,6.278 14.752,6.262 14.842,6.214 14.93,6.161 16.516,6.179 18.109,6.14 19.702,6.084 20.75,6.049 20.808,3.999 19.755,4.036 12.87,4.274 6.004,4.312 0.036,0.116 0.021,0.078 0.02,0.036 0,0"
             style="fill:#000000;fill-opacity:1;fill-rule:nonzero;stroke:none"
             id="path1938" /></g><g
           id="g1940"
           transform="translate(428.5366,467.1279)"><path
             d="m 0,0 c -1.424,-0.825 -0.398,-3.862 -0.049,-4.967 0.553,-1.783 1.431,-3.336 2.483,-4.658 0.508,-0.639 1.077,-1.11 1.627,-1.678 0.208,-0.214 0.4,-0.496 0.624,-0.633 3.018,-4.551 7.179,-8.081 11.639,-10.737 l -0.549,0.081 c -3.062,0.455 -6.146,0.38 -9.262,0.046 -3.118,-0.322 -6.256,-0.865 -9.363,-1.427 -0.087,0.077 -0.176,0.146 -0.266,0.205 -0.101,0.065 -0.202,0.115 -0.293,0.151 -1.434,0.544 -3.241,0.442 -4.756,0.438 -1.41,-0.011 -4.68,0.52 -5.231,-1.958 -0.525,-2.363 3.257,-2.542 4.343,-2.534 1.951,0.005 4.053,0.578 5.876,1.62 0.034,10e-4 0.066,-0.001 0.105,0.006 3.671,0.661 7.304,1.212 10.956,1.496 -2.606,-1.707 -5.018,-4.088 -7.525,-6.285 -0.151,-0.041 -0.299,-0.117 -0.422,-0.267 -0.535,-0.299 -3.384,-1.837 -5.819,-3.581 -2.431,-1.746 -4.451,-3.714 -3.218,-4.991 1.336,-1.377 4.058,0.538 5.279,1.457 1.814,1.357 3.731,3.267 4.848,5.513 1.944,1.702 3.851,3.598 5.857,5.162 1.986,1.573 4.025,2.797 6.378,3.126 0.01,0 0.018,0.004 0.028,0.006 2.625,-0.094 5.741,-0.418 8.774,-1.079 l 0.894,-0.334 c -1.992,-0.987 -3.801,-2.58 -5.458,-4.433 l -0.043,-0.007 c -1.675,-0.403 -3.399,-1.587 -4.899,-2.601 -1.44,-0.973 -3.632,-2.562 -3.648,-4.883 -0.015,-2.33 2.248,-2.717 3.581,-1.816 1.332,0.899 2.469,2.185 3.505,3.545 0.682,0.895 1.387,1.756 1.928,2.795 0.141,0.271 0.312,0.735 0.42,1.215 2.39,2.75 5.103,4.944 8.354,5.162 1.273,-0.481 2.469,-1.042 3.524,-1.714 0.937,-0.59 1.689,1.262 0.758,1.852 -1.162,0.738 -2.42,1.318 -3.73,1.788 -0.115,0.087 -0.248,0.146 -0.415,0.143 -1.112,0.377 -2.257,0.685 -3.415,0.939 -3.405,1.263 -6.71,3.031 -9.747,5.294 -1.519,1.131 -2.972,2.386 -4.339,3.765 -1.345,1.374 -2.526,2.881 -3.624,4.521 C 5.592,-9.225 5.142,-8.032 4.983,-7.454 4.508,-5.732 3.908,-4.069 3.117,-2.6 2.531,-1.521 1.286,0.748 0,0"
             style="fill:#000000;fill-opacity:1;fill-rule:nonzero;stroke:none"
             id="path1942" /></g><g
           id="g1944"
           transform="translate(477.2129,444.1606)"><path
             d="m 0,0 c -1.247,1.856 -2.921,3.339 -4.473,4.69 -0.918,0.791 -3.201,3.057 -4.404,1.829 -1.544,-1.566 0.046,-4.103 1.118,-5.176 1.818,-1.836 4.416,-3.072 6.755,-3.436 0.158,-0.025 0.292,0.015 0.41,0.08 C 2.712,-3.951 6.224,-4.705 9.78,-4.824 7.245,-6.199 4.876,-8.006 2.555,-10.19 2.41,-10.214 2.27,-10.256 2.137,-10.326 c -0.519,-0.276 -0.968,-0.818 -1.5,-1.052 -0.994,-0.436 -1.976,-0.835 -2.969,-1.32 -1.886,-0.92 -4.226,-1.904 -5.628,-3.849 -0.543,-0.75 -0.815,-1.627 -0.288,-2.502 1.241,-2.05 4.206,-0.31 5.52,0.608 2.118,1.463 4.195,3.608 5.699,5.977 l 0.114,0.103 c 0.087,0.091 0.162,0.199 0.228,0.318 3.681,3.506 7.481,6.081 11.937,7.339 0.107,0.03 0.192,0.088 0.272,0.152 1.586,0.18 3.17,0.425 4.749,0.695 1.039,0.175 0.815,2.215 -0.224,2.036 C 13.272,-2.979 6.338,-3.796 0.045,-0.113 0.027,-0.076 0.022,-0.034 0,0"
             style="fill:#000000;fill-opacity:1;fill-rule:nonzero;stroke:none"
             id="path1946" /></g><g
           id="g1948"
           transform="translate(330.3462,450.0635)"><path
             d="m 0,0 c -1.149,1.654 1.846,3.415 2.813,4.134 1.602,1.133 3.336,1.933 5.069,2.499 0.836,0.273 1.636,0.382 2.458,0.596 0.31,0.08 0.636,0.229 0.921,0.237 5.199,2.457 10.394,4.028 15.534,4.781 l -0.538,0.134 C 20.28,13.876 14.933,17.602 10.549,21.719 10.44,21.697 10.333,21.685 10.23,21.68 c -0.113,-0.003 -0.221,0.007 -0.313,0.024 -1.427,0.28 -2.768,1.355 -3.804,2.22 -0.482,0.398 -1.351,0.989 -1.79,1.733 -0.467,0.749 -0.535,1.687 0.26,2.671 0.763,0.939 1.486,0.934 2.092,0.718 0.565,-0.202 1.25,-0.793 1.562,-1.067 1.115,-0.994 2.284,-2.536 3.142,-4.327 0.025,-0.018 0.051,-0.032 0.077,-0.057 2.486,-2.383 5.337,-4.542 8.412,-6.291 -1.575,2.618 -2.527,5.797 -3.416,8.84 -0.096,0.103 -0.173,0.236 -0.196,0.421 -0.268,0.496 -1.697,3.136 -2.277,5.715 -0.624,2.597 -0.253,4.996 0.912,5.585 0.641,0.318 1.049,-0.199 1.39,-0.978 0.336,-0.776 0.587,-1.808 0.758,-2.466 0.486,-1.95 0.971,-4.449 0.79,-6.918 1.376,-4.674 2.817,-10.037 6.829,-12.474 l 0.023,-0.017 c 2.423,-0.932 5.41,-1.794 8.448,-2.237 l 0.945,0.002 c -1.499,1.614 -2.58,3.748 -3.382,6.068 l -0.035,0.022 c -1.352,0.98 -2.433,2.716 -3.344,4.212 -0.885,1.438 -2.112,3.734 -1.191,5.866 0.915,2.138 2.92,1.655 3.702,0.341 0.777,-1.314 1.27,-2.913 1.666,-4.546 0.26,-1.075 0.564,-2.126 0.665,-3.285 0.026,-0.304 0.009,-0.796 -0.069,-1.281 1.125,-3.407 2.852,-6.419 5.799,-7.698 1.34,0.035 2.633,0.184 3.822,0.493 1.049,0.271 1.176,-1.72 0.122,-1.993 -1.318,-0.34 -2.684,-0.487 -4.067,-0.498 -0.138,-0.044 -0.282,-0.056 -0.436,0.002 -1.168,0.014 -2.345,0.113 -3.515,0.277 C 26.554,10.755 18.968,9.081 11.485,5.469 10.88,4.616 9.843,3.799 9.394,3.379 8.059,2.12 6.583,1.006 4.941,0.212 3.753,-0.379 1.07,-1.508 0,0"
             style="fill:#000000;fill-opacity:1;fill-rule:nonzero;stroke:none"
             id="path1950" /></g><g
           id="g1952"
           transform="translate(388.1006,452.6035)"><path
             d="m 0,0 c -1.656,-1.51 -3.673,-2.534 -5.562,-3.434 -1.105,-0.53 -4.009,-2.089 -4.877,-0.559 -1.096,1.946 1.197,3.923 2.522,4.667 2.27,1.267 5.086,1.8 7.436,1.597 0.159,-0.013 0.28,-0.083 0.378,-0.174 C 3.559,3.195 7.092,3.182 10.566,2.593 8.383,4.443 6.489,6.704 4.792,9.338 4.66,9.393 4.538,9.464 4.43,9.562 4.002,9.944 3.707,10.571 3.265,10.917 c -0.829,0.646 -1.647,1.259 -2.445,1.96 -1.518,1.33 -3.403,2.856 -4.142,5.086 -0.288,0.861 -0.291,1.774 0.407,2.485 1.631,1.663 3.797,-0.719 4.769,-1.908 C 3.4,16.635 4.81,14.096 5.69,11.465 L 5.773,11.34 c 0.062,-0.108 0.108,-0.23 0.144,-0.359 2.672,-4.205 5.835,-7.493 9.945,-9.549 0.098,-0.049 0.17,-0.122 0.237,-0.2 1.513,-0.467 3.017,-0.988 4.516,-1.525 0.987,-0.35 0.421,-2.323 -0.571,-1.967 C 13.552,0.059 7.059,2.196 0.071,0.099 0.044,0.067 0.03,0.027 0,0"
             style="fill:#000000;fill-opacity:1;fill-rule:nonzero;stroke:none"
             id="path1954" /></g><g
           id="g1956"
           transform="translate(513.1499,648.1538)"><path
             d="m 0,0 c -1.509,-1.044 0.26,-3.875 0.874,-4.91 0.98,-1.668 2.293,-3.056 3.772,-4.184 0.714,-0.545 1.47,-0.913 2.224,-1.379 0.285,-0.176 0.564,-0.421 0.853,-0.517 4.471,-3.963 9.924,-6.768 15.63,-8.596 l -0.658,-0.017 c -7.318,-0.173 -14.444,-2.411 -21.53,-4.516 -0.116,0.063 -0.234,0.116 -0.351,0.16 -0.128,0.047 -0.256,0.08 -0.371,0.101 -1.78,0.304 -3.874,-0.084 -5.641,-0.33 -1.644,-0.233 -5.556,-0.233 -5.715,-2.769 -0.153,-2.416 4.261,-1.986 5.526,-1.807 2.268,0.315 4.619,1.218 6.56,2.541 0.039,0.007 0.078,0.011 0.121,0.024 4.178,1.245 8.325,2.428 12.5,3.316 -2.72,-2.116 -5.061,-4.881 -7.58,-7.47 -0.169,-0.066 -0.327,-0.166 -0.443,-0.334 -0.566,-0.387 -3.621,-2.379 -6.145,-4.49 -2.518,-2.115 -4.488,-4.378 -2.819,-5.443 1.805,-1.147 4.638,1.182 5.901,2.291 1.875,1.637 3.759,3.843 4.637,6.247 3.898,4.015 7.371,8.786 12.738,10.247 0.011,0.002 0.02,0.007 0.031,0.011 3.086,0.363 6.794,0.578 10.468,0.473 l 1.106,-0.168 c -2.152,-1.33 -3.981,-3.221 -5.6,-5.337 l -0.05,-0.015 c -1.896,-0.688 -3.68,-2.153 -5.257,-3.412 -1.509,-1.211 -3.814,-3.153 -3.418,-5.444 0.405,-2.301 3.155,-2.291 4.546,-1.171 1.394,1.116 2.485,2.581 3.444,4.101 0.634,1 1.323,1.972 1.77,3.091 0.117,0.292 0.235,0.78 0.275,1.271 2.315,3.131 5.087,5.78 8.847,6.585 1.573,-0.242 3.07,-0.578 4.42,-1.048 1.195,-0.413 1.746,1.55 0.556,1.962 -1.487,0.516 -3.06,0.858 -4.677,1.083 -0.15,0.064 -0.316,0.099 -0.511,0.065 -1.368,0.17 -2.763,0.266 -4.165,0.307 C 23.475,-18.2 15.036,-14.866 8.619,-9.16 8.284,-8.163 7.525,-7.065 7.229,-6.522 6.342,-4.906 5.322,-3.369 4.121,-2.052 3.234,-1.087 1.362,0.946 0,0"
             style="fill:#000000;fill-opacity:1;fill-rule:nonzero;stroke:none"
             id="path1958" /></g><g
           id="g1960"
           transform="translate(574.4336,634.1416)"><path
             d="m 0,0 c -1.766,1.594 -3.966,2.746 -6.01,3.794 -1.204,0.611 -4.269,2.429 -5.483,0.998 -1.551,-1.826 0.751,-4.038 2.185,-4.901 2.44,-1.478 5.683,-2.225 8.481,-2.144 0.189,0.005 0.339,0.069 0.467,0.155 4.188,-1.286 8.444,-1.341 12.665,-0.63 -2.724,-1.939 -5.216,-4.21 -7.593,-6.823 -0.168,-0.053 -0.326,-0.122 -0.47,-0.217 -0.568,-0.374 -1.006,-0.996 -1.595,-1.33 -1.101,-0.621 -2.189,-1.201 -3.274,-1.864 -2.061,-1.259 -4.626,-2.655 -5.929,-4.827 -0.504,-0.838 -0.673,-1.753 0.085,-2.52 1.772,-1.799 4.935,0.455 6.33,1.608 2.242,1.838 4.35,4.355 5.735,6.992 l 0.117,0.124 c 0.088,0.108 0.159,0.23 0.216,0.359 3.78,4.211 7.841,7.529 12.825,10.036 0.119,0.06 0.206,0.142 0.286,0.228 1.836,0.646 3.652,1.408 5.432,2.31 1.176,0.61 0.185,2.413 -0.912,1.84 C 19.891,1.343 15.964,-0.024 12.013,-0.705 8.054,-1.375 4.042,-1.322 0.072,-0.103 0.045,-0.069 0.032,-0.029 0,0"
             style="fill:#000000;fill-opacity:1;fill-rule:nonzero;stroke:none"
             id="path1962" /></g><g
           id="g1964"
           transform="translate(402.4956,617.248)"><path
             d="m 0,0 c -1.6,1.508 1.314,3.654 2.24,4.495 1.539,1.335 3.316,2.348 5.156,3.123 0.888,0.374 1.774,0.577 2.665,0.889 0.337,0.118 0.677,0.306 1,0.347 5.425,3.074 11.147,5.241 16.987,6.594 L 27.395,15.52 C 20.134,16.315 13.195,19.413 7.132,23.073 7.011,23.039 6.888,23.015 6.77,22.999 6.639,22.983 6.511,22.981 6.4,22.988 c -1.726,0.125 -3.544,1.064 -4.975,1.843 -0.666,0.357 -1.828,0.873 -2.559,1.615 -0.718,0.724 -1.038,1.7 -0.403,2.8 0.604,1.046 1.415,1.095 2.145,0.939 0.769,-0.19 1.763,-0.739 2.215,-0.994 1.615,-0.924 3.393,-2.364 4.823,-4.078 0.034,-0.014 0.067,-0.026 0.104,-0.05 3.478,-2.131 7.259,-3.969 11.208,-5.366 -2.378,2.438 -4.17,5.513 -5.914,8.476 -0.137,0.093 -0.259,0.217 -0.328,0.402 -0.429,0.469 -2.73,2.968 -4.122,5.539 -1.439,2.578 -1.809,5.122 -0.47,5.8 0.735,0.368 1.416,-0.136 2.059,-0.9 0.636,-0.764 1.216,-1.785 1.587,-2.436 1.091,-1.927 2.254,-4.39 2.596,-6.89 2.693,-4.546 5.478,-9.745 10.641,-11.712 l 0.03,-0.015 c 3.012,-0.65 6.666,-1.159 10.3,-1.239 l 1.103,0.113 c -2.061,1.429 -3.737,3.43 -5.13,5.651 l -0.047,0.017 c -1.776,0.819 -3.389,2.427 -4.763,3.817 -1.329,1.334 -3.254,3.493 -2.613,5.728 0.637,2.242 3.123,1.982 4.314,0.759 1.189,-1.224 2.09,-2.765 2.881,-4.349 0.52,-1.042 1.085,-2.055 1.43,-3.2 0.091,-0.299 0.167,-0.792 0.171,-1.285 1.986,-3.266 4.58,-6.064 8.267,-6.98 1.559,0.196 3.041,0.503 4.372,0.958 1.175,0.399 1.699,-1.566 0.519,-1.968 -1.475,-0.502 -3.043,-0.815 -4.655,-0.995 -0.152,-0.059 -0.319,-0.089 -0.51,-0.05 C 39.309,14.81 37.917,14.768 36.519,14.792 28.055,13.923 19.52,11.383 11.728,6.884 11.214,5.958 10.202,5.018 9.78,4.543 8.525,3.125 7.091,1.83 5.421,0.834 4.21,0.099 1.48,-1.372 0,0"
             style="fill:#000000;fill-opacity:1;fill-rule:nonzero;stroke:none"
             id="path1966" /></g><g
           id="g1968"
           transform="translate(468.5649,627.0518)"><path
             d="m 0,0 c -1.636,-1.738 -3.784,-3.046 -5.795,-4.217 -1.154,-0.696 -4.327,-2.649 -5.637,-1.245 -1.669,1.784 0.643,4.051 2.048,4.974 2.416,1.571 5.583,2.527 8.373,2.666 0.189,0.01 0.343,-0.043 0.476,-0.117 C 3.529,3.684 7.652,4.187 11.798,4.178 8.885,5.645 6.247,7.593 3.752,9.947 3.589,9.982 3.432,10.035 3.287,10.115 2.714,10.43 2.245,11.007 1.66,11.286 c -1.097,0.518 -2.178,1.005 -3.258,1.583 -1.026,0.548 -2.175,1.13 -3.237,1.838 -1.073,0.707 -1.937,1.537 -2.585,2.589 -0.491,0.811 -0.664,1.716 -0.007,2.52 0.792,0.939 1.807,0.906 2.957,0.503 1.145,-0.404 2.26,-1.173 2.952,-1.693 2.215,-1.661 4.359,-3.969 5.898,-6.441 L 4.501,12.074 C 4.594,11.976 4.671,11.863 4.738,11.74 8.663,7.979 12.962,5.227 18.185,3.95 18.309,3.92 18.409,3.861 18.503,3.797 20.361,3.611 22.226,3.379 24.09,3.132 25.317,2.973 25.093,0.929 23.86,1.093 15.776,2.123 7.823,3.179 0.063,0.108 0.038,0.072 0.029,0.031 0,0"
             style="fill:#000000;fill-opacity:1;fill-rule:nonzero;stroke:none"
             id="path1970" /></g><g
           id="g1972"
           transform="translate(787.749,348.0996)"><path
             d="m 0,0 c 0.283,-8.779 -5.928,-15.247 -12.478,-20.237 -8.262,-6.295 -18.151,-10.51 -27.842,-14.057 -20.498,-7.503 -42.336,-9.993 -63.758,-13.535 -47.424,-7.84 -94.889,-13.968 -142.969,-15.733 -54.394,-1.996 -109.033,-0.346 -163.081,6.243 -22.311,2.719 -44.508,6.287 -66.681,9.958 -22.463,3.718 -44.882,6.664 -66.191,15.087 -11.699,4.624 -25.57,11.128 -32.42,22.273 -1.308,2.127 -4.883,0.515 -3.564,-1.631 10.421,-16.957 33.401,-24.799 51.469,-30.064 21.085,-6.145 43.478,-8.482 65.119,-11.989 48.172,-7.806 96.454,-13.028 145.271,-14.186 53.191,-1.262 106.428,0.935 159.195,7.875 22.332,2.937 44.554,6.643 66.769,10.338 20.838,3.467 41.188,6.798 60.78,15.067 13.732,5.797 34.855,16.583 34.284,34.25 C 3.823,2.153 -0.082,2.524 0,0"
             style="fill:#000000;fill-opacity:1;fill-rule:nonzero;stroke:none"
             id="path1974" /></g><g
           id="g1976"
           transform="translate(670.2217,516.9634)"><path
             d="m 0,0 c -5.348,-5.347 -12.812,-8.228 -19.813,-10.7 -9.75,-3.443 -19.929,-5.698 -30.056,-7.703 -18.579,-3.677 -37.415,-6 -56.241,-7.98 -12.457,-1.31 -24.925,-2.493 -37.452,-2.821 -11.2,-0.293 -22.403,0.068 -33.604,-0.06 -22.301,-0.255 -44.596,0.921 -66.685,4.121 -18.368,2.661 -36.618,6.481 -54.604,11.042 -8.412,2.133 -16.78,4.499 -24.972,7.372 -5.447,1.91 -11.588,3.957 -16.008,7.821 -1.898,1.659 -4.108,-1.58 -2.225,-3.226 4.43,-3.872 10.56,-5.975 15.993,-7.956 8.847,-3.226 17.977,-5.694 27.096,-8.007 18.82,-4.771 37.962,-8.682 57.196,-11.349 23,-3.189 46.099,-3.971 69.284,-3.654 10.695,0.147 21.38,-0.256 32.076,0.11 11.823,0.405 23.601,1.591 35.36,2.827 19.419,2.043 38.816,4.54 57.966,8.4 9.986,2.013 19.918,4.466 29.53,7.861 6.962,2.458 14.373,5.596 19.678,10.9 C 4.292,-1.229 1.788,1.787 0,0"
             style="fill:#000000;fill-opacity:1;fill-rule:nonzero;stroke:none"
             id="path1978" /></g><g
           id="g1980"
           transform="translate(601.8506,671.0415)"><path
             d="m 0,0 c -5.542,-3.443 -12.666,-4.476 -18.969,-5.641 -8.729,-1.613 -17.569,-2.651 -26.396,-3.559 -18.686,-1.924 -37.404,-2.822 -56.187,-2.663 -18.203,0.155 -36.238,0.591 -54.352,2.608 -8.85,0.985 -17.678,2.229 -26.433,3.858 -6.82,1.269 -14.896,2.467 -20.903,6.208 -2.135,1.329 -4.376,-1.888 -2.225,-3.227 5.367,-3.342 11.977,-4.616 18.067,-5.938 9.062,-1.968 18.279,-3.252 27.478,-4.376 19.236,-2.35 38.553,-3.2 57.923,-3.036 18.771,0.159 37.369,0.742 56.066,2.579 9.244,0.909 18.476,2.05 27.622,3.683 6.57,1.172 14.165,2.353 19.94,5.94 C 3.751,-2.247 2.14,1.329 0,0"
             style="fill:#000000;fill-opacity:1;fill-rule:nonzero;stroke:none"
             id="path1982" /></g><g
           id="g1984"
           transform="translate(500.7935,732.3706)"><path
             d="m 0,0 c -35.294,2.786 -26.436,46.701 -16.812,69.089 -1.209,-0.051 -2.418,-0.103 -3.627,-0.155 4.591,-7.403 7.963,-15.202 11.391,-23.185 1,-2.328 4.558,-0.685 3.565,1.63 -3.429,7.983 -6.801,15.783 -11.392,23.186 -0.904,1.457 -2.897,1.542 -3.627,-0.155 C -31.243,45.423 -38.681,-0.877 -0.342,-3.904 2.178,-4.103 2.522,-0.199 0,0"
             style="fill:#000000;fill-opacity:1;fill-rule:nonzero;stroke:none"
             id="path1986" /></g><g
           id="g1988"
           transform="translate(501.2905,732.3945)"><path
             d="m 0,0 c -16.66,1.359 -14.244,19.754 -10.59,31.427 4.963,15.852 14.675,31.822 27.513,42.499 -1.014,0.229 -2.027,0.457 -3.041,0.686 C 22.16,55.189 36.623,-1.785 0,0 -2.519,0.123 -2.87,-3.78 -0.341,-3.903 40.553,-5.896 27,53.825 17.446,76.242 16.942,77.424 15.363,77.726 14.404,76.928 -0.022,64.929 -10.653,46.704 -15.46,28.678 -19.133,14.91 -17.764,-2.482 -0.341,-3.903 2.178,-4.109 2.521,-0.206 0,0"
             style="fill:#000000;fill-opacity:1;fill-rule:nonzero;stroke:none"
             id="path1990" /></g><g
           id="g1992"
           transform="translate(487.5791,795.79)"><path
             d="M 0,0 C 2.236,10.544 7.888,19.492 12.457,29.108 L 9.111,28.509 C 13.971,21.732 19.097,15.12 23.395,7.963 24.684,5.818 28.257,7.432 26.959,9.593 22.477,17.057 17.18,23.96 12.113,31.028 11.165,32.349 9.346,31.646 8.767,30.429 4.014,20.425 -1.578,11.305 -3.903,0.342 -4.427,-2.128 -0.518,-2.441 0,0"
             style="fill:#000000;fill-opacity:1;fill-rule:nonzero;stroke:none"
             id="path1994" /></g><g
           id="g1996"
           transform="translate(498.5786,731.5747)"><path
             d="M 0,0 C -5.841,13.207 -2.683,28.485 1.836,41.588 5.92,53.435 12.022,65.642 20.372,75.096 21.205,76.039 19.825,77.43 18.987,76.481 10.335,66.686 4.325,54.324 -0.053,42.109 -4.909,28.561 -7.716,12.632 -1.691,-0.988 -1.181,-2.142 0.507,-1.144 0,0"
             style="fill:#000000;fill-opacity:1;fill-rule:nonzero;stroke:none"
             id="path1998" /></g><g
           id="g2000"
           transform="translate(501.1279,730.2754)"><path
             d="m 0,0 c 12.733,10.308 16.493,27.291 17.463,42.886 0.453,7.266 0.17,14.573 -0.447,21.821 -0.279,3.27 -1.325,7.033 -1.012,10.315 0.12,1.259 -1.84,1.247 -1.959,0 -0.268,-2.813 0.609,-6.044 0.877,-8.839 0.643,-6.68 0.909,-13.391 0.724,-20.1 C 15.203,30.056 11.729,12.002 -1.385,1.385 -2.368,0.59 -0.972,-0.787 0,0"
             style="fill:#000000;fill-opacity:1;fill-rule:nonzero;stroke:none"
             id="path2002" /></g><g
           id="g2004"
           transform="translate(488.2153,735.9302)"><path
             d="m 0,0 c -3.688,3.495 -4.483,9.342 -5.073,14.136 -0.771,6.261 -0.732,12.628 -0.636,18.925 0.153,10.067 1.897,20.971 0.05,30.947 -0.23,1.241 -2.118,0.714 -1.889,-0.521 0.892,-4.818 0.486,-9.95 0.343,-14.816 C -7.402,41.921 -7.694,35.176 -7.709,28.422 -7.729,19.528 -8.525,5.38 -1.385,-1.385 -0.469,-2.253 0.918,-0.871 0,0"
             style="fill:#000000;fill-opacity:1;fill-rule:nonzero;stroke:none"
             id="path2006" /></g><g
           id="g2008"
           transform="translate(492.6245,783.3457)"><path
             d="M 0,0 C -0.506,13.624 2.502,27.42 6.344,40.416 6.703,41.63 4.812,42.146 4.455,40.937 0.57,27.8 -2.471,13.779 -1.959,0 -1.912,-1.26 0.047,-1.264 0,0"
             style="fill:#000000;fill-opacity:1;fill-rule:nonzero;stroke:none"
             id="path2010" /></g><g
           id="g2012"
           transform="translate(505.3882,794.6201)"><path
             d="m 0,0 c -1.487,9.902 -3.096,19.502 -6.555,28.953 -0.43,1.176 -2.324,0.668 -1.889,-0.521 C -4.985,18.981 -3.376,9.381 -1.889,-0.521 -1.702,-1.767 0.186,-1.235 0,0"
             style="fill:#000000;fill-opacity:1;fill-rule:nonzero;stroke:none"
             id="path2014" /></g><g
           id="g2016"
           transform="translate(415.832,708.4399)"><path
             d="M 0,0 C -4.422,0 -4.422,-6.857 0,-6.857 4.422,-6.857 4.422,0 0,0"
             style="fill:#000000;fill-opacity:1;fill-rule:nonzero;stroke:none"
             id="path2018" /></g><g
           id="g2020"
           transform="translate(429.5464,685.9097)"><path
             d="M 0,0 C -4.422,0 -4.422,-6.857 0,-6.857 4.422,-6.857 4.422,0 0,0"
             style="fill:#000000;fill-opacity:1;fill-rule:nonzero;stroke:none"
             id="path2022" /></g><g
           id="g2024"
           transform="translate(447.1787,705.501)"><path
             d="M 0,0 C -4.422,0 -4.422,-6.857 0,-6.857 4.422,-6.857 4.422,0 0,0"
             style="fill:#000000;fill-opacity:1;fill-rule:nonzero;stroke:none"
             id="path2026" /></g><g
           id="g2028"
           transform="translate(461.8721,680.0322)"><path
             d="M 0,0 C -4.422,0 -4.422,-6.857 0,-6.857 4.422,-6.857 4.422,0 0,0"
             style="fill:#000000;fill-opacity:1;fill-rule:nonzero;stroke:none"
             id="path2030" /></g><g
           id="g2032"
           transform="translate(481.4639,699.6235)"><path
             d="M 0,0 C -4.422,0 -4.422,-6.857 0,-6.857 4.422,-6.857 4.422,0 0,0"
             style="fill:#000000;fill-opacity:1;fill-rule:nonzero;stroke:none"
             id="path2034" /></g><g
           id="g2036"
           transform="translate(498.1167,679.0522)"><path
             d="M 0,0 C -4.422,0 -4.422,-6.857 0,-6.857 4.422,-6.857 4.422,0 0,0"
             style="fill:#000000;fill-opacity:1;fill-rule:nonzero;stroke:none"
             id="path2038" /></g><g
           id="g2040"
           transform="translate(515.749,703.542)"><path
             d="M 0,0 C -4.422,0 -4.422,-6.857 0,-6.857 4.422,-6.857 4.422,0 0,0"
             style="fill:#000000;fill-opacity:1;fill-rule:nonzero;stroke:none"
             id="path2042" /></g><g
           id="g2044"
           transform="translate(529.4634,681.9912)"><path
             d="M 0,0 C -4.422,0 -4.422,-6.857 0,-6.857 4.422,-6.857 4.422,0 0,0"
             style="fill:#000000;fill-opacity:1;fill-rule:nonzero;stroke:none"
             id="path2046" /></g><g
           id="g2048"
           transform="translate(551.0142,702.5625)"><path
             d="M 0,0 C -4.422,0 -4.422,-6.857 0,-6.857 4.422,-6.857 4.422,0 0,0"
             style="fill:#000000;fill-opacity:1;fill-rule:nonzero;stroke:none"
             id="path2050" /></g><g
           id="g2052"
           transform="translate(561.7891,683.9502)"><path
             d="M 0,0 C -4.422,0 -4.422,-6.857 0,-6.857 4.422,-6.857 4.422,0 0,0"
             style="fill:#000000;fill-opacity:1;fill-rule:nonzero;stroke:none"
             id="path2054" /></g><g
           id="g2056"
           transform="translate(581.3809,708.4399)"><path
             d="M 0,0 C -4.422,0 -4.422,-6.857 0,-6.857 4.422,-6.857 4.422,0 0,0"
             style="fill:#000000;fill-opacity:1;fill-rule:nonzero;stroke:none"
             id="path2058" /></g><g
           id="g2060"
           transform="translate(590.1973,689.8276)"><path
             d="M 0,0 C -4.422,0 -4.422,-6.857 0,-6.857 4.422,-6.857 4.422,0 0,0"
             style="fill:#000000;fill-opacity:1;fill-rule:nonzero;stroke:none"
             id="path2062" /></g><g
           id="g2064"
           transform="translate(349.2207,567.3804)"><path
             d="M 0,0 C -4.422,0 -4.422,-6.857 0,-6.857 4.422,-6.857 4.422,0 0,0"
             style="fill:#000000;fill-opacity:1;fill-rule:nonzero;stroke:none"
             id="path2066" /></g><g
           id="g2068"
           transform="translate(352.1592,536.0342)"><path
             d="M 0,0 C -4.422,0 -4.422,-6.857 0,-6.857 4.422,-6.857 4.422,0 0,0"
             style="fill:#000000;fill-opacity:1;fill-rule:nonzero;stroke:none"
             id="path2070" /></g><g
           id="g2072"
           transform="translate(383.4277,558.9438)"><path
             d="m 0,0 c -0.61,0.943 -1.655,1.58 -2.86,1.58 -1.848,0 -3.458,-1.56 -3.429,-3.429 0.013,-0.831 0.229,-1.562 0.627,-2.287 0.76,-1.385 2.266,-2.051 3.781,-2.121 1.868,-0.086 3.428,1.625 3.428,3.428 C 1.547,-1.61 0.926,-0.602 0,0"
             style="fill:#000000;fill-opacity:1;fill-rule:nonzero;stroke:none"
             id="path2074" /></g><g
           id="g2076"
           transform="translate(381.5469,529.1768)"><path
             d="M 0,0 C -4.422,0 -4.422,-6.857 0,-6.857 4.422,-6.857 4.422,0 0,0"
             style="fill:#000000;fill-opacity:1;fill-rule:nonzero;stroke:none"
             id="path2078" /></g><g
           id="g2080"
           transform="translate(398.1997,544.8501)"><path
             d="m 0,0 h -0.979 c -1.87,0 -3.429,-1.56 -3.429,-3.429 0,-1.869 1.559,-3.428 3.429,-3.428 H 0 c 1.869,0 3.428,1.559 3.428,3.428 C 3.428,-1.56 1.869,0 0,0"
             style="fill:#000000;fill-opacity:1;fill-rule:nonzero;stroke:none"
             id="path2082" /></g><g
           id="g2084"
           transform="translate(428.5664,556.605)"><path
             d="M 0,0 C -4.422,0 -4.422,-6.857 0,-6.857 4.422,-6.857 4.422,0 0,0"
             style="fill:#000000;fill-opacity:1;fill-rule:nonzero;stroke:none"
             id="path2086" /></g><g
           id="g2088"
           transform="translate(433.4644,519.3809)"><path
             d="M 0,0 C -4.422,0 -4.422,-6.857 0,-6.857 4.422,-6.857 4.422,0 0,0"
             style="fill:#000000;fill-opacity:1;fill-rule:nonzero;stroke:none"
             id="path2090" /></g><g
           id="g2092"
           transform="translate(467.7495,507.626)"><path
             d="M 0,0 C -4.422,0 -4.422,-6.857 0,-6.857 4.422,-6.857 4.422,0 0,0"
             style="fill:#000000;fill-opacity:1;fill-rule:nonzero;stroke:none"
             id="path2094" /></g><g
           id="g2096"
           transform="translate(462.8521,540.9316)"><path
             d="m 0,0 h -0.98 c -1.869,0 -3.428,-1.56 -3.428,-3.428 0,-1.869 1.559,-3.429 3.428,-3.429 H 0 c 1.869,0 3.428,1.56 3.428,3.429 C 3.428,-1.56 1.869,0 0,0"
             style="fill:#000000;fill-opacity:1;fill-rule:nonzero;stroke:none"
             id="path2098" /></g><g
           id="g2100"
           transform="translate(409.9546,514.4834)"><path
             d="m 0,0 h -0.979 c -1.869,0 -3.429,-1.56 -3.429,-3.429 0,-1.869 1.56,-3.428 3.429,-3.428 H 0 c 1.869,0 3.429,1.559 3.429,3.428 C 3.429,-1.56 1.869,0 0,0"
             style="fill:#000000;fill-opacity:1;fill-rule:nonzero;stroke:none"
             id="path2102" /></g><g
           id="g2104"
           transform="translate(483.4229,546.8091)"><path
             d="M 0,0 C -4.422,0 -4.422,-6.857 0,-6.857 4.422,-6.857 4.422,0 0,0"
             style="fill:#000000;fill-opacity:1;fill-rule:nonzero;stroke:none"
             id="path2106" /></g><g
           id="g2108"
           transform="translate(497.1372,518.4014)"><path
             d="M 0,0 C -4.422,0 -4.422,-6.857 0,-6.857 4.422,-6.857 4.422,0 0,0"
             style="fill:#000000;fill-opacity:1;fill-rule:nonzero;stroke:none"
             id="path2110" /></g><g
           id="g2112"
           transform="translate(523.5859,541.9116)"><path
             d="M 0,0 C -4.422,0 -4.422,-6.857 0,-6.857 4.422,-6.857 4.422,0 0,0"
             style="fill:#000000;fill-opacity:1;fill-rule:nonzero;stroke:none"
             id="path2114" /></g><g
           id="g2116"
           transform="translate(538.2793,508.606)"><path
             d="M 0,0 C -4.422,0 -4.422,-6.857 0,-6.857 4.422,-6.857 4.422,0 0,0"
             style="fill:#000000;fill-opacity:1;fill-rule:nonzero;stroke:none"
             id="path2118" /></g><g
           id="g2120"
           transform="translate(559.8301,539.9521)"><path
             d="M 0,0 C -4.422,0 -4.422,-6.857 0,-6.857 4.422,-6.857 4.422,0 0,0"
             style="fill:#000000;fill-opacity:1;fill-rule:nonzero;stroke:none"
             id="path2122" /></g><g
           id="g2124"
           transform="translate(598.0337,511.5444)"><path
             d="M 0,0 C -4.422,0 -4.422,-6.857 0,-6.857 4.422,-6.857 4.422,0 0,0"
             style="fill:#000000;fill-opacity:1;fill-rule:nonzero;stroke:none"
             id="path2126" /></g><g
           id="g2128"
           transform="translate(581.3809,548.7686)"><path
             d="M 0,0 C -4.422,0 -4.422,-6.857 0,-6.857 4.422,-6.857 4.422,0 0,0"
             style="fill:#000000;fill-opacity:1;fill-rule:nonzero;stroke:none"
             id="path2130" /></g><g
           id="g2132"
           transform="translate(568.6465,514.4834)"><path
             d="M 0,0 C -4.422,0 -4.422,-6.857 0,-6.857 4.422,-6.857 4.422,0 0,0"
             style="fill:#000000;fill-opacity:1;fill-rule:nonzero;stroke:none"
             id="path2134" /></g><g
           id="g2136"
           transform="translate(612.7275,552.687)"><path
             d="M 0,0 C -4.422,0 -4.422,-6.857 0,-6.857 4.422,-6.857 4.422,0 0,0"
             style="fill:#000000;fill-opacity:1;fill-rule:nonzero;stroke:none"
             id="path2138" /></g><g
           id="g2140"
           transform="translate(621.5435,523.2993)"><path
             d="M 0,0 C -4.422,0 -4.422,-6.857 0,-6.857 4.422,-6.857 4.422,0 0,0"
             style="fill:#000000;fill-opacity:1;fill-rule:nonzero;stroke:none"
             id="path2142" /></g><g
           id="g2144"
           transform="translate(646.3608,539.3252)"><path
             d="m 0,0 c -0.626,0.412 -1.55,0.616 -2.287,0.627 -1.869,0.029 -3.428,-1.582 -3.428,-3.428 0,-1.205 0.636,-2.25 1.579,-2.861 0.602,-0.926 1.61,-1.547 2.829,-1.547 1.804,0 3.515,1.56 3.428,3.428 C 2.047,-2.169 1.35,-0.889 0,0"
             style="fill:#000000;fill-opacity:1;fill-rule:nonzero;stroke:none"
             id="path2146" /></g><g
           id="g2148"
           transform="translate(642.1147,566.4009)"><path
             d="M 0,0 C -4.422,0 -4.422,-6.857 0,-6.857 4.422,-6.857 4.422,0 0,0"
             style="fill:#000000;fill-opacity:1;fill-rule:nonzero;stroke:none"
             id="path2150" /></g><g
           id="g2152"
           transform="translate(657.7881,527.2178)"><path
             d="M 0,0 C -4.422,0 -4.422,-6.857 0,-6.857 4.422,-6.857 4.422,0 0,0"
             style="fill:#000000;fill-opacity:1;fill-rule:nonzero;stroke:none"
             id="path2154" /></g><g
           id="g2156"
           transform="translate(661.7065,559.5439)"><path
             d="M 0,0 C -4.422,0 -4.422,-6.857 0,-6.857 4.422,-6.857 4.422,0 0,0"
             style="fill:#000000;fill-opacity:1;fill-rule:nonzero;stroke:none"
             id="path2158" /></g><g
           id="g2160"
           transform="translate(222.855,391.0562)"><path
             d="M 0,0 C -4.422,0 -4.422,-6.857 0,-6.857 4.422,-6.857 4.422,0 0,0"
             style="fill:#000000;fill-opacity:1;fill-rule:nonzero;stroke:none"
             id="path2162" /></g><g
           id="g2164"
           transform="translate(226.7734,346.9751)"><path
             d="M 0,0 C -4.422,0 -4.422,-6.857 0,-6.857 4.422,-6.857 4.422,0 0,0"
             style="fill:#000000;fill-opacity:1;fill-rule:nonzero;stroke:none"
             id="path2166" /></g><g
           id="g2168"
           transform="translate(251.2627,376.3628)"><path
             d="M 0,0 C -4.422,0 -4.422,-6.857 0,-6.857 4.422,-6.857 4.422,0 0,0"
             style="fill:#000000;fill-opacity:1;fill-rule:nonzero;stroke:none"
             id="path2170" /></g><g
           id="g2172"
           transform="translate(274.7725,336.1997)"><path
             d="M 0,0 C -4.422,0 -4.422,-6.857 0,-6.857 4.422,-6.857 4.422,0 0,0"
             style="fill:#000000;fill-opacity:1;fill-rule:nonzero;stroke:none"
             id="path2174" /></g><g
           id="g2176"
           transform="translate(293.3848,368.5259)"><path
             d="M 0,0 C -4.422,0 -4.422,-6.857 0,-6.857 4.422,-6.857 4.422,0 0,0"
             style="fill:#000000;fill-opacity:1;fill-rule:nonzero;stroke:none"
             id="path2178" /></g><g
           id="g2180"
           transform="translate(333.5474,326.4038)"><path
             d="M 0,0 C -4.422,0 -4.422,-6.857 0,-6.857 4.422,-6.857 4.422,0 0,0"
             style="fill:#000000;fill-opacity:1;fill-rule:nonzero;stroke:none"
             id="path2182" /></g><g
           id="g2184"
           transform="translate(345.3022,361.6689)"><path
             d="m 0,0 h -0.979 c -1.869,0 -3.429,-1.56 -3.429,-3.429 0,-1.869 1.56,-3.428 3.429,-3.428 H 0 c 1.869,0 3.429,1.559 3.429,3.428 C 3.429,-1.56 1.869,0 0,0"
             style="fill:#000000;fill-opacity:1;fill-rule:nonzero;stroke:none"
             id="path2186" /></g><g
           id="g2188"
           transform="translate(305.1396,335.2202)"><path
             d="M 0,0 C -4.422,0 -4.422,-6.857 0,-6.857 4.422,-6.857 4.422,0 0,0"
             style="fill:#000000;fill-opacity:1;fill-rule:nonzero;stroke:none"
             id="path2190" /></g><g
           id="g2192"
           transform="translate(248.3242,346.9751)"><path
             d="M 0,0 C -4.422,0 -4.422,-6.857 0,-6.857 4.422,-6.857 4.422,0 0,0"
             style="fill:#000000;fill-opacity:1;fill-rule:nonzero;stroke:none"
             id="path2194" /></g><g
           id="g2196"
           transform="translate(364.894,356.771)"><path
             d="M 0,0 C -4.422,0 -4.422,-6.857 0,-6.857 4.422,-6.857 4.422,0 0,0"
             style="fill:#000000;fill-opacity:1;fill-rule:nonzero;stroke:none"
             id="path2198" /></g><g
           id="g2200"
           transform="translate(353.1392,323.4653)"><path
             d="M 0,0 C -4.422,0 -4.422,-6.857 0,-6.857 4.422,-6.857 4.422,0 0,0"
             style="fill:#000000;fill-opacity:1;fill-rule:nonzero;stroke:none"
             id="path2202" /></g><g
           id="g2204"
           transform="translate(404.0771,304.8535)"><path
             d="M 0,0 C -4.422,0 -4.422,-6.857 0,-6.857 4.422,-6.857 4.422,0 0,0"
             style="fill:#000000;fill-opacity:1;fill-rule:nonzero;stroke:none"
             id="path2206" /></g><g
           id="g2208"
           transform="translate(376.9766,332.6343)"><path
             d="m 0,0 c -0.625,0.412 -1.55,0.615 -2.287,0.627 -1.869,0.029 -3.428,-1.582 -3.428,-3.429 0,-1.204 0.636,-2.25 1.579,-2.86 0.602,-0.926 1.61,-1.548 2.829,-1.548 1.804,0 3.515,1.561 3.428,3.429 C 2.047,-2.169 1.35,-0.89 0,0"
             style="fill:#000000;fill-opacity:1;fill-rule:nonzero;stroke:none"
             id="path2210" /></g><g
           id="g2212"
           transform="translate(422.6895,351.873)"><path
             d="M 0,0 C -4.422,0 -4.422,-6.857 0,-6.857 4.421,-6.857 4.421,0 0,0"
             style="fill:#000000;fill-opacity:1;fill-rule:nonzero;stroke:none"
             id="path2214" /></g><g
           id="g2216"
           transform="translate(442.2808,319.5469)"><path
             d="M 0,0 C -4.422,0 -4.422,-6.857 0,-6.857 4.422,-6.857 4.422,0 0,0"
             style="fill:#000000;fill-opacity:1;fill-rule:nonzero;stroke:none"
             id="path2218" /></g><g
           id="g2220"
           transform="translate(489.3003,317.5879)"><path
             d="M 0,0 C -4.422,0 -4.422,-6.857 0,-6.857 4.422,-6.857 4.422,0 0,0"
             style="fill:#000000;fill-opacity:1;fill-rule:nonzero;stroke:none"
             id="path2222" /></g><g
           id="g2224"
           transform="translate(478.5249,355.7915)"><path
             d="M 0,0 C -4.422,0 -4.422,-6.857 0,-6.857 4.422,-6.857 4.422,0 0,0"
             style="fill:#000000;fill-opacity:1;fill-rule:nonzero;stroke:none"
             id="path2226" /></g><g
           id="g2228"
           transform="translate(446.1992,339.1387)"><path
             d="M 0,0 C -4.422,0 -4.422,-6.857 0,-6.857 4.422,-6.857 4.422,0 0,0"
             style="fill:#000000;fill-opacity:1;fill-rule:nonzero;stroke:none"
             id="path2230" /></g><g
           id="g2232"
           transform="translate(517.708,301.9146)"><path
             d="M 0,0 C -4.422,0 -4.422,-6.857 0,-6.857 4.422,-6.857 4.422,0 0,0"
             style="fill:#000000;fill-opacity:1;fill-rule:nonzero;stroke:none"
             id="path2234" /></g><g
           id="g2236"
           transform="translate(520.6475,343.0571)"><path
             d="M 0,0 C -4.422,0 -4.422,-6.857 0,-6.857 4.421,-6.857 4.421,0 0,0"
             style="fill:#000000;fill-opacity:1;fill-rule:nonzero;stroke:none"
             id="path2238" /></g><g
           id="g2240"
           transform="translate(565.7075,311.7104)"><path
             d="M 0,0 C -4.422,0 -4.422,-6.857 0,-6.857 4.422,-6.857 4.422,0 0,0"
             style="fill:#000000;fill-opacity:1;fill-rule:nonzero;stroke:none"
             id="path2242" /></g><g
           id="g2244"
           transform="translate(573.5444,350.8936)"><path
             d="M 0,0 C -4.422,0 -4.422,-6.857 0,-6.857 4.422,-6.857 4.422,0 0,0"
             style="fill:#000000;fill-opacity:1;fill-rule:nonzero;stroke:none"
             id="path2246" /></g><g
           id="g2248"
           transform="translate(614.6865,314.6489)"><path
             d="M 0,0 C -4.422,0 -4.422,-6.857 0,-6.857 4.422,-6.857 4.422,0 0,0"
             style="fill:#000000;fill-opacity:1;fill-rule:nonzero;stroke:none"
             id="path2250" /></g><g
           id="g2252"
           transform="translate(632.3188,355.7915)"><path
             d="M 0,0 C -4.421,0 -4.421,-6.857 0,-6.857 4.422,-6.857 4.422,0 0,0"
             style="fill:#000000;fill-opacity:1;fill-rule:nonzero;stroke:none"
             id="path2254" /></g><g
           id="g2256"
           transform="translate(656.8086,316.6084)"><path
             d="M 0,0 C -4.422,0 -4.422,-6.857 0,-6.857 4.422,-6.857 4.422,0 0,0"
             style="fill:#000000;fill-opacity:1;fill-rule:nonzero;stroke:none"
             id="path2258" /></g><g
           id="g2260"
           transform="translate(670.0083,352.8276)"><path
             d="m 0,0 c -0.327,0.327 -0.653,0.653 -0.979,0.98 -1.322,1.321 -3.528,1.321 -4.85,0 -1.32,-1.321 -1.32,-3.528 0,-4.849 0.327,-0.326 0.654,-0.653 0.98,-0.98 1.321,-1.32 3.528,-1.32 4.849,0 C 1.321,-3.527 1.321,-1.32 0,0"
             style="fill:#000000;fill-opacity:1;fill-rule:nonzero;stroke:none"
             id="path2262" /></g><g
           id="g2264"
           transform="translate(694.0322,329.3428)"><path
             d="M 0,0 C -4.422,0 -4.422,-6.857 0,-6.857 4.422,-6.857 4.422,0 0,0"
             style="fill:#000000;fill-opacity:1;fill-rule:nonzero;stroke:none"
             id="path2266" /></g><g
           id="g2268"
           transform="translate(712.9722,363.9805)"><path
             d="m 0,0 c -0.625,0.413 -1.55,0.616 -2.287,0.627 -1.869,0.029 -3.428,-1.582 -3.428,-3.428 0,-1.205 0.636,-2.25 1.579,-2.861 0.602,-0.926 1.61,-1.547 2.829,-1.547 1.804,0 3.515,1.56 3.428,3.428 C 2.047,-2.169 1.35,-0.889 0,0"
             style="fill:#000000;fill-opacity:1;fill-rule:nonzero;stroke:none"
             id="path2270" /></g><g
           id="g2272"
           transform="translate(739.0933,338.1592)"><path
             d="M 0,0 C -4.422,0 -4.422,-6.857 0,-6.857 4.422,-6.857 4.422,0 0,0"
             style="fill:#000000;fill-opacity:1;fill-rule:nonzero;stroke:none"
             id="path2274" /></g><g
           id="g2276"
           transform="translate(751.8276,377.3423)"><path
             d="M 0,0 C -4.422,0 -4.422,-6.857 0,-6.857 4.422,-6.857 4.422,0 0,0"
             style="fill:#000000;fill-opacity:1;fill-rule:nonzero;stroke:none"
             id="path2278" /></g><g
           id="g2280"
           transform="translate(774.3579,352.8525)"><path
             d="M 0,0 C -4.422,0 -4.422,-6.857 0,-6.857 4.422,-6.857 4.422,0 0,0"
             style="fill:#000000;fill-opacity:1;fill-rule:nonzero;stroke:none"
             id="path2282" /></g><g
           id="g2284"
           transform="translate(602.9316,335.2202)"><path
             d="M 0,0 C -4.422,0 -4.422,-6.857 0,-6.857 4.422,-6.857 4.422,0 0,0"
             style="fill:#000000;fill-opacity:1;fill-rule:nonzero;stroke:none"
             id="path2286" /></g><g
           id="g2288"
           transform="translate(539.2588,324.4448)"><path
             d="M 0,0 C -4.422,0 -4.422,-6.857 0,-6.857 4.422,-6.857 4.422,0 0,0"
             style="fill:#000000;fill-opacity:1;fill-rule:nonzero;stroke:none"
             id="path2290" /></g><g
           id="g2292"
           transform="translate(540.2388,360.6895)"><path
             d="M 0,0 C -4.422,0 -4.422,-6.857 0,-6.857 4.422,-6.857 4.422,0 0,0"
             style="fill:#000000;fill-opacity:1;fill-rule:nonzero;stroke:none"
             id="path2294" /></g><g
           id="g2296"
           transform="translate(775.3374,389.0972)"><path
             d="M 0,0 C -4.422,0 -4.422,-6.857 0,-6.857 4.422,-6.857 4.422,0 0,0"
             style="fill:#000000;fill-opacity:1;fill-rule:nonzero;stroke:none"
             id="path2298" /></g></g></g></g></svg>
