<?xml version="1.0" encoding="UTF-8" standalone="no"?>
<svg
   xmlns:dc="http://purl.org/dc/elements/1.1/"
   xmlns:cc="http://creativecommons.org/ns#"
   xmlns:rdf="http://www.w3.org/1999/02/22-rdf-syntax-ns#"
   xmlns:svg="http://www.w3.org/2000/svg"
   xmlns="http://www.w3.org/2000/svg"
   xmlns:sodipodi="http://sodipodi.sourceforge.net/DTD/sodipodi-0.dtd"
   xmlns:inkscape="http://www.inkscape.org/namespaces/inkscape"
   id="_x33_0"
   enable-background="new 0 0 64 64"
   height="512"
   viewBox="0 0 64 64"
   width="512"
   version="1.1"
   sodipodi:docname="cake-white.svg"
   inkscape:version="0.92.4 (5da689c313, 2019-01-14)">
  <metadata
     id="metadata5447">
    <rdf:RDF>
      <cc:Work
         rdf:about="">
        <dc:format>image/svg+xml</dc:format>
        <dc:type
           rdf:resource="http://purl.org/dc/dcmitype/StillImage" />
        <dc:title></dc:title>
      </cc:Work>
    </rdf:RDF>
  </metadata>
  <defs
     id="defs5445" />
  <sodipodi:namedview
     pagecolor="#ffffff"
     bordercolor="#666666"
     borderopacity="1"
     objecttolerance="10"
     gridtolerance="10"
     guidetolerance="10"
     inkscape:pageopacity="0"
     inkscape:pageshadow="2"
     inkscape:window-width="2400"
     inkscape:window-height="1271"
     id="namedview5443"
     showgrid="false"
     inkscape:zoom="1.84375"
     inkscape:cx="399.30174"
     inkscape:cy="242.53419"
     inkscape:window-x="-9"
     inkscape:window-y="0"
     inkscape:window-maximized="1"
     inkscape:current-layer="_x33_0" />
  <linearGradient
     id="SVGID_1_"
     gradientUnits="userSpaceOnUse"
     x1="32"
     x2="32"
     y1="63"
     y2="1">
    <stop
       offset="0"
       stop-color="#9f2fff"
       id="stop5435" />
    <stop
       offset="1"
       stop-color="#0bb1d3"
       id="stop5437" />
  </linearGradient>
  <path
     d="m 28.964866,5.0941619 h -3.957333 c -2.819556,0 -5.176889,1.984 -5.771852,4.6269629 C 18.361014,8.6354952 17.604866,7.8674952 17.549163,7.8117915 l -1.02163,-1.0228148 -0.80237,1.202963 c -0.07348,0.1114074 -1.53363,2.3205923 -2.217482,4.5428153 -0.590222,-0.15526 -1.060741,-0.258371 -1.304889,-0.306963 l -1.417481,-0.28326 v 1.445926 c 0,0.131556 0.01659,1.826371 0.554666,3.813926 -3.0897769,0.872297 -5.0050369,3.688297 -5.0962959,3.825778 l -0.539259,0.808296 0.687407,0.687408 c 0.09482,0.09482 2.030222,1.970963 5.0524449,2.542222 -0.44563,1.246815 -0.624593,2.23763 -0.643556,2.351407 l -0.229926,1.378371 h 1.399704 v 9.481481 H 8.4149401 c -3.267555,0 -5.9259256,2.658371 -5.9259256,5.925926 v 10.884741 c -1.376,0.490667 -2.37037044,1.79437 -2.37037044,3.337481 0,1.960297 1.59525934,3.555556 3.55555564,3.555556 0.9137777,0 1.7398514,-0.356741 2.3703704,-0.924444 0.630518,0.568888 1.456593,0.924444 2.37037,0.924444 0.913778,0 1.7398519,-0.356741 2.3703709,-0.924444 0.630518,0.568888 1.456592,0.924444 2.37037,0.924444 0.913778,0 1.739852,-0.356741 2.37037,-0.924444 0.630519,0.568888 1.456593,0.924444 2.370371,0.924444 0.913778,0 1.739852,-0.356741 2.37037,-0.924444 0.630519,0.568888 1.456593,0.924444 2.370371,0.924444 0.913777,0 1.739851,-0.356741 2.37037,-0.924444 0.630518,0.568888 1.456592,0.924444 2.37037,0.924444 0.913778,0 1.739852,-0.356741 2.370371,-0.924444 0.630518,0.568888 1.456592,0.924444 2.37037,0.924444 0.913778,0 1.739852,-0.356741 2.37037,-0.924444 0.630519,0.568888 1.456593,0.924444 2.370371,0.924444 0.913778,0 1.739852,-0.356741 2.37037,-0.924444 0.630519,0.568888 1.456593,0.924444 2.37037,0.924444 0.913778,0 1.739852,-0.356741 2.370371,-0.924444 0.630518,0.568888 1.456592,0.924444 2.37037,0.924444 0.913778,0 1.739852,-0.356741 2.370371,-0.924444 0.630518,0.568888 1.456592,0.924444 2.37037,0.924444 0.913778,0 1.739852,-0.356741 2.37037,-0.924444 0.630519,0.568888 1.456593,0.924444 2.370371,0.924444 0.913777,0 1.739852,-0.356741 2.37037,-0.924444 0.630519,0.568888 1.456593,0.924444 2.37037,0.924444 1.960297,0 3.555556,-1.595259 3.555556,-3.555556 0,-1.543111 -0.99437,-2.846814 -2.37037,-3.337481 V 44.205273 c 0,-0.96 -0.308149,-1.867852 -0.832,-2.642963 1.857185,-0.64237 3.20237,-2.395259 3.20237,-4.468148 0,-2.247111 -1.572741,-4.135111 -3.676444,-4.619852 -0.484741,-2.103703 -2.372741,-3.676444 -4.619852,-3.676444 -0.702815,0 -1.361778,0.168296 -1.962667,0.443259 -0.474074,-0.952889 -1.08563,-1.758815 -1.667556,-2.372741 -0.368592,-2.939259 -2.831407,-5.181629 -5.851259,-5.181629 H 45.155681 V 11.020088 c 0,-3.2675557 -2.65837,-5.9259261 -5.925926,-5.9259261 H 35.272422 M 15.556866,40.649718 c -0.752592,0.993185 -1.216,2.216296 -1.216,3.555555 0,1.960297 1.595259,3.555556 3.555556,3.555556 1.960296,0 3.555555,-1.595259 3.555555,-3.555556 v -1.185185 h -2.37037 v 1.185185 c 0,0.654222 -0.530963,1.185185 -1.185185,1.185185 -0.654222,0 -1.185185,-0.530963 -1.185185,-1.185185 0,-1.960296 1.595259,-3.555555 3.555555,-3.555555 1.960296,0 3.555556,1.595259 3.555556,3.555555 0,3.267556 -2.658371,5.925926 -5.925926,5.925926 -7.9419259,0 -10.0349629,-6.863407 -10.5303709,-9.306074 0.334223,-0.103111 0.681482,-0.175407 1.048889,-0.175407 z m 2.382222,-23.290074 c 0.05926,0.701629 0.25126,1.374814 0.521482,1.997037 -0.188445,-0.01304 -0.361482,-0.0403 -0.564148,-0.0403 -0.987259,0 -1.835852,0.245334 -2.578963,0.63526 -1.307259,-1.429334 -1.825185,-3.570963 -2.029037,-5.016889 1.930666,0.557037 4.041481,1.463703 4.650666,2.424889 z m 4.698075,-0.41363 c 0,0.983704 -0.604445,2.081185 -1.185186,2.890667 -0.58074,-0.809482 -1.185185,-1.906963 -1.185185,-2.890667 0,-1.008593 0.590222,-2.420148 1.185185,-3.570963 0.594963,1.150815 1.185186,2.56237 1.185186,3.570963 z m 2.327703,0.41363 c 0.608,-0.96 2.723556,-1.867852 4.656593,-2.426074 -0.225185,1.549037 -0.792889,3.643259 -2.038519,5.016888 -0.74074,-0.38874 -1.589333,-0.634074 -2.575407,-0.634074 -0.202667,0 -0.375704,0.02726 -0.564148,0.0403 0.271407,-0.622223 0.462222,-1.294223 0.521481,-1.997037 z m -2.684444,5.174518 c 0.05215,-0.04859 0.944592,-0.847407 2.727111,-0.847407 2.516148,0 3.811555,2.839703 4.38163,4.651852 -2.266075,-0.234667 -5.652149,-0.988445 -6.951112,-2.938075 l -0.408888,-0.613925 z m 7.143111,-1.098667 c 0.535704,-0.611555 0.967111,-1.290666 1.30963,-1.994666 1.426962,0.338963 2.582518,1.334518 3.265185,2.068148 -0.76326,0.517926 -2.008889,1.174518 -3.570963,1.329778 -0.286815,-0.490667 -0.619852,-0.964741 -1.003852,-1.40326 z m 6.587259,-1.233777 c -0.407704,-0.470519 -0.997926,-1.069037 -1.749333,-1.630815 0.849778,-0.650667 1.408,-1.664 1.408,-2.814815 v -1.185185 h -2.370371 v 1.185185 c 0,0.653037 -0.530963,1.185185 -1.185185,1.185185 -0.158815,0 -0.310518,-0.0403 -0.453926,-0.09955 0.446815,-1.827561 0.458667,-3.328005 0.458667,-3.451265 v -0.279703 c 0.641185,-0.57363 1.47437,-0.910223 2.36563,-0.910223 1.960296,0 3.555555,1.59526 3.555555,3.555556 0,1.717333 -0.763259,3.324444 -2.029037,4.44563 z M 24.544125,14.559051 c -0.146962,-0.431407 -0.314074,-0.856889 -0.495407,-1.261037 0.585482,-0.99437 1.334519,-1.959111 1.942519,-2.669037 0.423111,0.779852 0.878222,1.741037 1.147259,2.629926 -0.891259,0.341333 -1.807408,0.77037 -2.594371,1.300148 z m -6.647703,7.127704 c 1.800296,0 2.693926,0.816592 2.717629,0.837926 l 0.261926,0.261926 -0.410074,0.613925 c -1.294222,1.940149 -4.673185,2.697482 -6.941629,2.935704 0.579555,-1.812148 1.884444,-4.649481 4.372148,-4.649481 z m 3.555555,4.167111 c 0.956445,0.873481 2.168889,1.483852 3.402667,1.915259 -1.340444,1.086815 -2.217481,2.727111 -2.217481,4.584296 0,1.960297 1.595259,3.555556 3.555555,3.555556 1.960296,0 3.555556,-1.595259 3.555556,-3.555556 v -1.185185 h -2.370371 v 1.185185 c 0,0.654223 -0.530963,1.185186 -1.185185,1.185186 -0.654222,0 -1.185185,-0.530963 -1.185185,-1.185186 0,-1.960296 1.595259,-3.555555 3.555555,-3.555555 1.960297,0 3.555556,1.595259 3.555556,3.555555 0,3.267556 -2.65837,5.925926 -5.925926,5.925926 -9.451852,0 -10.628741,-9.221926 -10.680889,-9.660444 l -0.02726,-0.178963 c 1.965037,-0.363852 4.335407,-1.097482 5.967408,-2.586074 z M 5.3464961,42.440532 c 1.019259,3.535408 4.048592,10.061038 12.5499259,10.061038 4.573629,0 8.296296,-3.722667 8.296296,-8.296297 0,-1.339259 -0.463407,-2.56237 -1.216,-3.555555 h 11.338667 c 0.395852,0.681481 0.954074,1.253926 1.623703,1.66637 -1.118814,1.332148 -2.264888,3.694222 -2.264888,7.815111 v 1.185185 h 1.185185 c 0.291555,0 6.427259,-0.05807 9.667555,-3.804444 0.624593,0.635259 1.415111,1.105778 2.304,1.313185 0.484741,2.102519 2.372741,3.676445 4.621037,3.676445 2.247111,0 4.135111,-1.572741 4.619852,-3.676445 0.466963,-0.107852 0.901926,-0.293926 1.306074,-0.528593 v 6.793482 c -0.443259,0.15763 -0.842666,0.398222 -1.185185,0.70637 -0.630518,-0.568889 -1.456593,-0.924444 -2.37037,-0.924444 -0.913778,0 -1.739852,0.356741 -2.370371,0.924444 -0.630518,-0.568889 -1.456592,-0.924444 -2.37037,-0.924444 -0.913778,0 -1.739852,0.356741 -2.37037,0.924444 -0.630519,-0.568889 -1.456593,-0.924444 -2.370371,-0.924444 -0.913778,0 -1.739852,0.356741 -2.37037,0.924444 -0.630519,-0.568889 -1.456593,-0.924444 -2.370371,-0.924444 -0.913777,0 -1.739851,0.356741 -2.37037,0.924444 -0.630518,-0.568889 -1.456592,-0.924444 -2.37037,-0.924444 -0.913778,0 -1.739852,0.356741 -2.370371,0.924444 -0.630518,-0.568889 -1.456592,-0.924444 -2.37037,-0.924444 -0.913778,0 -1.739852,0.356741 -2.37037,0.924444 -0.630519,-0.568889 -1.456593,-0.924444 -2.370371,-0.924444 -0.913778,0 -1.739852,0.356741 -2.37037,0.924444 -0.630519,-0.568889 -1.456593,-0.924444 -2.37037,-0.924444 -0.913778,0 -1.739852,0.356741 -2.370371,0.924444 -0.630518,-0.568889 -1.456592,-0.924444 -2.37037,-0.924444 -0.913778,0 -1.739852,0.356741 -2.370371,0.924444 -0.630518,-0.568889 -1.456592,-0.924444 -2.37037,-0.924444 -0.913778,0 -1.739852,0.356741 -2.37037,0.924444 -0.630519,-0.568889 -1.4565929,-0.924444 -2.3703709,-0.924444 -0.913777,0 -1.739852,0.356741 -2.37037,0.924444 -0.342519,-0.309333 -0.741926,-0.54874 -1.1851853,-0.70637 V 44.205273 c 0,-0.645926 0.1860741,-1.243259 0.4871113,-1.764741 z M 49.894051,27.937421 c 0.647112,0.572445 1.603556,1.579852 2.08,2.859852 -0.35674,0.498963 -0.630518,1.059556 -0.77274,1.675852 -0.874667,0.200296 -1.666371,0.648296 -2.298074,1.287111 -0.105482,-0.032 -0.205037,-0.07585 -0.312889,-0.100741 -0.171852,-0.746666 -0.528593,-1.422222 -1.008593,-1.98874 0.277333,-1.69363 1.521778,-3.038815 2.312296,-3.733334 z m 5.928297,12.712297 c 0.913777,0 1.739852,-0.356741 2.37037,-0.924445 v 0.924445 c 0,1.307259 -1.063111,2.37037 -2.37037,2.37037 -1.30726,0 -2.370371,-1.063111 -2.370371,-2.37037 v -0.924445 c 0.630519,0.567704 1.456593,0.924445 2.370371,0.924445 z m -1.185185,-3.555556 c 0,-0.654222 0.530962,-1.185185 1.185185,-1.185185 0.654222,0 1.185185,0.530963 1.185185,1.185185 0,0.654222 -0.530963,1.185185 -1.185185,1.185185 -0.654223,0 -1.185185,-0.530963 -1.185185,-1.185185 z m -14.933334,6.774519 c 0.764445,1.595259 2.383408,2.706963 4.266667,2.706963 0.05215,0 0.101926,-0.01185 0.152889,-0.01304 -1.82163,1.579851 -4.488297,2.119111 -6.036148,2.295703 0.184888,-2.676148 0.944592,-4.170666 1.616592,-4.989629 z m 4.266667,-2.033778 c 0.913778,0 1.739852,-0.356741 2.37037,-0.924445 v 0.924445 c 0,1.307259 -1.063111,2.37037 -2.37037,2.37037 -1.307259,0 -2.370371,-1.063111 -2.370371,-2.37037 v -0.924445 c 0.630519,0.567704 1.456593,0.924445 2.370371,0.924445 z m -1.185185,-3.555556 c 0,-0.654222 0.530963,-1.185185 1.185185,-1.185185 0.654222,0 1.185185,0.530963 1.185185,1.185185 0,0.654223 -0.530963,1.185185 -1.185185,1.185185 -0.654222,0 -1.185185,-0.530962 -1.185185,-1.185185 z m 4.74074,2.370371 h -0.924444 c 0.568889,-0.630519 0.924444,-1.456593 0.924444,-2.370371 0,-0.913777 -0.35674,-1.739852 -0.924444,-2.37037 h 0.924444 c 1.30726,0 2.370371,1.063111 2.370371,2.37037 0,1.30726 -1.063111,2.370371 -2.370371,2.370371 z m 3.488,-5.554963 c 0.370963,-0.232297 0.79763,-0.370963 1.252741,-0.370963 h 0.924445 c -0.568889,0.630518 -0.924445,1.456592 -0.924445,2.37037 0,0.913778 0.356741,1.739852 0.924445,2.37037 h -0.924445 c -0.05452,0 -0.107852,-0.01659 -0.16237,-0.02133 0.096,-0.374518 0.16237,-0.759704 0.16237,-1.163852 0,-1.229037 -0.481185,-2.34074 -1.252741,-3.184592 z m -4.673185,-0.370963 v 0.924444 c -0.630518,-0.568889 -1.456592,-0.924444 -2.37037,-0.924444 -0.913778,0 -1.739852,0.35674 -2.370371,0.924444 v -0.924444 c 0,-1.30726 1.063112,-2.370371 2.370371,-2.370371 1.307259,0 2.37037,1.063111 2.37037,2.370371 z m -5.001481,5.925926 H 40.41494 c -1.307259,0 -2.37037,-1.063111 -2.37037,-2.370371 0,-1.307259 1.063111,-2.37037 2.37037,-2.37037 h 0.924445 c -0.568889,0.630518 -0.924445,1.456593 -0.924445,2.37037 0,0.913778 0.356741,1.739852 0.924445,2.370371 z M 3.6741997,59.612681 c -0.6542223,0 -1.1851852,-0.530963 -1.1851852,-1.185186 0,-0.654222 0.5309629,-1.185185 1.1851852,-1.185185 0.6542222,0 1.1851851,0.530963 1.1851851,1.185185 0,0.654223 -0.5309629,1.185186 -1.1851851,1.185186 z m 4.7407404,0 c -0.654222,0 -1.185185,-0.530963 -1.185185,-1.185186 0,-0.654222 0.530963,-1.185185 1.185185,-1.185185 0.654223,0 1.185185,0.530963 1.185185,1.185185 0,0.654223 -0.530962,1.185186 -1.185185,1.185186 z m 4.7407409,0 c -0.654222,0 -1.185185,-0.530963 -1.185185,-1.185186 0,-0.654222 0.530963,-1.185185 1.185185,-1.185185 0.654222,0 1.185185,0.530963 1.185185,1.185185 0,0.654223 -0.530963,1.185186 -1.185185,1.185186 z m 4.740741,0 c -0.654222,0 -1.185185,-0.530963 -1.185185,-1.185186 0,-0.654222 0.530963,-1.185185 1.185185,-1.185185 0.654222,0 1.185185,0.530963 1.185185,1.185185 0,0.654223 -0.530963,1.185186 -1.185185,1.185186 z m 4.740741,0 c -0.654223,0 -1.185186,-0.530963 -1.185186,-1.185186 0,-0.654222 0.530963,-1.185185 1.185186,-1.185185 0.654222,0 1.185185,0.530963 1.185185,1.185185 0,0.654223 -0.530963,1.185186 -1.185185,1.185186 z m 4.74074,0 c -0.654222,0 -1.185185,-0.530963 -1.185185,-1.185186 0,-0.654222 0.530963,-1.185185 1.185185,-1.185185 0.654222,0 1.185185,0.530963 1.185185,1.185185 0,0.654223 -0.530963,1.185186 -1.185185,1.185186 z m 4.740741,0 c -0.654222,0 -1.185185,-0.530963 -1.185185,-1.185186 0,-0.654222 0.530963,-1.185185 1.185185,-1.185185 0.654222,0 1.185185,0.530963 1.185185,1.185185 0,0.654223 -0.530963,1.185186 -1.185185,1.185186 z m 4.740741,0 c -0.654222,0 -1.185185,-0.530963 -1.185185,-1.185186 0,-0.654222 0.530963,-1.185185 1.185185,-1.185185 0.654222,0 1.185185,0.530963 1.185185,1.185185 0,0.654223 -0.530963,1.185186 -1.185185,1.185186 z m 4.74074,0 c -0.654222,0 -1.185185,-0.530963 -1.185185,-1.185186 0,-0.654222 0.530963,-1.185185 1.185185,-1.185185 0.654223,0 1.185186,0.530963 1.185186,1.185185 0,0.654223 -0.530963,1.185186 -1.185186,1.185186 z m 4.740741,0 c -0.654222,0 -1.185185,-0.530963 -1.185185,-1.185186 0,-0.654222 0.530963,-1.185185 1.185185,-1.185185 0.654222,0 1.185185,0.530963 1.185185,1.185185 0,0.654223 -0.530963,1.185186 -1.185185,1.185186 z m 4.740741,0 c -0.654222,0 -1.185185,-0.530963 -1.185185,-1.185186 0,-0.654222 0.530963,-1.185185 1.185185,-1.185185 0.654222,0 1.185185,0.530963 1.185185,1.185185 0,0.654223 -0.530963,1.185186 -1.185185,1.185186 z m 4.740741,0 c -0.654223,0 -1.185185,-0.530963 -1.185185,-1.185186 0,-0.654222 0.530962,-1.185185 1.185185,-1.185185 0.654222,0 1.185185,0.530963 1.185185,1.185185 0,0.654223 -0.530963,1.185186 -1.185185,1.185186 z m 4.74074,0 c -0.654222,0 -1.185185,-0.530963 -1.185185,-1.185186 0,-0.654222 0.530963,-1.185185 1.185185,-1.185185 0.654223,0 1.185186,0.530963 1.185186,1.185185 0,0.654223 -0.530963,1.185186 -1.185186,1.185186 z M 57.007533,46.575644 h -1.185185 v 1.185185 c 0,1.307259 -1.063111,2.37037 -2.370371,2.37037 -1.307259,0 -2.37037,-1.063111 -2.37037,-2.37037 v -1.185185 h -1.185185 c -1.073778,0 -1.999408,-0.730074 -2.281482,-1.730371 0.462223,-0.558222 0.807111,-1.216 0.975408,-1.946074 0.882963,-0.203852 1.662815,-0.664889 2.281481,-1.285926 0.110222,0.03437 0.218074,0.07585 0.329482,0.100741 0.485926,2.103704 2.373926,3.676444 4.621037,3.676444 1.392592,0 2.645333,-0.605629 3.514074,-1.565629 0.02015,0.125629 0.04148,0.251259 0.04148,0.380444 0,1.307259 -1.063111,2.370371 -2.370369,2.370371 z m 2.37037,-11.851852 c 1.30726,0 2.370371,1.063111 2.370371,2.37037 0,1.307259 -1.063111,2.37037 -2.370371,2.37037 h -0.924444 c 0.568889,-0.630518 0.924444,-1.456592 0.924444,-2.37037 0,-0.913778 -0.35674,-1.739852 -0.924444,-2.37037 z m -1.185185,-1.185185 v 0.924444 c -0.630518,-0.568889 -1.456593,-0.924444 -2.37037,-0.924444 -0.913778,0 -1.739852,0.35674 -2.370371,0.924444 v -0.924444 c 0,-1.30726 1.063111,-2.370371 2.370371,-2.370371 1.307259,0 2.37037,1.063111 2.37037,2.370371 z M 49.18294,25.480532 c -0.411259,0.284445 -2.78637,2.027852 -3.687111,4.760889 -0.48,-0.163555 -0.992,-0.25837 -1.525333,-0.25837 -2.247111,0 -4.135111,1.572741 -4.619852,3.676444 -2.103704,0.484741 -3.676444,2.372741 -3.676444,4.619852 h -3.687112 c 1.541926,-1.507555 2.501926,-3.605333 2.501926,-5.925926 0,-1.916444 -0.929185,-3.606518 -2.345481,-4.689777 l -0.04148,-0.245334 c -0.01896,-0.113778 -0.197926,-1.104592 -0.643555,-2.351407 1.12,-0.212148 2.084741,-0.593778 2.865778,-1.009778 h 12.016592 c 1.165037,0 2.192593,0.558222 2.842074,1.423407 z M 42.785311,11.020088 v 10.666667 h -4.913778 c 1.584592,-1.546667 2.538667,-3.663408 2.538667,-5.930667 0,-3.267556 -2.658371,-5.9259262 -5.925926,-5.9259262 -2.005334,0 -3.843556,1.0121482 -4.935111,2.6642962 -0.04978,0.01304 -0.101926,0.02607 -0.152889,0.0403 -0.683852,-2.222223 -2.144,-4.4314079 -2.217482,-4.5428153 l -0.352,-0.5274074 h 12.402963 c 1.960296,0 3.555556,1.5952595 3.555556,3.5555557 z M 25.007533,7.4645323 h 0.694518 l -0.347259,0.3472592 c -0.07348,0.073481 -1.386667,1.3949633 -2.578963,3.0826665 -0.165926,-0.271407 -0.288,-0.457481 -0.337778,-0.532148 L 21.831237,9.4532728 c 0.581926,-1.1733331 1.780148,-1.9887405 3.176296,-1.9887405 z m -8.094815,3.1644447 c 0.608,0.709926 1.357037,1.674667 1.942519,2.669037 -0.180149,0.404148 -0.348445,0.830815 -0.495408,1.261037 -0.786963,-0.529778 -1.703111,-0.958815 -2.595555,-1.300148 0.270222,-0.888889 0.725333,-1.850074 1.148444,-2.629926 z M 8.9079771,21.504236 c 0.685037,-0.733629 1.8382229,-1.725629 3.2616299,-2.064592 0.343704,0.704 0.773926,1.383111 1.30963,1.994666 -0.382815,0.439704 -0.717037,0.912593 -1.003852,1.402074 -1.547852,-0.155259 -2.7994079,-0.814222 -3.5674079,-1.332148 z m 5.4328889,11.425185 c 0.782222,1.781334 2.058667,3.815111 4.118519,5.349926 h -4.118519 z"
     id="path5440"
     inkscape:connector-curvature="0"
     style="fill:#ffffff;stroke-width:1.18518519"
     sodipodi:nodetypes="cscccccccscccscccccsscsscscscscscscscscscscscscsscscscsccscssccsssccsssssscscccscccscscscccscccscccccccccccsccsscscssccccccsccccsccsssccssssssccccsscccscsccsccccscscscscscscscscscscsccsccccccccscssscsssssscscccscssscssssssscscssscscscscscscscssscssscscsssssssssssssssssssssssssssssssssssssssssssssssssssssssssssssssssscssscsccccscssssscscsscscsssccscccsccccscsccssccccssscscccscccccccccccccc" />
</svg>
