<?xml version="1.0" encoding="UTF-8" standalone="no"?>
<svg
   xmlns:dc="http://purl.org/dc/elements/1.1/"
   xmlns:cc="http://creativecommons.org/ns#"
   xmlns:rdf="http://www.w3.org/1999/02/22-rdf-syntax-ns#"
   xmlns:svg="http://www.w3.org/2000/svg"
   xmlns="http://www.w3.org/2000/svg"
   xmlns:sodipodi="http://sodipodi.sourceforge.net/DTD/sodipodi-0.dtd"
   xmlns:inkscape="http://www.inkscape.org/namespaces/inkscape"
   version="1.1"
   id="svg1059"
   xml:space="preserve"
   width="1333.3333"
   height="1333.3333"
   viewBox="0 0 1333.3333 1333.3333"
   sodipodi:docname="flowers.svg"
   inkscape:version="1.0.1 (3bc2e813f5, 2020-09-07)"><metadata
     id="metadata1065"><rdf:RDF><cc:Work
         rdf:about=""><dc:format>image/svg+xml</dc:format><dc:type
           rdf:resource="http://purl.org/dc/dcmitype/StillImage" /><dc:title></dc:title></cc:Work></rdf:RDF></metadata><defs
     id="defs1063"><clipPath
       clipPathUnits="userSpaceOnUse"
       id="clipPath1075"><path
         d="M 0,1000 H 1000 V 0 H 0 Z"
         id="path1073" /></clipPath></defs><sodipodi:namedview
     pagecolor="#ffffff"
     bordercolor="#666666"
     borderopacity="1"
     objecttolerance="10"
     gridtolerance="10"
     guidetolerance="10"
     inkscape:pageopacity="0"
     inkscape:pageshadow="2"
     inkscape:window-width="2400"
     inkscape:window-height="1271"
     id="namedview1061"
     showgrid="false"
     inkscape:zoom="0.62250004"
     inkscape:cx="666.66663"
     inkscape:cy="666.66663"
     inkscape:window-x="-9"
     inkscape:window-y="0"
     inkscape:window-maximized="1"
     inkscape:current-layer="g1067" /><g
     id="g1067"
     inkscape:groupmode="layer"
     inkscape:label="icons wedding all"
     transform="matrix(1.3333333,0,0,-1.3333333,0,1333.3333)"><g
       id="g1069"
       transform="matrix(1.3195017,-0.73463656,0.73463656,1.3195017,-775.91551,247.82991)"><g
         id="g1071"
         clip-path="url(#clipPath1075)"><g
           id="g1077"
           transform="translate(495.3398,436.7275)"><path
             d="m 0,0 c -0.491,64.053 5.901,128.1 18.643,190.866 5.259,25.908 14.76,50.851 21.481,76.391 6.332,24.064 11.268,49.717 6.523,74.518 -0.485,2.536 -4.427,1.859 -3.943,-0.674 4.932,-25.778 -0.886,-52.366 -7.62,-77.268 C 28.357,238.962 19.414,214.647 14.282,189.361 1.673,127.244 -4.471,63.728 -3.984,0.349 -3.965,-2.209 0.02,-2.582 0,0"
             style="fill:#000000;fill-opacity:1;fill-rule:nonzero;stroke:none"
             id="path1079" /></g><g
           id="g1081"
           transform="translate(543.4561,135.7344)"><path
             d="m 0,0 c -20.608,42.881 -28.521,90.848 -34.366,137.665 -2.918,23.377 -5.121,46.834 -7.6,70.259 -2.98,28.169 -5.465,56.207 -6.031,84.551 -0.051,2.553 -4.036,2.928 -3.984,0.348 0.551,-27.622 2.782,-55.005 5.74,-82.46 2.575,-23.899 4.81,-47.833 7.724,-71.694 C -32.693,90.982 -24.623,42 -3.639,-1.665 -2.521,-3.991 1.116,-2.324 0,0"
             style="fill:#000000;fill-opacity:1;fill-rule:nonzero;stroke:none"
             id="path1083" /></g><g
           id="g1085"
           transform="translate(541.2881,774.5449)"><path
             d="m 0,0 c -8.534,9.838 -17.973,18.763 -25.91,29.141 -3.904,5.103 -8.052,10.866 -9.5,17.239 -0.913,4.021 1.819,9.735 6.59,9.377 4.061,-0.304 7.258,-5.906 9.065,-8.93 3.262,-5.459 5.674,-11.44 7.916,-17.374 3.307,-8.752 5.388,-17.954 8.747,-26.665 0.851,-2.205 4.052,-0.993 3.791,1.17 -1.464,12.156 -4.995,24.092 -6.893,36.199 -0.84,5.352 -6.095,31.885 5.922,27.696 C 4.395,66.226 5.438,59.78 5.934,55.597 6.755,48.667 5.921,41.498 4.955,34.627 3.433,23.805 0.843,13.129 -2.156,2.628 L 1.72,1.78 c 0.083,3.983 1.445,8.016 2.578,11.793 1.92,6.404 4.31,12.674 7.009,18.789 2.616,5.929 5.659,11.722 9.518,16.944 2.363,3.195 6.611,8.359 11.204,7.104 5.607,-1.531 4.985,-8.208 3.56,-12.458 C 33.332,37.219 28.577,31.257 24.099,25.87 16.293,16.482 7.101,7.423 -2.817,0.247 c -2.092,-1.514 0.493,-4.568 2.57,-3.065 11.656,8.434 22.329,19.324 31.067,30.701 6.04,7.864 17.076,25.881 3.073,32.11 C 22.915,64.875 13.698,46.246 10.115,39.168 6.578,32.183 3.729,24.831 1.304,17.392 -0.26,12.591 -2.159,7.238 -2.265,2.129 -2.31,-0.031 0.954,-1.019 1.611,1.281 5.067,13.383 7.95,25.716 9.455,38.224 c 1.188,9.871 3.322,29.316 -8.937,33.59 -14.201,4.95 -12.539,-16.151 -11.752,-23.999 1.511,-15.06 6.187,-29.562 7.99,-44.531 1.264,0.389 2.527,0.779 3.791,1.169 -4.047,10.491 -6.555,21.508 -10.826,31.957 -3.092,7.566 -9.669,25.095 -20.591,23.221 -4.37,-0.75 -7.959,-5.295 -8.702,-9.442 -1.084,-6.046 3.197,-12.666 6.251,-17.461 C -24.929,19.551 -13.223,9.139 -3.064,-2.571 -1.376,-4.518 1.691,-1.95 0,0"
             style="fill:#000000;fill-opacity:1;fill-rule:nonzero;stroke:none"
             id="path1087" /></g><g
           id="g1089"
           transform="translate(529.9121,683.3638)"><path
             d="m 0,0 c 11.189,20.474 33.318,31.611 44.975,51.701 -1.177,0.604 -2.354,1.207 -3.531,1.81 C 38.242,41.653 35.59,29.339 28.521,19.056 24.661,13.439 18.835,9.234 12.688,6.434 7.792,4.203 2.28,3.394 -2.799,1.637 -5.241,0.792 -3.547,-2.836 -1.135,-2.002 3.981,-0.232 9.343,0.72 14.354,2.796 20.416,5.308 25.889,9.629 30.126,14.578 38.981,24.92 41.765,39.4 45.212,52.163 45.767,54.22 42.89,56.055 41.682,53.973 30.034,33.898 7.906,22.764 -3.293,2.271 -4.516,0.034 -1.238,-2.267 0,0"
             style="fill:#000000;fill-opacity:1;fill-rule:nonzero;stroke:none"
             id="path1091" /></g><g
           id="g1093"
           transform="translate(511.4531,625.6699)"><path
             d="m 0,0 c -10.851,5.439 -12.752,18.27 -13.188,29.219 -0.427,10.726 0.965,21.549 -0.338,32.236 -1.264,-0.39 -2.528,-0.78 -3.791,-1.17 4.049,-8.756 9.51,-16.887 13.131,-25.828 4.599,-11.356 3.03,-24.36 1.52,-36.166 C -2.994,-4.272 0.992,-4.611 1.318,-2.058 2.837,9.811 3.999,22.108 0.329,33.698 -2.82,43.643 -9.316,52.516 -13.679,61.95 -14.656,64.063 -17.74,63 -17.47,60.781 -14.975,40.326 -24.521,7.848 -1.348,-3.767 0.953,-4.92 2.281,-1.143 0,0"
             style="fill:#000000;fill-opacity:1;fill-rule:nonzero;stroke:none"
             id="path1095" /></g><g
           id="g1097"
           transform="translate(505.9775,579.7847)"><path
             d="m 0,0 c 3.431,13.855 15.904,19.552 28.116,24.336 11.608,4.546 23.863,8.693 32.147,18.53 -1.177,0.604 -2.354,1.207 -3.531,1.81 C 46.126,20.344 26.528,0.655 -1.71,2.666 -4.282,2.85 -4.635,-1.135 -2.058,-1.318 28.06,-3.464 49.152,17.296 60.5,43.328 61.468,45.549 58.335,46.76 56.97,45.138 40.551,25.64 3.284,29.821 -3.768,1.348 -4.381,-1.129 -0.622,-2.509 0,0"
             style="fill:#000000;fill-opacity:1;fill-rule:nonzero;stroke:none"
             id="path1099" /></g><g
           id="g1101"
           transform="translate(503.0127,436.9805)"><path
             d="m 0,0 c -7.748,24.016 -18.525,47.15 -30.715,69.213 -6.12,11.078 -13.373,21.478 -19.258,32.681 -6.304,12 -11.035,24.777 -14.615,37.834 -14.115,51.469 -10.876,106.064 -19.467,158.465 -0.418,2.552 -4.36,1.869 -3.943,-0.674 8.602,-52.474 5.712,-106.835 19.466,-158.465 3.288,-12.341 7.771,-24.333 13.386,-35.802 C -49.539,91.805 -42.188,81.364 -35.896,70.3 -22.937,47.513 -11.693,23.304 -3.639,-1.665 -2.846,-4.121 0.781,-2.421 0,0"
             style="fill:#000000;fill-opacity:1;fill-rule:nonzero;stroke:none"
             id="path1103" /></g><g
           id="g1105"
           transform="translate(519.584,130.3252)"><path
             d="m 0,0 c 0.021,67.887 0.813,135.756 -2.815,203.584 -1.674,31.305 -3.049,63.94 -11.18,94.381 -0.661,2.476 -4.609,1.817 -3.943,-0.673 8.543,-31.987 9.755,-66.353 11.433,-99.241 2.086,-40.894 2.649,-81.865 2.767,-122.807 C -3.666,50.278 -3.978,25.314 -3.984,0.349 -3.985,-2.212 -0.001,-2.583 0,0"
             style="fill:#000000;fill-opacity:1;fill-rule:nonzero;stroke:none"
             id="path1107" /></g><g
           id="g1109"
           transform="translate(417.1602,736.8286)"><path
             d="m 0,0 c -7.5,0.092 -14.816,1.479 -21.807,4.209 -3.344,1.306 -6.414,3.14 -9.239,5.339 -1.924,1.497 -7.959,7.319 -6.254,10.27 1.154,1.995 6.679,0.379 8.149,-0.013 4.041,-1.078 7.933,-3.027 11.28,-5.501 6.214,-4.593 10.382,-11.772 15.35,-17.571 1.207,-1.407 4.078,-0.381 3.504,1.622 -0.934,3.265 -3.024,6.158 -4.825,8.993 -3.304,5.201 -6.737,10.314 -9.888,15.61 -3.31,5.562 -14.511,22.766 -4.964,27.387 18.486,8.948 17.605,-39.543 15.498,-48.5 -0.577,-2.455 3.073,-3.871 3.767,-1.348 2.329,8.476 2.65,17.379 4.985,25.878 1.162,4.234 2.809,8.763 6.207,11.716 3.049,2.649 9.189,2.117 11.901,-0.837 C 28.255,32.256 17.906,21.02 14.993,17.633 9.938,11.759 3.808,5.394 -2.977,1.49 -2.271,0.373 -1.564,-0.744 -0.859,-1.861 3.436,1.655 8.995,3.692 14.189,5.46 19.222,7.174 25.245,8.984 30.615,8.202 33.463,7.787 30.284,4.386 29.504,3.328 26.804,-0.332 22.487,-2.092 18.059,-2.265 12.095,-2.497 6.486,0.015 0.699,1.003 -1.847,1.438 -2.175,-2.55 0.352,-2.981 8.186,-4.32 16.11,-8.122 24.109,-5.242 28.945,-3.501 39.118,4.161 34.862,10.275 31.794,14.685 21.906,11.729 18.018,10.741 10.646,8.868 2.531,6.085 -3.43,1.203 -5.141,-0.198 -3.301,-3.292 -1.313,-2.148 6.989,2.629 14.17,10.3 20.19,17.625 c 4.374,5.322 12.325,15.9 6.153,22.62 C 19.415,47.789 8.366,42.724 4.559,35.03 -0.604,24.602 -0.174,12.84 -3.196,1.845 L 0.571,0.497 c 2.486,10.57 1.756,22.791 0.081,33.405 -1.511,9.584 -6.089,23.362 -18.366,20.938 -13.036,-2.574 -7.867,-17.63 -3.984,-25.627 3.133,-6.452 7.074,-12.508 10.965,-18.52 2.563,-3.961 6.452,-8.396 7.773,-13.011 1.168,0.541 2.336,1.081 3.504,1.622 -6.744,7.872 -12.113,16.79 -21.618,21.641 -4.655,2.376 -16.128,7.011 -19.826,0.614 -3.714,-6.424 6.497,-14.806 10.919,-17.674 8.55,-5.549 19.576,-7.746 29.633,-7.869 C 2.217,-4.016 2.584,-0.031 0,0"
             style="fill:#000000;fill-opacity:1;fill-rule:nonzero;stroke:none"
             id="path1111" /></g><g
           id="g1113"
           transform="translate(424.1514,665.1465)"><path
             d="m 0,0 c -4.179,3.742 -10.751,4.763 -15.955,6.294 -8.151,2.399 -16.242,5.502 -20.466,13.443 -1.897,3.568 -1.23,7.439 3.108,8.176 4.789,0.813 10,-2.517 13.531,-5.323 7.598,-6.037 13.307,-15.216 16.993,-24.069 1.213,0.555 2.426,1.109 3.639,1.665 -4.324,8.545 -10.236,16.229 -14.596,24.787 -2.116,4.153 -4.466,8.931 -4.502,13.694 -0.023,3.035 3.682,6.435 6.724,4.726 C -5.518,40.019 -5.159,27 -4.569,21.154 -3.895,14.474 -3.751,7.757 -3.759,1.048 L 0.226,0.699 C 0.21,6.191 -0.88,49.744 12.378,40.667 16.694,37.711 9.433,24.487 7.973,21.435 4.896,15 0.904,8.941 -1.854,2.361 L 1.914,1.013 c 1.562,6.42 7.813,11.587 12.672,15.601 1.851,1.529 12.621,10.469 15.093,7.715 6.939,-7.736 -26.86,-22.15 -31.647,-24.157 -2.386,-1 -0.706,-4.632 1.664,-3.638 8.178,3.428 42.898,16.739 33.046,30.365 C 28.779,32.382 19.051,24.856 15.545,22.381 8.97,17.739 0.154,10.611 -1.854,2.361 c -0.6,-2.47 2.752,-3.771 3.768,-1.348 3.526,8.418 8.722,16.075 12.281,24.51 2.07,4.905 6.513,16.322 -0.915,19.218 C -6.811,52.575 -3.787,10.668 -3.759,1.048 c 0.007,-2.557 3.982,-2.935 3.985,-0.349 0.01,8.549 -0.257,17.107 -1.367,25.593 -0.822,6.293 -2.473,20.312 -10.824,21.428 -3.482,0.465 -7.57,-1.627 -9.264,-4.693 -2.209,-3.997 -0.512,-9.16 0.911,-13.111 4.11,-11.415 12.115,-20.691 17.529,-31.395 1.166,-2.305 4.63,-0.716 3.639,1.665 -4.37,10.495 -11.347,20.656 -20.6,27.404 -5.828,4.25 -17.081,7.435 -21.122,-0.644 C -44.81,19.073 -34.493,9.892 -28.571,6.768 -24.263,4.495 -19.504,3.162 -14.848,1.81 -10.68,0.6 -5.597,-0.316 -2.271,-3.294 -0.356,-5.009 1.897,-1.7 0,0"
             style="fill:#000000;fill-opacity:1;fill-rule:nonzero;stroke:none"
             id="path1115" /></g><g
           id="g1117"
           transform="translate(433.0996,594.8257)"><path
             d="m 0,0 c -6.636,-0.204 -13.252,2.142 -19.317,4.605 -5.988,2.433 -14.127,6.012 -16.914,12.301 -1.915,4.322 2.271,4.534 5.321,3.841 4.101,-0.934 7.435,-3.498 10.341,-6.408 6.225,-6.235 12.459,-12.365 19.259,-17.978 1.602,-1.321 3.689,0.776 2.956,2.479 -2.84,6.591 -8.538,12.166 -13.023,17.643 -3.946,4.819 -12.121,12.722 -11.682,19.537 0.223,3.452 4.945,1.905 6.487,0.675 3.336,-2.659 5.162,-7.517 6.697,-11.34 3.307,-8.228 5.421,-17.394 5.999,-26.251 0.131,-2.004 3.324,-2.211 3.855,-0.337 1.989,7.022 5.376,46.276 19.219,38.608 9.028,-5 -18.174,-32.927 -21.018,-38.231 -1.206,-2.249 1.647,-4.311 3.293,-2.272 3.998,4.953 8.458,9.569 13.111,13.903 2.921,2.72 12.298,12.334 16.905,9.142 2.837,-1.964 1.066,-6.068 -0.802,-7.798 C 27.655,9.312 23.313,7.812 19.494,6.452 12.792,4.067 5.753,2.972 -1.006,0.827 -3.465,0.046 -1.765,-3.58 0.658,-2.812 9.7,0.058 19.052,1.34 27.694,5.501 34.105,8.588 40.593,15.601 34.541,22.506 29.399,28.372 19.718,20.374 15.677,17.059 9.271,11.803 3.384,5.592 -1.82,-0.856 c 1.097,-0.758 2.195,-1.515 3.293,-2.272 1.664,3.103 4.269,5.811 6.468,8.531 3.685,4.558 7.319,9.159 10.577,14.035 3.57,5.343 10.383,16.119 2.951,21.231 C 12.992,46.5 5.903,36.501 3.138,29.757 -0.776,20.213 -1.015,9.91 -3.788,0.114 l 3.855,-0.337 c -0.548,8.399 -8.827,53.055 -25.034,40.6 -6.106,-4.693 1.654,-14.815 4.591,-18.882 5.744,-7.952 14.466,-15.229 18.383,-24.32 0.985,0.827 1.97,1.653 2.955,2.48 -4.836,3.991 -9.418,8.217 -13.862,12.638 -3.815,3.794 -7.292,7.867 -12.096,10.425 -4.905,2.612 -14.104,4.566 -15.69,-2.786 -1.621,-7.509 8.537,-13.371 13.71,-16.133 7.836,-4.182 17.581,-8.061 26.628,-7.783 C 2.199,-3.906 2.577,0.079 0,0"
             style="fill:#000000;fill-opacity:1;fill-rule:nonzero;stroke:none"
             id="path1119" /></g><g
           id="g1121"
           transform="translate(455.9639,526.3325)"><path
             d="m 0,0 c -8.29,-2.357 -16.834,-3.651 -25.321,-1.517 -3.72,0.936 -7.272,2.827 -10.338,5.098 -0.92,0.681 -6.884,7.591 -4.338,7.594 7.051,0.006 14.717,-3.538 21.143,-6.1 6.539,-2.607 12.915,-5.601 19.429,-8.266 1.848,-0.756 3.502,1.702 2.206,3.169 -5.034,5.699 -12.708,9.633 -18.824,14.029 -4.122,2.964 -8.221,6.022 -11.946,9.479 -1.429,1.326 -6.625,5.762 -5.331,8.2 2.007,3.783 7.788,1.671 10.287,-0.019 4.282,-2.896 7.423,-7.601 10.208,-11.854 4.551,-6.949 7.393,-15.08 12.22,-21.807 1.125,-1.568 4.052,-0.284 3.503,1.623 -2.137,7.432 -4.248,14.857 -5.851,22.428 -0.683,3.222 -5.12,21.086 0.335,22.109 C 6.1,45.798 4.954,28.277 4.596,23.884 3.949,15.979 2.511,7.188 -0.957,-0.034 c -0.977,-2.035 2.441,-3.793 3.53,-1.81 3.466,6.313 6.727,12.733 10.3,18.987 1.388,2.429 7.613,14.989 10.825,12.806 C 33.173,23.51 3.468,2.775 -0.948,-0.439 c -2.088,-1.52 0.497,-4.574 2.57,-3.065 6.686,4.867 37.946,25.492 24.97,36.232 -5.749,4.758 -9.808,-1.91 -12.866,-6.503 C 8.263,18.02 4.015,9.054 -0.72,0.428 c 1.177,-0.604 2.354,-1.207 3.531,-1.81 4.146,8.638 5.645,19.474 6.013,28.933 0.301,7.714 -0.716,19.423 -10.366,20.58 -16.214,1.945 -1.455,-42.39 0.497,-49.176 1.168,0.541 2.336,1.082 3.504,1.623 -2.35,3.274 -3.929,7.26 -5.814,10.809 -2.795,5.262 -5.811,10.423 -9.335,15.235 -4.975,6.793 -14.581,15.729 -22.987,8.44 C -47.004,25.241 -5.091,2.85 -0.283,-2.593 0.452,-1.537 1.188,-0.48 1.923,0.576 -3.755,2.898 -42.332,22.7 -44.581,12.025 c -1.391,-6.597 7.004,-12.518 11.9,-14.928 10.617,-5.225 22.278,-4.19 33.355,-1.04 C 3.133,-3.244 2.478,0.705 0,0"
             style="fill:#000000;fill-opacity:1;fill-rule:nonzero;stroke:none"
             id="path1123" /></g><g
           id="g1125"
           transform="translate(500.3975,435.3315)"><path
             d="m 0,0 c 10.582,26.563 26.444,50.55 41.495,74.727 7.326,11.769 14.499,23.634 21.032,35.866 6.528,12.221 11.787,25.062 17.236,37.79 21.763,50.844 40.857,104.075 38.542,160.203 -0.107,2.577 -4.048,1.865 -3.944,-0.674 C 116.696,251.292 96.557,197.625 74.586,146.441 69.009,133.45 63.46,120.542 56.673,108.125 50.013,95.94 42.664,84.143 35.314,72.368 21.005,49.444 6.271,26.544 -3.768,1.348 -4.722,-1.049 -0.955,-2.396 0,0"
             style="fill:#000000;fill-opacity:1;fill-rule:nonzero;stroke:none"
             id="path1127" /></g><g
           id="g1129"
           transform="translate(496.9033,192.5806)"><path
             d="m 0,0 c -10.539,37.472 -21.076,75.214 -21.063,114.454 0.008,19.984 2.941,40.055 6.214,59.73 3.421,20.563 8.334,40.873 15.314,60.526 0.862,2.428 -2.903,3.784 -3.768,1.348 -6.679,-18.811 -11.389,-38.196 -14.894,-57.833 -3.725,-20.867 -6.676,-42.202 -6.85,-63.422 C -25.369,75.276 -14.551,37.042 -3.943,-0.674 -3.251,-3.136 0.697,-2.48 0,0"
             style="fill:#000000;fill-opacity:1;fill-rule:nonzero;stroke:none"
             id="path1131" /></g><g
           id="g1133"
           transform="translate(618.8379,739.8252)"><path
             d="m 0,0 c -0.25,9.413 -4.079,18.383 -6.476,27.385 -3.139,11.785 -2.046,22.617 0.863,34.33 5.604,22.564 16.035,44.156 16.31,67.785 l -3.984,0.349 C 6.927,106.197 14.796,83.253 13.659,59.543 12.638,38.246 2.17,19.161 -3.876,-0.902 -4.616,-3.36 -0.855,-4.728 -0.108,-2.25 5.744,17.173 15.237,35.389 17.384,55.798 19.992,80.6 10.921,104.797 10.697,129.5 10.675,132.045 6.743,132.447 6.713,129.849 6.435,106.067 -4.145,84.141 -9.79,61.411 -12.276,51.401 -13.491,41.655 -11.528,31.46 -9.531,21.085 -4.269,11.009 -3.984,0.349 -3.917,-2.201 0.069,-2.578 0,0"
             style="fill:#000000;fill-opacity:1;fill-rule:nonzero;stroke:none"
             id="path1135" /></g><g
           id="g1137"
           transform="translate(604.1494,644.3257)"><path
             d="m 0,0 c 17.176,39.114 50.926,70.464 59.858,113.25 l -3.984,0.348 C 55.851,102.432 55.393,91.294 53.518,80.27 51.397,67.808 46.68,56.453 40.514,45.488 29.811,26.455 14.738,11.5 -3.716,-0.007 c -2.161,-1.347 -0.516,-4.998 1.664,-3.639 18.686,11.651 33.754,26.359 44.998,45.37 6.194,10.47 11.069,21.501 13.613,33.438 2.671,12.54 3.273,25.298 3.299,38.088 0.006,2.62 -3.462,2.852 -3.984,0.348 C 47.056,71.363 13.216,40.022 -3.768,1.348 -4.805,-1.014 -1.034,-2.354 0,0"
             style="fill:#000000;fill-opacity:1;fill-rule:nonzero;stroke:none"
             id="path1139" /></g><g
           id="g1141"
           transform="translate(585.0244,596.8994)"><path
             d="m 0,0 c -7.653,17.034 -11.46,37.247 -11.072,55.887 0.45,21.631 5.518,42.888 6.055,64.539 -1.27,-0.219 -2.541,-0.439 -3.811,-0.658 C 0.399,101.383 2.619,81.708 1.283,61.381 -0.058,40.99 4.486,19.224 -3.703,-0.159 c -1.004,-2.376 2.765,-3.718 3.767,-1.347 8.529,20.187 3.923,43.065 5.321,64.324 1.335,20.293 -1.391,40.317 -10.574,58.615 -0.849,1.69 -3.76,1.444 -3.812,-0.659 C -9.553,98.556 -14.631,76.746 -15.092,54.536 -15.481,35.829 -11.306,15.402 -3.639,-1.665 -2.579,-4.022 1.055,-2.349 0,0"
             style="fill:#000000;fill-opacity:1;fill-rule:nonzero;stroke:none"
             id="path1143" /></g><g
           id="g1145"
           transform="translate(552.6621,528.1138)"><path
             d="m 0,0 c 24.336,36.461 66.59,55.21 100.639,80.854 -0.978,0.889 -1.955,1.778 -2.932,2.667 C 88.259,65.222 81.233,45.254 64.506,32.129 54.306,24.125 41.832,19.66 29.585,15.887 17.759,12.245 6.631,8.104 -3.652,1.068 -5.781,-0.388 -3.19,-3.438 -1.082,-1.996 19.915,12.369 46.541,13.625 67.077,29.064 84.28,41.998 91.483,62.816 101,81.25 c 1.008,1.952 -1.025,4.104 -2.932,2.668 C 63.685,58.023 21.286,39.097 -3.293,2.271 -4.723,0.13 -1.435,-2.15 0,0"
             style="fill:#000000;fill-opacity:1;fill-rule:nonzero;stroke:none"
             id="path1147" /></g><g
           id="g1149"
           transform="translate(527.5479,490.7852)"><path
             d="M 0,0 C -10.581,11.589 -8.869,26.958 -5.025,41.024 -0.562,57.361 6.689,72.86 12.352,88.792 L 8.496,89.129 C 13.131,73.151 12.473,58.505 6.808,42.968 1.672,28.88 -3.386,15.627 -3.524,0.389 -3.548,-2.175 0.437,-2.543 0.46,0.04 0.603,15.729 6.153,29.212 11.33,43.714 16.805,59.05 16.978,74.161 12.439,89.803 11.913,91.618 9.313,92.189 8.584,90.14 2.232,72.265 -6.071,54.883 -10.313,36.325 -13.444,22.625 -12.961,8.268 -3.064,-2.571 -1.33,-4.471 1.741,-1.907 0,0"
             style="fill:#000000;fill-opacity:1;fill-rule:nonzero;stroke:none"
             id="path1151" /></g><g
           id="g1153"
           transform="translate(557.207,531.9126)"><path
             d="m 0,0 c 1.495,4.048 5.669,6.01 8.955,8.427 4.351,3.202 9.013,5.969 13.652,8.725 8.371,4.972 16.565,10.181 24.553,15.75 8.23,5.737 15.864,12.114 23.457,18.653 6.983,6.013 13.908,12.067 19.765,19.214 0.817,0.997 -0.834,2.127 -1.647,1.136 -6.47,-7.897 -14.304,-14.409 -22,-21.058 C 59.113,44.262 51.242,38.118 42.943,32.403 34.039,26.271 24.72,20.872 15.53,15.195 11.636,12.79 7.985,10.055 4.194,7.5 1.481,5.674 -0.732,3.791 -1.883,0.674 -2.33,-0.535 -0.447,-1.212 0,0"
             style="fill:#000000;fill-opacity:1;fill-rule:nonzero;stroke:none"
             id="path1155" /></g><g
           id="g1157"
           transform="translate(607.457,647.6626)"><path
             d="m 0,0 c 1.518,4.832 5.346,8.556 8.514,12.38 3.613,4.362 7.166,8.774 10.71,13.193 5.964,7.434 11.758,14.936 16.839,23.013 9.712,15.443 15.501,32.433 18.242,50.414 0.194,1.277 -1.799,1.443 -1.992,0.174 C 49.433,80.278 43.02,63.058 32.665,46.971 27.425,38.83 21.294,31.329 15.236,23.794 12.072,19.857 8.879,15.945 5.657,12.055 2.704,8.49 -0.473,5.166 -1.883,0.674 -2.269,-0.552 -0.388,-1.234 0,0"
             style="fill:#000000;fill-opacity:1;fill-rule:nonzero;stroke:none"
             id="path1159" /></g><g
           id="g1161"
           transform="translate(584.002,599.918)"><path
             d="m 0,0 c -1.823,19.325 -3.776,38.662 -2.474,58.085 0.59,8.793 1.935,17.431 1.856,26.269 -0.08,8.954 -2.079,18.056 -3.632,26.85 -0.226,1.273 -2.196,0.933 -1.973,-0.337 C -4.599,101.672 -2.68,92.286 -2.596,82.93 -2.513,73.641 -4.112,64.453 -4.659,55.197 -5.753,36.665 -3.71,18.09 -1.973,-0.337 -1.851,-1.625 0.12,-1.275 0,0"
             style="fill:#000000;fill-opacity:1;fill-rule:nonzero;stroke:none"
             id="path1163" /></g><g
           id="g1165"
           transform="translate(618.2617,746.6626)"><path
             d="M 0,0 C -0.195,35.839 11.256,70.57 9.74,106.505 9.686,107.794 7.715,107.438 7.768,106.168 9.276,70.417 -2.187,35.837 -1.992,0.174 -1.985,-1.105 0.007,-1.291 0,0"
             style="fill:#000000;fill-opacity:1;fill-rule:nonzero;stroke:none"
             id="path1167" /></g><g
           id="g1169"
           transform="translate(526.2813,493.8921)"><path
             d="m 0,0 c -3.844,4.728 -2.831,11.805 -2.054,17.407 0.908,6.538 2.3,13.153 4.173,19.471 2.177,7.345 5.133,14.44 7.475,21.732 2.434,7.58 3.377,14.965 3.386,22.911 0.002,1.28 -1.991,1.465 -1.992,0.173 C 10.977,72.054 9.176,63.375 6.043,54.279 3.328,46.396 0.069,38.628 -1.646,30.438 -3.578,21.218 -8.22,6.94 -1.531,-1.285 -0.718,-2.287 0.813,-1 0,0"
             style="fill:#000000;fill-opacity:1;fill-rule:nonzero;stroke:none"
             id="path1171" /></g><g
           id="g1173"
           transform="translate(507.1426,435.7661)"><path
             d="m 0,0 c 16.035,22.554 40.232,35.935 61.158,53.201 1.991,1.643 -0.582,4.705 -2.57,3.065 C 37.367,38.757 12.965,25.141 -3.293,2.271 -4.787,0.17 -1.495,-2.104 0,0"
             style="fill:#000000;fill-opacity:1;fill-rule:nonzero;stroke:none"
             id="path1175" /></g><g
           id="g1177"
           transform="translate(502.9033,221.0786)"><path
             d="m 0,0 c -6.682,36.537 -8.624,73.625 -8.936,110.709 -0.135,16.031 -0.911,32.022 -1.147,48.047 -0.217,14.703 -0.031,31.894 7.271,45.121 1.234,2.233 -2.044,4.533 -3.292,2.271 -6.936,-12.559 -7.832,-28.089 -7.979,-42.115 -0.172,-16.351 1.068,-32.703 1.138,-49.059 C -12.781,76.262 -10.92,37.471 -3.943,-0.674 -3.479,-3.215 0.464,-2.537 0,0"
             style="fill:#000000;fill-opacity:1;fill-rule:nonzero;stroke:none"
             id="path1179" /></g><g
           id="g1181"
           transform="translate(569.335,492.832)"><path
             d="M 0,0 C -5.03,10.322 3.049,22.264 8.827,30.532 7.614,30.968 6.401,31.405 5.188,31.842 5.183,24.787 4.776,18.18 2.883,11.344 1.717,7.133 -2.208,4.069 -3.703,-0.159 c -0.859,-2.429 2.905,-3.785 3.767,-1.347 1.702,4.812 5.617,8.004 7,13 C 8.89,18.085 9.167,24.685 9.173,31.493 9.175,33.42 6.75,34.542 5.534,32.803 -1.111,23.296 -9.372,10.1 -3.639,-1.665 -2.508,-3.984 1.129,-2.318 0,0"
             style="fill:#000000;fill-opacity:1;fill-rule:nonzero;stroke:none"
             id="path1183" /></g><g
           id="g1185"
           transform="translate(567.3418,488.0073)"><path
             d="m 0,0 c 4.923,-0.012 9.841,-0.144 14.754,-0.46 4.066,-0.261 9.253,-0.264 12.95,-2.195 -0.05,1.06 -0.1,2.12 -0.149,3.179 C 18.786,-5.932 7.92,-5.016 1.206,3.778 -0.361,5.83 -3.419,3.25 -1.858,1.207 6.229,-9.386 19.62,-10.275 30.125,-2.54 31.091,-1.829 31.102,0.051 29.976,0.639 21.597,5.016 9.504,3.963 0.348,3.984 -2.214,3.991 -2.583,0.006 0,0"
             style="fill:#000000;fill-opacity:1;fill-rule:nonzero;stroke:none"
             id="path1187" /></g><g
           id="g1189"
           transform="translate(577.3008,510.9673)"><path
             d="m 0,0 c 4.59,3.172 9.611,6.302 15.427,4.819 4.301,-1.097 7.03,-4.847 6.959,-9.155 -0.113,-6.714 -6.26,-13.721 -12.674,-15.16 -2.513,-0.564 -1.844,-4.508 0.674,-3.943 9.307,2.088 16.52,11.685 15.92,21.19 C 25.958,3.24 21.423,6.657 16.774,8.585 10.074,11.365 2.705,6.711 -2.57,3.064 -4.693,1.598 -2.103,-1.453 0,0"
             style="fill:#000000;fill-opacity:1;fill-rule:nonzero;stroke:none"
             id="path1191" /></g><g
           id="g1193"
           transform="translate(569.4473,491.7471)"><path
             d="m 0,0 c 6.618,10.03 15.811,19.419 26.986,24.216 0.592,0.254 0.081,1.115 -0.504,0.864 C 15.14,20.211 5.85,10.679 -0.863,0.505 -1.22,-0.035 -0.354,-0.536 0,0"
             style="fill:#000000;fill-opacity:1;fill-rule:nonzero;stroke:none"
             id="path1195" /></g><g
           id="g1197"
           transform="translate(571.1289,490.8335)"><path
             d="m 0,0 c 6.342,0.501 12.913,1.725 18.427,5.042 4.501,2.708 10.353,6.375 12.083,11.616 0.202,0.614 -0.764,0.875 -0.965,0.266 C 27.896,11.927 22.137,8.533 17.922,5.905 12.669,2.632 6.076,1.48 0,1 -0.639,0.95 -0.644,-0.051 0,0"
             style="fill:#000000;fill-opacity:1;fill-rule:nonzero;stroke:none"
             id="path1199" /></g><g
           id="g1201"
           transform="translate(569.2676,490.9019)"><path
             d="m 0,0 c 6.392,3.898 12.566,8.078 18.59,12.522 2.545,1.878 5.015,3.869 7.624,5.659 1.575,1.081 3.608,2.055 4.85,3.542 0.411,0.491 -0.293,1.202 -0.707,0.707 C 29.193,21.038 27.204,20.055 25.709,19.044 23.091,17.275 20.621,15.271 18.085,13.386 12.08,8.921 5.884,4.76 -0.504,0.863 -1.054,0.528 -0.552,-0.337 0,0"
             style="fill:#000000;fill-opacity:1;fill-rule:nonzero;stroke:none"
             id="path1203" /></g><g
           id="g1205"
           transform="translate(503.3838,438.2871)"><path
             d="m 0,0 c -9.682,9.589 -20.961,16.996 -32.866,23.527 -12.634,6.932 -26.423,12.097 -37.518,21.474 -5.72,4.834 -10.718,10.522 -15.886,15.922 -5.077,5.304 -10.361,10.246 -14.862,16.076 -9.037,11.704 -15.401,25.264 -22.802,38 -1.286,2.213 -4.932,0.563 -3.638,-1.665 7.053,-12.14 13.319,-24.741 21.418,-36.246 4.218,-5.994 9.257,-11.055 14.395,-16.239 5.091,-5.138 9.912,-10.532 15.133,-15.543 10.37,-9.951 22.967,-15.412 35.564,-21.926 C -27.386,16.309 -14.064,8.324 -3.064,-2.571 -1.248,-4.371 1.833,-1.816 0,0"
             style="fill:#000000;fill-opacity:1;fill-rule:nonzero;stroke:none"
             id="path1207" /></g><g
           id="g1209"
           transform="translate(536.2275,186.8257)"><path
             d="m 0,0 c 4.187,17.866 4.947,36.389 5.1,54.672 0.171,20.633 -0.856,41.263 -1.903,61.861 -1.008,19.838 -1.348,39.675 -5.093,59.243 -4.456,23.285 -13.173,45.516 -23.831,66.614 -1.162,2.3 -4.8,0.637 -3.638,-1.665 10.542,-20.869 18.945,-42.646 23.526,-65.622 3.799,-19.057 4.033,-38.477 5.02,-57.815 C 0.213,97.062 1.176,76.827 1.123,56.569 1.075,38.172 0.447,19.331 -3.768,1.348 -4.349,-1.132 -0.59,-2.515 0,0"
             style="fill:#000000;fill-opacity:1;fill-rule:nonzero;stroke:none"
             id="path1211" /></g><g
           id="g1213"
           transform="translate(346.2979,592.5073)"><path
             d="m 0,0 c -6.223,-13.147 2.699,-27.277 12.903,-35.431 6.743,-5.387 21.146,-11.644 23.276,1.124 0.749,4.49 -0.502,9.55 -1.872,13.796 -2.049,6.348 -4.308,12.91 -7.669,18.69 C 20.653,8.47 6.984,12.431 0.237,0.462 -1.018,-1.764 2.262,-4.061 3.53,-1.81 c 2.281,4.044 6.352,6.921 11.164,5.604 4.938,-1.352 7.949,-6.311 10.079,-10.57 3.512,-7.02 6.651,-15.406 7.48,-23.248 0.347,-3.284 0.102,-8.013 -4.158,-8.03 -4.99,-0.02 -10.313,3.833 -14.023,6.798 C 5.506,-24.412 -1.321,-12.099 3.768,-1.348 4.87,0.981 1.096,2.314 0,0"
             style="fill:#000000;fill-opacity:1;fill-rule:nonzero;stroke:none"
             id="path1215" /></g><g
           id="g1217"
           transform="translate(379.3008,551.9673)"><path
             d="M 0,0 C 4.196,4.325 6.354,10.574 7.551,16.373 8.825,22.544 7.837,27.548 5.892,33.467 2.56,43.603 -5.47,55.755 -17.07,48.064 -19.219,46.641 -16.624,43.592 -14.5,45 -4.597,51.565 1.007,36.302 3.093,29.085 5.481,20.822 3.624,9.45 -2.57,3.064 -4.349,1.232 -1.795,-1.851 0,0"
             style="fill:#000000;fill-opacity:1;fill-rule:nonzero;stroke:none"
             id="path1219" /></g><g
           id="g1221"
           transform="translate(377.1836,555.3188)"><path
             d="m 0,0 c -10.225,-3.829 -18.629,-0.465 -26.761,6.137 -7.866,6.386 -11.089,15.166 -2.942,22.845 1.869,1.762 -0.692,4.836 -2.57,3.065 -8.938,-8.425 -7.751,-18.28 0.52,-26.738 9.171,-9.377 20.931,-13.623 33.417,-8.948 C 4.086,-2.731 2.398,0.898 0,0"
             style="fill:#000000;fill-opacity:1;fill-rule:nonzero;stroke:none"
             id="path1223" /></g><g
           id="g1225"
           transform="translate(349.3799,592.5186)"><path
             d="m 0,0 c 11.929,-10.449 19.887,-26.201 25.316,-40.852 0.9,-2.424 4.529,-0.735 3.639,1.665 C 23.259,-23.818 14.763,-7.648 2.271,3.294 0.336,4.989 -1.92,1.682 0,0"
             style="fill:#000000;fill-opacity:1;fill-rule:nonzero;stroke:none"
             id="path1227" /></g><g
           id="g1229"
           transform="translate(379.5137,550.6802)"><path
             d="M 0,0 C 10.966,6.708 14.933,19.977 13.847,32.25 12.911,42.827 5.914,54.033 -6.075,51.041 -8.567,50.419 -7.904,46.473 -5.401,47.098 4.619,49.598 8.937,39.932 9.903,31.576 11.08,21.404 7.44,9.208 -1.664,3.639 -3.84,2.308 -2.194,-1.342 0,0"
             style="fill:#000000;fill-opacity:1;fill-rule:nonzero;stroke:none"
             id="path1231" /></g><g
           id="g1233"
           transform="translate(376.7305,555.0317)"><path
             d="m 0,0 c -7.315,-5.988 -17.208,-5.696 -25.571,-2.186 -8.209,3.447 -14.561,11.705 -9.216,20.268 1.36,2.179 -1.924,4.466 -3.293,2.272 -6.013,-9.632 -1.161,-19.247 7.899,-24.659 9.938,-5.937 23.587,-6.26 32.751,1.241 C 4.567,-1.43 1.994,1.633 0,0"
             style="fill:#000000;fill-opacity:1;fill-rule:nonzero;stroke:none"
             id="path1235" /></g><g
           id="g1237"
           transform="translate(399.9873,518.1704)"><path
             d="m 0,0 c -0.338,4.342 -1.569,8.604 -2.333,12.883 -0.464,2.604 -0.74,5.221 -0.644,7.869 0.054,1.451 2.486,8.55 4.646,5.1 C 3.55,22.846 3.069,18.083 3.038,14.697 2.979,8.146 1.559,2.701 -0.855,-3.331 -1.813,-5.726 1.954,-7.073 2.912,-4.679 5.866,2.704 7.091,9.266 7.028,17.226 6.993,21.727 6.941,27.964 2.374,30.301 -3.111,33.108 -6.597,24.946 -6.961,21.101 -7.66,13.725 -4.51,6.589 -3.943,-0.674 -3.742,-3.251 0.198,-2.548 0,0"
             style="fill:#000000;fill-opacity:1;fill-rule:nonzero;stroke:none"
             id="path1239" /></g><g
           id="g1241"
           transform="translate(414.0215,500.3828)"><path
             d="m 0,0 c -6.576,2.827 -13.976,6.917 -21.398,6.195 -5.463,-0.532 -10.998,-3.217 -10.701,-9.366 0.289,-5.983 8.3,-7.157 12.709,-7.205 7.9,-0.087 15.254,1.425 22.382,4.839 2.371,1.137 0.729,4.463 -1.664,3.639 -0.588,-0.203 -1.137,-0.381 -1.619,-0.787 -1.973,-1.662 0.598,-4.727 2.57,-3.065 0.244,0.05 0.482,0.122 0.713,0.213 l -1.664,3.639 c -7.633,-3.657 -18.403,-6.541 -26.766,-3.602 -2.186,0.859 -2.938,2.505 -2.256,4.937 0.933,0.991 2.031,1.702 3.295,2.132 3.182,1.376 7.153,0.548 10.347,-0.282 C -9.649,0.142 -5.51,-1.978 -1.348,-3.767 1.022,-4.786 2.363,-1.016 0,0"
             style="fill:#000000;fill-opacity:1;fill-rule:nonzero;stroke:none"
             id="path1243" /></g><g
           id="g1245"
           transform="translate(440.3193,478.1704)"><path
             d="m 0,0 c -1.225,4.855 -3.774,9.417 -5.518,14.101 -1.033,2.776 -2.072,5.817 -2.004,8.818 0.067,3.04 4.354,2.304 5.748,0.628 2.837,-3.412 1.313,-10.54 0.727,-14.467 -0.498,-3.342 -1.929,-7.028 -1.728,-10.422 0.152,-2.578 4.093,-1.87 3.943,0.674 -0.064,1.095 0.787,3.947 1.088,5.494 0.633,3.26 1.125,6.543 1.329,9.86 0.317,5.135 -0.241,12.221 -6.086,13.97 -6.138,1.837 -9.481,-2.642 -8.875,-8.211 C -10.555,12.894 -5.763,6.54 -3.943,-0.674 -3.315,-3.163 0.631,-2.501 0,0"
             style="fill:#000000;fill-opacity:1;fill-rule:nonzero;stroke:none"
             id="path1247" /></g><g
           id="g1249"
           transform="translate(511.1914,440.8071)"><path
             d="m 0,0 c -2.969,-1.66 -6.203,-2.235 -9.543,-2.617 -4.35,-0.496 -7.474,0.691 -11.259,2.596 -4.914,2.474 -4.897,-7 -4.203,-9.202 1.49,-4.728 6.102,-4.979 10.318,-5.856 6.831,-1.422 13.172,1.198 17.962,5.942 1.82,1.802 -0.737,4.881 -2.57,3.065 -3.927,-3.889 -7.959,-5.577 -13.572,-5.221 -1.974,0.126 -4.08,0.684 -6.01,1.151 -2.838,0.687 -2.761,6.115 -1.651,5.357 5.793,-3.954 16.489,-2.042 22.192,1.146 C 3.904,-2.387 2.25,1.258 0,0"
             style="fill:#000000;fill-opacity:1;fill-rule:nonzero;stroke:none"
             id="path1251" /></g><g
           id="g1253"
           transform="translate(513.0234,437.479)"><path
             d="m 0,0 c 9.316,10.866 23.87,18.941 36.501,25.192 7.103,3.516 14.364,7.706 22.51,7.582 C 67.823,32.64 73.73,25.82 72.614,17.252 70.944,4.449 51.586,3.04 41.789,2.14 28.045,0.877 14.116,1.381 0.332,1.388 -2.229,1.389 -2.599,-2.596 -0.016,-2.597 16.282,-2.604 32.8,-3.256 48.996,-1.066 61.468,0.621 77.161,5.239 76.792,20.558 76.648,26.502 72.991,32.333 67.487,34.721 59.26,38.288 50.813,36.577 43.014,32.717 26.863,24.722 8.697,16.257 -3.293,2.271 -4.97,0.316 -1.664,-1.941 0,0"
             style="fill:#000000;fill-opacity:1;fill-rule:nonzero;stroke:none"
             id="path1255" /></g><g
           id="g1257"
           transform="translate(514.0137,437.1685)"><path
             d="M 0,0 C 11.092,5.822 22.786,10.598 34.508,14.986 37.574,16.134 61.271,25.883 59.484,17.7 58.734,14.264 51.241,12.275 48.489,11.294 44.513,9.876 40.41,8.872 36.331,7.803 24.562,4.717 11.934,4.954 -0.028,2.803 -2.571,2.346 -1.893,-1.597 0.646,-1.141 13.965,1.254 27.659,1.394 40.785,4.838 47.509,6.602 64.705,9.798 63.329,19.524 61.797,30.35 46.174,23.193 40.502,21.316 26.104,16.552 11.769,10.689 -1.664,3.639 -3.943,2.442 -2.283,-1.198 0,0"
             style="fill:#000000;fill-opacity:1;fill-rule:nonzero;stroke:none"
             id="path1259" /></g><g
           id="g1261"
           transform="translate(513.0078,433.1733)"><path
             d="m 0,0 c 11.056,0.266 22.214,-1.562 32.946,-4.08 10.074,-2.362 23.739,-5.447 24.159,-18.037 0.474,-14.176 -21.56,-4.39 -27.406,-1.627 -10.757,5.085 -22.768,13.023 -28.725,23.591 -1.26,2.234 -4.905,0.581 -3.639,-1.665 6.921,-12.277 20.184,-20.573 32.614,-26.448 8.375,-3.959 25.459,-10.504 30.484,1.656 1.982,4.796 0.102,10.924 -2.604,14.993 -3.122,4.695 -9.082,6.966 -14.166,8.683 C 30.053,1.664 14.718,4.33 0.348,3.984 -2.203,3.923 -2.579,-0.062 0,0"
             style="fill:#000000;fill-opacity:1;fill-rule:nonzero;stroke:none"
             id="path1263" /></g><g
           id="g1265"
           transform="translate(515.0078,432.2822)"><path
             d="m 0,0 c 5.592,-1.364 11.077,-3.374 16.465,-5.372 7.535,-2.793 15.603,-5.841 21.91,-10.95 2.872,-2.326 3.101,-4.795 -1.382,-3.532 -3.948,1.111 -7.594,3.327 -11.171,5.273 C 17.433,-10.015 8.284,-5.432 2.206,2.206 0.599,4.226 -2.462,1.65 -0.858,-0.365 6.176,-9.204 16.877,-14.293 26.6,-19.531 c 3.564,-1.92 20.206,-9.805 18.003,1.103 -1.441,7.129 -13.328,11.249 -18.99,13.707 C 17.829,-1.342 9.609,1.751 1.348,3.767 -1.13,4.371 -2.511,0.612 0,0"
             style="fill:#000000;fill-opacity:1;fill-rule:nonzero;stroke:none"
             id="path1267" /></g></g></g></g></svg>
