<?xml version="1.0" encoding="UTF-8" standalone="no"?>
<svg
   xmlns:dc="http://purl.org/dc/elements/1.1/"
   xmlns:cc="http://creativecommons.org/ns#"
   xmlns:rdf="http://www.w3.org/1999/02/22-rdf-syntax-ns#"
   xmlns:svg="http://www.w3.org/2000/svg"
   xmlns="http://www.w3.org/2000/svg"
   xmlns:sodipodi="http://sodipodi.sourceforge.net/DTD/sodipodi-0.dtd"
   xmlns:inkscape="http://www.inkscape.org/namespaces/inkscape"
   version="1.1"
   id="svg2862"
   xml:space="preserve"
   width="1333.3333"
   height="1333.3333"
   viewBox="0 0 1333.3333 1333.3333"
   sodipodi:docname="glass.svg"
   inkscape:version="1.0.1 (3bc2e813f5, 2020-09-07)"><metadata
     id="metadata2868"><rdf:RDF><cc:Work
         rdf:about=""><dc:format>image/svg+xml</dc:format><dc:type
           rdf:resource="http://purl.org/dc/dcmitype/StillImage" /><dc:title></dc:title></cc:Work></rdf:RDF></metadata><defs
     id="defs2866"><clipPath
       clipPathUnits="userSpaceOnUse"
       id="clipPath2878"><path
         d="M 0,1000 H 1000 V 0 H 0 Z"
         id="path2876" /></clipPath></defs><sodipodi:namedview
     pagecolor="#ffffff"
     bordercolor="#666666"
     borderopacity="1"
     objecttolerance="10"
     gridtolerance="10"
     guidetolerance="10"
     inkscape:pageopacity="0"
     inkscape:pageshadow="2"
     inkscape:window-width="2400"
     inkscape:window-height="1271"
     id="namedview2864"
     showgrid="false"
     inkscape:zoom="0.62250004"
     inkscape:cx="666.66663"
     inkscape:cy="666.66663"
     inkscape:window-x="-9"
     inkscape:window-y="0"
     inkscape:window-maximized="1"
     inkscape:current-layer="g2870" /><g
     id="g2870"
     inkscape:groupmode="layer"
     inkscape:label="icons wedding all"
     transform="matrix(1.3333333,0,0,-1.3333333,0,1333.3333)"><g
       id="g2872"
       transform="matrix(1.6073072,0,0,1.6073072,-591.85246,-291.15304)"><g
         id="g2874"
         clip-path="url(#clipPath2878)"><g
           id="g2880"
           transform="translate(463.6406,461.334)"><path
             d="m 0,0 c 13.76,-10.977 18.912,-26.442 20.537,-43.438 1.926,-20.144 1.822,-40.622 2.624,-60.838 1.74,-43.838 3.372,-87.69 3.401,-131.569 10e-4,-2.509 3.904,-2.872 3.903,-0.342 -0.029,45.816 -1.811,91.601 -3.631,137.374 -0.795,19.986 -0.548,40.312 -2.876,60.197 C 22.019,-22.041 15.447,-7.321 2.225,3.227 0.25,4.803 -1.967,1.57 0,0"
             style="fill:#000000;fill-opacity:1;fill-rule:nonzero;stroke:none"
             id="path2882" /></g><g
           id="g2884"
           transform="translate(533.9673,464.4492)"><path
             d="m 0,0 c -12.909,-10.3 -19.144,-24.439 -21.428,-40.513 -1.235,-8.682 -1.349,-17.513 -1.676,-26.263 -0.433,-11.605 -0.896,-23.208 -1.358,-34.812 -1.82,-45.772 -3.601,-91.557 -3.63,-137.372 -0.002,-2.51 3.901,-2.872 3.903,-0.342 0.027,43.879 1.662,87.731 3.399,131.57 0.791,19.955 0.979,40.031 2.525,59.944 1.358,17.507 6.656,33.514 20.784,44.786 C 4.496,-1.425 1.972,1.573 0,0"
             style="fill:#000000;fill-opacity:1;fill-rule:nonzero;stroke:none"
             id="path2886" /></g><g
           id="g2888"
           transform="translate(501.9629,678.1279)"><path
             d="m 0,0 h -0.346 c -1.263,0 -1.263,-1.959 0,-1.959 27.821,0 56.393,3.53 83.423,10.033 6.49,1.562 12.984,3.425 19.048,6.248 3.419,1.591 7.294,3.806 8.753,7.488 2.794,7.051 -9.262,12.145 -13.672,14.221 -10.941,5.152 -22.917,7.911 -34.8,9.827 -23.728,3.828 -48.51,4.513 -72.51,3.916 -25.344,-0.629 -51.167,-1.231 -75.737,-8.128 -7.069,-1.984 -39.118,-11.838 -26.332,-23.509 3.71,-3.388 8.94,-5.195 13.604,-6.786 7.283,-2.487 14.856,-4.149 22.396,-5.639 23.776,-4.697 48.317,-7.671 72.573,-7.671 1.264,0 1.264,1.959 0,1.959 h -0.345 c -1.264,0 -1.264,-1.959 0,-1.959 H 0 C 1.264,-1.959 1.264,0 0,0 h -3.945 c -1.264,0 -1.264,-1.959 0,-1.959 H -3.6 c 1.264,0 1.264,1.959 0,1.959 -27.862,0 -56.479,3.514 -83.528,10.116 -5.439,1.328 -32.853,7.373 -24.131,17.375 4.091,4.694 11.864,7.36 17.515,9.507 6.075,2.311 12.399,3.94 18.746,5.3 13.264,2.844 26.865,3.964 40.387,4.68 24.39,1.293 48.797,1.173 73.17,-0.474 13.437,-0.909 26.853,-2.595 39.916,-5.95 6.079,-1.562 12.022,-3.634 17.744,-6.215 3.989,-1.799 13.866,-5.693 12.961,-11.321 -0.708,-4.401 -7.571,-6.904 -11.043,-8.307 C 91.295,11.947 84.019,10.218 76.827,8.653 60.114,5.017 43.051,2.845 26.035,1.25 17.227,0.425 8.495,0 -0.346,0 c -1.263,0 -1.263,-1.959 0,-1.959 H 0 C 1.264,-1.959 1.264,0 0,0"
             style="fill:#000000;fill-opacity:1;fill-rule:nonzero;stroke:none"
             id="path2890" /></g><g
           id="g2892"
           transform="translate(502.4429,745.7129)"><path
             d="m 0,0 h -0.435 c -2.509,0 -2.871,-3.904 -0.342,-3.904 24.086,0 48.153,2.772 71.905,6.651 13.786,2.251 27.713,4.926 40.894,9.647 5.924,2.123 17.419,6.275 17.255,14.24 -0.077,3.735 -2.848,6.555 -5.607,8.731 -7.195,5.675 -16.732,8.972 -25.334,11.723 C 74,54.874 47.85,56.284 22.491,57.152 c -23.478,0.803 -46.903,0.514 -70.355,-0.987 -24.761,-1.586 -50.469,-4.924 -72.926,-16.122 -6.074,-3.029 -17.332,-9.535 -12.021,-17.842 4.897,-7.659 17.213,-10.521 25.285,-12.789 27.123,-7.622 55.938,-10.854 83.981,-12.808 6.368,-0.444 12.692,-0.508 19.074,-0.508 2.509,0 2.871,3.904 0.342,3.904 h -0.436 c -2.508,0 -2.871,-3.904 -0.342,-3.904 h 4.566 C 2.167,-3.904 2.53,0 0,0 h -4.565 c -2.508,0 -2.871,-3.904 -0.342,-3.904 h 0.436 c 2.509,0 2.871,3.904 0.342,3.904 -24.224,0 -48.449,2.834 -72.329,6.783 -5.541,0.916 -63.473,10.903 -52.056,23.407 5.266,5.77 14.117,8.765 21.181,11.387 12.218,4.536 25.198,6.936 38.081,8.638 24.118,3.185 49.09,4.138 73.408,3.527 25.833,-0.648 51.843,-1.219 77.26,-6.334 12.317,-2.479 24.653,-6.304 35.671,-12.429 3.049,-1.696 7.74,-4.322 8.282,-8.19 C 126.279,20.29 111.077,16.134 107.016,14.802 93.99,10.524 80.281,8.144 66.768,6.017 44.553,2.52 22.068,0 -0.435,0 -2.944,0 -3.306,-3.904 -0.777,-3.904 h 0.436 C 2.167,-3.904 2.53,0 0,0"
             style="fill:#000000;fill-opacity:1;fill-rule:nonzero;stroke:none"
             id="path2894" /></g><g
           id="g2896"
           transform="translate(507.6904,234.3867)"><path
             d="m 0,0 c 17.169,0.016 34.445,0.291 51.438,-2.558 7.382,-1.236 16.318,-3.128 21.847,-8.594 7.139,-7.059 -1.887,-11.839 -8.123,-14.273 -22.215,-8.668 -47.014,-8.27 -70.41,-8.266 -22.476,0.003 -44.493,-0.118 -66.406,5.497 -5.191,1.329 -22.046,5.017 -19.529,13.133 2.278,7.347 12.863,9.98 19.304,11.493 18.277,4.293 37.528,3.599 56.171,3.585 2.509,-0.003 2.872,3.9 0.341,3.902 -16.98,0.015 -34.055,0.261 -50.881,-2.405 -7.385,-1.17 -15.41,-2.934 -21.735,-7.126 -4.14,-2.744 -8.875,-7.992 -7.13,-13.419 2.18,-6.79 11.454,-9.614 17.453,-11.521 9.138,-2.905 18.771,-4.562 28.255,-5.857 12.998,-1.775 26.422,-1.187 39.505,-1.187 11.93,0 23.875,-0.133 35.793,0.492 14.571,0.763 30.477,3.467 43.896,9.353 3.996,1.754 9.152,4.678 10.094,9.364 0.872,4.346 -1.976,8.329 -5.022,11.088 C 66.015,0.719 50.762,1.866 39.515,2.9 26.49,4.097 13.404,3.914 0.342,3.904 -2.167,3.901 -2.529,-0.002 0,0"
             style="fill:#000000;fill-opacity:1;fill-rule:nonzero;stroke:none"
             id="path2898" /></g><g
           id="g2900"
           transform="translate(627.8242,770.3799)"><path
             d="m 0,0 c -6.519,-31.642 -14.591,-62.928 -22.628,-94.208 -7.927,-30.853 -15.091,-61.873 -22.739,-92.792 -3.754,-15.173 -7.812,-30.27 -12.155,-45.284 -3.881,-13.42 -7.075,-27.111 -11.565,-40.34 -4.481,-13.2 -10.785,-24.518 -22.85,-32.006 -9.97,-6.187 -23.424,-10.797 -35.241,-10.797 -11.971,0 -24.619,4.092 -35.008,9.893 -12.08,6.746 -18.514,17.312 -23.335,29.937 -5.088,13.328 -8.011,27.512 -12.017,41.19 -4.39,14.985 -8.424,30.074 -12.215,45.221 -7.733,30.896 -14.803,61.942 -22.726,92.794 -7.916,30.833 -15.892,61.661 -22.438,92.822 -0.26,1.243 -0.517,2.485 -0.771,3.729 -0.51,2.475 -4.373,1.816 -3.864,-0.66 6.424,-31.181 14.338,-62.019 22.259,-92.845 7.928,-30.853 15.147,-61.859 22.756,-92.789 3.738,-15.192 7.774,-30.31 12.095,-45.347 3.774,-13.129 7.056,-26.442 11.182,-39.464 3.59,-11.332 8.443,-23.305 17.643,-31.26 9.157,-7.918 20.513,-12.562 32.207,-15.267 20.748,-4.798 44.796,1.885 60.515,16.306 8.981,8.239 13.462,20.637 17.051,31.961 4.279,13.505 7.666,27.357 11.558,40.982 8.682,30.396 15.532,61.22 23.04,91.912 7.574,30.957 15.891,61.725 23.403,92.697 3.485,14.37 6.762,28.79 9.746,43.273 C 4.413,2.132 0.503,2.446 0,0"
             style="fill:#000000;fill-opacity:1;fill-rule:nonzero;stroke:none"
             id="path2902" /></g><g
           id="g2904"
           transform="translate(500.1582,323.874)"><path
             d="m 0,0 c 6.071,18.872 16.067,34.85 28.626,50.029 11.08,13.393 21.515,29.211 36.617,38.412 2.134,1.3 0.521,4.875 -1.631,3.565 C 48.225,82.631 37.854,67.139 26.496,53.569 13.26,37.76 2.661,21.064 -3.689,1.32 -4.461,-1.078 -0.775,-2.413 0,0"
             style="fill:#000000;fill-opacity:1;fill-rule:nonzero;stroke:none"
             id="path2906" /></g><g
           id="g2908"
           transform="translate(480.2979,259.002)"><path
             d="m 0,0 c 4.748,19.37 9.583,39.135 17.921,57.329 1.053,2.296 -2.643,3.605 -3.69,1.319 C 5.894,40.455 1.059,20.691 -3.689,1.32 -4.285,-1.106 -0.603,-2.458 0,0"
             style="fill:#000000;fill-opacity:1;fill-rule:nonzero;stroke:none"
             id="path2910" /></g><g
           id="g2912"
           transform="translate(565.1084,414.1738)"><path
             d="M 0,0 C -4.028,6.931 -4.347,16.022 -4.142,23.821 -4.036,27.828 -3.896,41.54 1.433,42.919 6.138,44.135 4.808,26.602 4.635,24.558 4.06,17.789 3.306,7.961 -1.292,2.51 -2.918,0.582 0.318,-1.631 1.935,0.285 7.568,6.964 8.278,19.166 8.77,27.426 9.104,33.063 9.968,45.609 2.206,46.844 -5.429,48.057 -7.128,34.174 -7.676,29.464 -8.818,19.647 -8.675,7.163 -3.564,-1.631 -2.305,-3.799 1.267,-2.182 0,0"
             style="fill:#000000;fill-opacity:1;fill-rule:nonzero;stroke:none"
             id="path2914" /></g><g
           id="g2916"
           transform="translate(564.542,412.5088)"><path
             d="M 0,0 C 5.861,4.883 13.836,6.778 21.243,7.706 23.647,8.008 38.672,9.236 38.726,4.362 38.766,0.729 25.895,-1.132 23.641,-1.466 16.555,-2.516 7.035,-2.515 1.545,2.848 -0.246,4.596 -3.265,2.094 -1.457,0.328 5.249,-6.219 15.537,-6.447 24.301,-5.329 29.26,-4.695 41.405,-2.752 42.563,3.654 43.901,11.056 31.05,11.94 26.64,11.946 16.762,11.963 5.229,9.457 -2.52,3.001 -4.46,1.384 -1.941,-1.617 0,0"
             style="fill:#000000;fill-opacity:1;fill-rule:nonzero;stroke:none"
             id="path2918" /></g><g
           id="g2920"
           transform="translate(574.0283,443.1455)"><path
             d="m 0,0 c 0.571,5.273 2.787,10.306 6.038,14.473 1.252,1.602 3.875,3.889 5.271,1.225 1.057,-2.019 0.219,-5.165 -0.263,-7.217 C 8.51,-2.296 2.553,-12.29 -1.875,-22.356 c -1.017,-2.314 2.677,-3.626 3.69,-1.322 3.507,7.975 7.473,15.742 10.644,23.863 2.012,5.149 4.457,11.653 2.413,17.144 C 13.066,22.179 7.73,21.284 4.578,18.597 -0.393,14.355 -3.22,6.654 -3.903,0.342 -4.175,-2.174 -0.271,-2.511 0,0"
             style="fill:#000000;fill-opacity:1;fill-rule:nonzero;stroke:none"
             id="path2922" /></g><g
           id="g2924"
           transform="translate(585.73,440.4287)"><path
             d="m 0,0 c 3.907,2.354 7.833,4.746 12.12,6.352 5.29,1.98 4.523,-3.398 2.913,-6.468 -3.603,-6.875 -10.485,-12.447 -16.87,-16.62 -2.113,-1.381 0.43,-4.367 2.518,-3.002 7.441,4.863 19.908,14.346 19.663,24.434 C 20.038,17.345 2.582,6.103 -1.63,3.564 -3.773,2.273 -2.159,-1.301 0,0"
             style="fill:#000000;fill-opacity:1;fill-rule:nonzero;stroke:none"
             id="path2926" /></g><g
           id="g2928"
           transform="translate(603.4951,438.2598)"><path
             d="m 0,0 c 4.545,-0.834 2.826,-6.639 0.495,-8.708 -2.173,-1.929 -4.988,-3.307 -7.466,-4.809 -2.138,-1.296 -0.525,-4.87 1.63,-3.563 4.509,2.732 10.5,5.321 11.97,10.861 C 7.801,-1.805 4.831,3.079 0.342,3.903 -2.146,4.36 -2.465,0.452 0,0"
             style="fill:#000000;fill-opacity:1;fill-rule:nonzero;stroke:none"
             id="path2930" /></g><g
           id="g2932"
           transform="translate(589.6016,457.5518)"><path
             d="m 0,0 c 3.092,2.927 7.462,4.195 11.341,1.951 3.337,-1.93 1.188,-6.79 0.115,-9.431 -0.95,-2.343 2.741,-3.661 3.69,-1.322 1.928,4.75 3.337,10.597 -1.581,13.98 C 8.521,8.648 1.649,6.947 -2.519,3.002 -4.346,1.273 -1.837,-1.738 0,0"
             style="fill:#000000;fill-opacity:1;fill-rule:nonzero;stroke:none"
             id="path2934" /></g><g
           id="g2936"
           transform="translate(498.9722,323.792)"><path
             d="m 0,0 c 9.615,8.733 20.541,15.082 31.923,21.212 11.339,6.104 22.269,13.501 35.196,15.761 2.493,0.436 1.827,4.298 -0.661,3.863 C 53.696,38.605 42.933,31.604 31.742,25.556 19.571,18.978 7.778,12.354 -2.519,3.002 -4.384,1.308 -1.873,-1.7 0,0"
             style="fill:#000000;fill-opacity:1;fill-rule:nonzero;stroke:none"
             id="path2938" /></g><g
           id="g2940"
           transform="translate(466.3657,277.4619)"><path
             d="M 0,0 C 2.432,4.53 4.888,9.046 7.453,13.502 8.703,15.674 5.489,17.923 4.226,15.728 1.662,11.271 -0.794,6.755 -3.227,2.226 -4.406,0.028 -1.196,-2.228 0,0"
             style="fill:#000000;fill-opacity:1;fill-rule:nonzero;stroke:none"
             id="path2942" /></g><g
           id="g2944"
           transform="translate(566.4834,362.8398)"><path
             d="m 0,0 c -0.947,6.549 1.634,13.549 4.139,19.484 0.825,1.956 6.534,14.728 10.152,12.8 C 17.6,30.52 11.02,18.343 9.98,16.359 7.616,11.841 4.251,5.086 -0.426,2.525 c -2.208,-1.208 -0.586,-4.776 1.63,-3.563 6.507,3.56 10.609,12.176 13.705,18.533 2.044,4.195 7.302,14.98 1.166,18.251 C 10.06,38.952 4.686,29.196 2.561,25.216 -1.443,17.719 -5.114,7.991 -3.862,-0.66 -3.499,-3.169 0.362,-2.495 0,0"
             style="fill:#000000;fill-opacity:1;fill-rule:nonzero;stroke:none"
             id="path2946" /></g><g
           id="g2948"
           transform="translate(565.5347,361.248)"><path
             d="M 0,0 C 6.26,2.017 13.493,0.813 19.659,-0.958 21.202,-1.401 33.641,-7.074 30.113,-8.555 26.073,-10.248 19.82,-8.518 15.884,-7.396 10.54,-5.876 4.42,-3.072 2.008,2.264 0.964,4.57 -2.596,2.932 -1.556,0.633 1.621,-6.392 9.497,-9.795 16.532,-11.623 c 4.166,-1.082 14.291,-3.427 17.481,1.096 3.745,5.31 -5.15,10.124 -8.788,11.736 C 17.195,4.768 6.833,6.29 -1.63,3.563 -4.037,2.788 -2.372,-0.765 0,0"
             style="fill:#000000;fill-opacity:1;fill-rule:nonzero;stroke:none"
             id="path2950" /></g><g
           id="g2952"
           transform="translate(582.208,382.0088)"><path
             d="m 0,0 c 2.115,3.956 5.32,7.315 9.234,9.528 6.003,3.394 2.98,-3.732 1.347,-6.063 C 5.403,-3.926 -2.14,-9.722 -8.524,-16.021 c -1.786,-1.762 0.718,-4.777 2.519,-3.001 5.166,5.096 10.609,9.906 15.568,15.21 3.193,3.416 7.617,8.034 7.499,13.087 -0.093,3.973 -3.639,5.619 -7.127,4.746 C 4.385,12.634 -0.636,7.07 -3.227,2.225 -4.403,0.025 -1.192,-2.23 0,0"
             style="fill:#000000;fill-opacity:1;fill-rule:nonzero;stroke:none"
             id="path2954" /></g><g
           id="g2956"
           transform="translate(590.5723,376.373)"><path
             d="m 0,0 c 3.594,0.599 7.23,1.255 10.887,1.186 3.682,-0.071 3.157,-2.602 1.055,-4.715 -4.624,-4.65 -12.358,-6.979 -18.588,-8.257 -2.475,-0.509 -1.816,-4.371 0.66,-3.863 7.81,1.603 19.889,5.059 23.33,13.187 1.038,2.454 -0.11,5.876 -2.663,6.855 C 10.004,6.185 4.058,4.649 -0.66,3.862 -3.159,3.446 -2.49,-0.414 0,0"
             style="fill:#000000;fill-opacity:1;fill-rule:nonzero;stroke:none"
             id="path2958" /></g><g
           id="g2960"
           transform="translate(603.1035,369.3555)"><path
             d="m 0,0 c 2.958,-1.85 0.624,-5.4 -1.737,-6.387 -2.681,-1.119 -6.035,-1.255 -8.88,-1.737 -2.497,-0.423 -1.829,-4.284 0.66,-3.862 4.328,0.733 10.013,0.851 13.212,4.29 2.82,3.03 2.67,8.609 -1.03,10.923 C 0.091,4.56 -2.149,1.343 0,0"
             style="fill:#000000;fill-opacity:1;fill-rule:nonzero;stroke:none"
             id="path2962" /></g><g
           id="g2964"
           transform="translate(598.916,388.5703)"><path
             d="m 0,0 c 3.255,1.295 6.762,0.704 8.989,-2.101 1.702,-2.142 -1.374,-5.213 -2.707,-6.609 -1.725,-1.806 0.774,-4.827 2.519,-3.001 2.968,3.104 6.314,7.472 3.449,11.744 C 9.169,4.624 3.231,5.498 -1.63,3.563 -3.985,2.626 -2.336,-0.931 0,0"
             style="fill:#000000;fill-opacity:1;fill-rule:nonzero;stroke:none"
             id="path2966" /></g><g
           id="g2968"
           transform="translate(490.585,324.6367)"><path
             d="m 0,0 c -3.702,11.084 -6.218,23.191 -14.934,31.622 -7.145,6.911 -22.443,9.603 -30.8,3.678 -9.194,-6.518 -6.585,-17.217 0.445,-24.278 8.943,-8.981 20.253,-14.696 32.497,-17.6 2.429,-0.576 3.782,3.104 1.321,3.689 -8.602,2.04 -16.519,5.366 -23.759,10.487 -7.597,5.372 -19.876,17.756 -7.201,25.135 9.58,5.576 23.136,-0.644 28.868,-8.766 5.278,-7.481 7.146,-17.058 10,-25.598 C -2.761,-4.03 0.792,-2.367 0,0"
             style="fill:#000000;fill-opacity:1;fill-rule:nonzero;stroke:none"
             id="path2970" /></g><g
           id="g2972"
           transform="translate(490.3042,325.0811)"><path
             d="m 0,0 c -7.784,8.534 -12.216,20.873 -22.898,26.494 -6.13,3.226 -18.523,-0.018 -16.764,-8.779 1.456,-7.252 11.756,-11.771 17.562,-14.633 6.237,-3.075 13.487,-6.603 20.457,-7.615 2.506,-0.365 2.834,3.541 0.342,3.902 -4.903,0.713 -9.935,3.171 -14.442,5.096 -6.32,2.698 -13.305,5.882 -18.129,10.922 -1.624,1.696 -2.77,3.711 -1.223,5.802 3.678,4.976 10.088,2.516 13.958,-0.545 C -13.404,14.526 -9.55,4.66 -3.001,-2.519 -1.304,-4.381 1.705,-1.869 0,0"
             style="fill:#000000;fill-opacity:1;fill-rule:nonzero;stroke:none"
             id="path2974" /></g><g
           id="g2976"
           transform="translate(488.1548,317.585)"><path
             d="m 0,0 c -3.006,-6.415 -5.476,-13.045 -9.929,-18.646 -5.393,-6.784 -18.043,-9.208 -24.589,-2.757 -7.933,7.815 8.528,16.542 13.69,18.935 6.811,3.157 14.853,3.825 22.157,2.069 2.427,-0.583 3.781,3.098 1.321,3.69 -10.44,2.51 -20.4,0.591 -29.695,-4.517 -7.429,-4.08 -16.964,-11.92 -11.539,-21.249 4.91,-8.448 18.579,-7.676 26.004,-3.637 8.805,4.79 12.306,16.333 16.27,24.792 C 4.761,0.966 1.065,2.272 0,0"
             style="fill:#000000;fill-opacity:1;fill-rule:nonzero;stroke:none"
             id="path2978" /></g><g
           id="g2980"
           transform="translate(488.7402,318.4258)"><path
             d="m 0,0 c -5.259,-4.613 -9.126,-10.542 -14.471,-15.085 -3.607,-3.067 -8.58,-5.034 -12.185,-0.844 -1.373,1.596 0.291,3.2 1.487,4.225 3.95,3.383 9.727,5.088 14.606,6.572 3.678,1.12 7.916,2.584 11.795,2.713 2.496,0.082 2.866,3.985 0.342,3.902 -5.346,-0.175 -10.858,-2.087 -15.895,-3.722 -5.228,-1.699 -13.845,-4.351 -16.251,-9.972 -2.817,-6.585 5.792,-10.838 11.158,-9.899 9.484,1.659 15.296,13.286 21.933,19.108 C 4.416,-1.339 1.9,1.667 0,0"
             style="fill:#000000;fill-opacity:1;fill-rule:nonzero;stroke:none"
             id="path2982" /></g><g
           id="g2984"
           transform="translate(488.7554,324.8467)"><path
             d="M 0,0 C 5.946,-3.697 15.181,-2.828 21.193,0.321 23.426,1.49 21.799,5.057 19.562,3.885 14.82,1.401 6.987,0.265 2.224,3.227 0.089,4.555 -2.152,1.338 0,0"
             style="fill:#000000;fill-opacity:1;fill-rule:nonzero;stroke:none"
             id="path2986" /></g><g
           id="g2988"
           transform="translate(489.0439,316.6152)"><path
             d="M 0,0 C 6.34,-1.683 14.622,-0.959 20.741,1.368 23.108,2.27 21.457,5.825 19.11,4.933 14.001,2.989 6.601,2.289 1.32,3.689 -1.101,4.332 -2.448,0.65 0,0"
             style="fill:#000000;fill-opacity:1;fill-rule:nonzero;stroke:none"
             id="path2990" /></g><g
           id="g2992"
           transform="translate(430.9434,658.9658)"><path
             d="m 0,0 c -0.103,0.034 -0.205,0.068 -0.307,0.103 -1.609,0.536 -3.269,-0.879 -3.269,-2.492 0,-1.61 1.66,-3.026 3.269,-2.49 0.102,0.034 0.204,0.068 0.307,0.103 1.054,0.351 1.818,1.242 1.818,2.387 C 1.818,-1.241 1.054,-0.351 0,0"
             style="fill:#000000;fill-opacity:1;fill-rule:nonzero;stroke:none"
             id="path2994" /></g><g
           id="g2996"
           transform="translate(455.9092,660.5264)"><path
             d="M 0,0 C -2.567,0 -2.567,-3.979 0,-3.979 2.566,-3.979 2.566,0 0,0"
             style="fill:#000000;fill-opacity:1;fill-rule:nonzero;stroke:none"
             id="path2998" /></g><g
           id="g3000"
           transform="translate(462.2764,599.3184)"><path
             d="m 0,0 c -1.627,0 -2.985,-1.357 -2.985,-2.985 0,-1.627 1.358,-2.985 2.985,-2.985 1.627,0 2.984,1.358 2.984,2.985 C 2.984,-1.357 1.627,0 0,0"
             style="fill:#000000;fill-opacity:1;fill-rule:nonzero;stroke:none"
             id="path3002" /></g><g
           id="g3004"
           transform="translate(439.1035,614.7754)"><path
             d="m 0,0 c -0.425,0.158 -0.85,0.268 -1.317,0.228 -1.361,-0.117 -2.506,-1.053 -2.506,-2.507 0,-1.453 1.145,-2.391 2.506,-2.506 0.467,-0.039 0.892,0.069 1.317,0.228 0.997,0.373 1.735,1.156 1.735,2.278 C 1.735,-1.156 0.997,-0.373 0,0"
             style="fill:#000000;fill-opacity:1;fill-rule:nonzero;stroke:none"
             id="path3006" /></g><g
           id="g3008"
           transform="translate(492.1533,640.6436)"><path
             d="M 0,0 C -3.454,0 -3.454,-5.356 0,-5.356 3.454,-5.356 3.454,0 0,0"
             style="fill:#000000;fill-opacity:1;fill-rule:nonzero;stroke:none"
             id="path3010" /></g><g
           id="g3012"
           transform="translate(516.6426,660.2549)"><path
             d="M 0,0 C -3.479,0 -3.479,-5.396 0,-5.396 3.479,-5.396 3.479,0 0,0"
             style="fill:#000000;fill-opacity:1;fill-rule:nonzero;stroke:none"
             id="path3014" /></g><g
           id="g3016"
           transform="translate(571.9893,631.9346)"><path
             d="M 0,0 C -2.961,0 -2.961,-4.592 0,-4.592 2.96,-4.592 2.96,0 0,0"
             style="fill:#000000;fill-opacity:1;fill-rule:nonzero;stroke:none"
             id="path3018" /></g><g
           id="g3020"
           transform="translate(566.8921,663.6123)"><path
             d="m 0,0 c -1.661,0.492 -3.284,-0.934 -3.153,-2.627 0.1,-1.288 1.004,-2.372 2.372,-2.372 1.316,0 2.181,0.996 2.347,2.211 C 1.875,-1.672 1.16,-0.343 0,0"
             style="fill:#000000;fill-opacity:1;fill-rule:nonzero;stroke:none"
             id="path3022" /></g><g
           id="g3024"
           transform="translate(596.7314,665.6689)"><path
             d="m 0,0 c -0.023,0.105 -0.048,0.21 -0.072,0.315 -0.493,2.123 -3.786,2.123 -4.28,0 C -4.377,0.21 -4.401,0.105 -4.426,0 -4.762,-1.445 -3.75,-2.905 -2.212,-2.905 -0.675,-2.905 0.336,-1.445 0,0"
             style="fill:#000000;fill-opacity:1;fill-rule:nonzero;stroke:none"
             id="path3026" /></g><g
           id="g3028"
           transform="translate(553.377,575.2266)"><path
             d="M 0,0 C -2.467,0 -2.467,-3.826 0,-3.826 2.468,-3.826 2.468,0 0,0"
             style="fill:#000000;fill-opacity:1;fill-rule:nonzero;stroke:none"
             id="path3030" /></g><g
           id="g3032"
           transform="translate(533.7852,609.1172)"><path
             d="m 0,0 c -1.165,0 -1.916,-0.918 -2.009,-2.009 -0.021,-0.262 0.012,-0.52 0.083,-0.775 0.53,-1.908 3.322,-1.908 3.853,0 0.071,0.255 0.104,0.513 0.082,0.775 C 1.917,-0.918 1.166,0 0,0"
             style="fill:#000000;fill-opacity:1;fill-rule:nonzero;stroke:none"
             id="path3034" /></g><g
           id="g3036"
           transform="translate(525.4551,571.8936)"><path
             d="m 0,0 c -0.577,1.936 -3.334,1.936 -3.911,0 -0.094,-0.315 -0.155,-0.615 -0.172,-0.953 -0.058,-1.159 1.013,-2.127 2.128,-2.127 1.115,0 2.185,0.968 2.127,2.127 C 0.155,-0.615 0.094,-0.315 0,0"
             style="fill:#000000;fill-opacity:1;fill-rule:nonzero;stroke:none"
             id="path3038" /></g><g
           id="g3040"
           transform="translate(546.1421,542.3643)"><path
             d="m 0,0 c -0.716,0.42 -1.462,0.333 -2.183,0 -0.088,-0.041 -0.175,-0.081 -0.263,-0.122 -1.322,-0.612 -1.322,-2.877 0,-3.489 0.088,-0.041 0.175,-0.082 0.263,-0.122 0.721,-0.334 1.467,-0.419 2.183,0 0.657,0.384 1.071,1.104 1.071,1.866 C 1.071,-1.104 0.657,-0.385 0,0"
             style="fill:#000000;fill-opacity:1;fill-rule:nonzero;stroke:none"
             id="path3042" /></g><g
           id="g3044"
           transform="translate(523.5,506.4795)"><path
             d="M 0,0 C -3.504,0 -3.504,-5.434 0,-5.434 3.504,-5.434 3.504,0 0,0"
             style="fill:#000000;fill-opacity:1;fill-rule:nonzero;stroke:none"
             id="path3046" /></g><g
           id="g3048"
           transform="translate(544.0713,499.5195)"><path
             d="m 0,0 c -1.158,0 -2.124,-0.966 -2.124,-2.124 0,-1.157 0.966,-2.123 2.124,-2.123 1.157,0 2.124,0.966 2.124,2.123 C 2.124,-0.966 1.157,0 0,0"
             style="fill:#000000;fill-opacity:1;fill-rule:nonzero;stroke:none"
             id="path3050" /></g><g
           id="g3052"
           transform="translate(489.7041,478.8604)"><path
             d="m 0,0 c -1.376,0 -2.525,-1.148 -2.525,-2.525 0,-1.377 1.149,-2.526 2.525,-2.526 1.377,0 2.526,1.149 2.526,2.526 C 2.526,-1.148 1.377,0 0,0"
             style="fill:#000000;fill-opacity:1;fill-rule:nonzero;stroke:none"
             id="path3054" /></g><g
           id="g3056"
           transform="translate(481.9932,524.6084)"><path
             d="M 0,0 C -1.16,0.464 -2.542,-0.507 -2.848,-1.617 -3.387,-3.576 -1.204,-5.261 0.553,-4.231 1.257,-3.819 1.7,-3.049 1.7,-2.233 1.7,-1.115 0.973,-0.39 0,0"
             style="fill:#000000;fill-opacity:1;fill-rule:nonzero;stroke:none"
             id="path3058" /></g><g
           id="g3060"
           transform="translate(497.2695,560.6895)"><path
             d="M 0,0 C -0.21,0.759 -0.819,1.368 -1.578,1.577 -2.491,1.828 -3.695,1.441 -4.127,0.539 -4.385,0 -4.564,-0.513 -4.396,-1.12 -4.184,-1.897 -3.558,-2.563 -2.778,-2.777 -1.117,-3.234 0.456,-1.66 0,0"
             style="fill:#000000;fill-opacity:1;fill-rule:nonzero;stroke:none"
             id="path3062" /></g><g
           id="g3064"
           transform="translate(493.1328,606.1104)"><path
             d="m 0,0 c -1.325,0 -2.43,-1.105 -2.43,-2.43 0,-1.324 1.105,-2.43 2.43,-2.43 1.324,0 2.43,1.106 2.43,2.43 C 2.43,-1.105 1.324,0 0,0"
             style="fill:#000000;fill-opacity:1;fill-rule:nonzero;stroke:none"
             id="path3066" /></g><g
           id="g3068"
           transform="translate(449.0518,559.4268)"><path
             d="m 0,0 c -1.241,0 -2.276,-1.035 -2.276,-2.276 0,-1.242 1.035,-2.278 2.276,-2.278 1.241,0 2.277,1.036 2.277,2.278 C 2.277,-1.035 1.241,0 0,0"
             style="fill:#000000;fill-opacity:1;fill-rule:nonzero;stroke:none"
             id="path3070" /></g><g
           id="g3072"
           transform="translate(433.8682,587.8848)"><path
             d="m 0,0 c -1.632,0 -2.392,-1.986 -1.299,-3.135 0.04,-0.042 0.079,-0.085 0.12,-0.127 0.615,-0.646 1.743,-0.646 2.359,0 0.039,0.042 0.079,0.085 0.119,0.127 C 2.392,-1.986 1.632,0 0,0"
             style="fill:#000000;fill-opacity:1;fill-rule:nonzero;stroke:none"
             id="path3074" /></g><g
           id="g3076"
           transform="translate(454.4395,513.2529)"><path
             d="M 0,0 C -2.764,0 -2.764,-4.286 0,-4.286 2.764,-4.286 2.764,0 0,0"
             style="fill:#000000;fill-opacity:1;fill-rule:nonzero;stroke:none"
             id="path3078" /></g><g
           id="g3080"
           transform="translate(407.2944,668.6064)"><path
             d="m 0,0 c -0.076,-0.024 -0.15,-0.049 -0.226,-0.073 -2.134,-0.686 -2.134,-3.633 0,-4.321 C -0.15,-4.417 -0.076,-4.441 0,-4.465 1.444,-4.93 2.93,-3.689 2.93,-2.233 2.93,-0.776 1.444,0.464 0,0"
             style="fill:#000000;fill-opacity:1;fill-rule:nonzero;stroke:none"
             id="path3082" /></g><g
           id="g3084"
           transform="translate(541.6182,637.0352)"><path
             d="m 0,0 c -0.68,1.929 -3.23,1.929 -3.911,0 -0.111,-0.316 -0.159,-0.605 -0.191,-0.952 -0.106,-1.167 1.056,-2.147 2.147,-2.147 1.089,0 2.253,0.98 2.146,2.147 C 0.16,-0.605 0.112,-0.316 0,0"
             style="fill:#000000;fill-opacity:1;fill-rule:nonzero;stroke:none"
             id="path3086" /></g></g></g></g></svg>
