<?xml version="1.0" encoding="UTF-8" standalone="no"?>
<svg
   xmlns:dc="http://purl.org/dc/elements/1.1/"
   xmlns:cc="http://creativecommons.org/ns#"
   xmlns:rdf="http://www.w3.org/1999/02/22-rdf-syntax-ns#"
   xmlns:svg="http://www.w3.org/2000/svg"
   xmlns="http://www.w3.org/2000/svg"
   xmlns:sodipodi="http://sodipodi.sourceforge.net/DTD/sodipodi-0.dtd"
   xmlns:inkscape="http://www.inkscape.org/namespaces/inkscape"
   version="1.1"
   id="svg3649"
   xml:space="preserve"
   width="1333.3333"
   height="1333.3333"
   viewBox="0 0 1333.3333 1333.3333"
   sodipodi:docname="gramophone.svg"
   inkscape:version="1.0.1 (3bc2e813f5, 2020-09-07)"><metadata
     id="metadata3655"><rdf:RDF><cc:Work
         rdf:about=""><dc:format>image/svg+xml</dc:format><dc:type
           rdf:resource="http://purl.org/dc/dcmitype/StillImage" /><dc:title></dc:title></cc:Work></rdf:RDF></metadata><defs
     id="defs3653"><clipPath
       clipPathUnits="userSpaceOnUse"
       id="clipPath3665"><path
         d="M 0,1000 H 1000 V 0 H 0 Z"
         id="path3663" /></clipPath></defs><sodipodi:namedview
     pagecolor="#ffffff"
     bordercolor="#666666"
     borderopacity="1"
     objecttolerance="10"
     gridtolerance="10"
     guidetolerance="10"
     inkscape:pageopacity="0"
     inkscape:pageshadow="2"
     inkscape:window-width="2400"
     inkscape:window-height="1271"
     id="namedview3651"
     showgrid="false"
     inkscape:zoom="0.62250004"
     inkscape:cx="666.66663"
     inkscape:cy="666.66663"
     inkscape:window-x="-9"
     inkscape:window-y="0"
     inkscape:window-maximized="1"
     inkscape:current-layer="g3657" /><g
     id="g3657"
     inkscape:groupmode="layer"
     inkscape:label="icons wedding all"
     transform="matrix(1.3333333,0,0,-1.3333333,0,1333.3333)"><g
       id="g3659"
       transform="matrix(1.2046145,0,0,1.2046145,-224.24939,-89.807158)"><g
         id="g3661"
         clip-path="url(#clipPath3665)"><g
           id="g3667"
           transform="translate(493.1602,124.9365)"><path
             d="m 0,0 h -175.868 c -2.509,0 -2.871,-3.903 -0.341,-3.903 H -0.341 C 2.167,-3.903 2.529,0 0,0"
             style="fill:#000000;fill-opacity:1;fill-rule:nonzero;stroke:none"
             id="path3669" /></g><g
           id="g3671"
           transform="translate(721.4932,124.9365)"><path
             d="m 0,0 h -205.932 c -2.507,0 -2.87,-3.903 -0.339,-3.903 H -0.34 C 2.168,-3.903 2.53,0 0,0"
             style="fill:#000000;fill-opacity:1;fill-rule:nonzero;stroke:none"
             id="path3673" /></g><g
           id="g3675"
           transform="translate(719.3721,109.5981)"><path
             d="m 0,0 v -11.64 c 0.54,0.587 1.08,1.174 1.621,1.761 -4.985,-0.761 -10.594,-0.07 -15.639,-0.07 h -19.464 -39.586 -79.361 -140.456 -58.011 -27.683 c -7.573,0 -16.021,-1.052 -23.501,0.091 0.594,-0.707 1.187,-1.415 1.781,-2.123 v 11.639 c 0,2.509 -3.903,2.871 -3.903,0.342 v -11.64 c 0,-1.121 0.654,-1.95 1.781,-2.122 4.692,-0.717 9.938,-0.091 14.688,-0.091 h 19.382 39.502 79.48 140.342 59.622 27.683 c 7.745,0 16.35,-1.058 24.003,0.111 0.812,0.124 1.621,0.901 1.621,1.761 V -0.342 C 3.902,2.167 0,2.529 0,0"
             style="fill:#000000;fill-opacity:1;fill-rule:nonzero;stroke:none"
             id="path3677" /></g><g
           id="g3679"
           transform="translate(494.9033,112.0073)"><path
             d="m 0,0 h -184.154 c 0.594,-0.707 1.188,-1.415 1.781,-2.122 0.31,3.878 2.818,9.114 5.851,11.599 1.955,1.603 -0.566,4.602 -2.519,3.002 -3.801,-3.115 -6.847,-9.395 -7.234,-14.26 -0.08,-0.994 0.706,-2.123 1.781,-2.123 H -0.34 C 2.168,-3.904 2.53,0 0,0"
             style="fill:#000000;fill-opacity:1;fill-rule:nonzero;stroke:none"
             id="path3681" /></g><g
           id="g3683"
           transform="translate(720.2109,121.3721)"><path
             d="m 0,0 c 2.986,-2.449 5.419,-7.85 5.723,-11.646 0.7,0.76 1.402,1.521 2.102,2.281 h -214.627 c -2.508,0 -2.87,-3.904 -0.34,-3.904 H 7.484 c 1.336,0 2.208,0.953 2.102,2.283 C 9.192,-6.064 6.051,0.088 2.225,3.227 0.272,4.828 -1.943,1.593 0,0"
             style="fill:#000000;fill-opacity:1;fill-rule:nonzero;stroke:none"
             id="path3685" /></g><g
           id="g3687"
           transform="translate(499.8496,136.9434)"><path
             d="m 0,0 c -31.448,0.527 -62.903,1.426 -94.358,1.196 -18.147,-0.132 -36.286,-0.696 -54.427,-1.075 -9.066,-0.19 -18.131,-0.314 -27.198,-0.338 -3.352,-0.009 -3.938,-0.946 -5.775,-3.807 -1.679,-2.615 -2.44,-5.632 -2.922,-8.661 -0.396,-2.5 3.509,-2.825 3.904,-0.342 0.598,3.767 2.005,6.788 4.387,9.744 -0.593,-0.28 -1.189,-0.56 -1.783,-0.839 31.901,0.029 63.779,1.506 95.681,1.451 27.386,-0.049 54.769,-0.774 82.15,-1.232 C 2.172,-3.945 2.531,-0.042 0,0"
             style="fill:#000000;fill-opacity:1;fill-rule:nonzero;stroke:none"
             id="path3689" /></g><g
           id="g3691"
           transform="translate(723.2549,124.4175)"><path
             d="m 0,0 c -0.569,3.587 -1.719,6.63 -3.678,9.68 -2.449,3.815 -6.005,2.628 -10.17,2.653 -11.404,0.067 -22.81,0.326 -34.213,0.595 -20.959,0.493 -41.911,0.942 -62.877,0.783 -32.571,-0.247 -65.153,-1.612 -97.725,-1.382 -2.51,0.018 -2.872,-3.886 -0.341,-3.903 30.284,-0.215 60.585,0.974 90.866,1.316 19.065,0.215 38.118,0.014 57.179,-0.421 10.755,-0.246 21.51,-0.525 32.266,-0.714 5.445,-0.095 10.89,-0.156 16.336,-0.189 2.116,-0.012 4.335,0.592 5.678,-1.257 C -5.01,4.865 -4.301,2.09 -3.863,-0.66 -3.466,-3.162 0.396,-2.492 0,0"
             style="fill:#000000;fill-opacity:1;fill-rule:nonzero;stroke:none"
             id="path3693" /></g><g
           id="g3695"
           transform="translate(349.6006,210.2915)"><path
             d="m 0,0 c 0.999,-8.906 -6.382,-14.708 -7.989,-23.006 -0.702,-3.618 -0.734,-7.13 0.384,-10.679 1.297,-4.115 4.856,-7.287 5.561,-11.574 0.411,-2.499 4.273,-1.83 3.862,0.66 -0.551,3.357 -2.506,6.008 -4.244,8.856 -2.881,4.72 -2.513,10.095 -0.77,15.137 2.682,7.759 8.047,12.458 7.059,21.266 C 3.581,3.179 -0.28,2.498 0,0"
             style="fill:#000000;fill-opacity:1;fill-rule:nonzero;stroke:none"
             id="path3697" /></g><g
           id="g3699"
           transform="translate(340.2412,156.8716)"><path
             d="m 0,0 c -6.025,-5.823 -9.404,-12.202 -10.653,-20.474 -0.378,-2.503 3.528,-2.83 3.903,-0.341 1.088,7.202 4.035,12.756 9.268,17.813 C 4.325,-1.256 1.818,1.757 0,0"
             style="fill:#000000;fill-opacity:1;fill-rule:nonzero;stroke:none"
             id="path3701" /></g><g
           id="g3703"
           transform="translate(381.083,244.3535)"><path
             d="m 0,0 c -0.142,-4.467 -0.484,-8.982 -0.484,-13.449 0.707,0.594 1.415,1.188 2.122,1.781 -12.964,0.438 -26.051,0.438 -39.016,0 0.594,-0.707 1.189,-1.415 1.781,-2.122 0,4.477 -0.293,8.99 -0.504,13.465 -0.119,2.526 -3.979,1.828 -3.863,-0.66 0.195,-4.135 0.464,-8.323 0.464,-12.464 0,-0.964 0.648,-2.16 1.781,-2.122 12.964,0.438 26.051,0.438 39.016,0 0.994,-0.033 2.123,0.672 2.123,1.781 0,4.467 0.343,8.981 0.483,13.449 C 3.982,2.176 0.079,2.531 0,0"
             style="fill:#000000;fill-opacity:1;fill-rule:nonzero;stroke:none"
             id="path3705" /></g><g
           id="g3707"
           transform="translate(377.71,229.6772)"><path
             d="m 0,0 c 1.145,-4.569 6.1,-12.054 0.151,-14.803 -4.168,-1.927 -9.725,-1.333 -14.18,-1.333 -4.097,0 -8.191,-0.057 -12.256,0.514 -3.514,0.493 -6.293,1.929 -6.112,5.853 0.145,3.164 2.198,6.382 2.975,9.439 0.616,2.425 -3.065,3.774 -3.69,1.32 -1.335,-5.246 -6.415,-13.551 -0.406,-17.894 5.344,-3.864 12.902,-3.134 19.147,-3.134 5.823,0 12.654,-0.548 17.846,2.563 C 10.32,-13.373 5.262,-4.928 3.863,0.66 3.252,3.101 -0.614,2.451 0,0"
             style="fill:#000000;fill-opacity:1;fill-rule:nonzero;stroke:none"
             id="path3709" /></g><g
           id="g3711"
           transform="translate(372.6006,210.792)"><path
             d="m 0,0 c -0.862,-7.703 3.069,-13.103 6.471,-19.646 2.626,-5.05 2.743,-11.315 0.008,-16.3 -1.723,-3.139 -3.838,-5.698 -4.435,-9.312 -0.412,-2.498 3.495,-2.821 3.903,-0.342 0.619,3.753 3.668,6.9 5.216,10.336 1.424,3.161 1.381,6.944 1.004,10.302 -1.019,9.063 -9.328,15.11 -8.264,24.621 C 4.186,2.174 0.281,2.51 0,0"
             style="fill:#000000;fill-opacity:1;fill-rule:nonzero;stroke:none"
             id="path3713" /></g><g
           id="g3715"
           transform="translate(342.4717,154.7104)"><path
             d="M 0,0 C 1.152,3.307 3.79,7.923 6.828,7.909 11.354,7.888 15.874,7.675 20.4,7.675 c 3.923,0 7.845,0.14 11.768,0.212 2.917,0.052 3.307,0.34 5.288,-1.746 1.697,-1.789 2.942,-3.982 3.749,-6.296 0.651,0.922 1.302,1.844 1.952,2.767 H 19.651 c -2.508,0 -2.87,-3.903 -0.34,-3.903 h 2.18 c 2.509,0 2.871,3.903 0.341,3.903 H -1.675 c -2.508,0 -2.871,-3.903 -0.341,-3.903 h 23.507 c 2.509,0 2.871,3.903 0.341,3.903 h -2.181 c -2.508,0 -2.87,-3.903 -0.34,-3.903 h 23.505 c 1.549,0 2.458,1.315 1.954,2.766 -1.197,3.432 -4.228,8.925 -7.91,10.239 -2.173,0.776 -5.581,0.056 -7.869,0.006 -2.75,-0.061 -5.499,-0.142 -8.25,-0.142 -5.164,0 -11.051,1.085 -16.13,0.222 C 0.806,11.154 -2.578,4.512 -3.69,1.32 -4.52,-1.063 -0.834,-2.393 0,0"
             style="fill:#000000;fill-opacity:1;fill-rule:nonzero;stroke:none"
             id="path3717" /></g><g
           id="g3719"
           transform="translate(383.0859,154.1113)"><path
             d="m 0,0 c 5.367,-5.187 8.413,-10.817 9.528,-18.214 0.378,-2.506 4.239,-1.835 3.863,0.66 C 12.176,-9.49 8.881,-3.164 3.001,2.519 1.203,4.256 -1.816,1.755 0,0"
             style="fill:#000000;fill-opacity:1;fill-rule:nonzero;stroke:none"
             id="path3721" /></g><g
           id="g3723"
           transform="translate(684.9609,210.792)"><path
             d="m 0,0 c -0.863,-7.703 3.068,-13.103 6.469,-19.646 2.625,-5.05 2.745,-11.315 0.009,-16.3 -1.724,-3.139 -3.839,-5.697 -4.435,-9.312 -0.413,-2.498 3.494,-2.821 3.902,-0.342 0.619,3.753 3.669,6.9 5.217,10.336 1.424,3.161 1.38,6.944 1.005,10.302 -1.02,9.063 -9.329,15.11 -8.264,24.621 C 4.186,2.174 0.281,2.51 0,0"
             style="fill:#000000;fill-opacity:1;fill-rule:nonzero;stroke:none"
             id="path3725" /></g><g
           id="g3727"
           transform="translate(695.4443,154.1113)"><path
             d="m 0,0 c 5.368,-5.189 8.413,-10.816 9.528,-18.214 0.378,-2.506 4.239,-1.835 3.864,0.66 C 12.175,-9.488 8.882,-3.166 3.002,2.519 1.205,4.256 -1.815,1.756 0,0"
             style="fill:#000000;fill-opacity:1;fill-rule:nonzero;stroke:none"
             id="path3729" /></g><g
           id="g3731"
           transform="translate(653.459,244.3535)"><path
             d="m 0,0 c 0.141,-4.466 0.483,-8.982 0.483,-13.449 0,-0.964 0.649,-2.16 1.782,-2.122 12.964,0.438 26.049,0.438 39.014,0 0.994,-0.033 2.122,0.672 2.122,1.781 0,4.308 0.283,8.66 0.486,12.964 0.118,2.519 -3.784,2.87 -3.904,0.342 -0.203,-4.305 -0.485,-8.656 -0.485,-12.965 0.707,0.594 1.415,1.188 2.122,1.781 -12.964,0.438 -26.05,0.438 -39.015,0 0.594,-0.707 1.189,-1.415 1.782,-2.122 0,4.468 -0.343,8.98 -0.485,13.449 C 3.824,2.154 -0.08,2.525 0,0"
             style="fill:#000000;fill-opacity:1;fill-rule:nonzero;stroke:none"
             id="path3733" /></g><g
           id="g3735"
           transform="translate(656.957,230.6675)"><path
             d="m 0,0 c -1.291,-5.16 -6.292,-13.334 -0.698,-17.742 5.002,-3.941 12.524,-3.286 18.507,-3.286 6.039,0 12.937,-0.598 18.413,2.403 7.295,3.999 2.207,12.589 0.754,18.295 -0.621,2.436 -4.488,1.788 -3.864,-0.66 1.246,-4.895 6.239,-12.182 -0.363,-14.957 -4.373,-1.838 -9.961,-1.179 -14.6,-1.179 -4.037,0 -8.068,-0.03 -12.064,0.628 -8.859,1.46 -3.81,9.524 -2.395,15.178 C 4.297,1.105 0.615,2.456 0,0"
             style="fill:#000000;fill-opacity:1;fill-rule:nonzero;stroke:none"
             id="path3737" /></g><g
           id="g3739"
           transform="translate(661.959,210.2915)"><path
             d="m 0,0 c 0.999,-8.906 -6.382,-14.708 -7.989,-23.006 -0.701,-3.617 -0.736,-7.131 0.384,-10.679 1.298,-4.115 4.856,-7.287 5.562,-11.574 0.411,-2.499 4.273,-1.83 3.862,0.66 -0.552,3.357 -2.506,6.008 -4.244,8.856 -2.882,4.72 -2.513,10.095 -0.771,15.137 2.681,7.76 8.047,12.458 7.059,21.266 C 3.581,3.179 -0.28,2.498 0,0"
             style="fill:#000000;fill-opacity:1;fill-rule:nonzero;stroke:none"
             id="path3741" /></g><g
           id="g3743"
           transform="translate(699.6006,156.1855)"><path
             d="m 0,0 c -1.196,3.431 -4.229,8.925 -7.909,10.239 -2.174,0.776 -5.581,0.055 -7.869,0.006 -2.75,-0.061 -5.499,-0.142 -8.25,-0.142 -5.165,0 -11.052,1.085 -16.131,0.222 -3.805,-0.646 -7.189,-7.288 -8.3,-10.48 -0.388,-1.112 0.386,-2.611 1.675,-2.611 h 23.506 c 2.507,0 2.87,3.903 0.34,3.903 h -2.181 c -2.509,0 -2.871,-3.903 -0.341,-3.903 h 23.507 c 2.509,0 2.871,3.903 0.341,3.903 h -23.507 c -2.509,0 -2.871,-3.903 -0.341,-3.903 h 2.182 c 2.507,0 2.87,3.903 0.34,3.903 h -23.505 c 0.558,-0.871 1.116,-1.741 1.674,-2.612 1.152,3.307 3.79,7.923 6.828,7.909 4.524,-0.021 9.045,-0.234 13.571,-0.234 3.923,0 7.846,0.14 11.768,0.212 2.917,0.052 3.306,0.34 5.288,-1.746 1.697,-1.789 2.943,-3.982 3.75,-6.296 C -2.731,-4.021 0.823,-2.361 0,0"
             style="fill:#000000;fill-opacity:1;fill-rule:nonzero;stroke:none"
             id="path3745" /></g><g
           id="g3747"
           transform="translate(652.5996,156.8716)"><path
             d="m 0,0 c -6.025,-5.823 -9.404,-12.202 -10.653,-20.474 -0.378,-2.503 3.528,-2.83 3.903,-0.341 1.088,7.202 4.035,12.756 9.268,17.813 C 4.325,-1.256 1.819,1.757 0,0"
             style="fill:#000000;fill-opacity:1;fill-rule:nonzero;stroke:none"
             id="path3749" /></g><g
           id="g3751"
           transform="translate(388.001,305.4985)"><path
             d="m 0,0 h -14.174 -10.614 c -2.53,0 -4.972,-4.366 -6.48,-6.026 -13.233,-14.568 -26.67,-28.948 -39.77,-43.636 -0.958,-1.073 0.061,-3.064 1.442,-3.064 h 292.235 109.058 c 1.605,0 2.896,1.838 1.671,3.211 -12.706,14.246 -25.716,28.215 -38.575,42.323 -1.723,1.89 -4.298,6.217 -6.732,7.086 -3.048,1.087 -8.145,0.09 -11.42,0.067 -4.363,-0.03 -8.729,-0.142 -13.091,-0.042 -2.515,0.058 -2.871,-3.845 -0.34,-3.903 3.572,-0.082 7.149,-0.01 10.724,0.022 3.234,0.029 6.469,0.046 9.704,0.055 4.679,0.013 7.621,-5.223 10.567,-8.45 12.064,-13.216 24.25,-26.321 36.161,-39.677 0.558,1.071 1.114,2.141 1.671,3.211 H 39.804 -69.255 c 0.481,-1.021 0.962,-2.042 1.442,-3.064 14.653,16.429 29.72,32.481 44.468,48.824 -0.594,-0.28 -1.189,-0.56 -1.783,-0.839 H -0.34 C 2.168,-3.902 2.53,0 0,0"
             style="fill:#000000;fill-opacity:1;fill-rule:nonzero;stroke:none"
             id="path3753" /></g><g
           id="g3755"
           transform="translate(718.0283,253.5962)"><path
             d="M 0,0 C 1.05,-0.585 1.566,-1.445 1.551,-2.581 0.73,-3.474 0.516,-4.937 1.697,-5.695 c 1.239,-0.794 1.934,-1.981 1.705,-3.426 0.706,0.594 1.414,1.188 2.121,1.781 -51.711,0 -103.416,0.969 -155.131,0.969 h -137.58 c -38.539,0 -77.069,-0.969 -115.608,-0.969 0.587,-0.54 1.175,-1.081 1.761,-1.621 -0.239,1.512 0.696,2.624 1.872,3.378 0.874,0.561 0.897,2.047 0.242,2.761 -0.21,1.395 0.275,2.374 1.453,2.934 2.108,1.39 -0.434,4.376 -2.517,3.002 -2.752,-1.813 -4.391,-5.787 -1.938,-8.455 0.08,0.92 0.161,1.84 0.242,2.76 -2.313,-1.484 -3.651,-4.292 -3.216,-7.04 0.127,-0.812 0.897,-1.623 1.76,-1.623 51.712,0 103.416,0.97 155.132,0.97 h 137.579 c 38.541,0 77.07,-0.97 115.61,-0.97 1.126,0 1.943,0.655 2.121,1.782 0.44,2.78 -1.09,5.522 -3.383,6.994 C 3.971,-3.507 4.02,-4.545 4.068,-5.583 6.701,-2.718 5.31,1.195 2.226,3.227 0.121,4.612 -2.115,1.393 0,0"
             style="fill:#000000;fill-opacity:1;fill-rule:nonzero;stroke:none"
             id="path3757" /></g><g
           id="g3759"
           transform="translate(696.5029,174.0659)"><path
             d="m 0,0 c 12.049,2.911 23.704,7.235 34.856,12.637 11.005,5.331 21.973,11.882 30.233,21.011 8.351,9.23 13.389,21.191 17.962,32.601 4.914,12.263 10.401,23.527 17.621,34.626 4.546,6.988 10.317,13.343 13.911,20.932 1.458,3.083 1.534,7.076 1.827,10.404 1.276,14.504 1.014,29.213 0.526,43.747 -0.499,14.91 -1.266,30.056 -4.145,44.725 -0.811,4.126 -1.735,8.823 -4.163,12.354 -2.048,2.981 -4.765,2.567 -8.021,2.56 -15.746,-0.038 -31.514,0.052 -47.244,-0.786 -3.962,-0.211 -10.805,0.332 -14.217,-2.226 -7.207,-5.401 -4.663,-18.275 -4.27,-25.852 0.252,-4.847 1.02,-8.842 5.058,-11.892 4.135,-3.123 10.746,-1.799 15.465,-1.433 5.477,0.425 10.985,0.752 16.469,1.083 4.761,0.287 13.178,1.969 15.515,-3.283 3.343,-7.509 1.57,-17.441 1.474,-25.417 -0.088,-7.39 -0.447,-14.758 -0.932,-22.131 -0.42,-6.376 0.601,-15.328 -4.707,-19.944 -4.94,-4.296 -14.832,-2.996 -20.751,-2.634 -3.463,0.213 -6.821,0.724 -10.181,1.561 -1.675,0.417 -3.429,0.229 -4.79,-0.913 -5.775,-4.846 -0.981,-17.333 0.505,-23.007 C 49.08,94.606 50.305,90.463 50.69,86.21 51.246,80.078 48.385,73.511 44.675,68.816 37.146,59.29 25.747,58.385 14.577,59.336 9.399,59.777 4.194,60.58 -0.871,61.748 -3.3,62.308 -4.655,58.626 -2.191,58.058 6.5,56.054 15.53,54.825 24.457,55.102 c 9.334,0.289 17.338,4.45 23.444,11.489 6.165,7.108 7.673,17.035 5.694,25.958 -1.04,4.686 -2.436,9.288 -3.505,13.97 -0.772,3.384 -3.59,13.718 3.073,11.852 5.842,-1.637 12.738,-1.656 18.753,-1.322 5.297,0.294 10.455,0.739 14.603,4.345 3.1,2.696 4.135,6.973 4.527,10.877 0.798,7.942 1.158,15.981 1.496,23.955 0.399,9.4 0.958,19.112 0.165,28.502 -0.284,3.347 -0.881,7.12 -2.743,9.994 -2.21,3.41 -5.369,3.591 -9.181,3.796 -11.841,0.636 -23.939,-2.778 -35.696,-1.476 -7.604,0.843 -6.416,11.175 -6.782,16.692 -0.261,3.932 -0.782,13.922 3.345,15.784 4.858,2.192 12.362,1.467 17.536,1.668 8.722,0.337 17.456,0.418 26.182,0.469 6.097,0.035 12.195,-0.003 18.291,0.055 2.53,0.024 3.487,-4.492 4.108,-6.705 3.792,-13.513 4.311,-28.226 4.996,-42.157 0.745,-15.165 0.933,-30.433 0.076,-45.597 -0.236,-4.188 -0.393,-8.591 -1.435,-12.675 -0.797,-3.117 -3.382,-6.198 -5.256,-9.106 -2.118,-3.287 -4.48,-6.393 -6.769,-9.561 C 93.18,97.331 87.602,87.814 83.483,78.064 78.25,65.673 74.068,53.004 66.457,41.769 59.009,30.773 47.691,23.699 36.125,17.659 24.517,11.598 12.062,6.937 -0.662,3.863 -3.11,3.271 -2.459,-0.593 0,0"
             style="fill:#000000;fill-opacity:1;fill-rule:nonzero;stroke:none"
             id="path3761" /></g><g
           id="g3763"
           transform="translate(520.6816,310.7881)"><path
             d="m 0,0 c 31.922,0.37 63.849,-0.665 95.628,-3.798 12.462,-1.229 26.353,-1.547 37.892,-6.855 9.536,-4.389 -10.746,-10.468 -13.912,-11.29 -13.593,-3.534 -27.753,-4.275 -41.722,-4.913 -31.166,-1.422 -62.411,-0.485 -93.599,-0.624 -29.658,-0.132 -59.643,-0.935 -89.174,2.355 -10.231,1.139 -22.141,2.879 -31.121,8.342 -8.296,5.048 3.26,7.716 7.535,8.777 14.065,3.492 29.02,4.247 43.42,5.435 C -56.724,-0.232 -28.403,0 0,0 c 2.508,0 2.871,3.903 0.341,3.903 -29.386,0 -58.654,-0.349 -87.962,-2.769 -14.898,-1.229 -30.459,-1.997 -44.874,-6.178 -3.866,-1.122 -10.367,-3.038 -10.755,-7.934 -0.578,-7.303 12.68,-10.77 17.635,-12.183 12.519,-3.572 25.607,-4.582 38.55,-5.296 15.974,-0.882 31.981,-1.025 47.976,-1.02 30.723,0.015 61.466,-0.245 92.186,0.081 15.25,0.161 30.553,0.581 45.745,2 11.145,1.042 22.857,2.903 33.145,7.559 4.307,1.949 11.279,6.958 6.922,12.109 -3.636,4.298 -11.342,5.345 -16.475,6.405 C 105.13,0.256 86.826,1.141 69.266,2.279 46.326,3.765 23.323,4.17 0.341,3.903 -2.163,3.875 -2.529,-0.03 0,0"
             style="fill:#000000;fill-opacity:1;fill-rule:nonzero;stroke:none"
             id="path3765" /></g><g
           id="g3767"
           transform="translate(519.874,302.3423)"><path
             d="m 0,0 c 11.5,0.117 22.981,-0.212 34.443,-1.166 5.458,-0.454 11.011,-0.851 16.332,-2.202 1.141,-0.289 2.368,-0.661 3.304,-1.398 1.222,-0.96 -5.696,-3.443 -6.188,-3.579 -5.273,-1.452 -10.814,-1.703 -16.245,-1.973 -10.884,-0.542 -21.797,-0.263 -32.689,-0.263 -11.265,0 -22.527,-0.204 -33.783,0.356 -5.185,0.259 -10.347,0.773 -15.363,2.155 -0.31,0.085 -6.291,2.048 -5.194,3.304 0.876,1.002 2.93,1.303 4.158,1.615 5.605,1.422 11.641,1.666 17.385,2.144 C -22.572,-0.069 -11.298,0 0,0 c 1.264,0 1.264,1.959 0,1.959 -13.443,0 -26.749,-0.404 -40.146,-1.573 -5.171,-0.451 -12.374,-0.428 -16.622,-3.766 -5.365,-4.217 10.949,-7.692 12.351,-7.925 14.148,-2.347 29.093,-1.251 43.374,-1.235 13.996,0.017 28.095,-0.536 42.037,0.952 2.672,0.285 17.651,2.059 14.918,7.672 C 53.972,0.07 43.554,-0.053 39.854,0.296 26.588,1.547 13.325,2.094 0,1.959 -1.263,1.946 -1.264,-0.013 0,0"
             style="fill:#000000;fill-opacity:1;fill-rule:nonzero;stroke:none"
             id="path3769" /></g><g
           id="g3771"
           transform="translate(647.7061,289.1958)"><path
             d="m 0,0 c -0.726,-9.595 -18.166,-9.241 -24.995,-10.151 -12.296,-1.639 -24.561,-2.454 -36.957,-2.854 -22.416,-0.723 -44.853,-0.266 -67.275,-0.266 -23.742,0 -47.488,-0.441 -71.222,0.47 -12.051,0.463 -23.935,1.784 -35.857,3.567 -6.243,0.933 -20.128,0.852 -20.683,9.393 -0.163,2.526 -4.025,1.833 -3.863,-0.66 0.478,-7.347 7.497,-9.76 13.725,-11.007 11.426,-2.286 23.258,-3.667 34.864,-4.592 27.447,-2.189 55.193,-1.089 82.696,-1.075 25.802,0.014 51.612,-0.503 77.4,0.658 13.074,0.588 26.018,2.038 38.939,4.101 7.441,1.188 16.45,3.064 17.131,12.074 C 4.095,2.179 0.19,2.523 0,0"
             style="fill:#000000;fill-opacity:1;fill-rule:nonzero;stroke:none"
             id="path3773" /></g><g
           id="g3775"
           transform="translate(216.2803,546.0981)"><path
             d="m 0,0 c 37.58,4.901 75.908,3.591 113.595,0.715 45.259,-3.454 90.283,-9.956 134.917,-18.122 43.094,-7.885 85.911,-17.485 128.166,-29.068 32.911,-9.021 65.938,-18.997 97.222,-32.756 3.831,-1.686 7.623,-3.459 11.37,-5.327 1.126,-0.562 2.12,1.128 0.989,1.692 -27.774,13.844 -57.799,23.351 -87.478,32.136 -40.86,12.093 -82.401,21.927 -124.172,30.306 -44.228,8.872 -88.855,15.969 -133.728,20.63 C 101.122,4.335 60.845,6.745 20.905,4.027 13.918,3.552 6.945,2.865 0,1.959 -1.234,1.799 -1.25,-0.163 0,0"
             style="fill:#000000;fill-opacity:1;fill-rule:nonzero;stroke:none"
             id="path3777" /></g><g
           id="g3779"
           transform="translate(240.9434,640.2378)"><path
             d="m 0,0 c 89.437,-23.555 177.049,-54.488 263.696,-86.657 39.516,-14.67 78.847,-29.85 117.906,-45.697 27.782,-11.272 55.563,-22.722 82.668,-35.56 1.135,-0.538 2.129,1.151 0.989,1.691 -27.962,13.244 -56.64,25.019 -85.306,36.638 -40.992,16.614 -82.296,32.468 -123.784,47.798 C 172.148,-50.739 87.194,-20.938 0.521,1.89 -0.702,2.211 -1.221,0.322 0,0"
             style="fill:#000000;fill-opacity:1;fill-rule:nonzero;stroke:none"
             id="path3781" /></g><g
           id="g3783"
           transform="translate(342.8555,818.8032)"><path
             d="m 0,0 c 15.597,-29.465 37.799,-55.37 60.41,-79.637 28.591,-30.683 59.612,-59.093 91.458,-86.346 58.666,-50.205 120.701,-97.688 186.303,-138.528 10.978,-6.834 22.116,-13.477 33.65,-19.336 1.124,-0.571 2.117,1.119 0.99,1.692 -24.611,12.499 -47.799,27.975 -70.586,43.477 -33.054,22.487 -65.191,46.338 -96.581,71.087 -34.001,26.808 -67.114,54.799 -98.737,84.382 C 78.429,-96.567 50.811,-68.546 27.011,-37.583 17.638,-25.388 8.896,-12.62 1.691,0.989 1.101,2.105 -0.591,1.116 0,0"
             style="fill:#000000;fill-opacity:1;fill-rule:nonzero;stroke:none"
             id="path3785" /></g><g
           id="g3787"
           transform="translate(286.9824,739.1958)"><path
             d="m 0,0 c 73.014,-54.207 151.518,-101.255 229.938,-147.118 63.297,-37.02 127.21,-73.28 192.419,-106.847 1.122,-0.577 2.113,1.112 0.99,1.691 -68.172,35.092 -134.945,73.089 -201.051,111.904 C 146.818,-96.052 71.331,-50.532 0.989,1.691 -0.027,2.446 -1.002,0.744 0,0"
             style="fill:#000000;fill-opacity:1;fill-rule:nonzero;stroke:none"
             id="path3789" /></g><g
           id="g3791"
           transform="translate(722.3271,513.1587)"><path
             d="m 0,0 c -45.372,27.025 -88.925,57.228 -128.274,92.542 -40.477,36.326 -74.987,78.141 -103.445,124.447 -17.914,29.15 -33.13,59.57 -49.234,89.706 -13.373,25.025 -30.688,53.305 -29.445,82.722 0.054,1.305 -0.994,2.254 -2.283,2.102 -17.902,-2.107 -32.215,-17.529 -42.57,-31.023 -11.946,-15.566 -22.178,-34.566 -25.3,-54.127 0.541,0.587 1.081,1.174 1.621,1.761 -18.218,-3.119 -32.158,-17.044 -41.893,-31.956 -9.207,-14.102 -16.576,-31.942 -15.95,-49.061 0.541,0.587 1.081,1.174 1.622,1.761 -20.537,-3.482 -36.247,-21.677 -44.338,-39.856 -8.524,-19.15 -14.616,-42.271 -3.417,-61.809 0.174,0.771 0.348,1.544 0.523,2.316 -14.357,-11.081 -23.336,-29.192 -28.304,-46.248 -2.698,-9.266 -3.952,-18.91 -3.408,-28.55 0.268,-4.752 1.268,-9.394 2.741,-13.909 0.753,-2.311 1.789,-4.517 2.925,-6.661 0.052,-0.097 -2.61,-3.273 -3.112,-3.946 -11.202,-15.025 -17.958,-33.749 -21.876,-51.912 -3.461,-16.043 -5.139,-35.682 4.159,-50.156 0.454,-0.708 1.61,-0.869 2.316,-0.523 54.748,26.76 112.945,45.87 173.426,54.047 28.721,3.883 57.751,5.138 86.707,4.168 29.131,-0.976 57.963,-4.825 86.745,-9.226 52.078,-7.961 104.177,-19.12 152.048,-41.781 2.283,-1.08 3.588,2.617 1.321,3.69 -53.601,25.374 -112.32,36.235 -170.611,44.595 -56.782,8.144 -113.75,9.449 -170.526,0.407 -55.933,-8.909 -109.944,-27.508 -160.74,-52.336 0.771,-0.174 1.544,-0.349 2.316,-0.523 -9.494,14.781 -6.091,35.978 -2.174,51.975 4.353,17.777 11.834,36.257 23.996,50.171 0.407,0.464 0.471,1.399 0.169,1.927 -8.901,15.626 -6.806,34.655 -1.538,51.129 4.806,15.031 13.234,30.855 25.938,40.66 0.64,0.494 0.938,1.591 0.523,2.316 -9.872,17.224 -5.972,40.229 2.77,57.119 4.589,8.863 8.935,16.907 15.956,24.181 7.062,7.317 15.987,13.153 26.125,14.872 0.787,0.134 1.652,0.895 1.621,1.76 -0.593,16.205 6.214,32.573 14.593,46.108 8.978,14.504 22.546,28.398 40.007,31.388 0.916,0.157 1.483,0.882 1.623,1.76 2.897,18.147 12.354,35.358 23.003,50.071 9.748,13.469 24.06,29.49 41.623,31.558 -0.76,0.701 -1.52,1.402 -2.281,2.103 -1.024,-24.267 10.464,-47.661 21.297,-68.675 12.689,-24.613 25.285,-49.364 38.82,-73.523 27.088,-48.355 58.325,-93.416 97.253,-133.026 C -111.311,68.116 -57.998,29.994 -2.225,-3.227 -0.068,-4.511 2.177,-1.297 0,0"
             style="fill:#000000;fill-opacity:1;fill-rule:nonzero;stroke:none"
             id="path3793" /></g><g
           id="g3795"
           transform="translate(719.3701,512.2056)"><path
             d="m 0,0 c -3.094,-10.323 -7.014,-20.427 -11.025,-30.421 -4.03,-10.035 -8.038,-20.79 -14.234,-29.73 -1.439,-2.075 1.784,-4.305 3.226,-2.226 6.156,8.88 10.157,19.496 14.212,29.436 C -3.595,-22.576 0.474,-12.05 3.69,-1.32 4.411,1.088 0.728,2.429 0,0"
             style="fill:#000000;fill-opacity:1;fill-rule:nonzero;stroke:none"
             id="path3797" /></g><g
           id="g3799"
           transform="translate(746.3193,429.1929)"><path
             d="m 0,0 c 14.623,5.746 25.875,14.496 37.342,25.016 1.856,1.702 -0.654,4.712 -2.518,3.002 C 23.62,17.739 12.67,9.183 -1.63,3.564 -3.989,2.637 -2.339,-0.919 0,0"
             style="fill:#000000;fill-opacity:1;fill-rule:nonzero;stroke:none"
             id="path3801" /></g><g
           id="g3803"
           transform="translate(694.3115,447.9868)"><path
             d="m 0,0 c 17.069,-5.699 33.838,-12.151 50.533,-18.856 2.345,-0.943 3.664,2.748 1.321,3.689 C 35.159,-8.462 18.391,-2.009 1.32,3.689 -1.071,4.488 -2.403,0.803 0,0"
             style="fill:#000000;fill-opacity:1;fill-rule:nonzero;stroke:none"
             id="path3805" /></g><g
           id="g3807"
           transform="translate(720.1025,509.9321)"><path
             d="m 0,0 c 21.254,-17.33 41.027,-36.504 60.799,-55.482 1.804,-1.73 4.823,0.77 3.002,2.519 C 43.778,-33.747 23.748,-14.322 2.225,3.227 0.268,4.822 -1.947,1.588 0,0"
             style="fill:#000000;fill-opacity:1;fill-rule:nonzero;stroke:none"
             id="path3809" /></g><g
           id="g3811"
           transform="translate(777.5068,370.147)"><path
             d="m 0,0 c -0.688,-10.034 -1.411,-20.065 -2.18,-30.092 -0.111,-1.44 -0.246,-2.88 -0.317,-4.322 -0.146,-2.922 -4.02,-4.276 -6.302,-4.966 -7.518,-2.276 -15.925,-1.973 -23.685,-1.826 -9.03,0.17 -18.063,0.685 -27.088,1.021 -21.449,0.797 -42.876,2.081 -64.312,3.161 -20.511,1.033 -41.042,1.44 -61.536,2.818 -2.52,0.17 -2.866,-3.733 -0.341,-3.902 21.664,-1.458 43.372,-1.897 65.055,-2.997 23.393,-1.189 46.773,-2.492 70.184,-3.315 8.311,-0.292 16.604,-0.818 24.924,-0.723 7.178,0.082 15.163,0.264 21.728,3.513 4.233,2.094 5.151,5.477 5.484,9.778 0.814,10.499 1.569,21.004 2.288,31.51 C 4.076,2.179 0.173,2.525 0,0"
             style="fill:#000000;fill-opacity:1;fill-rule:nonzero;stroke:none"
             id="path3813" /></g><g
           id="g3815"
           transform="translate(780.4707,455.3794)"><path
             d="m 0,0 c 1.164,-5.753 0.662,-12 0.555,-17.826 -0.182,-9.91 -0.675,-19.816 -1.196,-29.712 -0.132,-2.52 3.77,-2.869 3.904,-0.341 0.546,10.386 1.032,20.776 1.222,31.176 C 4.59,-11.042 4.995,-4.934 3.865,0.66 3.361,3.137 -0.501,2.477 0,0"
             style="fill:#000000;fill-opacity:1;fill-rule:nonzero;stroke:none"
             id="path3817" /></g><g
           id="g3819"
           transform="translate(750.6982,368.1401)"><path
             d="m 0,0 c 0.279,-3.67 2.069,-10.11 -1.018,-12.844 -2.267,-2.009 -6.61,-1.857 -9.41,-1.866 -3.584,-0.011 -7.158,0.129 -10.744,0.073 -12.377,-0.193 -24.752,-0.476 -37.126,-0.804 -33.654,-0.894 -67.265,-2.504 -100.814,-5.383 -2.525,-0.217 -1.836,-4.077 0.66,-3.864 36.538,3.136 73.138,4.71 109.793,5.596 10.532,0.254 21.068,0.519 31.603,0.612 5.608,0.049 11.374,-0.778 16.691,1.484 6.91,2.941 4.67,11.877 4.227,17.656 C 3.67,3.186 -0.19,2.495 0,0"
             style="fill:#000000;fill-opacity:1;fill-rule:nonzero;stroke:none"
             id="path3821" /></g><g
           id="g3823"
           transform="translate(743.5732,430.6445)"><path
             d="m 0,0 c 1.43,-7.701 2.401,-15.459 3.292,-23.238 0.287,-2.518 4.148,-1.838 3.862,0.66 C 6.264,-14.799 5.292,-7.041 3.862,0.661 3.401,3.148 -0.461,2.484 0,0"
             style="fill:#000000;fill-opacity:1;fill-rule:nonzero;stroke:none"
             id="path3825" /></g><g
           id="g3827"
           transform="translate(567.7197,362.5928)"><path
             d="M 0,0 C 11.019,-0.296 18.107,-9.261 19.896,-19.529 22.226,-32.897 11.593,-44.054 -1.824,-43.688 -29.503,-42.933 -25.655,0 0,0 c 2.508,0 2.871,3.903 0.341,3.903 -12.641,0 -22.251,-8.59 -24.853,-20.916 -3.233,-15.324 6.445,-29.206 22.346,-30.579 14.55,-1.255 27.151,11.359 26.231,25.686 C 23.229,-8.875 14.167,3.531 0.341,3.903 -2.176,3.971 -2.531,0.068 0,0"
             style="fill:#000000;fill-opacity:1;fill-rule:nonzero;stroke:none"
             id="path3829" /></g><g
           id="g3831"
           transform="translate(567.1143,324.4282)"><path
             d="m 0,0 c -11.044,0.515 -16.892,9.485 -14.457,20.026 1.548,6.705 6.978,12.575 14.149,12.575 7.305,0 11.845,-4.539 14.366,-10.987 C 18.195,11.023 11.295,0.488 0,0 -1.258,-0.054 -1.264,-2.014 0,-1.959 11.618,-1.458 18.535,7.787 16.805,18.956 15.452,27.679 8.613,34.56 -0.308,34.56 -9.958,34.56 -15.609,26.078 -16.959,17.373 -18.635,6.556 -10.294,-1.479 0,-1.959 1.264,-2.018 1.258,-0.058 0,0"
             style="fill:#000000;fill-opacity:1;fill-rule:nonzero;stroke:none"
             id="path3833" /></g><g
           id="g3835"
           transform="translate(562.6875,317.272)"><path
             d="m 0,0 c 2.376,-1.448 -0.003,-3.202 -1.725,-6.104 -1.731,-2.899 -3.671,-4.88 -4.475,-4.462 -0.832,0.43 0.225,3.04 1.604,6.164 C -3.157,-1.12 -3.074,1.877 0,0"
             style="fill:#000000;fill-opacity:1;fill-rule:nonzero;stroke:none"
             id="path3837" /></g><g
           id="g3839"
           transform="translate(749.5811,325.2769)"><path
             d="m 0,0 v -29.722 c 0,-2.508 3.902,-2.871 3.902,-0.341 V -0.342 C 3.902,2.167 0,2.529 0,0"
             style="fill:#000000;fill-opacity:1;fill-rule:nonzero;stroke:none"
             id="path3841" /></g><g
           id="g3843"
           transform="translate(747.457,317.3755)"><path
             d="M 0,0 C 2.438,-0.773 5.325,-1.197 7.679,0.063 9.9,1.252 8.275,4.819 6.049,3.627 4.592,2.848 2.823,3.214 1.32,3.69 -1.079,4.45 -2.416,0.766 0,0"
             style="fill:#000000;fill-opacity:1;fill-rule:nonzero;stroke:none"
             id="path3845" /></g><g
           id="g3847"
           transform="translate(398.3281,234.355)"><path
             d="m 0,0 c 4.114,5.522 13.838,-2.206 19.486,-0.125 1.176,0.433 0.668,2.327 -0.52,1.89 C 12.44,-0.64 3.612,8.108 -1.691,0.989 -2.447,-0.025 -0.745,-1 0,0"
             style="fill:#000000;fill-opacity:1;fill-rule:nonzero;stroke:none"
             id="path3849" /></g><g
           id="g3851"
           transform="translate(418.1152,234.7026)"><path
             d="M 0,0 C 1.752,2.698 5.874,2.924 8.739,3.164 12.602,3.489 16.529,1.794 20.184,0.785 20.039,1.33 19.896,1.876 19.751,2.422 17.169,0.005 13.723,-0.683 10.293,-0.811 6.345,-0.958 3.207,0.511 -0.432,1.57 c -1.215,0.353 -1.731,-1.537 -0.52,-1.889 2.19,-0.638 3.914,-1.662 6.179,-2.069 2.35,-0.422 4.791,-0.46 7.163,-0.247 3.246,0.292 6.358,1.437 8.746,3.672 0.545,0.509 0.26,1.445 -0.432,1.637 C 14.467,4.396 2.901,8.062 -1.69,0.989 -2.382,-0.074 -0.685,-1.056 0,0"
             style="fill:#000000;fill-opacity:1;fill-rule:nonzero;stroke:none"
             id="path3853" /></g><g
           id="g3855"
           transform="translate(406.1689,236.04)"><path
             d="M 0,0 C 3.647,-0.899 4.831,-5.554 8.531,-6.382 9.455,-6.589 9.847,-5.173 8.922,-4.966 7.05,-4.546 5.806,-2.751 4.573,-1.413 3.406,-0.145 2.098,0.997 0.39,1.417 -0.53,1.644 -0.921,0.226 0,0"
             style="fill:#000000;fill-opacity:1;fill-rule:nonzero;stroke:none"
             id="path3857" /></g><g
           id="g3859"
           transform="translate(419.0039,231.6519)"><path
             d="m 0,0 c -1.92,0.925 -4.584,0.313 -5.837,-1.446 -1.509,-2.117 0.147,-4.83 2.28,-5.689 1.874,-0.755 3.974,0.446 5.014,1.98 C 2.741,-3.263 1.886,-1.045 0,0 c -1.106,0.612 -2.095,-1.08 -0.989,-1.691 0.968,-0.538 1.405,-1.332 0.832,-2.352 -0.488,-0.866 -1.58,-1.509 -2.581,-1.294 -1.115,0.239 -2.154,1.713 -1.502,2.77 0.572,0.925 2.3,1.334 3.251,0.876 C 0.143,-2.238 1.137,-0.548 0,0"
             style="fill:#000000;fill-opacity:1;fill-rule:nonzero;stroke:none"
             id="path3861" /></g><g
           id="g3863"
           transform="translate(417.873,235.0894)"><path
             d="M 0,0 C 6.473,0.771 13.092,-1.171 19.431,0.546 20.04,0.711 19.78,1.656 19.17,1.491 12.941,-0.197 6.37,1.738 0,0.98 -0.619,0.906 -0.627,-0.074 0,0"
             style="fill:#000000;fill-opacity:1;fill-rule:nonzero;stroke:none"
             id="path3865" /></g><g
           id="g3867"
           transform="translate(391.4131,230.2056)"><path
             d="M 0,0 C -6.322,-6.017 3.405,-13.769 1.833,-20.399 1.542,-21.628 3.431,-22.149 3.722,-20.92 5.14,-14.942 -3.713,-6.237 1.386,-1.386 2.302,-0.513 0.915,0.87 0,0"
             style="fill:#000000;fill-opacity:1;fill-rule:nonzero;stroke:none"
             id="path3869" /></g><g
           id="g3871"
           transform="translate(393.4424,210.5181)"><path
             d="m 0,0 c -6.372,-5.32 -1.344,-16.348 1.077,-22.236 0.333,-0.81 1.262,-0.956 1.79,-0.234 2.137,2.919 2.603,6.435 2.495,9.975 -0.144,4.734 -2.172,8 -3.935,12.13 -0.495,1.157 -2.183,0.158 -1.692,-0.989 2.685,-6.286 6.13,-13.72 1.441,-20.127 0.596,-0.079 1.194,-0.156 1.79,-0.234 -2.107,5.123 -7.256,15.59 -1.58,20.33 C 2.356,-0.575 0.963,0.804 0,0"
             style="fill:#000000;fill-opacity:1;fill-rule:nonzero;stroke:none"
             id="path3873" /></g><g
           id="g3875"
           transform="translate(390.5762,220.2729)"><path
             d="M 0,0 C 0.593,-1.584 1.721,-2.654 3.035,-3.667 4.523,-4.814 6.702,-5.816 7.36,-7.706 7.671,-8.595 9.09,-8.213 8.778,-7.315 7.524,-3.714 2.728,-3.115 1.418,0.39 1.089,1.269 -0.332,0.889 0,0"
             style="fill:#000000;fill-opacity:1;fill-rule:nonzero;stroke:none"
             id="path3877" /></g><g
           id="g3879"
           transform="translate(399.4883,209.6167)"><path
             d="M 0,0 C -0.58,0.91 -0.47,2.334 0.192,3.188 1.081,4.334 2.701,3.476 3.278,2.434 3.779,1.528 3.215,0.369 2.562,-0.281 1.718,-1.124 0.673,-0.926 0,0 -0.734,1.011 -2.436,0.036 -1.691,-0.989 -0.426,-2.732 1.679,-3.422 3.508,-2.031 5.186,-0.754 5.888,1.486 4.97,3.422 4.01,5.448 0.936,6.487 -0.831,4.937 -2.411,3.549 -2.824,0.789 -1.691,-0.989 -1.015,-2.051 0.682,-1.069 0,0"
             style="fill:#000000;fill-opacity:1;fill-rule:nonzero;stroke:none"
             id="path3881" /></g><g
           id="g3883"
           transform="translate(393.3369,209.1807)"><path
             d="M 0,0 C 0.015,-6.401 2.734,-12.735 1.81,-19.093 1.72,-19.71 2.664,-19.977 2.755,-19.354 3.701,-12.838 0.994,-6.528 0.98,0 0.979,0.631 -0.001,0.632 0,0"
             style="fill:#000000;fill-opacity:1;fill-rule:nonzero;stroke:none"
             id="path3885" /></g><g
           id="g3887"
           transform="translate(397.3623,147.4644)"><path
             d="m 0,0 c 5.303,-7.119 14.132,1.629 20.657,-0.775 1.188,-0.438 1.696,1.456 0.52,1.889 C 15.529,3.195 5.806,-4.533 1.69,0.989 0.945,1.99 -0.756,1.014 0,0"
             style="fill:#000000;fill-opacity:1;fill-rule:nonzero;stroke:none"
             id="path3889" /></g><g
           id="g3891"
           transform="translate(417.1494,147.1167)"><path
             d="m 0,0 c 4.592,-7.073 16.157,-3.407 22.395,-1.685 0.692,0.192 0.976,1.128 0.432,1.637 -2.388,2.236 -5.501,3.38 -8.746,3.672 C 11.757,3.833 9.491,3.689 7.178,3.412 4.779,3.124 3.019,1.972 0.738,1.309 -0.473,0.956 0.043,-0.935 1.259,-0.581 c 1.095,0.319 1.435,0.459 2.479,0.933 2.659,1.205 5.377,1.369 8.245,1.448 3.336,0.092 7,-0.932 9.458,-3.233 0.145,0.546 0.288,1.092 0.433,1.638 C 18.526,-0.72 15.288,-1.887 11.802,-2.173 8.779,-2.421 3.505,-1.805 1.691,0.989 1.007,2.045 -0.69,1.063 0,0"
             style="fill:#000000;fill-opacity:1;fill-rule:nonzero;stroke:none"
             id="path3893" /></g><g
           id="g3895"
           transform="translate(407.2842,145.3516)"><path
             d="M 0,0 C 1.721,0.424 2.994,1.569 4.183,2.829 5.439,4.161 6.644,5.959 8.532,6.382 9.457,6.589 9.064,8.006 8.142,7.799 4.441,6.971 3.257,2.315 -0.391,1.417 -1.311,1.19 -0.921,-0.227 0,0"
             style="fill:#000000;fill-opacity:1;fill-rule:nonzero;stroke:none"
             id="path3897" /></g><g
           id="g3899"
           transform="translate(418.7402,152.8481)"><path
             d="M 0,0 C -1.039,-0.5 -2.472,0.015 -3.206,0.814 -4.128,1.818 -2.741,3.373 -1.75,3.646 -0.803,3.905 0.243,3.229 0.755,2.476 1.448,1.453 1.01,0.559 0,0 -1.104,-0.612 -0.116,-2.304 0.989,-1.691 2.897,-0.635 3.612,1.403 2.522,3.339 1.554,5.063 -0.663,6.086 -2.567,5.443 -4.729,4.714 -6.211,1.943 -4.942,-0.113 -3.779,-1.999 -0.938,-2.62 0.989,-1.691 2.127,-1.143 1.133,0.545 0,0"
             style="fill:#000000;fill-opacity:1;fill-rule:nonzero;stroke:none"
             id="path3901" /></g><g
           id="g3903"
           transform="translate(418.5977,146.7393)"><path
             d="m 0,0 c 6.37,-0.758 12.942,1.177 19.171,-0.512 0.61,-0.165 0.869,0.781 0.26,0.946 C 13.093,2.151 6.474,0.209 0,0.979 -0.626,1.054 -0.619,0.073 0,0"
             style="fill:#000000;fill-opacity:1;fill-rule:nonzero;stroke:none"
             id="path3905" /></g><g
           id="g3907"
           transform="translate(637.5518,235.3442)"><path
             d="m 0,0 c -5.304,7.119 -14.132,-1.629 -20.657,0.775 -1.189,0.438 -1.697,-1.456 -0.521,-1.889 5.649,-2.081 15.372,5.647 19.487,0.125 C -0.946,-1.99 0.756,-1.015 0,0"
             style="fill:#000000;fill-opacity:1;fill-rule:nonzero;stroke:none"
             id="path3909" /></g><g
           id="g3911"
           transform="translate(617.7646,235.6914)"><path
             d="m 0,0 c -4.592,7.073 -16.158,3.408 -22.395,1.685 -0.693,-0.191 -0.977,-1.128 -0.432,-1.637 2.388,-2.235 5.5,-3.38 8.746,-3.672 2.324,-0.209 4.589,-0.065 6.903,0.212 2.399,0.288 4.159,1.44 6.439,2.104 1.211,0.352 0.695,2.243 -0.521,1.889 -1.094,-0.319 -1.434,-0.458 -2.479,-0.933 -2.658,-1.205 -5.376,-1.368 -8.245,-1.447 -3.335,-0.092 -6.999,0.931 -9.458,3.232 -0.145,-0.546 -0.288,-1.092 -0.432,-1.637 3.348,0.924 6.586,2.091 10.071,2.377 3.024,0.248 8.297,-0.368 10.112,-3.162 C -1.007,-2.044 0.69,-1.063 0,0"
             style="fill:#000000;fill-opacity:1;fill-rule:nonzero;stroke:none"
             id="path3913" /></g><g
           id="g3915"
           transform="translate(627.6299,237.4565)"><path
             d="m 0,0 c -1.721,-0.424 -2.994,-1.569 -4.184,-2.829 -1.255,-1.331 -2.46,-3.13 -4.348,-3.553 -0.925,-0.207 -0.533,-1.624 0.39,-1.417 3.701,0.828 4.884,5.484 8.533,6.382 C 1.311,-1.19 0.92,0.227 0,0"
             style="fill:#000000;fill-opacity:1;fill-rule:nonzero;stroke:none"
             id="path3917" /></g><g
           id="g3919"
           transform="translate(616.1748,229.9604)"><path
             d="M 0,0 C 1.039,0.5 2.472,-0.015 3.205,-0.815 4.126,-1.818 2.74,-3.373 1.748,-3.646 0.801,-3.905 -0.244,-3.229 -0.755,-2.476 -1.45,-1.452 -1.009,-0.559 0,0 1.105,0.611 0.119,2.304 -0.988,1.691 -2.897,0.635 -3.613,-1.403 -2.524,-3.34 -1.555,-5.063 0.661,-6.086 2.566,-5.444 4.729,-4.715 6.21,-1.943 4.941,0.113 3.778,1.999 0.938,2.62 -0.988,1.691 -2.126,1.143 -1.131,-0.546 0,0"
             style="fill:#000000;fill-opacity:1;fill-rule:nonzero;stroke:none"
             id="path3921" /></g><g
           id="g3923"
           transform="translate(616.3154,236.0693)"><path
             d="m 0,0 c -6.37,0.758 -12.941,-1.177 -19.17,0.511 -0.61,0.165 -0.87,-0.78 -0.261,-0.945 C -13.092,-2.151 -6.473,-0.209 0,-0.98 0.627,-1.054 0.619,-0.074 0,0"
             style="fill:#000000;fill-opacity:1;fill-rule:nonzero;stroke:none"
             id="path3925" /></g><g
           id="g3927"
           transform="translate(641.3896,228.8198)"><path
             d="m 0,0 c 5.099,-4.852 -3.754,-13.556 -2.336,-19.534 0.291,-1.229 2.181,-0.708 1.889,0.52 -1.573,6.631 8.155,14.383 1.833,20.4 C 0.471,2.256 -0.916,0.873 0,0"
             style="fill:#000000;fill-opacity:1;fill-rule:nonzero;stroke:none"
             id="path3929" /></g><g
           id="g3931"
           transform="translate(639.3613,209.1328)"><path
             d="m 0,0 c 5.675,-4.739 0.525,-15.207 -1.581,-20.33 0.598,0.079 1.193,0.156 1.79,0.234 -4.689,6.407 -1.243,13.842 1.44,20.127 0.493,1.148 -1.196,2.147 -1.691,0.989 -0.671,-1.572 -1.916,-2.945 -2.418,-4.578 -0.762,-2.476 -1.302,-4.968 -1.518,-7.551 -0.287,-3.459 0.432,-7.158 2.496,-9.976 0.528,-0.722 1.457,-0.576 1.79,0.234 2.421,5.889 7.449,16.916 1.077,22.236 C 0.423,2.189 -0.972,0.81 0,0"
             style="fill:#000000;fill-opacity:1;fill-rule:nonzero;stroke:none"
             id="path3933" /></g><g
           id="g3935"
           transform="translate(642.1943,220.6626)"><path
             d="m 0,0 c -1.31,-3.505 -6.106,-4.104 -7.36,-7.705 -0.312,-0.898 1.108,-1.279 1.419,-0.391 0.612,1.763 2.597,2.783 4.023,3.815 1.434,1.038 2.703,2.2 3.336,3.891 C 1.75,0.499 0.329,0.879 0,0"
             style="fill:#000000;fill-opacity:1;fill-rule:nonzero;stroke:none"
             id="path3937" /></g><g
           id="g3939"
           transform="translate(636.3916,208.6274)"><path
             d="M 0,0 C 1.12,1.758 0.713,4.363 -0.732,5.813 -2.528,7.616 -5.568,6.386 -6.661,4.412 -7.642,2.641 -6.875,0.347 -5.397,-0.889 -3.555,-2.427 -1.339,-1.845 0,0 0.744,1.025 -0.957,2 -1.691,0.989 -3.205,-1.094 -5.88,1.504 -4.97,3.423 -4.478,4.461 -2.905,5.219 -1.997,4.307 -1.201,3.508 -1.104,1.914 -1.691,0.989 -2.372,-0.08 -0.677,-1.062 0,0"
             style="fill:#000000;fill-opacity:1;fill-rule:nonzero;stroke:none"
             id="path3941" /></g><g
           id="g3943"
           transform="translate(639.8721,209.1807)"><path
             d="m 0,0 c -0.015,-6.528 -2.722,-12.838 -1.774,-19.354 0.09,-0.623 1.034,-0.356 0.944,0.261 C -1.755,-12.735 0.965,-6.401 0.979,0 0.98,0.632 0.001,0.631 0,0"
             style="fill:#000000;fill-opacity:1;fill-rule:nonzero;stroke:none"
             id="path3945" /></g><g
           id="g3947"
           transform="translate(635.1357,148.4536)"><path
             d="m 0,0 c -4.114,-5.522 -13.839,2.206 -19.486,0.125 -1.176,-0.433 -0.668,-2.327 0.52,-1.89 6.525,2.405 15.354,-6.343 20.657,0.776 C 2.446,0.025 0.745,1 0,0"
             style="fill:#000000;fill-opacity:1;fill-rule:nonzero;stroke:none"
             id="path3949" /></g><g
           id="g3951"
           transform="translate(615.3477,148.106)"><path
             d="m 0,0 c -1.751,-2.697 -5.872,-2.924 -8.736,-3.164 -3.865,-0.325 -7.79,1.37 -11.446,2.379 0.145,-0.546 0.288,-1.091 0.433,-1.637 2.582,2.417 6.027,3.105 9.457,3.233 3.948,0.146 7.086,-1.322 10.725,-2.381 1.215,-0.354 1.731,1.537 0.52,1.889 -2.19,0.638 -3.915,1.662 -6.179,2.069 -2.35,0.422 -4.791,0.46 -7.163,0.247 -3.246,-0.292 -6.358,-1.436 -8.746,-3.672 -0.543,-0.509 -0.26,-1.445 0.433,-1.637 C -14.465,-4.397 -2.9,-8.063 1.691,-0.989 2.382,0.074 0.686,1.056 0,0"
             style="fill:#000000;fill-opacity:1;fill-rule:nonzero;stroke:none"
             id="path3953" /></g><g
           id="g3955"
           transform="translate(627.2949,146.7681)"><path
             d="M 0,0 C -3.647,0.899 -4.832,5.555 -8.532,6.383 -9.455,6.589 -9.848,5.173 -8.922,4.966 -7.05,4.547 -5.806,2.752 -4.573,1.413 -3.406,0.145 -2.098,-0.996 -0.391,-1.417 0.53,-1.644 0.92,-0.226 0,0"
             style="fill:#000000;fill-opacity:1;fill-rule:nonzero;stroke:none"
             id="path3957" /></g><g
           id="g3959"
           transform="translate(614.46,151.1567)"><path
             d="M 0,0 C 1.919,-0.925 4.584,-0.313 5.837,1.445 7.345,3.563 5.69,6.276 3.556,7.135 1.682,7.89 -0.416,6.689 -1.457,5.155 -2.741,3.263 -1.887,1.045 0,0 1.105,-0.612 2.094,1.08 0.989,1.691 0.021,2.228 -0.416,3.023 0.157,4.043 0.644,4.908 1.737,5.551 2.738,5.337 3.853,5.098 4.892,3.623 4.24,2.567 3.669,1.642 1.94,1.233 0.989,1.691 -0.144,2.237 -1.138,0.548 0,0"
             style="fill:#000000;fill-opacity:1;fill-rule:nonzero;stroke:none"
             id="path3961" /></g><g
           id="g3963"
           transform="translate(615.5908,147.7188)"><path
             d="m 0,0 c -6.474,-0.771 -13.093,1.172 -19.431,-0.545 -0.609,-0.165 -0.35,-1.111 0.26,-0.946 C -12.942,0.198 -6.37,-1.738 0,-0.979 0.619,-0.906 0.627,0.075 0,0"
             style="fill:#000000;fill-opacity:1;fill-rule:nonzero;stroke:none"
             id="path3965" /></g><g
           id="g3967"
           transform="translate(501.2871,128.9292)"><path
             d="m 0,0 c 2.422,18.115 4.841,36.23 7.262,54.345 1.206,9.027 2.414,18.052 3.621,27.078 0.491,3.676 1.086,7.353 1.421,11.047 0.28,3.088 0.333,6.296 1.957,9.041 1.116,1.887 3.575,2.44 5.581,1.901 3.145,-0.844 2.308,-4.926 2.021,-7.067 -0.598,-4.47 -1.196,-8.94 -1.795,-13.41 C 18.786,73.356 17.507,63.777 16.227,54.199 13.752,35.68 11.28,17.161 8.805,-1.357 c -0.336,-2.511 3.569,-2.84 3.903,-0.342 2.903,21.712 5.8,43.424 8.702,65.135 1.45,10.856 2.903,21.711 4.358,32.567 0.688,5.14 -0.973,12.453 -7.896,11.552 C 11.958,106.786 9.641,102.401 8.793,96.931 7.324,87.445 6.448,77.797 5.175,68.273 2.146,45.629 -0.875,22.985 -3.903,0.341 -4.239,-2.168 -0.334,-2.498 0,0"
             style="fill:#000000;fill-opacity:1;fill-rule:nonzero;stroke:none"
             id="path3969" /></g><g
           id="g3971"
           transform="translate(506.0361,127.9214)"><path
             d="m 0,0 c 8.876,-1.552 11.828,-13.432 3.559,-17.848 -6.694,-3.573 -16.291,1.117 -15.75,9.053 C -11.769,-2.585 -5.537,0.736 0,0 2.509,-0.334 2.84,3.571 0.34,3.903 -7.002,4.88 -14.475,0.443 -15.867,-7.203 c -1.634,-8.968 6.39,-16.475 15.304,-15.667 7.286,0.661 13.626,5.724 13.005,13.513 C 11.893,-2.449 7.127,2.717 0.34,3.903 -2.151,4.339 -2.473,0.432 0,0"
             style="fill:#000000;fill-opacity:1;fill-rule:nonzero;stroke:none"
             id="path3973" /></g></g></g></g></svg>
