<?xml version="1.0" encoding="UTF-8" standalone="no"?>
<!-- Generator: Adobe Illustrator 19.0.0, SVG Export Plug-In . SVG Version: 6.00 Build 0)  -->

<svg
   xmlns:dc="http://purl.org/dc/elements/1.1/"
   xmlns:cc="http://creativecommons.org/ns#"
   xmlns:rdf="http://www.w3.org/1999/02/22-rdf-syntax-ns#"
   xmlns:svg="http://www.w3.org/2000/svg"
   xmlns="http://www.w3.org/2000/svg"
   xmlns:sodipodi="http://sodipodi.sourceforge.net/DTD/sodipodi-0.dtd"
   xmlns:inkscape="http://www.inkscape.org/namespaces/inkscape"
   version="1.1"
   id="Layer_1"
   x="0px"
   y="0px"
   viewBox="0 0 512.021 512.021"
   style="enable-background:new 0 0 512.021 512.021;"
   xml:space="preserve"
   sodipodi:docname="gramophone-white.svg"
   inkscape:version="0.92.4 (5da689c313, 2019-01-14)"><metadata
   id="metadata192"><rdf:RDF><cc:Work
       rdf:about=""><dc:format>image/svg+xml</dc:format><dc:type
         rdf:resource="http://purl.org/dc/dcmitype/StillImage" /><dc:title></dc:title></cc:Work></rdf:RDF></metadata><defs
   id="defs190" /><sodipodi:namedview
   pagecolor="#ffffff"
   bordercolor="#666666"
   borderopacity="1"
   objecttolerance="10"
   gridtolerance="10"
   guidetolerance="10"
   inkscape:pageopacity="0"
   inkscape:pageshadow="2"
   inkscape:window-width="2400"
   inkscape:window-height="1271"
   id="namedview188"
   showgrid="false"
   inkscape:zoom="0.4609186"
   inkscape:cx="256.0105"
   inkscape:cy="256.0105"
   inkscape:window-x="-9"
   inkscape:window-y="0"
   inkscape:window-maximized="1"
   inkscape:current-layer="Layer_1" />
<g
   id="g155"
   style="fill:#ffffff">
	<g
   id="g153"
   style="fill:#ffffff">
		<g
   id="g151"
   style="fill:#ffffff">
			<path
   d="M485.533,210.411c-3.563-6.485-6.933-12.587-8.171-18.56c-0.981-4.736-0.277-10.923,0.491-17.493     c1.131-9.92,2.432-21.141-1.579-32.085c-4.011-10.923-12.395-18.795-19.776-25.749c-4.8-4.501-9.323-8.768-11.541-12.821     c-2.923-5.312-4.245-11.883-5.653-18.859c-1.941-9.643-3.947-19.584-10.581-27.563c-8.747-10.517-20.971-15.083-31.744-19.093     c-5.333-1.984-10.411-3.883-13.76-6.101c-4.992-3.328-9.92-8.256-14.699-13.013C359.005,9.536,349.085,0.192,336.029,0     c-4.736,0.128-8.832,3.349-10.048,7.915c-27.947,104.448-105.045,160.192-166.997,205.013     c-44.352,32.085-80.277,58.261-87.765,93.461c-3.925-2.389-8.661-4.288-14.165-5.696c-3.328-7.424-10.731-12.672-19.413-12.672     c-11.776,0-21.333,9.557-21.333,21.333s9.557,21.333,21.333,21.333c7.104,0,13.077-3.691,16.96-9.024     c16.725,5.355,17.536,19.328,15.381,49.643c-1.749,24.725-3.541,54.891,20.992,71.723v36.992c0,5.888,4.779,10.667,10.667,10.667     h10.667v10.667c0,5.888,4.779,10.667,10.667,10.667s10.667-4.779,10.667-10.667v-10.667h192v10.667     c0,5.888,4.779,10.667,10.667,10.667c5.888,0,10.667-4.779,10.667-10.667v-10.667h10.667c5.888,0,10.667-4.779,10.667-10.667v-64     c0-5.888-4.779-10.667-10.667-10.667H240.306v-21.333h53.333c5.888,0,10.667-4.779,10.667-10.667     c0-5.888-4.779-10.667-10.667-10.667h-128c-5.888,0-10.667,4.779-10.667,10.667c0,5.888,4.779,10.667,10.667,10.667h53.333     v21.333H101.64c-3.925,0-7.232,2.219-9.067,5.397c-2.795-9.536-2.411-22.016-1.301-37.931c0.256-3.691,0.533-7.573,0.704-11.52     c8.747,4.651,18.923,6.528,29.397,6.528c12.629,0,25.536-2.517,36.459-5.504c0.256-0.064,0.448-0.256,0.704-0.363     c10.027-1.749,17.771-10.091,17.771-20.608c0-11.776-9.557-21.333-21.333-21.333s-21.333,9.557-21.333,21.333     c0,1.451,0.555,2.709,0.832,4.075c-15.765,2.176-28.501,0.64-35.435-4.672c-5.397-4.096-8.021-10.88-8.021-20.715     c0-15.083,8.149-28.843,21.547-42.645c13.227,0.448,29.419-0.171,48.171-0.96c77.44-3.221,194.539-8.064,275.264,62.315     c2.816,2.475,6.72,3.264,10.283,2.112c16.619-5.376,22.336-25.579,27.392-43.392c1.024-3.648,2.048-7.275,3.136-10.645     c1.131-3.541,3.733-7.872,6.464-12.459c5.632-9.493,12.672-21.269,12.437-35.477C495.496,228.523,490.44,219.307,485.533,210.411     z M112.306,426.688h234.667v42.667H112.306V426.688z M464.947,263.424c-3.243,5.397-6.571,11.008-8.448,16.832     c-1.152,3.605-2.261,7.467-3.371,11.371c-2.347,8.277-5.611,19.819-9.621,25.557c-66.837-54.208-152.448-63.68-224.299-63.68     c-21.291,0-41.387,0.832-59.392,1.6c-8.171,0.341-15.851,0.661-22.955,0.875c10.475-8.256,22.208-16.747,34.667-25.749     c62.464-45.184,139.669-101.013,171.84-205.461c3.285,2.581,6.912,6.208,10.112,9.408c5.248,5.227,11.2,11.179,17.984,15.68     c5.397,3.584,11.861,5.995,18.112,8.32c8.683,3.243,17.664,6.571,22.784,12.736c3.179,3.819,4.565,10.773,6.059,18.155     c1.579,7.851,3.392,16.747,7.851,24.896c3.861,6.997,9.856,12.651,15.637,18.091c6.229,5.845,12.096,11.371,14.379,17.579     c2.261,6.165,1.365,13.973,0.405,22.251c-0.917,7.957-1.877,16.192-0.192,24.299c1.899,9.088,6.379,17.28,10.368,24.491     c3.819,6.933,7.424,13.483,7.509,18.56C474.525,247.36,469.661,255.531,464.947,263.424z"
   id="path147"
   style="fill:#ffffff" />
			<path
   d="M361.331,68.8c-5.355-2.517-11.691-0.256-14.208,5.077c-13.376,28.245-30.571,54.144-52.565,79.083     c-3.904,4.416-3.477,11.157,0.939,15.061c2.048,1.792,4.544,2.667,7.061,2.667c2.965,0,5.909-1.216,8-3.605     c23.36-26.496,41.621-53.995,55.851-84.096C368.925,77.653,366.664,71.296,361.331,68.8z"
   id="path149"
   style="fill:#ffffff" />
		</g>
	</g>
</g>
<g
   id="g157"
   style="fill:#ffffff">
</g>
<g
   id="g159"
   style="fill:#ffffff">
</g>
<g
   id="g161"
   style="fill:#ffffff">
</g>
<g
   id="g163"
   style="fill:#ffffff">
</g>
<g
   id="g165"
   style="fill:#ffffff">
</g>
<g
   id="g167"
   style="fill:#ffffff">
</g>
<g
   id="g169"
   style="fill:#ffffff">
</g>
<g
   id="g171"
   style="fill:#ffffff">
</g>
<g
   id="g173"
   style="fill:#ffffff">
</g>
<g
   id="g175"
   style="fill:#ffffff">
</g>
<g
   id="g177"
   style="fill:#ffffff">
</g>
<g
   id="g179"
   style="fill:#ffffff">
</g>
<g
   id="g181"
   style="fill:#ffffff">
</g>
<g
   id="g183"
   style="fill:#ffffff">
</g>
<g
   id="g185"
   style="fill:#ffffff">
</g>
</svg>