<?xml version="1.0" encoding="UTF-8" standalone="no"?>
<svg
   xmlns:dc="http://purl.org/dc/elements/1.1/"
   xmlns:cc="http://creativecommons.org/ns#"
   xmlns:rdf="http://www.w3.org/1999/02/22-rdf-syntax-ns#"
   xmlns:svg="http://www.w3.org/2000/svg"
   xmlns="http://www.w3.org/2000/svg"
   xmlns:sodipodi="http://sodipodi.sourceforge.net/DTD/sodipodi-0.dtd"
   xmlns:inkscape="http://www.inkscape.org/namespaces/inkscape"
   id="grill_x5F_tools"
   enable-background="new 0 0 300 300"
   height="512"
   viewBox="0 0 300 300"
   width="512"
   version="1.1"
   sodipodi:docname="kitchen-tools-white.svg"
   inkscape:version="0.92.4 (5da689c313, 2019-01-14)">
  <metadata
     id="metadata152">
    <rdf:RDF>
      <cc:Work
         rdf:about="">
        <dc:format>image/svg+xml</dc:format>
        <dc:type
           rdf:resource="http://purl.org/dc/dcmitype/StillImage" />
        <dc:title></dc:title>
      </cc:Work>
    </rdf:RDF>
  </metadata>
  <defs
     id="defs150" />
  <sodipodi:namedview
     pagecolor="#ffffff"
     bordercolor="#666666"
     borderopacity="1"
     objecttolerance="10"
     gridtolerance="10"
     guidetolerance="10"
     inkscape:pageopacity="0"
     inkscape:pageshadow="2"
     inkscape:window-width="2400"
     inkscape:window-height="1271"
     id="namedview148"
     showgrid="false"
     inkscape:zoom="0.4609375"
     inkscape:cx="256"
     inkscape:cy="256"
     inkscape:window-x="-9"
     inkscape:window-y="0"
     inkscape:window-maximized="1"
     inkscape:current-layer="grill_x5F_tools" />
  <circle
     cx="178.891"
     cy="192.455"
     r="4.058"
     id="circle131"
     style="fill:#ffffff" />
  <circle
     cx="196.11"
     cy="209.674"
     r="4.058"
     id="circle133"
     style="fill:#ffffff" />
  <path
     d="m176.73 148.004 10.965 4.215c12.918 4.965 27.582 1.855 37.367-7.93l45.23-45.23c1.562-1.562 1.562-4.094 0-5.656l-54.539-54.539c-1.562-1.562-4.094-1.562-5.656 0l-45.23 45.23c-9.785 9.785-12.898 24.453-7.93 37.363l4.215 10.969-12.575 12.577-31.632-31.628 2.043-7.477c2.535-9.297-.125-19.305-6.938-26.117l-36.511-36.511c-1.164-1.164-2.926-1.496-4.438-.836-1.508.664-2.457 2.184-2.387 3.832l.695 16.523c.043 1 .457 1.953 1.168 2.66l22.996 23-2.18 2.18-25.573-25.574c-1.5-1.504-4.156-1.496-5.656 0l-7.871 7.875c-1.562 1.562-1.562 4.094 0 5.656l25.574 25.574-2.973 2.973-23-23c-.711-.711-1.66-1.125-2.66-1.168l-16.531-.688c-1.77-.102-3.172.879-3.832 2.391-.66 1.508-.328 3.27.836 4.434l36.508 36.512c6.816 6.816 16.836 9.465 26.117 6.938l7.48-2.039 31.63 31.63-10.243 10.245-2.133-2.132c-1.562-1.562-4.094-1.562-5.656 0l-57.016 57.02c-7.027 7.027-7.027 18.461 0 25.488 3.512 3.516 8.129 5.27 12.746 5.27 4.613 0 9.23-1.754 12.742-5.27l57.02-57.02c.75-.75 1.172-1.766 1.172-2.828s-.422-2.078-1.172-2.828l-2.129-2.129 10.243-10.242 9 9-1.477 1.476c-.75.75-1.172 1.766-1.172 2.828s.422 2.078 1.172 2.828l63.137 63.137c3.547 3.551 8.211 5.324 12.871 5.324s9.324-1.773 12.871-5.324c7.098-7.098 7.098-18.648 0-25.746l-63.133-63.133c-1.562-1.562-4.094-1.562-5.656 0l-1.477 1.476-9-9zm-72.902-24.789c-1.02-1.016-2.5-1.406-3.879-1.031l-9.719 2.648c-6.539 1.781-13.57-.086-18.359-4.875l-29.258-29.262 4.727.199 24.727 24.723c1.562 1.562 4.094 1.562 5.656 0l8.629-8.629c1.562-1.562 1.562-4.094 0-5.656l-25.575-25.574 2.215-2.219 25.574 25.574c1.562 1.562 4.094 1.562 5.656 0l7.836-7.836c1.562-1.562 1.562-4.094 0-5.656l-24.722-24.726-.195-4.711 29.254 29.254c4.789 4.789 6.656 11.824 4.875 18.355l-2.652 9.715c-.379 1.387.016 2.867 1.031 3.883l33.273 33.269-5.823 5.825zm-27.602 123.89c-3.91 3.906-10.273 3.906-14.176 0-3.906-3.91-3.906-10.266 0-14.176l54.187-54.191 2.132 2.131s.001.001.001.002.001.001.002.001l12.045 12.042zm50.63-69.063 41.792-41.796c1.117-1.117 1.473-2.789.906-4.262l-5.148-13.398c-3.836-9.965-1.434-21.285 6.117-28.836l42.402-42.402 48.883 48.883-42.402 42.402c-7.551 7.547-18.867 9.945-28.84 6.117l-13.395-5.148c-1.465-.562-3.141-.215-4.262.906l-17.234 17.234c-.003.003-.008.004-.012.008s-.004.008-.008.012l-24.54 24.54zm110.906 58.853c3.98 3.98 3.98 10.453 0 14.434-3.977 3.977-10.453 3.977-14.43 0l-60.309-60.309 12.956-12.952s.001 0 .001-.001 0-.001.001-.001l1.476-1.475zm-70.267-61.657-5.823 5.822-9-9 5.823-5.822z"
     id="path135"
     style="fill:#ffffff" />
  <path
     d="m173.258 110.148c1.023 0 2.047-.391 2.828-1.172l39.668-39.668c1.562-1.562 1.562-4.094 0-5.656s-4.094-1.562-5.656 0l-39.668 39.668c-1.562 1.562-1.562 4.094 0 5.656.781.782 1.804 1.172 2.828 1.172z"
     id="path137"
     style="fill:#ffffff" />
  <path
     d="m185.305 123.852c.781.781 1.805 1.172 2.828 1.172s2.047-.391 2.828-1.172l39.668-39.668c1.562-1.562 1.562-4.094 0-5.656s-4.094-1.562-5.656 0l-39.668 39.668c-1.563 1.562-1.563 4.093 0 5.656z"
     id="path139"
     style="fill:#ffffff" />
  <path
     d="m200.18 138.727c.781.781 1.805 1.172 2.828 1.172s2.047-.391 2.828-1.172l39.664-39.668c1.562-1.562 1.562-4.094 0-5.656s-4.094-1.562-5.656 0l-39.664 39.667c-1.563 1.563-1.563 4.094 0 5.657z"
     id="path141"
     style="fill:#ffffff" />
  <circle
     cx="113.761"
     cy="195.395"
     r="4.954"
     id="circle143"
     style="fill:#ffffff" />
  <circle
     cx="101.365"
     cy="207.79"
     r="4.954"
     id="circle145"
     style="fill:#ffffff" />
</svg>
