<?xml version="1.0" encoding="UTF-8" standalone="no"?>
<!-- Created with Inkscape (http://www.inkscape.org/) -->

<svg
   xmlns:osb="http://www.openswatchbook.org/uri/2009/osb"
   xmlns:dc="http://purl.org/dc/elements/1.1/"
   xmlns:cc="http://creativecommons.org/ns#"
   xmlns:rdf="http://www.w3.org/1999/02/22-rdf-syntax-ns#"
   xmlns:svg="http://www.w3.org/2000/svg"
   xmlns="http://www.w3.org/2000/svg"
   xmlns:sodipodi="http://sodipodi.sourceforge.net/DTD/sodipodi-0.dtd"
   xmlns:inkscape="http://www.inkscape.org/namespaces/inkscape"
   width="210mm"
   height="297mm"
   viewBox="0 0 210 297"
   version="1.1"
   id="svg8"
   sodipodi:docname="mairie-black-contour-white.svg"
   inkscape:version="0.92.4 (5da689c313, 2019-01-14)">
  <defs
     id="defs2">
    <linearGradient
       inkscape:collect="always"
       id="linearGradient4673"
       osb:paint="gradient">
      <stop
         style="stop-color:#000000;stop-opacity:1;"
         offset="0"
         id="stop4669" />
      <stop
         style="stop-color:#000000;stop-opacity:0;"
         offset="1"
         id="stop4671" />
    </linearGradient>
    <linearGradient
       inkscape:collect="always"
       id="linearGradient4637"
       osb:paint="gradient">
      <stop
         style="stop-color:#ff0000;stop-opacity:1;"
         offset="0"
         id="stop4633" />
      <stop
         style="stop-color:#ff0000;stop-opacity:0;"
         offset="1"
         id="stop4635" />
    </linearGradient>
  </defs>
  <sodipodi:namedview
     id="base"
     pagecolor="#ffffff"
     bordercolor="#666666"
     borderopacity="1.0"
     inkscape:pageopacity="0.0"
     inkscape:pageshadow="2"
     inkscape:zoom="0.98994949"
     inkscape:cx="498.24881"
     inkscape:cy="782.77797"
     inkscape:document-units="mm"
     inkscape:current-layer="layer1"
     showgrid="false"
     inkscape:snap-grids="true"
     inkscape:window-width="2400"
     inkscape:window-height="1271"
     inkscape:window-x="-9"
     inkscape:window-y="0"
     inkscape:window-maximized="1" />
  <metadata
     id="metadata5">
    <rdf:RDF>
      <cc:Work
         rdf:about="">
        <dc:format>image/svg+xml</dc:format>
        <dc:type
           rdf:resource="http://purl.org/dc/dcmitype/StillImage" />
        <dc:title></dc:title>
      </cc:Work>
    </rdf:RDF>
  </metadata>
  <g
     inkscape:label="Calque 1"
     inkscape:groupmode="layer"
     id="layer1">
    <path
       style="opacity:1;fill:none;fill-opacity:0.12690358;stroke:#ffffff;stroke-width:4.04477549;stroke-linecap:butt;stroke-linejoin:miter;stroke-miterlimit:4;stroke-dasharray:none;stroke-opacity:1"
       d="m 110.76058,75.908475 5.27381,-1.477312 7.9107,1.231093 5.53751,0.984877 h 5.01011 l 3.95535,-2.21597 v 18.220174 l -2.6369,1.231092 -6.32856,-0.246223 -8.17441,-2.708407 -6.59225,1.231103 -4.21905,1.477304 z"
       id="path34"
       inkscape:connector-curvature="0" />
    <path
       style="opacity:1;fill:none;fill-opacity:0.12690358;stroke:#ffffff;stroke-width:4.04477549;stroke-linecap:butt;stroke-linejoin:miter;stroke-miterlimit:4;stroke-dasharray:none;stroke-opacity:1"
       d="m 107.20077,75.416039 -2.50508,-1.969751 -2.6369,2.092859 0.39554,22.036559 -34.411595,28.068924 H 32.576372 l -25.1824368,35.57859 57.7482018,0.36932 36.521123,-30.53111 2.6369,-0.73865 3.8235,1.10799 35.8619,30.40798 57.88006,0.12313 -24.12768,-36.19414 H 142.27158 L 107.20077,97.698817 Z"
       id="path48"
       inkscape:connector-curvature="0" />
    <path
       style="opacity:1;fill:none;fill-opacity:0.12690358;stroke:#ffffff;stroke-width:4.04477549;stroke-linecap:butt;stroke-linejoin:miter;stroke-miterlimit:4;stroke-dasharray:none;stroke-opacity:1"
       d="m 105.09123,135.24715 -37.575876,31.7622 -53.661004,-0.24622 0.263694,75.09668 -0.922918,0.98487 -2.900593,1.23109 -1.5821438,1.96975 -0.791073,3.32395 0.263691,1.96975 1.8458328,2.33907 2.768751,1.60043 2.109524,0.24622 181.023465,0.24622 3.1643,-1.47732 2.10952,-2.95462 1.18661,-2.33908 -0.79109,-2.83151 -1.58214,-2.21597 -4.35089,-2.09285 -0.26369,-74.97357 -53.13362,-0.36932 z"
       id="path50"
       inkscape:connector-curvature="0" />
    <path
       style="opacity:1;fill:none;fill-opacity:0.12690358;stroke:#ffffff;stroke-width:4.04477549;stroke-linecap:butt;stroke-linejoin:miter;stroke-miterlimit:4;stroke-dasharray:none;stroke-opacity:1"
       d="m 6.2073302,259.95687 198.5588898,0.49244 2.76874,1.72353 1.71399,2.33907 0.79107,3.44706 -1.1866,3.20085 -2.63691,1.84664 -3.29613,0.98487 -197.6359658,0.12312 -4.087202,-2.70841 -1.450297,-3.9395 1.58214,-3.44706 2.241371,-2.33908 z"
       id="path52"
       inkscape:connector-curvature="0" />
    <path
       style="opacity:1;fill:none;fill-opacity:0.12690358;stroke:#ffffff;stroke-width:4.04477549;stroke-linecap:butt;stroke-linejoin:miter;stroke-miterlimit:4;stroke-dasharray:none;stroke-opacity:1"
       d="m 103.77278,174.51902 -7.119638,-9.72564 1.18661,-2.46218 2.373208,0.36932 5.40566,8.24832 9.361,0.49245 1.714,1.84664 -1.97768,1.96974 z"
       id="path54"
       inkscape:connector-curvature="0" />
    <path
       style="opacity:1;fill:none;fill-opacity:0.12690358;stroke:#ffffff;stroke-width:4.04477549;stroke-linecap:butt;stroke-linejoin:miter;stroke-miterlimit:4;stroke-dasharray:none;stroke-opacity:1"
       d="m 25.720421,179.44339 20.172319,-0.24621 v 21.54411 l -20.040474,-0.2462 z"
       id="path56"
       inkscape:connector-curvature="0" />
    <path
       style="opacity:1;fill:none;fill-opacity:0.12690358;stroke:#ffffff;stroke-width:4.04477549;stroke-linecap:butt;stroke-linejoin:miter;stroke-miterlimit:4;stroke-dasharray:none;stroke-opacity:1"
       d="m 52.616843,179.19718 -0.263688,22.03655 21.095231,-0.36932 -0.791068,-21.1748 z"
       id="path58"
       inkscape:connector-curvature="0" />
    <path
       style="opacity:1;fill:none;fill-opacity:0.12690358;stroke:#ffffff;stroke-width:4.04477549;stroke-linecap:butt;stroke-linejoin:miter;stroke-miterlimit:4;stroke-dasharray:none;stroke-opacity:1"
       d="m 25.588577,211.20559 20.567851,-0.12312 -0.263688,21.42104 H 25.588577 Z"
       id="path60"
       inkscape:connector-curvature="0" />
    <path
       style="opacity:1;fill:none;fill-opacity:0.12690358;stroke:#ffffff;stroke-width:4.04477549;stroke-linecap:butt;stroke-linejoin:miter;stroke-miterlimit:4;stroke-dasharray:none;stroke-opacity:1"
       d="M 52.353155,211.57492 H 72.52547 l 0.131854,20.92859 -19.513095,-0.24623 z"
       id="path62"
       inkscape:connector-curvature="0" />
    <path
       style="opacity:1;fill:none;fill-opacity:0.12690358;stroke:#ffffff;stroke-width:4.04477549;stroke-linecap:butt;stroke-linejoin:miter;stroke-miterlimit:4;stroke-dasharray:none;stroke-opacity:1"
       d="m 84.523383,203.94214 17.930947,0.12312 v 37.79456 l -17.799095,-0.12311 z"
       id="path64"
       inkscape:connector-curvature="0" />
    <path
       style="opacity:1;fill:none;fill-opacity:0.12690358;stroke:#ffffff;stroke-width:4.04477549;stroke-linecap:butt;stroke-linejoin:miter;stroke-miterlimit:4;stroke-dasharray:none;stroke-opacity:1"
       d="m 107.0689,203.94214 0.26371,38.04078 h 18.19464 l -0.39553,-37.79456 z"
       id="path68"
       inkscape:connector-curvature="0" />
    <path
       style="opacity:1;fill:none;fill-opacity:0.12690358;stroke:#ffffff;stroke-width:4.04477549;stroke-linecap:butt;stroke-linejoin:miter;stroke-miterlimit:4;stroke-dasharray:none;stroke-opacity:1"
       d="m 134.88826,179.44339 -0.39555,21.42102 20.43601,-0.36932 -0.26369,-21.0517 z"
       id="path70"
       inkscape:connector-curvature="0" />
    <path
       style="opacity:1;fill:none;fill-opacity:0.12690358;stroke:#ffffff;stroke-width:4.04477549;stroke-linecap:butt;stroke-linejoin:miter;stroke-miterlimit:4;stroke-dasharray:none;stroke-opacity:1"
       d="m 161.38914,178.82784 0.39553,21.79035 20.43602,-0.24622 -0.13186,-21.66724 z"
       id="path72"
       inkscape:connector-curvature="0" />
    <path
       style="opacity:1;fill:none;fill-opacity:0.12690358;stroke:#ffffff;stroke-width:4.04477549;stroke-linecap:butt;stroke-linejoin:miter;stroke-miterlimit:4;stroke-dasharray:none;stroke-opacity:1"
       d="m 134.49271,210.71315 0.39555,21.54413 h 20.436 l -0.65923,-21.91346 z"
       id="path74"
       inkscape:connector-curvature="0" />
    <path
       style="opacity:1;fill:none;fill-opacity:0.12690358;stroke:#ffffff;stroke-width:4.04477549;stroke-linecap:butt;stroke-linejoin:miter;stroke-miterlimit:4;stroke-dasharray:none;stroke-opacity:1"
       d="m 161.52098,210.95937 -0.13186,21.66724 h 20.83155 l -0.52739,-21.66724 z"
       id="path76"
       inkscape:connector-curvature="0" />
    <ellipse
       style="opacity:1;vector-effect:none;fill:none;fill-opacity:0.12690358;fill-rule:evenodd;stroke:#ffffff;stroke-width:4.04477549;stroke-linecap:butt;stroke-linejoin:miter;stroke-miterlimit:4;stroke-dasharray:none;stroke-dashoffset:0;stroke-opacity:1"
       id="path4657"
       cx="107.3326"
       cy="170.82574"
       rx="19.117556"
       ry="16.00421" />
    <path
       style="opacity:1;fill:none;fill-opacity:0.12690358;stroke:#ffffff;stroke-width:4.04477549;stroke-miterlimit:4;stroke-dasharray:none;stroke-opacity:1"
       d="m 170.5787,161.69051 -26.43496,-0.0322 -17.93095,-15.20754 -17.93095,-15.20753 -1.85685,-0.54935 c -1.02126,-0.30213 -1.97055,-0.5487 -2.10952,-0.54794 -0.13898,6.9e-4 -0.82447,0.1624 -1.52333,0.35915 l -1.27064,0.35774 -18.242431,15.24917 -18.242457,15.24917 -23.798059,-0.15499 c -13.088934,-0.0853 -25.952574,-0.17023 -28.585865,-0.18887 l -4.7878028,-0.0339 12.4348268,-17.57254 12.434822,-17.57253 17.733184,-0.003 17.733179,-0.003 17.139877,-13.97979 c 9.426938,-7.68888 17.191226,-14.026834 17.253996,-14.084332 0.10516,-0.09624 -0.0704,-13.582486 -0.25479,-19.576601 l -0.0776,-2.523741 1.0211,-0.800211 c 0.56159,-0.440113 1.11906,-0.865535 1.23878,-0.945377 0.18313,-0.122118 0.38898,-0.0083 1.29647,0.716827 l 1.07876,0.861993 v 11.131715 11.131714 l 17.56838,14.065973 17.56837,14.06596 17.78888,0.0616 17.78886,0.0616 11.78361,17.66618 c 6.481,9.7164 11.84225,17.76313 11.91391,17.88162 0.12213,0.20196 -0.008,0.21354 -2.08275,0.18497 -1.21719,-0.0168 -14.10879,-0.045 -28.64802,-0.0627 z"
       id="path4679"
       inkscape:connector-curvature="0" />
  </g>
</svg>
