<?xml version="1.0" encoding="UTF-8" standalone="no"?>
<svg
   xmlns:dc="http://purl.org/dc/elements/1.1/"
   xmlns:cc="http://creativecommons.org/ns#"
   xmlns:rdf="http://www.w3.org/1999/02/22-rdf-syntax-ns#"
   xmlns:svg="http://www.w3.org/2000/svg"
   xmlns="http://www.w3.org/2000/svg"
   xmlns:sodipodi="http://sodipodi.sourceforge.net/DTD/sodipodi-0.dtd"
   xmlns:inkscape="http://www.inkscape.org/namespaces/inkscape"
   version="1.1"
   id="svg2"
   xml:space="preserve"
   width="1333.3333"
   height="1333.3333"
   viewBox="0 0 1333.3333 1333.3333"
   sodipodi:docname="table-set.svg"
   inkscape:version="1.0.1 (3bc2e813f5, 2020-09-07)"><metadata
     id="metadata8"><rdf:RDF><cc:Work
         rdf:about=""><dc:format>image/svg+xml</dc:format><dc:type
           rdf:resource="http://purl.org/dc/dcmitype/StillImage" /><dc:title></dc:title></cc:Work></rdf:RDF></metadata><defs
     id="defs6"><clipPath
       clipPathUnits="userSpaceOnUse"
       id="clipPath18"><path
         d="M 0,1000 H 1000 V 0 H 0 Z"
         id="path16" /></clipPath></defs><sodipodi:namedview
     pagecolor="#ffffff"
     bordercolor="#666666"
     borderopacity="1"
     objecttolerance="10"
     gridtolerance="10"
     guidetolerance="10"
     inkscape:pageopacity="0"
     inkscape:pageshadow="2"
     inkscape:window-width="2400"
     inkscape:window-height="1271"
     id="namedview4"
     showgrid="false"
     inkscape:zoom="0.62250004"
     inkscape:cx="666.66663"
     inkscape:cy="666.66663"
     inkscape:window-x="-9"
     inkscape:window-y="0"
     inkscape:window-maximized="1"
     inkscape:current-layer="g10" /><g
     id="g10"
     inkscape:groupmode="layer"
     inkscape:label="icons wedding all"
     transform="matrix(1.3333333,0,0,-1.3333333,0,1333.3333)"><g
       id="g12"
       transform="matrix(1.5849581,0,0,1.5849581,-615.46236,-279.97954)"><g
         id="g14"
         clip-path="url(#clipPath18)"><g
           id="g20"
           transform="translate(451.9771,566.2549)"><path
             d="m 0,0 c 6.355,9.479 15.093,17.037 20.947,26.861 6.814,11.436 8.886,24.566 9.664,37.651 0.853,14.363 -0.234,28.794 -0.994,43.135 -0.697,13.141 -1.217,26.29 -1.958,39.429 -0.565,9.993 -1.235,19.979 -1.946,29.962 -0.383,5.396 -0.778,10.79 -1.171,16.185 -0.226,3.101 0.357,11.326 -3.209,13.196 -8.026,4.21 -6.453,-19.38 -6.568,-22.276 C 14.126,168.079 13.71,152.022 13.422,135.948 13.208,123.941 12.49,111.971 11.966,99.979 11.797,96.101 11.5,92.153 10.418,88.41 8.626,82.215 4.692,86.039 3.578,90.47 c -1.109,4.412 -0.889,9.148 -0.85,13.659 0.057,6.805 -0.167,13.613 -0.12,20.42 0.096,13.999 0.247,27.952 -0.216,41.948 -0.255,7.692 -0.573,15.382 -0.878,23.072 -0.173,4.325 0.909,12.281 -2.362,15.869 -1.518,1.666 -3.697,2.132 -5.347,0.322 -3.498,-3.84 -2.487,-11.16 -2.673,-15.849 -0.633,-16.052 -1.211,-32.098 -1.472,-48.16 -0.247,-15.209 -0.071,-30.817 -2.354,-45.89 -0.471,-3.106 -2.31,-11.569 -5.893,-5.61 -1.648,2.741 -1.89,6.289 -2.155,9.398 -0.689,8.085 -1.033,16.252 -1.31,24.359 -0.549,16.082 -0.595,32.175 -1.178,48.257 -0.28,7.692 -0.603,15.381 -0.901,23.072 -0.139,3.561 0.091,9.011 -3.397,11.205 -7.868,4.949 -6.908,-20.347 -6.989,-22.399 -1.138,-28.689 -0.344,-57.323 -1.02,-86.007 -0.091,-3.889 -0.045,-10.697 -3.844,-13.013 -3.58,-2.182 -4.556,6.427 -4.823,8.312 -1.409,9.951 -1.373,20.574 -1.713,30.573 -0.546,16.082 -0.592,32.175 -1.178,48.257 -0.28,7.692 -0.602,15.381 -0.9,23.072 -0.124,3.222 0.332,9.394 -3.098,11.286 -6.925,3.818 -6.565,-18.022 -6.758,-20.668 -0.736,-10.133 -1.458,-20.267 -2.089,-30.406 -1.649,-26.552 -3.632,-53.329 -3.721,-79.932 -0.045,-13.513 0.892,-27.29 5.706,-40.027 4.222,-11.173 12.115,-19.128 19.753,-27.95 1.873,-2.162 3.647,-4.403 5.31,-6.729 0.65,-0.91 0.027,-3.377 -0.042,-4.47 -0.268,-4.165 -0.553,-8.328 -0.84,-12.49 -0.68,-9.862 -1.387,-19.722 -2.086,-29.581 -1.521,-21.44 -3.04,-42.881 -4.291,-64.339 -1.195,-20.49 -1.367,-40.964 -2.015,-61.474 -0.887,-28.106 -2.407,-56.193 -1.972,-84.323 0.432,-27.936 2.698,-56.006 5.289,-83.816 0.866,-9.291 2.772,-19.032 8.609,-26.566 6.018,-7.769 16.738,-9.715 25.084,-4.715 8.783,5.261 9.1,17.59 10.03,26.628 1.65,16.047 1.938,32.254 2.148,48.372 0.482,37.06 -0.47,74.13 -1.388,111.175 -0.821,33.088 -0.771,66.183 -1.291,99.275 -0.452,28.864 -0.42,58.169 -4.025,86.855 -0.316,2.516 -4.176,1.838 -3.862,-0.66 2.254,-17.947 2.748,-36.145 3.288,-54.207 0.65,-21.698 0.901,-43.407 1.09,-65.113 0.266,-30.505 0.825,-60.979 1.513,-91.477 0.848,-37.612 1.676,-75.334 0.047,-112.937 -0.524,-12.093 -0.718,-24.984 -3.994,-36.725 -2.338,-8.376 -11.235,-12.039 -19.308,-8.872 -10.243,4.017 -12.672,17.832 -13.836,27.356 -1.656,13.556 -2.352,27.301 -3.271,40.922 -0.99,14.695 -1.952,29.436 -2.219,44.164 -0.511,28.122 1.059,56.225 1.972,84.322 0.666,20.511 0.832,40.983 2.014,61.474 1.239,21.458 2.772,42.9 4.291,64.339 0.699,9.86 1.405,19.72 2.086,29.581 0.268,3.874 0.531,7.748 0.784,11.622 0.107,1.649 0.212,3.299 0.314,4.949 0.138,2.243 -1.426,3.711 -2.726,5.444 -7.369,9.829 -16.377,17.362 -21.678,28.715 -6.385,13.678 -6.707,29.724 -6.556,44.532 0.267,26.203 2.202,52.557 3.846,78.711 0.644,10.271 1.395,20.536 2.141,30.801 0.217,2.975 0.433,5.951 0.649,8.927 0.124,1.703 0.366,3.315 0.852,4.956 -0.213,0.22 -0.426,0.44 -0.639,0.659 0.332,-0.863 0.553,-1.754 0.662,-2.671 1.466,-8.229 0.835,-17.37 1.152,-25.725 0.997,-26.263 0.604,-52.634 2.692,-78.846 0.387,-4.864 1.169,-14.284 7.622,-14.824 8.019,-0.672 8.924,11.719 9.123,16.935 0.49,12.921 0.17,25.917 0.015,38.843 -0.189,15.737 0.383,31.441 1.004,47.164 0.153,3.845 0.305,7.691 0.454,11.536 0.064,1.659 0.148,3.277 0.363,4.922 0.184,1.411 0.376,3.688 1.168,1.059 1.069,-3.553 0.674,-7.724 0.82,-11.407 0.178,-4.487 0.358,-8.973 0.531,-13.459 0.618,-16.077 0.807,-32.155 1.21,-48.237 0.181,-7.256 0.508,-14.507 1.045,-21.745 0.45,-6.084 0.223,-12.206 2.872,-17.85 1.502,-3.2 4.239,-5.984 7.859,-4.833 4.206,1.337 5.209,9.799 5.74,13.306 2.294,15.148 1.899,30.971 2.147,46.251 0.261,16.058 0.883,32.1 1.517,48.148 0.138,3.493 -0.049,7.146 0.968,10.527 0.569,1.891 0.319,0.589 0.708,-0.701 0.531,-1.764 0.527,-3.853 0.596,-5.64 0.32,-8.331 0.668,-16.661 0.97,-24.994 0.515,-14.172 0.543,-28.3 0.381,-42.477 C -1.393,116.95 -1.798,105.442 -0.938,94.204 -0.586,89.62 2.485,77.799 9.729,81.22 c 5.747,2.715 5.78,12.16 6.094,17.493 0.685,11.639 1.223,23.302 1.466,34.96 0.333,16.076 0.67,32.138 1.303,48.205 0.152,3.846 0.306,7.691 0.456,11.537 0.12,3.049 -0.283,7.066 1.24,9.846 -0.365,-0.104 -0.73,-0.209 -1.095,-0.313 0.378,-0.851 0.635,-1.736 0.773,-2.655 0.328,-1.534 0.38,-3.142 0.493,-4.702 0.246,-3.379 0.492,-6.758 0.737,-10.137 1.596,-21.973 2.943,-43.95 3.969,-65.957 0.71,-15.213 1.871,-30.441 1.81,-45.678 C 26.915,58.967 25.547,43.771 18.487,30.45 12.885,19.879 3.397,12.104 -3.227,2.225 -4.631,0.13 -1.41,-2.104 0,0"
             style="fill:#000000;fill-opacity:1;fill-rule:nonzero;stroke:none"
             id="path22" /></g><g
           id="g24"
           transform="translate(435.4619,213.3579)"><path
             d="m 0,0 c -1.901,13.29 -3.674,26.493 -1.924,39.902 0.163,1.25 -1.798,1.235 -1.959,0 C -5.655,26.325 -3.814,12.929 -1.889,-0.521 -1.711,-1.768 0.177,-1.235 0,0"
             style="fill:#000000;fill-opacity:1;fill-rule:nonzero;stroke:none"
             id="path26" /></g><g
           id="g28"
           transform="translate(433.0225,252.1841)"><path
             d="m 0,0 c -4.252,4.343 -5.016,11.534 -5.604,17.274 -0.676,6.613 -0.567,13.32 -0.215,19.949 0.955,17.954 -1.407,36.604 2.871,54.204 -0.641,0.087 -1.283,0.173 -1.924,0.26 C -5.054,76.058 2.126,61.717 3.812,46.347 5.485,31.086 0.195,16.106 -1.444,1.076 c -0.137,-1.255 1.824,-1.242 1.96,0 1.656,15.191 6.471,29.835 5.255,45.271 -1.219,15.46 -8.866,29.658 -8.684,45.34 0.013,1.101 -1.661,1.342 -1.924,0.261 C -7.24,82.063 -7.513,72.098 -7.298,61.972 -7.114,53.323 -7.373,44.829 -7.832,36.205 -8.231,28.708 -8.139,21.142 -7.141,13.694 -6.439,8.455 -5.216,2.528 -1.385,-1.385 -0.5,-2.289 0.884,-0.903 0,0"
             style="fill:#000000;fill-opacity:1;fill-rule:nonzero;stroke:none"
             id="path30" /></g><g
           id="g32"
           transform="translate(434.4146,222.0107)"><path
             d="M 0,0 C -3.648,23.604 10.897,45.101 14.762,67.723 14.12,67.81 13.479,67.897 12.837,67.983 13.738,54.936 13.301,41.788 9.485,29.193 6.356,18.865 -2.509,11.145 -1.924,-0.26 c 0.064,-1.258 2.024,-1.263 1.959,0 -0.58,11.305 8.673,20.132 11.83,30.553 3.664,12.094 3.794,25.196 2.931,37.69 -0.071,1.038 -1.727,1.412 -1.923,0.261 C 8.931,45.171 -5.613,23.574 -1.889,-0.521 -1.697,-1.767 0.191,-1.235 0,0"
             style="fill:#000000;fill-opacity:1;fill-rule:nonzero;stroke:none"
             id="path34" /></g><g
           id="g36"
           transform="translate(432.8018,251.6221)"><path
             d="m 0,0 c -2.783,14.049 -2.2,28.211 -1.672,42.416 0.554,14.894 -1.531,29.977 -2.609,44.811 -0.046,0.626 -1.026,0.63 -0.98,0 C -4.18,72.346 -2.319,57.355 -2.651,42.416 -2.97,28.082 -3.755,13.928 -0.944,-0.261 -0.822,-0.88 0.123,-0.617 0,0"
             style="fill:#000000;fill-opacity:1;fill-rule:nonzero;stroke:none"
             id="path38" /></g><g
           id="g40"
           transform="translate(433.3125,228.3223)"><path
             d="m 0,0 c 5.603,17.65 12.239,35.098 14.739,53.542 0.084,0.617 -0.86,0.884 -0.945,0.26 C 11.294,35.358 4.659,17.91 -0.944,0.26 -1.136,-0.343 -0.19,-0.6 0,0"
             style="fill:#000000;fill-opacity:1;fill-rule:nonzero;stroke:none"
             id="path42" /></g><g
           id="g44"
           transform="translate(571.8887,501.3325)"><path
             d="m 0,0 c -1.96,-29.504 -8.569,-58.586 -8.906,-88.205 -0.329,-28.953 -2.204,-57.862 -2.627,-86.813 -0.414,-28.354 1.563,-56.681 3.893,-84.925 1.404,-17.005 1.447,-47.397 24.795,-48.919 14.564,-0.951 18.164,12.033 19.721,23.187 2.112,15.133 2.394,30.57 2.685,45.822 0.707,37.145 -0.311,74.316 -1.27,111.448 -0.527,20.383 -1.191,40.677 -2.863,61.013 -1.323,16.092 -2.768,32.178 -3.165,48.327 -0.396,16.061 -0.349,32.145 -0.475,48.21 -0.252,32.256 -0.711,64.537 -0.374,96.793 0.335,32.046 1.979,64.063 2.346,96.108 0.178,15.627 0.114,31.264 0.034,46.891 -0.051,10.055 0.939,20.385 -3.502,29.707 -3.293,6.913 -10.104,10.082 -16.775,5.35 -9.66,-6.851 -13.717,-18.492 -17.229,-29.263 -9.082,-27.855 -13.834,-56.913 -15.565,-86.115 -1.863,-31.414 -0.962,-63.064 -1.695,-94.526 -0.461,-19.792 -1.082,-39.583 -1.933,-59.362 -0.216,-5.012 -0.467,-10.022 -0.745,-15.03 -0.229,-4.104 2.048,-4.587 5.337,-6.943 C -11.799,8.09 -5.338,3.322 0.839,-1.784 2.786,-3.393 5,-0.157 3.064,1.442 c -7.631,6.308 -15.683,12.102 -23.759,17.82 0.28,-0.595 0.559,-1.189 0.84,-1.784 1.837,31.796 2.589,63.67 3.192,95.51 0.588,31.018 -0.39,62.175 2.699,93.083 1.509,15.101 4.051,30.092 7.59,44.848 3.219,13.422 6.562,28.303 13.659,40.271 2.64,4.452 7.419,11.253 13.209,11.326 4.763,0.06 7.162,-7.046 8.191,-10.656 1.405,-4.931 1.096,-10.09 1.149,-15.162 0.085,-8.088 0.095,-16.176 0.096,-24.264 0.006,-31.811 -0.842,-63.56 -1.763,-95.355 -0.933,-32.216 -0.681,-64.425 -0.493,-96.649 0.184,-31.495 -0.426,-63.169 1.317,-94.622 1.494,-26.954 4.421,-53.727 5.064,-80.735 0.846,-35.487 1.912,-70.969 1.794,-106.47 -0.057,-17.228 -0.304,-34.497 -1.613,-51.682 -0.726,-9.535 -0.104,-24.647 -9.615,-30.112 -12.404,-7.128 -22.142,5.801 -25.003,16.245 -3.031,11.065 -3.053,23.2 -3.953,34.568 -2.209,27.873 -3.751,55.725 -3.178,83.691 0.574,27.916 2.133,55.794 2.557,83.717 0.431,28.375 6.98,56.345 8.86,84.628 C 4.071,2.179 0.168,2.525 0,0"
             style="fill:#000000;fill-opacity:1;fill-rule:nonzero;stroke:none"
             id="path46" /></g><g
           id="g48"
           transform="translate(586.4482,213.3579)"><path
             d="m 0,0 c -1.901,13.29 -3.674,26.493 -1.924,39.902 0.163,1.25 -1.798,1.235 -1.959,0 C -5.655,26.325 -3.814,12.929 -1.889,-0.521 -1.711,-1.768 0.177,-1.235 0,0"
             style="fill:#000000;fill-opacity:1;fill-rule:nonzero;stroke:none"
             id="path50" /></g><g
           id="g52"
           transform="translate(584.0078,252.1841)"><path
             d="m 0,0 c -4.252,4.343 -5.017,11.534 -5.604,17.274 -0.675,6.613 -0.566,13.32 -0.214,19.949 0.956,17.954 -1.408,36.604 2.871,54.204 -0.642,0.087 -1.283,0.173 -1.925,0.26 C -5.053,76.058 2.127,61.717 3.813,46.347 5.486,31.086 0.196,16.106 -1.443,1.076 c -0.137,-1.255 1.824,-1.242 1.959,0 1.657,15.191 6.472,29.835 5.255,45.271 -1.218,15.46 -8.865,29.658 -8.683,45.34 0.013,1.101 -1.661,1.342 -1.924,0.261 C -7.239,82.063 -7.513,72.098 -7.297,61.972 -7.113,53.323 -7.373,44.829 -7.831,36.205 -8.23,28.708 -8.138,21.142 -7.141,13.694 -6.439,8.455 -5.216,2.528 -1.386,-1.385 -0.5,-2.289 0.884,-0.903 0,0"
             style="fill:#000000;fill-opacity:1;fill-rule:nonzero;stroke:none"
             id="path54" /></g><g
           id="g56"
           transform="translate(585.3999,222.0107)"><path
             d="M 0,0 C -3.648,23.604 10.898,45.101 14.763,67.723 14.121,67.81 13.48,67.897 12.838,67.983 13.739,54.936 13.302,41.788 9.486,29.193 6.357,18.865 -2.509,11.145 -1.924,-0.26 c 0.064,-1.258 2.024,-1.263 1.959,0 -0.58,11.305 8.673,20.132 11.831,30.553 3.664,12.094 3.794,25.196 2.931,37.69 -0.071,1.038 -1.727,1.412 -1.924,0.261 C 8.931,45.171 -5.614,23.574 -1.889,-0.521 -1.697,-1.767 0.191,-1.235 0,0"
             style="fill:#000000;fill-opacity:1;fill-rule:nonzero;stroke:none"
             id="path58" /></g><g
           id="g60"
           transform="translate(583.7871,251.6221)"><path
             d="m 0,0 c -2.783,14.049 -2.199,28.211 -1.671,42.416 0.554,14.894 -1.532,29.977 -2.61,44.811 -0.046,0.626 -1.026,0.63 -0.98,0 C -4.179,72.346 -2.318,57.355 -2.65,42.416 -2.97,28.082 -3.755,13.928 -0.944,-0.261 -0.822,-0.88 0.122,-0.617 0,0"
             style="fill:#000000;fill-opacity:1;fill-rule:nonzero;stroke:none"
             id="path62" /></g><g
           id="g64"
           transform="translate(584.2979,228.3223)"><path
             d="m 0,0 c 5.604,17.649 12.239,35.098 14.739,53.542 0.083,0.617 -0.86,0.884 -0.945,0.26 C 11.294,35.358 4.66,17.91 -0.944,0.26 -1.136,-0.343 -0.19,-0.6 0,0"
             style="fill:#000000;fill-opacity:1;fill-rule:nonzero;stroke:none"
             id="path66" /></g></g></g></g></svg>
