<?xml version="1.0" encoding="UTF-8" standalone="no"?>
<!-- Generator: Adobe Illustrator 19.0.0, SVG Export Plug-In . SVG Version: 6.00 Build 0)  -->

<svg
   xmlns:dc="http://purl.org/dc/elements/1.1/"
   xmlns:cc="http://creativecommons.org/ns#"
   xmlns:rdf="http://www.w3.org/1999/02/22-rdf-syntax-ns#"
   xmlns:svg="http://www.w3.org/2000/svg"
   xmlns="http://www.w3.org/2000/svg"
   xmlns:sodipodi="http://sodipodi.sourceforge.net/DTD/sodipodi-0.dtd"
   xmlns:inkscape="http://www.inkscape.org/namespaces/inkscape"
   version="1.1"
   id="Capa_1"
   x="0px"
   y="0px"
   viewBox="0 0 512 512"
   style="enable-background:new 0 0 512 512;"
   xml:space="preserve"
   sodipodi:docname="wedding-rings-white.svg"
   inkscape:version="0.92.4 (5da689c313, 2019-01-14)"><metadata
   id="metadata112"><rdf:RDF><cc:Work
       rdf:about=""><dc:format>image/svg+xml</dc:format><dc:type
         rdf:resource="http://purl.org/dc/dcmitype/StillImage" /><dc:title></dc:title></cc:Work></rdf:RDF></metadata><defs
   id="defs110" /><sodipodi:namedview
   pagecolor="#ffffff"
   bordercolor="#666666"
   borderopacity="1"
   objecttolerance="10"
   gridtolerance="10"
   guidetolerance="10"
   inkscape:pageopacity="0"
   inkscape:pageshadow="2"
   inkscape:window-width="2400"
   inkscape:window-height="1271"
   id="namedview108"
   showgrid="false"
   inkscape:zoom="0.4609375"
   inkscape:cx="256"
   inkscape:cy="256"
   inkscape:window-x="-9"
   inkscape:window-y="0"
   inkscape:window-maximized="1"
   inkscape:current-layer="Capa_1" />
<g
   id="g75"
   style="fill:#ffffff">
	<g
   id="g73"
   style="fill:#ffffff">
		<path
   d="M375.716,136.378C351.802,57.561,278.521,0,192,0C86.135,0,0,86.135,0,192c0,84.669,55.78,159.229,136.285,183.625    C160.199,454.443,233.479,512,320,512c105.865,0,192-86.135,192-192C512,235.367,456.207,160.755,375.716,136.378z M21.333,192    C21.333,97.896,97.896,21.333,192,21.333S362.667,97.896,362.667,192c0,91.63-72.643,166.415-163.336,170.296    c-2.385-6.784-4.201-13.81-5.419-21.059c81.456-1.039,147.422-67.539,147.422-149.237c0-82.344-66.99-149.333-149.333-149.333    S42.667,109.656,42.667,192c0,58.143,33.517,110.079,85.674,134.728c0.292,8.323,1.113,16.497,2.435,24.522    C65.573,326.198,21.333,263.092,21.333,192z M383.145,208.868C422.902,231.435,448,273.445,448,320c0,70.583-57.417,128-128,128    c-47.613,0-89.152-26.181-111.201-64.852C301.243,375.081,375.044,301.303,383.145,208.868z M192,320c0-70.583,57.417-128,128-128    C320,262.583,262.583,320,192,320z M128.854,303.138C89.081,280.582,64,238.594,64,192c0-70.583,57.417-128,128-128    c47.613,0,89.152,26.181,111.201,64.852C210.754,136.919,136.951,210.701,128.854,303.138z M320,490.667    c-94.104,0-170.667-76.563-170.667-170.667c0-91.63,72.643-166.415,163.336-170.296c2.385,6.784,4.201,13.81,5.419,21.059    C236.633,171.802,170.667,238.302,170.667,320c0,82.344,66.99,149.333,149.333,149.333S469.333,402.344,469.333,320    c0-58.1-33.533-110.1-85.674-134.741c-0.29-8.324-1.115-16.499-2.438-24.523C446.414,185.788,490.667,248.93,490.667,320    C490.667,414.104,414.104,490.667,320,490.667z"
   id="path71"
   style="fill:#ffffff" />
	</g>
</g>
<g
   id="g77">
</g>
<g
   id="g79">
</g>
<g
   id="g81">
</g>
<g
   id="g83">
</g>
<g
   id="g85">
</g>
<g
   id="g87">
</g>
<g
   id="g89">
</g>
<g
   id="g91">
</g>
<g
   id="g93">
</g>
<g
   id="g95">
</g>
<g
   id="g97">
</g>
<g
   id="g99">
</g>
<g
   id="g101">
</g>
<g
   id="g103">
</g>
<g
   id="g105">
</g>
</svg>